<svg xmlns="http://www.w3.org/2000/svg" width="176" height="152" viewBox="0 0 176 152">
  <defs>
    <style>
      .cls-1, .cls-3 {
        fill: none;
      }

      .cls-1 {
        opacity: 0.311;
      }

      .cls-2 {
        fill: #0933b3;
      }
    </style>
  </defs>
  <g id="그룹_6423" data-name="그룹 6423" transform="translate(-586 -1246)">
    <g id="그룹_6418" data-name="그룹 6418" transform="translate(-76 -26)">
      <g id="그룹_6252" data-name="그룹 6252" transform="translate(685.52 1336.699)">
        <path id="사각형_4370" data-name="사각형 4370" class="cls-1" d="M0,0H136.177V26H0Z" transform="translate(0 0.879)"/>
        <g id="그룹_70673" data-name="그룹 70673" transform="translate(0 4.59)">
          <g id="그룹_6" data-name="그룹 6" transform="translate(0 0.027)">
            <path id="패스_1" data-name="패스 1" class="cls-2" d="M-486.157,295.662c0,3.939-3.162,6.512-7.073,6.512h-9.2V279.938h8.577c3.818,0,6.916,2.509,6.916,6.351a5.6,5.6,0,0,1-1.909,4.352,5.763,5.763,0,0,1,2.692,5.021ZM-497.425,284.7v3.939h3.568a1.834,1.834,0,0,0,1.381-.56,1.891,1.891,0,0,0,.528-1.41,1.875,1.875,0,0,0-.522-1.416,1.817,1.817,0,0,0-1.387-.554Zm6.258,10.579a2.025,2.025,0,0,0-.565-1.531,1.963,1.963,0,0,0-1.5-.6h-4.194v4.256h4.194a1.963,1.963,0,0,0,1.5-.6,2.025,2.025,0,0,0,.565-1.532Z" transform="translate(502.433 -279.493)"/>
            <path id="패스_2" data-name="패스 2" class="cls-2" d="M-351.854,297.282v4.891h-12.833V279.938h5.008v17.344Z" transform="translate(408.133 -279.493)"/>
            <path id="패스_3" data-name="패스 3" class="cls-2" d="M-312.684,284.831h-5.634v17.344h-5.008V284.831h-5.634v-4.893h16.276Z" transform="translate(383.674 -279.493)"/>
            <path id="패스_4" data-name="패스 4" class="cls-2" d="M-262.917,302.039l-1.941-2.126a9.631,9.631,0,0,1-5.665,1.742c-4.507,0-7.824-2.507-7.824-6.7a7.547,7.547,0,0,1,3.505-6.38,6.82,6.82,0,0,1-.908-3.523c0-3.745,2.848-6.506,7.043-6.506a7.441,7.441,0,0,1,7.2,4.853l-4.288,2.507c-.563-1.493-1.439-2.413-2.848-2.413a1.883,1.883,0,0,0-1.451.469,1.938,1.938,0,0,0-.646,1.4c0,1.238.751,2.063,1.718,3.142l4.038,4.539a16.978,16.978,0,0,0,1.033-3.492l4.194,2.413a16.407,16.407,0,0,1-2,4.666l2.755,3.111Zm-5.009-5.523-4.006-4.38-.188-.19a3.148,3.148,0,0,0-1.158,2.476c0,1.493.939,2.6,3.161,2.6a4.555,4.555,0,0,0,2.193-.509Z" transform="translate(349.026 -278.544)"/>
            <path id="패스_5" data-name="패스 5" class="cls-2" d="M-191.862,279.938v22.237h-3.756l-8.456-12.073v12.07h-5.008V279.938h3.756l8.45,12.072V279.938Z" transform="translate(301.603 -279.494)"/>
            <path id="패스_6" data-name="패스 6" class="cls-2" d="M-66.764,284.831H-72.4v17.344h-5.008V284.831H-83.04v-4.893h16.276Z" transform="translate(215.32 -279.493)"/>
            <g id="그룹_1" data-name="그룹 1" transform="translate(113.26 0.607)">
              <path id="패스_7" data-name="패스 7" class="cls-2" d="M-136.41,297.656a2.886,2.886,0,0,1-1.734-2.647V280.453h-5.2v15.075a7.285,7.285,0,0,0,6.932,7.3Z" transform="translate(143.344 -280.453)"/>
              <path id="패스_8" data-name="패스 8" class="cls-2" d="M-109.321,280.453v14.555a2.878,2.878,0,0,1-2.048,2.759v5.065a7.285,7.285,0,0,0,6.932-7.3V280.453Z" transform="translate(121.453 -280.453)"/>
            </g>
          </g>
          <g id="그룹_7" data-name="그룹 7" transform="translate(17.759 0)">
            <path id="패스_9" data-name="패스 9" class="cls-2" d="M-431.533,307.006a6.425,6.425,0,0,1-3.231.871,6.46,6.46,0,0,1-6.46-6.46,6.426,6.426,0,0,1,.563-2.63l-3.735-3.364a11.289,11.289,0,0,0-1.718,5.994,11.345,11.345,0,0,0,11.345,11.345,11.288,11.288,0,0,0,6.966-2.394Z" transform="translate(446.113 -289.742)"/>
            <path id="패스_10" data-name="패스 10" class="cls-2" d="M-429.59,284.44a6.43,6.43,0,0,1,3.607-1.1,6.46,6.46,0,0,1,6.46,6.46,6.428,6.428,0,0,1-.755,3.026l3.694,3.326a11.287,11.287,0,0,0,1.945-6.352,11.345,11.345,0,0,0-11.345-11.345,11.3,11.3,0,0,0-7.3,2.661Z" transform="translate(437.33 -278.451)"/>
          </g>
        </g>
        <rect id="사각형_5999" data-name="사각형 5999" class="cls-3" width="148.372" height="31.522" transform="translate(0 0)"/>
      </g>
      <path id="다각형_175" data-name="다각형 175" class="cls-2" d="M4.741,0,9.483,14.224H0Z" transform="matrix(-0.934, 0.358, -0.358, -0.934, 684.473, 1335.782)"/>
      <path id="다각형_176" data-name="다각형 176" class="cls-2" d="M4.267,0,8.534,9.483H0Z" transform="translate(676.452 1336.543) rotate(97)"/>
    </g>
    <rect id="사각형_7618" data-name="사각형 7618" class="cls-3" width="176" height="152" transform="translate(586 1246)"/>
  </g>
</svg>
