<svg xmlns="http://www.w3.org/2000/svg" width="29" height="29" viewBox="0 0 29 29">
    <g>
        <g fill="#fff" stroke="#e1e2e4" transform="translate(-564 -777) translate(564 777)">
            <circle cx="14.5" cy="14.5" r="14.5" stroke="none"/>
            <circle cx="14.5" cy="14.5" r="14" fill="none"/>
        </g>
        <path fill="#0933b3" d="M-495.36 286.771a2.865 2.865 0 0 1-3.074 2.83h-4v-9.663h3.727a2.8 2.8 0 0 1 3.006 2.76 2.435 2.435 0 0 1-.83 1.891 2.5 2.5 0 0 1 1.17 2.182zm-4.9-4.762v1.712h1.551a.8.8 0 0 0 .6-.243.822.822 0 0 0 .23-.613.815.815 0 0 0-.227-.616.79.79 0 0 0-.6-.241zm2.719 4.6a.88.88 0 0 0-.246-.665.854.854 0 0 0-.652-.26h-1.823v1.85h1.823a.853.853 0 0 0 .652-.259.88.88 0 0 0 .246-.666z" transform="translate(-564 -777) translate(1077.432 507.062)"/>
    </g>
</svg>
