<svg xmlns="http://www.w3.org/2000/svg" width="223" height="150" viewBox="0 0 223 150">
    <defs>
        <clipPath id="clip-path">
            <path id="패스_8723" d="M522.517 1095.148l-33 .009a18.962 18.962 0 0 1-24.024 12.171v18.231c0 28.252 14.566 53.249 40.446 60.638 25.88-7.389 41.238-32.386 41.238-60.638l-.047-17.534a.98.98 0 0 0-1.075-.8 17.436 17.436 0 0 1-4.781.927 17.85 17.85 0 0 1-18.051-12.416.929.929 0 0 0-.706-.588z" class="cls-1" transform="translate(-465.495 -1095.148)"/>
        </clipPath>
        <style>
            .cls-1{fill:none}.cls-2{fill:#eee}.cls-3{fill:#426edc}.cls-4{fill:#3959b5}.cls-7{fill:#c1c8d2}.cls-10{fill:#5f6c77}
        </style>
    </defs>
    <g id="그룹_6427" transform="translate(-849 -2703)">
        <g id="그룹_6389" transform="translate(479.135 1640.409)">
            <path id="패스_4473" d="M584.326 1147.2c0-16.507-13.714-30.142-31.49-32.268-1.143-17.058-16.946-30.575-36.273-30.575-16.742 0-30.837 10.143-35.055 23.941a58.067 58.067 0 0 0-24.764-5.391c-26.762 0-48.457 17.2-48.457 38.425 0 11.859 6.777 22.463 17.426 29.512 14.571 12.329 42.164 20.65 73.81 20.65 46.835 0 84.8-18.22 84.8-40.7 0-.534-.028-1.064-.07-1.592.047-.659.073-1.328.073-2.002z" class="cls-2" transform="translate(-7.997)"/>
            <path id="패스_4475" d="M565.2 1121.854c0 6.8 6.295 12.323 14.1 12.422.191.236.38.485.586.71a2.037 2.037 0 0 0 .543.416l2.8.928a3.427 3.427 0 0 0 1.41.167c.873.048 1.795.685 2.669.719q2.324.092 4.647.1a69.285 69.285 0 0 0 9.825-.5 2.1 2.1 0 0 0 .544-.144 13.977 13.977 0 0 0 2.48-.776s.542-.544 1.459-1.68c1.12-1.378 3.038-4.183 3.038-6.711 0-5.083-3.418-9.2-7.633-9.2-3.043 0-5.67 2.147-6.9 5.254-.035.056-.071.109-.105.166a.168.168 0 0 1-.312-.081 15.8 15.8 0 0 0-.937-4.708c-1.517-5.449-7.167-9.5-13.91-9.5-6.6 0-12.152 3.881-13.807 9.155l-.066.076c-.1.122-.475.46-.437.6.019.075.171.186.254.255a10.849 10.849 0 0 0-.248 2.332z" class="cls-3" transform="translate(-64.395 -8.559)"/>
            <path id="패스_8702" d="M602.37 1140.782a2.13 2.13 0 0 1-.544.143 69.392 69.392 0 0 1-9.824.5 41.573 41.573 0 0 1-9.525-.8c-.824-.193-1.645-.4-2.458-.634-4.972-1.443-10.763-3.958-13.342-8.731a11.163 11.163 0 0 1-1.321-4.369c-.026.306-.044.614-.045.923a11.079 11.079 0 0 0 1.366 5.3c2.579 4.774 8.369 7.288 13.342 8.731.813.236 1.634.441 2.458.634a41.587 41.587 0 0 0 9.525.8 69.392 69.392 0 0 0 9.824-.5 2.146 2.146 0 0 0 .544-.144c3.908-.4 6.977-4.351 6.977-9.167 0-.315-.014-.625-.039-.932-.363 4.39-3.283 7.87-6.938 8.246z" class="cls-4" transform="translate(-64.434 -14.523)"/>
            <g id="그룹_6378" transform="translate(436.651 1091.451)">
                <path id="패스_8703" fill="#f6f7f9" d="M522.177 1096.628H488.82a18.8 18.8 0 0 1-23.825 12.071v18.079c0 28.018 14.838 51.646 40.5 58.974 25.666-7.327 40.5-30.956 40.5-58.974V1108.7a18.806 18.806 0 0 1-23.825-12.071z" transform="translate(-464.007 -1095.64)"/>
                <path id="패스_8704" fill="#798591" d="M504.986 1186.228a.96.96 0 0 1-.271-.039 54.011 54.011 0 0 1-30.427-22.128c-7.062-10.54-10.794-23.61-10.794-37.8v-18.08a.988.988 0 0 1 1.3-.937 17.818 17.818 0 0 0 22.573-11.436.988.988 0 0 1 .941-.685h33.357a.988.988 0 0 1 .941.685 17.818 17.818 0 0 0 22.573 11.436.988.988 0 0 1 1.3.937v18.08c0 14.186-3.732 27.255-10.794 37.8a54.011 54.011 0 0 1-30.426 22.128.961.961 0 0 1-.273.039zm-39.515-76.721v16.759c0 28.678 15.132 50.853 39.515 57.946 24.384-7.093 39.516-29.268 39.516-57.946v-16.759a19.8 19.8 0 0 1-23.543-12.4h-31.945a19.8 19.8 0 0 1-23.543 12.4z" transform="translate(-463.495 -1095.128)"/>
            </g>
            <g id="그룹_6379" transform="translate(448.68 1104.18)">
                <path id="패스_8705" d="M511.726 1114.955h-12.1a13.711 13.711 0 0 1-17.372 8.8v13.182a54.5 54.5 0 0 0 .96 10.245h28.507z" class="cls-3" transform="translate(-481.93 -1114.626)"/>
                <path id="패스_8706" d="M511.555 1147.342h-28.507a.33.33 0 0 1-.323-.268 55.02 55.02 0 0 1-.966-10.307v-13.182a.33.33 0 0 1 .137-.267.324.324 0 0 1 .3-.045 13.382 13.382 0 0 0 16.954-8.59.33.33 0 0 1 .313-.229h12.1a.329.329 0 0 1 .329.329v32.229a.329.329 0 0 1-.337.33zm-28.234-.659h27.9v-31.57H499.7a14.039 14.039 0 0 1-17.28 8.92v12.734a54.386 54.386 0 0 0 .901 9.916z" class="cls-3" transform="translate(-481.759 -1114.455)"/>
            </g>
            <g id="그룹_6380" transform="translate(478.147 1104.18)">
                <path id="패스_8707" d="M555.638 1147.184a54.454 54.454 0 0 0 .96-10.245v-13.182a13.71 13.71 0 0 1-17.371-8.8H527v32.229z" class="cls-7" transform="translate(-526.671 -1114.626)"/>
                <path id="패스_8708" d="M555.468 1147.342h-28.639a.33.33 0 0 1-.329-.329v-32.229a.329.329 0 0 1 .329-.329h12.226a.331.331 0 0 1 .314.229 13.382 13.382 0 0 0 16.954 8.59.325.325 0 0 1 .3.045.33.33 0 0 1 .137.267v13.182a55.02 55.02 0 0 1-.966 10.307.33.33 0 0 1-.326.267zm-28.309-.659h28.036a54.381 54.381 0 0 0 .9-9.916v-12.734a14.039 14.039 0 0 1-17.28-8.92h-11.66z" class="cls-7" transform="translate(-526.5 -1114.455)"/>
            </g>
            <g id="그룹_6381" transform="translate(478.147 1136.409)">
                <path id="패스_8709" fill="#3f65e1" d="M527 1163.889v32.734l.065.021c15.483-4.42 25.555-16.98 28.573-32.754z" transform="translate(-526.671 -1163.56)"/>
                <path id="패스_8710" fill="#174aee" d="M526.895 1196.8a.334.334 0 0 1-.092-.012.423.423 0 0 1-.3-.337v-32.734a.329.329 0 0 1 .329-.329h28.638a.33.33 0 0 1 .323.391c-3.189 16.662-13.688 28.693-28.806 33.009a.319.319 0 0 1-.092.012zm.264-32.754v32.005c14.563-4.3 24.707-15.929 27.909-32.005z" transform="translate(-526.5 -1163.389)"/>
            </g>
            <g id="그룹_6382" transform="translate(449.64 1136.409)">
                <path id="패스_8711" d="M483.716 1163.889c3.015 15.751 13.062 28.3 28.507 32.734v-32.734z" class="cls-7" transform="translate(-483.387 -1163.56)"/>
                <path id="패스_8712" d="M512.053 1196.782a.331.331 0 0 1-.091-.013c-15.082-4.333-25.558-16.357-28.74-32.989a.329.329 0 0 1 .323-.391h28.507a.329.329 0 0 1 .329.329v32.734a.33.33 0 0 1-.329.329zm-28.108-32.734c3.192 16.021 13.287 27.637 27.778 31.965v-31.965z" class="cls-7" transform="translate(-483.216 -1163.389)"/>
            </g>
            <g id="그룹_6384" transform="translate(517.71 1133.128)">
                <g id="그룹_6383" transform="translate(0 0)">
                    <path id="패스_8713" d="M623.817 1184.477h-30.05v-11.045a15.044 15.044 0 0 1 15.025-15.026 15.044 15.044 0 0 1 15.025 15.026zm-25.829-4.221H619.6v-6.823a10.8 10.8 0 1 0-21.607 0z" class="cls-7" transform="translate(-589.027 -1158.407)"/>
                    <path id="패스_8609" d="M621.388 1191.533h-30.11a4.709 4.709 0 0 0-4.708 4.707v18.979a4.708 4.708 0 0 0 4.707 4.708h30.111a4.707 4.707 0 0 0 4.708-4.707v-18.979a4.708 4.708 0 0 0-4.707-4.708zm-13.639 14.8v3.619a1.37 1.37 0 0 1-2.739 0v-3.623a3.6 3.6 0 1 1 2.739 0z" class="cls-3" transform="translate(-586.57 -1169.716)"/>
                </g>
                <path id="패스_8714" d="M636.841 1183.275c.43 0 .48.009.955.009v-6.855a14.942 14.942 0 0 0-3.082-9.1 14.928 14.928 0 0 1 1.814 7.151v8.807" class="cls-10" transform="translate(-603.006 -1161.452)"/>
                <path id="패스_8715" d="M624.763 1193.49a4.7 4.7 0 0 1 .25 1.5v18.979a4.708 4.708 0 0 1-4.708 4.707h-30.11a4.685 4.685 0 0 1-3.195-1.246 4.707 4.707 0 0 0 4.458 3.2h30.11a4.709 4.709 0 0 0 4.708-4.707v-18.979a4.692 4.692 0 0 0-1.513-3.454z" class="cls-4" transform="translate(-586.719 -1170.384)"/>
                <path id="패스_8716" d="M599.578 1175.155a10.793 10.793 0 0 1 18.19-7.871 9.378 9.378 0 0 0-7.955-3.8c-5.956 0-11.381 4.46-11.381 10.417v8.057h1.147z" class="cls-10" transform="translate(-590.619 -1160.139)"/>
            </g>
            <g id="그룹_6385" transform="translate(450.807 1107.786)">
                <path id="패스_8717" d="M527.459 1140.659l16.831-16.8a13.89 13.89 0 0 1-3.716-3.93l-13.115 13.115z" class="cls-2" transform="translate(-499.488 -1119.93)"/>
                <path id="패스_8718" d="M555.989 1129.427l-22.834 22.166h7.614l17.628-17.93v-4.829a10.91 10.91 0 0 1-2.408.593z" class="cls-2" transform="translate(-501.432 -1122.969)"/>
                <path id="패스_8719" d="M515.377 1164.333h-4.783l-16.731 16.1a40.114 40.114 0 0 0 3.3 4.317l18.217-18.528z" class="cls-2" transform="translate(-488.018 -1135.088)"/>
                <path id="패스_8720" d="M520.225 1184.858l-12.16 12.471a38.088 38.088 0 0 0 4.664 2.949l7.5-7.807z" class="cls-2" transform="translate(-492.867 -1142.096)"/>
                <path id="패스_8721" d="M487.967 1164.348l-2.978 2.978a47.117 47.117 0 0 0 1.923 5.69l8.668-8.668z" class="cls-2" transform="translate(-484.989 -1135.094)"/>
            </g>
            <g id="그룹_6386" transform="translate(384.863 1144.965)">
                <path id="패스_4474" fill="#cae8f6" d="M384.863 1203.715c0 8.059 6.25 14.594 13.961 14.594.214 0 .421-.008.638-.018.178.008.358.018.541.018h52.171a69.158 69.158 0 0 0 7.217 0c.075-.008.149-.023.223-.037.319.021.645.037.969.037 8.079 0 14.626-6.848 14.626-15.3s-6.55-15.3-14.626-15.3a14.015 14.015 0 0 0-6.066 1.379c-.055-.036-.088-.063-.088-.063s-1.315-1.89-2-2.708a27.159 27.159 0 0 0-2.43-2.538 28.446 28.446 0 0 0-15.043-7.249 23.171 23.171 0 0 0-17.958 5.6c-3.944 3.566-5.7 8.954-6.176 14.125a13.846 13.846 0 0 0-12-7.137c-7.722.004-13.959 6.538-13.959 14.597z" transform="translate(-384.863 -1176.379)"/>
                <path id="패스_8722" fill="#b5dbea" d="M460.585 1226.952c-.325 0-.65-.015-.969-.037-.074.015-.148.03-.223.037a68.692 68.692 0 0 1-7.217 0H400c-.184 0-.364-.01-.541-.017-.217.01-.424.017-.638.017A14.18 14.18 0 0 1 385 1214.407a15.468 15.468 0 0 0-.14 2.05c0 8.06 6.25 14.594 13.961 14.594.214 0 .421-.008.638-.018.178.008.358.018.541.018h52.171a69.091 69.091 0 0 0 7.217 0c.075-.008.149-.023.223-.037.319.021.645.037.969.037 8.079 0 14.626-6.848 14.626-15.3a16.172 16.172 0 0 0-.134-2.049 14.861 14.861 0 0 1-14.487 13.25z" transform="translate(-384.863 -1189.121)"/>
            </g>
            <g id="그룹_6388" transform="translate(437.305 1091.464)">
                <g id="그룹_6387" clip-path="url(#clip-path)">
                    <path id="패스_8725" fill="#798591" d="M0 0h55.742v122.426H0z" transform="translate(41.841 -30.647)" style="mix-blend-mode:darken;isolation:isolate" opacity="0.18"/>
                </g>
            </g>
        </g>
        <path id="사각형_7623" d="M0 0H223V150H0z" class="cls-1" transform="translate(849 2703)"/>
    </g>
</svg>
