<svg xmlns="http://www.w3.org/2000/svg" width="223" height="150" viewBox="0 0 223 150">
    <defs>
        <style>
            .cls-1{fill:#f29785}.cls-3{fill:#3959b5}.cls-5{fill:#00203a}.cls-6{fill:#426edc}.cls-7{fill:#c1c8d2}.cls-8{fill:#142d3e}.cls-21{fill:none;stroke-linecap:round;stroke-miterlimit:10}.cls-12{fill:#fff6fb}.cls-13{fill:#9da3aa}.cls-14{fill:#555963}.cls-16{fill:#99a2aa}.cls-17{fill:#798591}.cls-18{fill:#5c666d}.cls-21{stroke:#a4aab4;stroke-width:.4px}.cls-23{fill:#67afd3}.cls-24{fill:#cae8f6}.cls-27{fill:#989fa5}.cls-28{fill:#efe6eb}
        </style>
    </defs>
    <g id="그룹_6428" transform="translate(-1204 -2703)">
        <g id="그룹_6259" transform="translate(34.113 -704.216)">
            <path id="패스_8626" d="M2901.886 1776.845a1.749 1.749 0 0 0-1.1-.516c-.321-1.01-1.774-1.772-3.52-1.772s-3.186.755-3.517 1.757h-.022c-1.19 2.2 0 13.578 0 13.578.729 2.183 4.962 3.439 4.962 3.439 2.18.727 6.349-3.637 6.349-3.637.793-1.124.925-5.819.925-5.819.552-5.751-4.077-7.031-4.077-7.03z" class="cls-1" transform="translate(-1607.838 1654.209)"/>
            <path id="패스_3400" fill="#b8bcc1" d="M2859.326 1840.292l-6.162 16.61-13.935 2.494v3.452l24.348.062z" transform="translate(-1575.384 1614.682)"/>
            <path id="패스_3401" d="M2954.19 1812.6h-21.826a4.218 4.218 0 0 0-4.216 4.219c0 .127.006.255.018.382l3.11 33.907a15.076 15.076 0 0 1-.122 3.74l-2.639 16.719a4.215 4.215 0 0 0 4.164 4.874h26.106a4.215 4.215 0 0 0 4.166-3.574l2.95-19.129a4.229 4.229 0 0 0-.041-1.5l-7.543-36.282a4.215 4.215 0 0 0-4.127-3.356z" class="cls-3" transform="translate(-1628.854 1631.334)"/>
            <path id="사각형_4221" fill="#aeb4aa" d="M0 0H2.425V12.918H0z" transform="translate(1306.747 3522.808)"/>
            <path id="사각형_4222" d="M0 0H5.29V3.13H0z" class="cls-5" transform="translate(1305.315 3535.726)"/>
            <path id="패스_8627" d="M2940.186 1966.323h-20.234a2.47 2.47 0 0 0-2.47 2.47v4.406a2.471 2.471 0 0 0 2.47 2.47h5.333v7.662a.582.582 0 0 0 .582.582h1.624V1988a.582.582 0 0 0 .583.583h4.655a.583.583 0 0 0 .582-.583v-4.089h1.621a.582.582 0 0 0 .582-.582v-7.662h4.673a2.47 2.47 0 0 0 2.47-2.47v-4.406a2.47 2.47 0 0 0-2.471-2.468z" class="cls-3" transform="translate(-1622.439 1538.896)"/>
            <circle id="타원_1100" cx="2.414" cy="2.414" r="2.414" class="cls-5" transform="translate(1284.648 3541.988)"/>
            <circle id="타원_1101" cx="2.414" cy="2.414" r="2.414" class="cls-5" transform="translate(1305.545 3541.988)"/>
            <circle id="타원_1102" cx="2.414" cy="2.414" r="2.414" class="cls-5" transform="translate(1326.443 3541.988)"/>
            <path id="패스_3402" d="M2935.964 2050.7h-41.792c-2.293 0-2.182 3.128-2.182 3.128h46.165s.106-3.128-2.191-3.128z" class="cls-5" transform="translate(-1607.11 1488.156)"/>
            <path id="패스_3403" d="M2943.572 1812.6h-21.826a4.217 4.217 0 0 0-4.215 4.219c0 .127.006.255.018.382l3.11 33.907a15.065 15.065 0 0 1-.122 3.74l-2.639 16.719a4.218 4.218 0 0 0 4.164 4.874h26.107a4.214 4.214 0 0 0 4.165-3.574l2.95-19.129a4.217 4.217 0 0 0-.04-1.5l-7.543-36.282a4.215 4.215 0 0 0-4.129-3.356z" class="cls-6" transform="translate(-1622.469 1631.334)"/>
            <rect id="사각형_4225" width="46.734" height="9.347" class="cls-6" rx="4.673" transform="translate(1277.362 3500.545)"/>
            <path id="패스_3404" d="M2914.521 1813.783l1.817 2.789-7.322 5.9s-2.2-5.5-2.319-8.933c0 0 5.215-1.7 5.434-2.62l.185.179a15.2 15.2 0 0 1 2.205 2.685z" class="cls-1" transform="translate(-1615.954 1632.347)"/>
            <path id="패스_3405" d="M2908.9 1847.326a36.186 36.186 0 0 1 5.569-.175 40.58 40.58 0 0 1-2.05-6.568l.94 6.768-20.929 1.378s-3.109-13.716-2.807-17.926a.905.905 0 0 1 .433-.689l7.058-4.5 2.219 3.484 7.365-4.593s8.591.248 12.58.942a2.586 2.586 0 0 1 2.046 1.8c1.509 4.929 6.469 21.423 5.344 21.423 0 0-2.436 5.474-13.744 4.811l-4.239-.124" class="cls-7" transform="translate(-1605.675 1624.175)"/>
            <ellipse id="타원_1103" cx=".463" cy=".771" class="cls-8" rx=".463" ry=".771" transform="translate(1291.576 3434.582)"/>
            <ellipse id="타원_1104" cx=".463" cy=".771" class="cls-8" rx=".463" ry=".771" transform="translate(1287.345 3434.582)"/>
            <path id="패스_3408" fill="#d88779" d="M2900.832 1798a8.981 8.981 0 0 1-1.323 1.34s-.084.3.562.6c-.149 0 .678.215.925-.281z" transform="translate(-1611.63 1640.115)"/>
            <path id="패스_3413" fill="none" stroke="#bbc7b9" stroke-linecap="round" stroke-miterlimit="10" d="M2914.81 1807.4a11.542 11.542 0 0 1-1.766 2.261l-4.917.418" transform="translate(-1616.814 1634.459)"/>
            <rect id="사각형_4226" width="2.623" height="1.256" fill="#474747" rx=".628" transform="translate(1288.69 3444.056)"/>
            <path id="패스_3415" d="M2918.449 1828.164l-1.377 15.117-4.157 13.552-3.963.882-.6-31.716 4.16.632 1.161-.341 4.843-2.485" class="cls-12" transform="translate(-1616.948 1624.596)"/>
            <path id="패스_3416" d="M2901.019 1827.286s-4.111 3.026-4.9 6.42l3.439 2.822s-3.439 1.983-3.439 2.556c0 0-.617 17.681 5.468 20.719z" class="cls-13" transform="translate(-1609.58 1622.502)"/>
            <path id="패스_3417" d="M2924.7 1823.892c-.014-.033.288-.218.313-.233a1.158 1.158 0 0 1 .714-.188.78.78 0 0 1 .364.145 3.343 3.343 0 0 1 .4.363c.134.135.279.255.425.377q.486.41.966.828.6.52 1.177 1.058c.394.365.781.739 1.153 1.125a10.836 10.836 0 0 1 .9 1.03 1.852 1.852 0 0 1 .409.772.367.367 0 0 1 0 .145s-3.306 4.2-4.893 4.5h3.108s-3.4 22.792-9.919 24.6c0 0 5.67-22.854 5.405-31.7a6.9 6.9 0 0 0-.522-2.822z" class="cls-13" transform="translate(-1623.84 1624.8)"/>
            <path id="패스_3419" d="M2917.585 1845.746a6.129 6.129 0 0 1-.045 1.164q-.21 1.573-.426 3.144-.6 4.416-1.265 8.825c-.25 1.65-.5 3.3-.811 4.938-.045.246-.219 2.04-.544 2.112l-1.911.423q-.26-6.5-.479-13c-.065-1.971-.341-3.937-.276-5.911a11.4 11.4 0 0 1 .817-3.621l1.227-3.452c.068-.19.465-1.8.656-1.848l1.222-.3.911 3.536a20.476 20.476 0 0 1 .924 3.99z" class="cls-6" transform="translate(-1619.034 1615.929)"/>
            <path id="패스_3421" d="M2904.786 1887.924l-15.034.044s-4.806.883-6.547 0c0 0-.614-3.705-.4-4.069 0 0 12.024-1.235 21.979-1.937" class="cls-7" transform="translate(-1601.56 1589.625)"/>
            <path id="패스_3422" d="M2929.823 2043.03c-.13.006-.377.693-.43.8a11.12 11.12 0 0 1-3.42 3.951 16.291 16.291 0 0 1-2.688 1.636c-.563.275-1.141.521-1.728.74-.3.114-.612.219-.923.319a1.4 1.4 0 0 0 .04 2.5q3.946-.432 7.895-.79a3.8 3.8 0 0 0 1.687-.5c.274-.181.917-.9.993-.048l.222.6 3.654-.263s.979-8.193.266-9.2z" class="cls-14" transform="translate(-1623.883 1492.92)"/>
            <path id="패스_3423" d="M2880.459 2047.424a4.624 4.624 0 0 0-.223.512 8.169 8.169 0 0 1-.824 1.3 11.786 11.786 0 0 1-4.336 3.387q-.661.314-1.342.562c-.5.185-1.006.154-1.174.785-.166.611-.077 1.218.548 1.454l5.086-.559a6.945 6.945 0 0 0 2.027-.418 5.726 5.726 0 0 0 .9-.555c.219-.149.45-.086.478.243l.181.7 2.937-.211s.785-6.585.215-7.4z" class="cls-14" transform="translate(-1595.384 1490.247)"/>
            <path id="패스_3424" d="M2921.477 1912.291l.529 2.089h-23.279v-2.089z" class="cls-7" transform="translate(-1611.162 1571.386)"/>
            <path id="패스_3425" d="M2912.782 1912.291h-2.927l1.463 1.29z" class="cls-12" transform="translate(-1617.854 1571.386)"/>
            <path id="패스_3426" fill="#b4bac1" d="M2886.444 1917.536a40.25 40.25 0 0 1 .841 5.771 18.187 18.187 0 0 1-.09 4.276 6.633 6.633 0 0 1-1.83 3.378 6.039 6.039 0 0 1-1.1.99c-1.7 1.186-3.769 1.03-5.733 1.043l-3.78.025 13.638 34.039a.529.529 0 0 1-.295.688.522.522 0 0 1-.181.038l-5.162.273a6.488 6.488 0 0 1-3.059-1.15c-.123-.2-.245-.4-.369-.61l-1.308-2.155-1.937-3.189-2.414-3.976-2.735-4.509-2.905-4.787-2.917-4.814-2.786-4.591-2.5-4.112-2.052-3.384-1.462-2.4-.7-1.167a.349.349 0 0 1-.044-.073l11.768 40.923a1.171 1.171 0 0 1-1.122 1.509h-6.4a1.534 1.534 0 0 1-1.442-1.016l-17.222-48.046a2.223 2.223 0 0 1 2.092-2.971z" transform="translate(-1576.461 1568.233)"/>
            <path id="패스_3427" d="M2913.533 1933.01l3.78-.023c1.966-.013 4.038.143 5.733-1.043a6.014 6.014 0 0 0 1.1-.99 6.643 6.643 0 0 0 1.831-3.379 18.173 18.173 0 0 0 .089-4.276 40.1 40.1 0 0 0-.841-5.77h4.819a40.069 40.069 0 0 1 .841 5.77 18.043 18.043 0 0 1-.09 4.276 6.635 6.635 0 0 1-1.831 3.379 5.972 5.972 0 0 1-1.1.99c-1.693 1.186-3.767 1.03-5.733 1.043l-3.778.023 13.637 34.04a.531.531 0 0 1-.476.727l-1.235.081c-.212.007-16.746-34.848-16.746-34.848z" class="cls-16" transform="translate(-1620.065 1568.237)"/>
            <path id="패스_3428" d="M2884.149 1952.006l4.854 29.646-11.506-40.025z" class="cls-16" transform="translate(-1598.396 1553.746)"/>
            <rect id="사각형_4230" width="117.518" height="6.147" class="cls-17" rx="2.79" transform="translate(1222.887 3477.531)"/>
            <rect id="사각형_4231" width="19.752" height="67.795" class="cls-17" rx="5.487" transform="translate(1312.697 3477.531)"/>
            <rect id="사각형_4232" width="19.752" height="67.795" class="cls-17" rx="5.487" transform="translate(1237.569 3477.531)"/>
            <path id="사각형_4233" d="M0 0H19.752V4.178H0z" class="cls-18" transform="translate(1312.697 3483.679)"/>
            <path id="사각형_4234" d="M0 0H19.752V4.178H0z" class="cls-18" transform="translate(1237.569 3483.679)"/>
            <path id="사각형_4235" fill="#e5ded4" d="M2860.08 1890.567h4.559a.665.665 0 0 1 .665.665v1.849h-5.889v-1.849a.665.665 0 0 1 .665-.665z" transform="translate(-1587.523 1584.45)"/>
            <path id="패스_3432" d="M2870.46 1887.378s-5.13-1.039-6.76-.531c0 0-1.344.285-1.408 1.079a11.55 11.55 0 0 0 5.2 1.653s2.432 0 3.091-.938z" class="cls-1" transform="translate(-1589.253 1586.77)"/>
            <path id="패스_3432-2" d="M2826.93 1890.2s-5.129-1.039-6.76-.531c0 0-1.343.285-1.408 1.079a11.548 11.548 0 0 0 5.2 1.653s2.432 0 3.091-.938z" class="cls-1" transform="translate(-1563.077 1585.072)"/>
            <rect id="사각형_4236" width="2.798" height=".904" class="cls-1" rx=".452" transform="translate(1272.074 3476.204) rotate(-58.146)"/>
            <rect id="사각형_4237" width="1.915" height=".904" class="cls-1" rx=".452" transform="matrix(0.649, -0.761, 0.761, 0.649, 1273.607, 3476.104)"/>
            <rect id="사각형_4238" width="2.798" height=".904" class="cls-1" rx=".452" transform="translate(1272.668 3476.372) rotate(-49.299)"/>
            <path id="패스_3433" fill="#eee" d="M2817.8 1736.828h-33.153a3.538 3.538 0 0 0-3.527 3.528v6.171a3.538 3.538 0 0 0 3.527 3.526h33.153a3.471 3.471 0 0 0 .534-.053l2.993 3.537v-13.181a3.537 3.537 0 0 0-3.527-3.528z" transform="translate(-1540.44 1676.897)"/>
            <path id="선_1544" d="M0 0L31.148 0" class="cls-21" transform="translate(1245.065 3416.854)"/>
            <path id="선_1545" d="M0 0L31.148 0" class="cls-21" transform="translate(1245.065 3419.899)"/>
            <path id="선_1546" d="M0 0L31.148 0" class="cls-21" transform="translate(1245.065 3422.94)"/>
            <path id="패스_8628" fill="#fff0e1" d="M2898.465 1804.557a2.271 2.271 0 0 0 4.335 0z" transform="translate(-1611.004 1636.17)"/>
            <ellipse id="타원_1523" cx="1.395" cy="1.794" class="cls-6" rx="1.395" ry="1.794" transform="translate(1294.612 3451.086)"/>
            <path id="패스_8629" d="M2900.18 1764.617c-1.276-.957-2.985-.612-4.415-.276-.169.04-.338.08-.51.11a5.939 5.939 0 0 0-1.167.314 7.352 7.352 0 0 0-1.867 1.076 3.733 3.733 0 0 0-.414.371s-3.588 3.823-.4 6.5a7.515 7.515 0 0 1 1.33-2.114 4.914 4.914 0 0 1 .572-.55 1.715 1.715 0 0 1 .557-.35 1.871 1.871 0 0 1 .727-.019 10.9 10.9 0 0 0 1.108.026h1.265a2.587 2.587 0 0 1 1.893.963 2.512 2.512 0 0 1 .449.752 3.573 3.573 0 0 1 .151.769 2.8 2.8 0 0 0 .216.754 3.107 3.107 0 0 0 .848 1.184 1.8 1.8 0 0 0 .855.382 1.7 1.7 0 0 1 .7.215 2.923 2.923 0 0 1 .6.5 2.12 2.12 0 0 1 .566 1.446v1.954c0-.061.382-.332.429-.379a6.258 6.258 0 0 0 .891-1.1 5.5 5.5 0 0 0 .581-1.216c.159-.482.133-.987.253-1.473-.01.04.159-.072.173-.088a1.9 1.9 0 0 0 .123-.21q.123-.194.233-.395a6.645 6.645 0 0 0 .362-.765 5.111 5.111 0 0 0 .346-1.432 4.487 4.487 0 0 0-.519-2.471 6.979 6.979 0 0 0-1.577-1.94 12.133 12.133 0 0 0-1.962-1.4 16.033 16.033 0 0 0-1.677-.848c-.237-.107-.477-.207-.72-.29z" class="cls-8" transform="translate(-1605.968 1660.562)"/>
            <path id="패스_8630" d="M2919.941 1772.641l-.078-3.719a2.347 2.347 0 0 0-.313-.983 6.694 6.694 0 0 0-.717-1.071 8.067 8.067 0 0 0-1.132-1.192 8.983 8.983 0 0 0-1.457-.912 11.754 11.754 0 0 0-1.778-.809 5.437 5.437 0 0 0-1.395-.308 3.29 3.29 0 0 0-.669.017 2.584 2.584 0 0 0-.321.063c-.046.012-.263.115-.3.1.6.5 2.2 1.471 2.935 2.026.852.719.938.766 1.571 1.36a5.621 5.621 0 0 1 .556.61 2.468 2.468 0 0 1 .555 1.452l.142 3.368h.263l-.149 2.992 1.719-.131v-2.86h.565z" class="cls-23" transform="translate(-1619.013 1660.776)"/>
            <path id="패스_3410" d="M2927.228 1789.112l.05-2.895h-.615l-.152 2.995z" class="cls-24" transform="translate(-1627.869 1647.198)"/>
            <path id="패스_3411" d="M2922.962 1793.11a3.185 3.185 0 0 1 .363.034 2.911 2.911 0 0 0 0 5.816 3.36 3.36 0 0 1-.363.034 2.949 2.949 0 1 1 0-5.885z" class="cls-24" transform="translate(-1623.844 1643.057)"/>
            <ellipse id="타원_1105" cx="3.141" cy="2.943" class="cls-23" rx="3.141" ry="2.943" transform="translate(1296.557 3436.17)"/>
            <ellipse id="타원_1106" cx="1.802" cy="1.762" fill="#53a4c4" rx="1.802" ry="1.762" transform="translate(1298.323 3437.368)"/>
            <circle id="타원_1107" cx=".897" cy=".897" r=".897" fill="#f6f7f9" transform="translate(1299.227 3438.234)"/>
            <rect id="사각형_4227" width="34.522" height="23.19" class="cls-27" rx="3.01" transform="translate(1242.022 3445.598)"/>
            <rect id="사각형_4228" width="34.522" height="23.19" class="cls-7" rx="3.01" transform="translate(1240.243 3445.598)"/>
            <path id="사각형_4229" d="M0 0H11.772V1.38H0z" class="cls-27" transform="translate(1256.35 3476.15)"/>
            <path id="패스_3429" d="M2825.4 1874.948l-2.205 8.743h-1.58l2.462-8.743z" class="cls-27" transform="translate(-1564.79 1593.842)"/>
            <path id="패스_3430" d="M2814.65 1874.948l-2.2 8.743h-6.5l2.462-8.743z" class="cls-7" transform="translate(-1555.368 1593.842)"/>
            <path id="패스_3418" d="M2922.386 1829.268a1.311 1.311 0 0 1-.406-.09 11.088 11.088 0 0 1-1.8-.907 2.36 2.36 0 0 1-1.263-1.318.293.293 0 0 1 .1-.287c1.333-1.235 3.479-1.081 4.953-2.121a.274.274 0 0 1 .385.109.32.32 0 0 1 .039.113c.13 1-.308 1.419-.65 2.489a9.249 9.249 0 0 1-.316.89s-.373.971-.825 1.1a.8.8 0 0 1-.217.022z" class="cls-28" transform="translate(-1623.298 1624.175)"/>
            <path id="패스_3420" d="M2910.845 1832.182a1.314 1.314 0 0 1-.724-.376 6.5 6.5 0 0 1-.619-.683c-.137-.171-.376-.462-.493-.647q-.077-.122-.147-.248c-.026-.047-.053-.094-.078-.142l-.043-.079c-.01-.019-.042-.059-.042-.079a5.478 5.478 0 0 1-.243-1.484c.471.138.851.276 1.324.381a12.893 12.893 0 0 0 1.308.212c.418.049.845.063 1.26.133a.846.846 0 0 1 .237.048c.121.066.051.267.034.363a3.935 3.935 0 0 1-.109.455 4.116 4.116 0 0 1-.368.857c-.045.078-.1.152-.143.232a3.8 3.8 0 0 1-.462.715.928.928 0 0 1-.589.343.558.558 0 0 1-.103-.001z" class="cls-28" transform="translate(-1617.01 1621.806)"/>
        </g>
        <path id="사각형_7624" fill="none" d="M0 0H223V150H0z" transform="translate(1204 2703)"/>
    </g>
</svg>
