<svg xmlns="http://www.w3.org/2000/svg" width="223" height="150" viewBox="0 0 223 150">
    <defs>
        <filter id="사각형_7556" width="194.629" height="130.411" x="14.568" y="14.532" filterUnits="userSpaceOnUse">
            <feOffset dy="3"/>
            <feGaussianBlur result="blur" stdDeviation="1.5"/>
            <feFlood flood-opacity=".22"/>
            <feComposite in2="blur" operator="in"/>
            <feComposite in="SourceGraphic"/>
        </filter>
        <style>
            .cls-1{fill:#fff}.cls-2{fill:#edf4fe}.cls-13,.cls-3{fill:#426edc}.cls-4{fill:#b5dbea}.cls-29{stroke-miterlimit:10}.cls-24,.cls-29{fill:none}.cls-24{stroke-linecap:round}.cls-7,.cls-8{fill:#1a1818;font-family:NotoSansCJKkr-Medium,Noto Sans CJK KR;font-weight:500}.cls-7{font-size:4px}.cls-8{font-size:2px;opacity:.8}.cls-9{fill:#090a0a}.cls-10{fill:#f2fafc}.cls-11{fill:#b8cae8}.cls-11,.cls-12,.cls-13,.cls-28{isolation:isolate}.cls-12{fill:#a2adbb}.cls-14{fill:#5f7398}.cls-15{fill:#798bb9}.cls-24{stroke:#1e2222}.cls-28{fill:#25449f}.cls-29{stroke:#b4bac1;stroke-width:.25px}.cls-30{fill:#f5feff}.cls-31{fill:#4f96ff}
        </style>
    </defs>
    <g id="그룹_6426" transform="translate(-498 -2705)">
        <g filter="url(#사각형_7556)" transform="matrix(1, 0, 0, 1, 498, 2705)">
            <rect id="사각형_7556-2" width="185.629" height="121.411" class="cls-1" rx="1.645" transform="translate(19.07 16.03)"/>
        </g>
        <path id="패스_8727" d="M1 0h46.667a1 1 0 0 1 1 1v19.115a1 1 0 0 1-1 1H1a1 1 0 0 1-1-1V1a1 1 0 0 1 1-1z" class="cls-2" transform="translate(540.155 2768.265)"/>
        <path id="사각형_7558" d="M.938 0h46.79a.937.937 0 0 1 .937.937v19.239a.938.938 0 0 1-.937.938H.938A.938.938 0 0 1 0 20.176V.938A.938.938 0 0 1 .938 0z" class="cls-2" transform="translate(540.155 2795.431)"/>
        <rect id="사각형_7560" width="84.304" height="6.589" class="cls-3" rx="3.294" transform="translate(567.705 2747.937)"/>
        <rect id="사각형_7606" width="68.071" height="1.284" class="cls-4" rx=".642" transform="translate(596.988 2774.641)"/>
        <rect id="사각형_7611" width="68.071" height="1.284" class="cls-4" rx=".642" transform="translate(596.988 2803.053)"/>
        <rect id="사각형_7614" width="68.071" height="1.284" class="cls-4" rx=".642" transform="translate(596.988 2832.995)"/>
        <rect id="사각형_7607" width="68.071" height="1.284" class="cls-4" rx=".642" transform="translate(596.988 2778.641)"/>
        <rect id="사각형_7610" width="68.071" height="1.284" class="cls-4" rx=".642" transform="translate(596.988 2807.053)"/>
        <rect id="사각형_7613" width="68.071" height="1.284" class="cls-4" rx=".642" transform="translate(596.988 2836.995)"/>
        <rect id="사각형_7608" width="68.071" height="1.284" class="cls-4" rx=".642" transform="translate(596.988 2782.641)"/>
        <rect id="사각형_7609" width="68.071" height="1.284" class="cls-4" rx=".642" transform="translate(596.988 2811.053)"/>
        <g id="그룹_6411" stroke="#030504" stroke-miterlimit="10" transform="translate(658.711 2747.827)">
            <path id="패스_8676" fill="#edf4fe" d="M886.566 393.74a2.562 2.562 0 1 1-2.566-2.562 2.548 2.548 0 0 1 2.566 2.562z" transform="translate(-881.442 -391.178)"/>
            <path id="선_2149" fill="none" stroke-linecap="round" d="M1.699 1.961L0 0" transform="translate(4.65 4.681)"/>
        </g>
        <text id="Contents" class="cls-7" transform="translate(596.988 2773.164)">
            <tspan x="0" y="0">Contents</tspan>
        </text>
        <text id="Contents-2" class="cls-7" transform="translate(596.988 2801.575)">
            <tspan x="0" y="0">Contents</tspan>
        </text>
        <text id="Contents-3" class="cls-7" transform="translate(596.988 2829.903)">
            <tspan x="0" y="0">Contents</tspan>
        </text>
        <text id="프로젝트_의뢰" class="cls-8" transform="translate(563.594 2734.722)">
            <tspan x="0" y="0">프로젝트 의뢰</tspan>
        </text>
        <text id="제조사_찾기" class="cls-8" transform="translate(540.155 2734.722)">
            <tspan x="0" y="0">제조사 찾기</tspan>
        </text>
        <text id="제조_매거진" class="cls-8" transform="translate(590.229 2734.722)">
            <tspan x="0" y="0">제조 매거진</tspan>
        </text>
        <path id="패스_8677" d="M911.886 414.519v6.2a.172.172 0 0 0 .294.121l1.915-1.916a.174.174 0 0 1 .244 0l2 1.995a.172.172 0 0 0 .294-.123v-6.278a.174.174 0 0 0-.173-.173h-4.4a.174.174 0 0 0-.174.174z" class="cls-3" transform="translate(-239.729 2360.294)"/>
        <path id="패스_8729" d="M911.886 414.519v6.2a.172.172 0 0 0 .294.121l1.915-1.916a.174.174 0 0 1 .244 0l2 1.995a.172.172 0 0 0 .294-.123v-6.278a.174.174 0 0 0-.173-.173h-4.4a.174.174 0 0 0-.174.174z" class="cls-3" transform="translate(-239.729 2387.975)"/>
        <path id="패스_8730" d="M911.886 414.519v6.2a.172.172 0 0 0 .294.121l1.915-1.916a.174.174 0 0 1 .244 0l2 1.995a.172.172 0 0 0 .294-.123v-6.278a.174.174 0 0 0-.173-.173h-4.4a.174.174 0 0 0-.174.174z" class="cls-3" transform="translate(-239.729 2416.333)"/>
        <path id="패스_8680" d="M829.247 430.518a1.133 1.133 0 1 1 2.208 0 1.348 1.348 0 1 1-2.208 0z" class="cls-9" transform="translate(-231.588 2356.888)"/>
        <circle id="타원_1533" cx=".433" cy=".433" r=".433" class="cls-1" transform="translate(598.33 2786.617)"/>
        <path id="패스_8681" d="M829.247 459.851a1.133 1.133 0 1 1 2.208 0 1.348 1.348 0 1 1-2.208 0z" class="cls-9" transform="translate(-231.588 2354.55)"/>
        <circle id="타원_1534" cx=".433" cy=".433" r=".433" class="cls-1" transform="translate(598.33 2813.614)"/>
        <path id="패스_6266" d="M793.768 421.6l-.629-.2v.234l.022.008.629.2v-.234z" class="cls-10" transform="translate(-231.747 2358.755)"/>
        <path id="패스_6267" d="M793.662 423.539l-.284-.09v.106h.01l.285.09v-.106z" class="cls-10" transform="translate(-231.77 2358.546)"/>
        <path id="패스_6268" d="M793.686 424.685l-.285-.09v.106h.009l.285.09v-.106z" class="cls-10" transform="translate(-231.773 2359.077)"/>
        <path id="패스_6269" d="M793.709 425.831l-.284-.09v.106h.01l.284.09v-.106z" class="cls-10" transform="translate(-231.775 2359.005)"/>
        <path id="사각형_7559" d="M.938 0h46.79a.937.937 0 0 1 .937.937v18.909H0V.938A.938.938 0 0 1 .938 0z" class="cls-2" transform="translate(540.155 2822.596)"/>
        <path id="사각형_7561" d="M0 0H0.584V8.656H0z" class="cls-11" transform="translate(555.4 2801.019)"/>
        <path id="사각형_7562" d="M0 0H1.035V8.656H0z" class="cls-11" transform="translate(566.807 2805.217)"/>
        <path id="사각형_7563" d="M0 0H0.584V8.656H0z" class="cls-11" transform="translate(573.072 2803.115)"/>
        <path id="사각형_7564" d="M0 0H0.584V8.656H0z" class="cls-11" transform="translate(561.092 2799.172)"/>
        <path id="사각형_7565" d="M0 0H0.147V8.656H0z" class="cls-12" transform="translate(560.945 2799.172)"/>
        <path id="사각형_7566" d="M0 0H0.38V8.656H0z" class="cls-12" transform="translate(566.807 2805.217)"/>
        <path id="사각형_7567" d="M0 0H0.19V8.656H0z" class="cls-12" transform="translate(572.977 2803.111)"/>
        <path id="사각형_7568" d="M0 0H0.219V8.656H0z" class="cls-12" transform="translate(555.319 2801.019)"/>
        <path id="패스_8689" d="M800.9 449.1l6.22-1.884a.113.113 0 0 0 .055-.035c.036-.043.018-.109-.054-.132l-11.836-3.816a.152.152 0 0 0-.075 0l-6.175 1.346c-.1.022-.116.132-.029.169l11.839 4.335c.034.007.02.028.055.017z" class="cls-13" transform="translate(-233.595 2355.63)"/>
        <path id="패스_8690" d="M800.888 448.782l-.045.725-11.923-4.4.033-.734z" class="cls-14" transform="translate(-233.601 2355.948)"/>
        <path id="패스_8691" d="M798.3 448.24l6.288-1.918v.557l-6.332 2.086z" class="cls-14" transform="translate(-231.008 2356.49)"/>
        <path id="패스_8692" d="M788.947 444.372v.357l11.919 4.394.021-.342z" class="cls-15" transform="translate(-233.595 2355.948)"/>
        <path id="패스_8693" d="M798.285 448.24v.342l6.288-1.962v-.3z" class="cls-15" transform="translate(-230.998 2356.49)"/>
        <path id="패스_8694" d="M804.373 427.826l-11.811-3.634-2.612-8.83 11.641 2.5z" class="cls-13" transform="translate(-235.837 2356.555)"/>
        <path id="패스_8695" d="M800.3 425.335v.359l6.327-3.682v-.312z" transform="translate(-231.768 2359.046)" style="isolation:isolate" fill="#9fafce"/>
        <path id="패스_8696" d="M791.825 421.7l.037.25 11.774 3.743v-.359z" transform="translate(-235.101 2359.046)" style="isolation:isolate" fill="#5f74a1"/>
        <path id="패스_8697" d="M798.306 417.2l.259-.14 2.727 9.983-.2.117z" transform="translate(-232.553 2357.221)" style="isolation:isolate" fill="#7290ca"/>
        <path id="패스_8698" fill="#5f74a1" d="M801.591 417.9l.259-.14-11.608-2.5-.292.134z" transform="translate(-235.837 2356.517)"/>
        <path id="패스_8699" fill="#d5e2f4" d="M800.84 425.655l6.123-3.518-7.507-1.548" transform="translate(-232.101 2358.609)"/>
        <path id="패스_1-2" d="M795.617 420.387a.443.443 0 0 1-.581.457l-.581-.128-.28-1.6.611.047c.319.032.549.146.6.412.011.124.056.249-.056.33a.463.463 0 0 1 .287.369zm-1.064-.925l.05.29.331.022a.24.24 0 0 0 .1-.031c.054-.034.046-.109.022-.159a.181.181 0 0 0-.152-.1zm.622.805a.181.181 0 0 0-.173-.157l-.362-.027.067.32.28.039a.229.229 0 0 0 .166-.053c.032-.038.021-.1.021-.146z" transform="translate(-234.177 2358.028)" style="isolation:isolate" fill="#cddff3"/>
        <path id="패스_8726" fill="#b2b2b2" d="M1.6 0a1.6 1.6 0 0 1 1.6 1.6v33.026a1.6 1.6 0 0 1-3.2 0V1.6A1.6 1.6 0 0 1 1.6 0z" transform="translate(695.24 2791.576)"/>
        <path id="패스_8728" fill="#fff" stroke="#1e2222" stroke-linecap="round" stroke-linejoin="round" d="M6617.218-6338.158l2.243 13.107 2.991-2.331 2.683 4.53 3.035-2.2-3.2-3.99 3.509-2.255z" transform="translate(-5992.735 9139.375)"/>
        <path id="패스_8731" d="M.116 2.745L0 0" class="cls-24" transform="translate(676.07 2794.328) rotate(-16)"/>
        <path id="패스_8732" d="M0 4.069L1.142 0" class="cls-24" transform="translate(680.861 2793.71) rotate(18)"/>
        <path id="패스_8733" d="M0 2.725L1.393 0" class="cls-24" transform="translate(683.202 2797.242) rotate(42)"/>
        <g id="그룹_6415" transform="translate(-643.165 -211.475) rotate(13)">
            <g id="그룹_5182" transform="translate(1856.635 2689.811)">
                <path id="패스_6262" fill="#2456cf" d="M3846.687 2899.406l.565-.655.217.943-.68.157z" transform="translate(-3845.111 -2890.697)"/>
                <path id="패스_5463" d="M3826.72 2766.7l-6.356-.588 2.169-1.856 6.031.3z" transform="translate(-3820.364 -2764.254)" style="isolation:isolate" fill="#c5d3f0"/>
                <path id="패스_5463-2" fill="#d2e3ff" d="M3876.379 2939.533l-6.356-.588 1.538-4.6 6.663 3.046z" transform="translate(-3867.049 -2924.159)"/>
                <path id="패스_6263" d="M3928.346 2769.307l2.975 12.936-1.849 2.123-2.971-12.917z" class="cls-28" transform="translate(-3920.145 -2769.005)"/>
                <path id="패스_6264" d="M3853.043 2910.278l-6.356-.588 1.4 6.076 6.356.589z" class="cls-13" transform="translate(-3845.111 -2900.98)"/>
                <path id="선_2021" d="M0 0L6.356 0.588" class="cls-29" transform="translate(2.734 13.743)"/>
                <path id="선_2022" d="M0 0L6.356 0.588" class="cls-29" transform="translate(2.483 12.652)"/>
                <path id="선_2023" d="M0 0L6.356 0.588" class="cls-29" transform="translate(2.232 11.56)"/>
                <path id="선_2024" d="M0 0L6.356 0.588" class="cls-29" transform="translate(1.576 8.71)"/>
                <path id="패스_6266-2" d="M3895.471 2936.491l-.731-.073.059.254h.025l.731.073-.058-.255z" class="cls-30" transform="translate(-3890.286 -2926.108)"/>
                <path id="패스_6267-2" d="M3905.979 2969.186l-.33-.033.026.115h.012l.33.033-.026-.115z" class="cls-30" transform="translate(-3900.541 -2956.882)"/>
                <path id="패스_6268-2" d="M3910.271 2987.844l-.331-.033.026.115h.012l.33.033-.026-.115z" class="cls-30" transform="translate(-3904.576 -2974.423)"/>
                <path id="패스_6269-2" d="M3914.563 3006.5l-.33-.033.026.115h.011l.331.033-.027-.115z" class="cls-30" transform="translate(-3908.611 -2991.964)"/>
                <path id="패스_6271" d="M3941.365 2817.3l1 .688 1.28-1.485-1-.665z" class="cls-31" transform="translate(-3934.118 -2812.753)"/>
                <path id="패스_6272" d="M3941.365 2840.253l1.369 5.953.609-1.035-.973-4.23z" transform="translate(-3934.118 -2835.702)" style="isolation:isolate" fill="#1e50cd"/>
                <path id="패스_6273" d="M3958.148 2828.426l.973 4.23 1.259-1.571-.953-4.145z" class="cls-28" transform="translate(-3949.896 -2823.187)"/>
                <path id="패스_6275" d="M3837.586 2796.808l-5.665-.526 1.573 6.841 5.665.527z" class="cls-3" transform="translate(-3831.23 -2794.364)"/>
                <path id="패스_6277" d="M3847.211 2899.545l3.3.305.151.658-3.973-.355z" class="cls-31" transform="translate(-3845.111 -2891.443)"/>
                <path id="패스_6276" d="M3825.912 2802.451l2.381.221-1.574-6.842-6.356-.588.746 3.762 3.975.368z" transform="translate(-3820.364 -2793.386)" style="isolation:isolate" fill="#d9e0fd"/>
            </g>
            <g id="그룹_6414" transform="translate(1859.277 2692.812)">
                <path id="패스_8366" d="M3865.161 2814.38l2.423.248-.654 1.357-2.446-.32z" transform="translate(-3864.484 -2814.38)" style="isolation:isolate" fill="#213687"/>
                <path id="패스_8367" d="M3869.627 2816.743l2 .2-.538 1.118-2.015-.263z" transform="translate(-3868.795 -2816.601)" style="isolation:isolate" fill="#edf4fe"/>
                <path id="패스_8368" d="M3905.331 2819.877l.974 1.034-.12-1.522-.2-.869z" transform="translate(-3902.885 -2818.273)" style="isolation:isolate" fill="#4f6dad"/>
                <path id="패스_8369" d="M3864.484 2835.83l1.323 1.125 2.1.23-.974-1.034z" transform="translate(-3864.484 -2834.545)" style="isolation:isolate" fill="#6a84b7"/>
            </g>
            <path id="패스_8734" d="M3916.8 2921.936l-1.4-6.089-2.381-.22 1.646 6.111z" transform="translate(-2050.836 -216.751)" style="isolation:isolate" fill="#acb4e3"/>
        </g>
        <path id="사각형_7622" fill="none" d="M0 0H223V150H0z" transform="translate(498 2705)"/>
        <circle id="타원_1535" cx="1.873" cy="1.873" r="1.873" fill="#ff5854" transform="translate(552.486 2723.81)"/>
        <circle id="타원_1536" cx="1.873" cy="1.873" r="1.873" fill="#e9b93d" transform="translate(540 2723.81)"/>
        <circle id="타원_1537" cx="1.873" cy="1.873" r="1.873" fill="#4ec723" transform="translate(546.243 2723.81)"/>
    </g>
</svg>
