<svg xmlns="http://www.w3.org/2000/svg" width="97" height="97" viewBox="0 0 97 97">
    <g transform="translate(-912 -1827)">
        <circle cx="48.5" cy="48.5" r="48.5" fill="#0933b3" transform="translate(912 1827)"/>
        <path fill="#fff" d="M-13.071-3.3a1.545 1.545 0 0 0-.593-1.3 7.138 7.138 0 0 0-2.136-.92 10.335 10.335 0 0 1-2.461-1.037 3.284 3.284 0 0 1-1.749-2.865 3.118 3.118 0 0 1 1.261-2.549 5.1 5.1 0 0 1 3.274-1 5.53 5.53 0 0 1 2.382.492 3.909 3.909 0 0 1 1.644 1.4 3.6 3.6 0 0 1 .6 2.017h-2.215a2.005 2.005 0 0 0-.636-1.568 2.594 2.594 0 0 0-1.8-.567 2.709 2.709 0 0 0-1.692.466 1.551 1.551 0 0 0-.6 1.3 1.4 1.4 0 0 0 .65 1.173A7.493 7.493 0 0 0-15-7.343a9.865 9.865 0 0 1 2.4 1.011 3.816 3.816 0 0 1 1.327 1.3 3.388 3.388 0 0 1 .422 1.718 3.045 3.045 0 0 1-1.223 2.545A5.318 5.318 0 0 1-15.4.176a6.251 6.251 0 0 1-2.553-.514 4.289 4.289 0 0 1-1.811-1.419 3.537 3.537 0 0 1-.646-2.109h2.224a2.07 2.07 0 0 0 .721 1.688 3.156 3.156 0 0 0 2.065.6 2.742 2.742 0 0 0 1.745-.47 1.517 1.517 0 0 0 .584-1.252zM-.1-11h-3.99V0H-6.3v-11h-3.955v-1.8H-.1zm8.708 5.287H3.352v3.938H9.5V0H1.129v-12.8h8.305v1.8H3.352v3.533h5.256zm4.472.967V0h-2.224v-12.8h4.9a4.95 4.95 0 0 1 3.406 1.117 3.757 3.757 0 0 1 1.261 2.956 3.633 3.633 0 0 1-1.235 2.93A5.19 5.19 0 0 1 15.73-4.75zm0-1.793h2.672a2.632 2.632 0 0 0 1.81-.561 2.051 2.051 0 0 0 .624-1.613 2.213 2.213 0 0 0-.633-1.657 2.439 2.439 0 0 0-1.74-.63H13.08zM5.683 30H-5.312v-1.875l5.447-5.941a13.564 13.564 0 0 0 1.679-2.2 3.557 3.557 0 0 0 .5-1.769 2.687 2.687 0 0 0-.657-1.887 2.279 2.279 0 0 0-1.769-.719 2.627 2.627 0 0 0-2.055.809 3.18 3.18 0 0 0-.73 2.212h-2.729a5.348 5.348 0 0 1 .679-2.69A4.679 4.679 0 0 1-3 14.086a6.184 6.184 0 0 1 2.91-.662 5.531 5.531 0 0 1 3.757 1.2 4.152 4.152 0 0 1 1.376 3.307 5.613 5.613 0 0 1-.691 2.566 14.592 14.592 0 0 1-2.263 3.049l-4 4.279h7.594z" transform="translate(960.41 1868)"/>
    </g>
</svg>
