<svg xmlns="http://www.w3.org/2000/svg" width="1200" height="60" viewBox="0 0 1200 60">
  <defs>
    <style>
      .cls-1 {
        fill: #ff5923;
      }

      .cls-2 {
        fill: #fff;
      }

      .cls-3 {
        fill: none;
      }
    </style>
  </defs>
  <g id="그룹_6715" data-name="그룹 6715" transform="translate(-360 -64)">
    <g id="그룹_6711" data-name="그룹 6711" transform="translate(360 64)">
      <g id="그룹_6707" data-name="그룹 6707">
        <g id="그룹_6704" data-name="그룹 6704">
          <path id="패스_10965" data-name="패스 10965" class="cls-1" d="M236.94,37.83a8.849,8.849,0,0,1-1.9-.627,7.329,7.329,0,0,1-1.6-.993l1.294-2.3a6.29,6.29,0,0,0,1.976,1.085,7.082,7.082,0,0,0,2.3.382,4.048,4.048,0,0,0,2.119-.464,1.457,1.457,0,0,0,.753-1.309v-.01a1.288,1.288,0,0,0-.336-.937,2,2,0,0,0-.876-.509,10.684,10.684,0,0,0-1.385-.3.214.214,0,0,0-.056-.01.17.17,0,0,1-.056-.01l-.224-.031a13.687,13.687,0,0,1-2.466-.586,3.627,3.627,0,0,1-1.66-1.232,4.006,4.006,0,0,1-.683-2.5v-.01a4.51,4.51,0,0,1,.642-2.455,4.047,4.047,0,0,1,1.864-1.553,7.343,7.343,0,0,1,2.955-.536,7.533,7.533,0,0,1,1.624.184,8.788,8.788,0,0,1,1.625.53,9.085,9.085,0,0,1,1.508.835l-1.182,2.363a7.533,7.533,0,0,0-1.788-.917A5.412,5.412,0,0,0,239.6,25.6a3.883,3.883,0,0,0-1.987.422,1.32,1.32,0,0,0-.7,1.187v.01a1.384,1.384,0,0,0,.367,1.014,2.186,2.186,0,0,0,.907.545,14.2,14.2,0,0,0,1.518.367q.041.009.081.015a.576.576,0,0,1,.081.015,1,1,0,0,1,.117.026c.038.01.077.018.118.025a12.4,12.4,0,0,1,2.348.667,3.663,3.663,0,0,1,1.573,1.263,3.981,3.981,0,0,1,.632,2.379v.021a4.324,4.324,0,0,1-.662,2.424,4.144,4.144,0,0,1-1.93,1.538,7.908,7.908,0,0,1-3.051.53A10.043,10.043,0,0,1,236.94,37.83Z"/>
          <path id="패스_10966" data-name="패스 10966" class="cls-2" d="M246.373,27.317h2.791V37.891h-2.791Zm6.163,4.472a2.055,2.055,0,0,0-.458-1.431,1.661,1.661,0,0,0-1.294-.5,1.6,1.6,0,0,0-1.2.434,1.667,1.667,0,0,0-.423,1.217l-.213-2.343a3.825,3.825,0,0,1,1.171-1.488,2.742,2.742,0,0,1,1.65-.509,3.17,3.17,0,0,1,3.138,2.119,6.7,6.7,0,0,1,.417,2.5v6.112h-2.791Zm6.163,0a2.1,2.1,0,0,0-.443-1.431,1.822,1.822,0,0,0-2.5-.021,1.992,1.992,0,0,0-.433,1.371l-.519-2.445a3.932,3.932,0,0,1,1.3-1.554,3.089,3.089,0,0,1,1.777-.545,3.435,3.435,0,0,1,1.951.54,3.348,3.348,0,0,1,1.233,1.579,6.636,6.636,0,0,1,.422,2.5v6.112H258.7Z"/>
          <path id="패스_10967" data-name="패스 10967" class="cls-2" d="M263.946,37.234a3.272,3.272,0,0,1-.84-2.46,2.886,2.886,0,0,1,.942-2.353,4.337,4.337,0,0,1,2.827-.785h2.648l.143,2.129h-2.781a1.51,1.51,0,0,0-.947.25.906.906,0,0,0-.316.759.844.844,0,0,0,.4.769,2.3,2.3,0,0,0,1.2.249,4.134,4.134,0,0,0,1.666-.254.837.837,0,0,0,.545-.795l.214,1.539a1.444,1.444,0,0,1-.525.967,3.025,3.025,0,0,1-1.161.6,5.335,5.335,0,0,1-1.472.2A3.535,3.535,0,0,1,263.946,37.234Zm5.486-6.046a1.374,1.374,0,0,0-.489-1.131,2.145,2.145,0,0,0-1.386-.4,3.708,3.708,0,0,0-1.171.193,3.488,3.488,0,0,0-1.029.54l-1.732-1.7a4.162,4.162,0,0,1,1.671-1.125,6.329,6.329,0,0,1,2.3-.4,5.48,5.48,0,0,1,2.363.464,3.32,3.32,0,0,1,1.492,1.345,4.13,4.13,0,0,1,.515,2.123v6.795h-2.536Z"/>
          <path id="패스_10968" data-name="패스 10968" class="cls-2" d="M274.093,27.317h3V37.891h-3Zm5.45,2.639a2.092,2.092,0,0,0-.683-.1,1.624,1.624,0,0,0-1.309.546,2.261,2.261,0,0,0-.463,1.512l-.214-2.75a3.776,3.776,0,0,1,1.136-1.472,2.492,2.492,0,0,1,1.533-.525,3.275,3.275,0,0,1,1.2.209,2.625,2.625,0,0,1,.932.616l-1.63,2.272A1.274,1.274,0,0,0,279.543,29.956Z"/>
          <path id="패스_10969" data-name="패스 10969" class="cls-2" d="M281.555,27.317h5.175V29.7h-5.175Zm1.737,9.917a3.009,3.009,0,0,1-.647-2.094v-10.9h2.791V34.448a1,1,0,0,0,.153.6.521.521,0,0,0,.448.209h.693v2.689h-1.406A2.626,2.626,0,0,1,283.292,37.234Z"/>
          <path id="패스_10970" data-name="패스 10970" class="cls-1" d="M293.73,23.079h2.791V37.891H293.73Zm1.018,0h8.71v2.69h-8.71Zm0,6.245h7.589v2.689h-7.589Z"/>
          <path id="패스_10971" data-name="패스 10971" class="cls-2" d="M304.895,37.234a3.272,3.272,0,0,1-.84-2.46A2.886,2.886,0,0,1,305,32.421a4.337,4.337,0,0,1,2.827-.785h2.648l.143,2.129h-2.781a1.51,1.51,0,0,0-.947.25.906.906,0,0,0-.316.759.844.844,0,0,0,.4.769,2.3,2.3,0,0,0,1.2.249,4.125,4.125,0,0,0,1.665-.254.836.836,0,0,0,.546-.795l.213,1.539a1.438,1.438,0,0,1-.524.967,3.025,3.025,0,0,1-1.161.6,5.335,5.335,0,0,1-1.472.2A3.535,3.535,0,0,1,304.895,37.234Zm5.486-6.046a1.374,1.374,0,0,0-.489-1.131,2.145,2.145,0,0,0-1.386-.4,3.708,3.708,0,0,0-1.171.193,3.5,3.5,0,0,0-1.029.54l-1.732-1.7a4.162,4.162,0,0,1,1.671-1.125,6.329,6.329,0,0,1,2.3-.4,5.483,5.483,0,0,1,2.363.464,3.327,3.327,0,0,1,1.493,1.345,4.15,4.15,0,0,1,.514,2.123v6.795h-2.536Z"/>
          <path id="패스_10972" data-name="패스 10972" class="cls-2" d="M316.931,37.468a3.822,3.822,0,0,1-1.635-1.676,5.782,5.782,0,0,1-.56-2.648V32.013a5.665,5.665,0,0,1,.56-2.623,3.81,3.81,0,0,1,1.635-1.655,5.442,5.442,0,0,1,2.582-.571,6.482,6.482,0,0,1,1.635.2,4.99,4.99,0,0,1,1.381.575,3.685,3.685,0,0,1,1.018.917l-1.8,1.753a2.8,2.8,0,0,0-.906-.556,3.035,3.035,0,0,0-1.09-.2,2.252,2.252,0,0,0-1.64.566,2.123,2.123,0,0,0-.581,1.594v1.131a2.2,2.2,0,0,0,.581,1.635,2.227,2.227,0,0,0,1.64.576,2.856,2.856,0,0,0,1.1-.215,2.556,2.556,0,0,0,.9-.611l1.8,1.854a3.814,3.814,0,0,1-1.028.9,4.981,4.981,0,0,1-1.376.565,6.614,6.614,0,0,1-1.63.194A5.4,5.4,0,0,1,316.931,37.468Z"/>
          <path id="패스_10973" data-name="패스 10973" class="cls-2" d="M323.991,27.317h5.175V29.7h-5.175Zm1.737,9.917a3.009,3.009,0,0,1-.647-2.094v-10.9h2.791V34.448a1,1,0,0,0,.153.6.521.521,0,0,0,.448.209h.693v2.689H327.76A2.626,2.626,0,0,1,325.728,37.234Z"/>
          <path id="패스_10974" data-name="패스 10974" class="cls-2" d="M332.773,37.5a3.619,3.619,0,0,1-1.559-1.574,5.367,5.367,0,0,1-.535-2.49V31.718a5.256,5.256,0,0,1,.535-2.46,3.6,3.6,0,0,1,1.559-1.559,5.969,5.969,0,0,1,4.94,0,3.6,3.6,0,0,1,1.559,1.559,5.256,5.256,0,0,1,.535,2.46V33.47a5.282,5.282,0,0,1-.535,2.47,3.628,3.628,0,0,1-1.559,1.564,5.919,5.919,0,0,1-4.94,0Zm3.774-2.644a1.94,1.94,0,0,0,.468-1.39V31.718a1.906,1.906,0,0,0-.468-1.375,1.731,1.731,0,0,0-1.314-.49,1.7,1.7,0,0,0-1.3.49,1.918,1.918,0,0,0-.463,1.375V33.47a1.963,1.963,0,0,0,.458,1.39,1.689,1.689,0,0,0,1.3.495A1.723,1.723,0,0,0,336.547,34.86Z"/>
          <path id="패스_10975" data-name="패스 10975" class="cls-2" d="M341.728,27.317h2.995V37.891h-2.995Zm5.45,2.639a2.1,2.1,0,0,0-.683-.1,1.622,1.622,0,0,0-1.309.546,2.261,2.261,0,0,0-.463,1.512l-.214-2.75a3.758,3.758,0,0,1,1.136-1.472,2.492,2.492,0,0,1,1.533-.525,3.275,3.275,0,0,1,1.2.209,2.626,2.626,0,0,1,.932.616l-1.63,2.272A1.281,1.281,0,0,0,347.178,29.956Z"/>
          <path id="패스_10976" data-name="패스 10976" class="cls-2" d="M348.885,27.317h2.628l3.555,9.189-1.762,2.251Zm9.769,0-4.707,13.049a3.361,3.361,0,0,1-.656,1.146,2.213,2.213,0,0,1-.968.606,4.715,4.715,0,0,1-1.421.184h-.622v-2.71h.622a1.337,1.337,0,0,0,.749-.2,1.215,1.215,0,0,0,.453-.647l3.922-11.43Z"/>
          <path id="패스_10977" data-name="패스 10977" class="cls-2" d="M372.906,29.772V32.36h-8.679V29.772Zm-2.995,5.43h-2.689V26.93h2.689Z"/>
        </g>
        <g id="그룹_6705" data-name="그룹 6705">
          <path id="패스_10978" data-name="패스 10978" class="cls-1" d="M382.853,23.11h1.773l5.664,14.811h-3.005L383.74,27.806,380.2,37.921H377.19Zm-2.944,9.748H387.7v2.69h-7.793Z"/>
          <path id="패스_10979" data-name="패스 10979" class="cls-2" d="M394.085,33.775a1.583,1.583,0,0,0,.433,1.187,1.667,1.667,0,0,0,1.217.423,1.611,1.611,0,0,0,1.208-.433,1.7,1.7,0,0,0,.422-1.238l.143,2.313a3.287,3.287,0,0,1-.983,1.456,2.484,2.484,0,0,1-1.676.591,3.253,3.253,0,0,1-2.628-1.1,4.666,4.666,0,0,1-.927-3.1v-6.53h2.791Zm3.28-6.428h2.781V37.921h-2.781Z"/>
          <path id="패스_10980" data-name="패스 10980" class="cls-2" d="M401.456,27.347h5.175v2.384h-5.175Zm1.737,9.917a3.008,3.008,0,0,1-.647-2.093v-10.9h2.791V34.478a1,1,0,0,0,.153.6.521.521,0,0,0,.448.209h.693v2.689h-1.406A2.626,2.626,0,0,1,403.193,37.264Z"/>
          <path id="패스_10981" data-name="패스 10981" class="cls-2" d="M410.238,37.534a3.614,3.614,0,0,1-1.559-1.574,5.354,5.354,0,0,1-.535-2.49V31.748a5.244,5.244,0,0,1,.535-2.46,3.606,3.606,0,0,1,1.559-1.559,5.969,5.969,0,0,1,4.94,0,3.606,3.606,0,0,1,1.559,1.559,5.256,5.256,0,0,1,.534,2.46V33.5a5.286,5.286,0,0,1-.534,2.471,3.631,3.631,0,0,1-1.559,1.563,5.919,5.919,0,0,1-4.94,0Zm3.774-2.643a1.944,1.944,0,0,0,.468-1.391V31.748a1.908,1.908,0,0,0-.468-1.375,1.736,1.736,0,0,0-1.314-.489,1.7,1.7,0,0,0-1.3.489,1.92,1.92,0,0,0-.464,1.375V33.5a1.968,1.968,0,0,0,.459,1.391,1.691,1.691,0,0,0,1.3.494A1.727,1.727,0,0,0,414.012,34.891Z"/>
          <path id="패스_10982" data-name="패스 10982" class="cls-2" d="M419.192,27.347h2.791V37.921h-2.791Zm6.163,4.472a2.057,2.057,0,0,0-.458-1.431,1.661,1.661,0,0,0-1.294-.5,1.6,1.6,0,0,0-1.2.433,1.668,1.668,0,0,0-.423,1.217l-.214-2.343a3.824,3.824,0,0,1,1.172-1.487,2.734,2.734,0,0,1,1.65-.51,3.17,3.17,0,0,1,3.138,2.119,6.7,6.7,0,0,1,.417,2.5v6.112h-2.791Zm6.163,0a2.1,2.1,0,0,0-.443-1.431,1.824,1.824,0,0,0-2.5-.02,1.982,1.982,0,0,0-.433,1.37l-.519-2.445a3.929,3.929,0,0,1,1.3-1.553,3.08,3.08,0,0,1,1.777-.546,3.443,3.443,0,0,1,1.951.54,3.358,3.358,0,0,1,1.233,1.579,6.636,6.636,0,0,1,.422,2.5v6.112h-2.791Z"/>
          <path id="패스_10983" data-name="패스 10983" class="cls-2" d="M436.765,37.264a3.272,3.272,0,0,1-.84-2.46,2.883,2.883,0,0,1,.942-2.353,4.338,4.338,0,0,1,2.827-.784h2.648l.143,2.129H439.7a1.516,1.516,0,0,0-.948.249.911.911,0,0,0-.316.759.844.844,0,0,0,.4.769,2.292,2.292,0,0,0,1.2.25,4.122,4.122,0,0,0,1.665-.255.836.836,0,0,0,.546-.8l.213,1.539a1.436,1.436,0,0,1-.524.967,3.032,3.032,0,0,1-1.161.6,5.335,5.335,0,0,1-1.472.2A3.535,3.535,0,0,1,436.765,37.264Zm5.486-6.046a1.372,1.372,0,0,0-.489-1.13,2.145,2.145,0,0,0-1.386-.4,3.692,3.692,0,0,0-1.172.194,3.448,3.448,0,0,0-1.028.54l-1.732-1.7a4.162,4.162,0,0,1,1.671-1.125,6.329,6.329,0,0,1,2.3-.4,5.483,5.483,0,0,1,2.363.464A3.325,3.325,0,0,1,444.272,29a4.141,4.141,0,0,1,.515,2.124v6.794h-2.536Z"/>
          <path id="패스_10984" data-name="패스 10984" class="cls-2" d="M446.1,27.347h5.175v2.384H446.1Zm1.737,9.917a3,3,0,0,1-.647-2.093v-10.9h2.791V34.478a1,1,0,0,0,.153.6.521.521,0,0,0,.448.209h.693v2.689h-1.406A2.626,2.626,0,0,1,447.834,37.264Z"/>
          <path id="패스_10985" data-name="패스 10985" class="cls-2" d="M452.938,23.11h2.791V25.9h-2.791Zm0,4.237h2.791V37.921h-2.791Z"/>
          <path id="패스_10986" data-name="패스 10986" class="cls-2" d="M459.489,37.534a3.614,3.614,0,0,1-1.559-1.574,5.354,5.354,0,0,1-.535-2.49V31.748a5.244,5.244,0,0,1,.535-2.46,3.606,3.606,0,0,1,1.559-1.559,5.969,5.969,0,0,1,4.94,0,3.606,3.606,0,0,1,1.559,1.559,5.256,5.256,0,0,1,.534,2.46V33.5a5.286,5.286,0,0,1-.534,2.471,3.631,3.631,0,0,1-1.559,1.563,5.919,5.919,0,0,1-4.94,0Zm3.774-2.643a1.944,1.944,0,0,0,.468-1.391V31.748a1.908,1.908,0,0,0-.468-1.375,1.736,1.736,0,0,0-1.314-.489,1.7,1.7,0,0,0-1.3.489,1.92,1.92,0,0,0-.464,1.375V33.5a1.968,1.968,0,0,0,.459,1.391,1.691,1.691,0,0,0,1.3.494A1.727,1.727,0,0,0,463.263,34.891Z"/>
          <path id="패스_10987" data-name="패스 10987" class="cls-2" d="M468.443,27.347h2.791V37.921h-2.791Zm6.112,4.167a1.594,1.594,0,0,0-.443-1.2,1.734,1.734,0,0,0-1.258-.428,1.6,1.6,0,0,0-1.2.433,1.668,1.668,0,0,0-.423,1.217l-.214-2.343a3.971,3.971,0,0,1,1.146-1.5,2.721,2.721,0,0,1,1.676-.5,3.152,3.152,0,0,1,2.588,1.126,4.921,4.921,0,0,1,.916,3.184v6.417h-2.791Z"/>
          <path id="패스_10988" data-name="패스 10988" class="cls-1" d="M490.733,23.11h2.241l2.832,9.881,1.9-9.881h2.873l-3.413,14.811h-2.628l-2.628-10.35-2.751,10.35h-2.628L483.123,23.11H486l1.9,9.881Z"/>
          <path id="패스_10989" data-name="패스 10989" class="cls-2" d="M503.274,37.534a3.614,3.614,0,0,1-1.559-1.574,5.354,5.354,0,0,1-.535-2.49V31.748a5.244,5.244,0,0,1,.535-2.46,3.606,3.606,0,0,1,1.559-1.559,5.969,5.969,0,0,1,4.94,0,3.606,3.606,0,0,1,1.559,1.559,5.256,5.256,0,0,1,.534,2.46V33.5a5.286,5.286,0,0,1-.534,2.471,3.631,3.631,0,0,1-1.559,1.563,5.919,5.919,0,0,1-4.94,0Zm3.774-2.643a1.944,1.944,0,0,0,.468-1.391V31.748a1.908,1.908,0,0,0-.468-1.375,1.736,1.736,0,0,0-1.314-.489,1.7,1.7,0,0,0-1.3.489,1.92,1.92,0,0,0-.464,1.375V33.5a1.968,1.968,0,0,0,.459,1.391,1.691,1.691,0,0,0,1.3.494A1.727,1.727,0,0,0,507.048,34.891Z"/>
          <path id="패스_10990" data-name="패스 10990" class="cls-2" d="M512.228,27.347h3V37.921h-3Zm5.451,2.639a2.1,2.1,0,0,0-.683-.1,1.625,1.625,0,0,0-1.309.545,2.261,2.261,0,0,0-.463,1.512l-.215-2.75a3.784,3.784,0,0,1,1.136-1.472,2.493,2.493,0,0,1,1.534-.525,3.266,3.266,0,0,1,1.2.209,2.619,2.619,0,0,1,.932.617l-1.629,2.271A1.312,1.312,0,0,0,517.679,29.986Z"/>
          <path id="패스_10991" data-name="패스 10991" class="cls-2" d="M523.3,34.427a.784.784,0,0,0,.219.6.87.87,0,0,0,.627.209h.468v2.689h-1.426a2.606,2.606,0,0,1-1.976-.733,2.868,2.868,0,0,1-.7-2.068V23.11H523.3Z"/>
          <path id="패스_10992" data-name="패스 10992" class="cls-2" d="M527.25,37.534a3.348,3.348,0,0,1-1.217-1.563,6.529,6.529,0,0,1-.418-2.471V31.809a6.68,6.68,0,0,1,.418-2.5,3.17,3.17,0,0,1,3.138-2.119,2.579,2.579,0,0,1,1.543.5,3.549,3.549,0,0,1,1.125,1.431l-.213,2.343a2.085,2.085,0,0,0-.184-.917,1.286,1.286,0,0,0-.535-.575,1.7,1.7,0,0,0-.85-.2,1.474,1.474,0,0,0-1.217.535,2.319,2.319,0,0,0-.433,1.5V33.5a2.221,2.221,0,0,0,.433,1.467,1.5,1.5,0,0,0,1.217.52,1.739,1.739,0,0,0,.85-.194,1.271,1.271,0,0,0,.535-.56,1.969,1.969,0,0,0,.184-.886l.142,2.414a2.786,2.786,0,0,1-1,1.339,2.7,2.7,0,0,1-1.6.474A3.35,3.35,0,0,1,527.25,37.534Zm4.376-14.424h2.791V37.921h-2.791Z"/>
          <path id="패스_10993" data-name="패스 10993" class="cls-2" d="M541.192,35.4l5.083-6.683a3.8,3.8,0,0,0,.535-.921A2.41,2.41,0,0,0,547,26.92V26.9a1.147,1.147,0,0,0-.387-.927,1.663,1.663,0,0,0-1.1-.326,1.471,1.471,0,0,0-1.121.453,2.17,2.17,0,0,0-.519,1.289v.01h-2.863v-.01A5.444,5.444,0,0,1,541.675,25a3.909,3.909,0,0,1,1.554-1.523,4.719,4.719,0,0,1,2.261-.524,5.628,5.628,0,0,1,2.369.453,3.294,3.294,0,0,1,1.5,1.32,4.016,4.016,0,0,1,.515,2.088v.01a5.969,5.969,0,0,1-.352,2,6.282,6.282,0,0,1-.983,1.8l-3.646,4.6h5.062v2.689h-8.76Z"/>
          <path id="패스_10994" data-name="패스 10994" class="cls-2" d="M552.7,36.959a4.145,4.145,0,0,1-1.13-3.092V27.134a4.13,4.13,0,0,1,1.135-3.1,5.484,5.484,0,0,1,6.6-.005,4.138,4.138,0,0,1,1.131,3.108v6.733a4.13,4.13,0,0,1-1.136,3.1,5.454,5.454,0,0,1-6.6-.01Zm4.544-2.15a2.9,2.9,0,0,0,.4-1.655V27.846a2.9,2.9,0,0,0-.4-1.655,1.631,1.631,0,0,0-2.486,0,2.9,2.9,0,0,0-.4,1.655v5.308a2.9,2.9,0,0,0,.4,1.655,1.629,1.629,0,0,0,2.486,0Z"/>
          <path id="패스_10995" data-name="패스 10995" class="cls-2" d="M562.229,35.4l5.083-6.683a3.8,3.8,0,0,0,.535-.921,2.389,2.389,0,0,0,.188-.881V26.9a1.147,1.147,0,0,0-.387-.927,1.663,1.663,0,0,0-1.1-.326,1.469,1.469,0,0,0-1.12.453,2.164,2.164,0,0,0-.52,1.289v.01h-2.862v-.01A5.417,5.417,0,0,1,562.713,25a3.9,3.9,0,0,1,1.553-1.523,4.721,4.721,0,0,1,2.262-.524,5.627,5.627,0,0,1,2.368.453,3.294,3.294,0,0,1,1.5,1.32,4.016,4.016,0,0,1,.515,2.088v.01a5.944,5.944,0,0,1-.352,2,6.281,6.281,0,0,1-.983,1.8l-3.646,4.6h5.062v2.689h-8.76Z"/>
          <path id="패스_10996" data-name="패스 10996" class="cls-2" d="M576.588,37.921H573.8V26.39l-1.8.682V24.108l2.211-1h2.384Z"/>
        </g>
        <g id="그룹_6706" data-name="그룹 6706">
          <path id="패스_10997" data-name="패스 10997" class="cls-1" d="M583.944,35.95V34.692h13.923V35.95Zm12.305-4.281a9.344,9.344,0,0,1-1.716-.49,8.257,8.257,0,0,1-1.528-.785,6.546,6.546,0,0,1-1.234-1.046,4.435,4.435,0,0,1-.833-1.291,4.419,4.419,0,0,1-.834,1.291,6.358,6.358,0,0,1-1.242,1.046,8.54,8.54,0,0,1-1.527.785,9.145,9.145,0,0,1-1.707.49l-.491-1.177a9.722,9.722,0,0,0,1.871-.58,6.058,6.058,0,0,0,1.61-.989,4.649,4.649,0,0,0,1.128-1.446,4.29,4.29,0,0,0,.424-1.953V23.907h1.536v1.617a4.279,4.279,0,0,0,.425,1.953,4.632,4.632,0,0,0,1.127,1.446,6.042,6.042,0,0,0,1.61.989,9.722,9.722,0,0,0,1.871.58Z"/>
          <path id="패스_10998" data-name="패스 10998" class="cls-1" d="M599.795,34.348v-9.9h7.337v9.9Zm5.834-8.643H601.3v7.4h4.331Zm5.555,2.957h2.484v1.275h-2.484v7.974H609.7V22.926h1.486Z"/>
          <path id="패스_10999" data-name="패스 10999" class="cls-1" d="M614.665,35.95V34.692h13.922V35.95Zm3.464-7.174v2.255h8.644v1.258H616.625V24.07h9.984v1.259h-8.48v2.189h8.317v1.258Z"/>
          <path id="패스_11000" data-name="패스 11000" class="cls-1" d="M630.025,31.031V29.773H635.6V26.8h1.5v2.974h6.846v1.258Zm1.651,4.134a2.336,2.336,0,0,1,1.413-2.173,10.874,10.874,0,0,1,7.86,0,2.378,2.378,0,0,1,0,4.347,10.874,10.874,0,0,1-7.86,0A2.336,2.336,0,0,1,631.676,35.165Zm.146-11.732h10.23v.719a19.1,19.1,0,0,1-.621,4.82l-1.454-.277a16.54,16.54,0,0,0,.4-2.01,17.331,17.331,0,0,0,.155-2.01h-8.71Zm9.053,11.732a1.113,1.113,0,0,0-.278-.759,1.941,1.941,0,0,0-.792-.515,5.658,5.658,0,0,0-1.226-.294,12.537,12.537,0,0,0-3.129,0,5.641,5.641,0,0,0-1.217.294,1.945,1.945,0,0,0-.793.515,1.176,1.176,0,0,0,0,1.519,1.935,1.935,0,0,0,.793.515,5.584,5.584,0,0,0,1.217.294,12.537,12.537,0,0,0,3.129,0,5.6,5.6,0,0,0,1.226-.294,1.931,1.931,0,0,0,.792-.515A1.112,1.112,0,0,0,640.875,35.165Z"/>
          <path id="패스_11001" data-name="패스 11001" class="cls-1" d="M653.817,23.907v1.274h-3.268v.556a3.472,3.472,0,0,0,.327,1.528,4.469,4.469,0,0,0,.841,1.2,5.018,5.018,0,0,0,1.169.882,6.548,6.548,0,0,0,1.323.556l-.686,1.111a4.969,4.969,0,0,1-1.005-.359,6.338,6.338,0,0,1-1.005-.6,6.686,6.686,0,0,1-.931-.833,4.922,4.922,0,0,1-.752-1.062,5.345,5.345,0,0,1-1.593,1.985,9.065,9.065,0,0,1-2.329,1.331l-.7-1.045a9.654,9.654,0,0,0,1.537-.793,6.056,6.056,0,0,0,1.217-1.013,4.22,4.22,0,0,0,.8-1.266,4.093,4.093,0,0,0,.285-1.553v-.621h-3.283V23.907Zm-6.863,11.177a2.419,2.419,0,0,1,1.414-2.214,10.34,10.34,0,0,1,7.86,0,2.441,2.441,0,0,1,0,4.428,10.34,10.34,0,0,1-7.86,0A2.42,2.42,0,0,1,646.954,35.084Zm9.2,0a1.2,1.2,0,0,0-.278-.793,2,2,0,0,0-.792-.547,5.048,5.048,0,0,0-1.226-.311,12.673,12.673,0,0,0-3.13,0,5.021,5.021,0,0,0-1.216.311,1.992,1.992,0,0,0-.793.547,1.27,1.27,0,0,0,0,1.586,1.992,1.992,0,0,0,.793.547,5.022,5.022,0,0,0,1.216.31,12.545,12.545,0,0,0,3.13,0,5.05,5.05,0,0,0,1.226-.31,2,2,0,0,0,.792-.547A1.2,1.2,0,0,0,656.154,35.084Zm1.111-8.53h2.484v1.259h-2.484v3.84h-1.487V22.926h1.487Z"/>
          <path id="패스_11002" data-name="패스 11002" class="cls-1" d="M663.408,31.407h-1.813V29.594h1.813Z"/>
          <path id="패스_11003" data-name="패스 11003" class="cls-1" d="M674.079,24.446v1.275h-3.268v1.291a6.748,6.748,0,0,0,1.054,3.742,9.037,9.037,0,0,0,2.851,2.761l-.9,1.014a9.616,9.616,0,0,1-1.144-.85,10.76,10.76,0,0,1-1.07-1.055,9.956,9.956,0,0,1-.907-1.192,6.428,6.428,0,0,1-.654-1.3,6.159,6.159,0,0,1-.678,1.339,11.046,11.046,0,0,1-.956,1.242,11.7,11.7,0,0,1-1.111,1.095,10.284,10.284,0,0,1-1.177.883l-.9-1.013a9.725,9.725,0,0,0,1.65-1.283,8.469,8.469,0,0,0,1.291-1.585A7.572,7.572,0,0,0,669,29a6.713,6.713,0,0,0,.294-1.985V25.721h-3.267V24.446Zm3.448,4.216h2.484v1.275h-2.484v7.974H676.04V22.926h1.487Z"/>
          <path id="패스_11004" data-name="패스 11004" class="cls-1" d="M693.116,28.6h-4.38v1.5h6.193v1.258H681.007V30.1h6.226V28.6h-4.265V23.351h9.984V24.61h-8.481v2.729h8.645Zm-10.458,6.651a2.257,2.257,0,0,1,1.413-2.133,11.475,11.475,0,0,1,7.86,0,2.316,2.316,0,0,1,0,4.265,11.475,11.475,0,0,1-7.86,0A2.257,2.257,0,0,1,682.658,35.248Zm9.2,0a1.06,1.06,0,0,0-.278-.744,1.974,1.974,0,0,0-.793-.49,5.436,5.436,0,0,0-1.226-.27,15.149,15.149,0,0,0-3.129,0,5.424,5.424,0,0,0-1.217.27,1.974,1.974,0,0,0-.793.49,1.133,1.133,0,0,0,0,1.487,2,2,0,0,0,.793.49,5.424,5.424,0,0,0,1.217.27,15.149,15.149,0,0,0,3.129,0,5.436,5.436,0,0,0,1.226-.27,2,2,0,0,0,.793-.49A1.061,1.061,0,0,0,691.858,35.248Z"/>
          <path id="패스_11005" data-name="패스 11005" class="cls-1" d="M697.561,30.313a2.187,2.187,0,0,1,.907-1.864,4.025,4.025,0,0,1,2.443-.669,4.088,4.088,0,0,1,2.458.661,2.182,2.182,0,0,1,.908,1.872,2.208,2.208,0,0,1-.7,1.707,3.374,3.374,0,0,1-1.929.793v.964c.687-.054,1.374-.118,2.059-.188s1.373-.15,2.059-.237l.213,1.209q-2.436.327-4.853.5t-4.87.205l-.2-1.242q2.027-.016,4.085-.147V32.8a3.339,3.339,0,0,1-1.9-.809A2.195,2.195,0,0,1,697.561,30.313Zm7.614-4.478v1.258h-8.546V25.835Zm-1.715-2.173v1.275h-5.116V23.662Zm-.654,6.651a1.3,1.3,0,0,0-.1-.5,1.054,1.054,0,0,0-.319-.416,1.646,1.646,0,0,0-.58-.286,3.185,3.185,0,0,0-.9-.106,2.95,2.95,0,0,0-.858.106,1.753,1.753,0,0,0-.581.286,1.116,1.116,0,0,0-.335.408,1.16,1.16,0,0,0-.106.49,1.22,1.22,0,0,0,.433.932,2.138,2.138,0,0,0,1.447.392,3.26,3.26,0,0,0,.9-.106,1.646,1.646,0,0,0,.58-.286,1.057,1.057,0,0,0,.319-.417A1.3,1.3,0,0,0,702.806,30.313Zm5.441-1.324h2.484v1.275h-2.484v7.647h-1.486V22.926h1.486Z"/>
          <path id="패스_11006" data-name="패스 11006" class="cls-1" d="M719.817,31.423a7.717,7.717,0,0,1-1-.522,6.805,6.805,0,0,1-.989-.744,7.573,7.573,0,0,1-.915-.988,6.138,6.138,0,0,1-.744-1.242A5.725,5.725,0,0,1,715.5,29.1a7.955,7.955,0,0,1-.915,1.038,8.965,8.965,0,0,1-1.087.882,8.474,8.474,0,0,1-1.2.695l-.785-1.046a9.1,9.1,0,0,0,1.537-.948,6.573,6.573,0,0,0,1.217-1.209,5.626,5.626,0,0,0,.809-1.454,4.713,4.713,0,0,0,.294-1.667v-1.65h1.52v1.585a4.5,4.5,0,0,0,.327,1.748,5.38,5.38,0,0,0,.857,1.413,5.945,5.945,0,0,0,1.185,1.079,8.093,8.093,0,0,0,1.324.744Zm-5.965,6.325V32.633h1.5V36.49h8.58v1.258Zm9.756-10.36h2.483v1.258h-2.483v5.392h-1.487V22.926h1.487Z"/>
          <path id="패스_11007" data-name="패스 11007" class="cls-1" d="M727.578,27.044a3.386,3.386,0,0,1,.286-1.405,3.2,3.2,0,0,1,.8-1.095,3.7,3.7,0,0,1,1.226-.711,4.691,4.691,0,0,1,1.577-.253,4.764,4.764,0,0,1,1.585.253,3.689,3.689,0,0,1,1.234.711,3.206,3.206,0,0,1,.8,1.095,3.594,3.594,0,0,1,0,2.81,3.2,3.2,0,0,1-.8,1.1,3.675,3.675,0,0,1-1.234.712,4.739,4.739,0,0,1-1.585.252,4.667,4.667,0,0,1-1.577-.252,3.686,3.686,0,0,1-1.226-.712,3.2,3.2,0,0,1-.8-1.1A3.38,3.38,0,0,1,727.578,27.044Zm6.324,0a2.154,2.154,0,0,0-.6-1.552,2.447,2.447,0,0,0-1.839-.621,3.022,3.022,0,0,0-1.037.163,2.146,2.146,0,0,0-.76.458,1.894,1.894,0,0,0-.466.686,2.278,2.278,0,0,0-.156.85,2.124,2.124,0,0,0,.622,1.569,2.971,2.971,0,0,0,3.636,0A2.156,2.156,0,0,0,733.9,27.044Zm-4.037,10.867V31.653h1.5v1.878H738.3V31.653h1.486v6.258Zm8.433-3.154h-6.929v1.928H738.3Zm0-8.481v-3.35h1.486v7.909H738.3V27.551H736.01V26.276Z"/>
          <path id="패스_11008" data-name="패스 11008" class="cls-1" d="M751.043,23.907v1.274h-3.268v.883a3.472,3.472,0,0,0,.327,1.528,4.468,4.468,0,0,0,.841,1.2,5.046,5.046,0,0,0,1.169.882,6.6,6.6,0,0,0,1.323.556l-.685,1.111a4.921,4.921,0,0,1-1.006-.36,6.255,6.255,0,0,1-1.005-.6,6.636,6.636,0,0,1-.931-.834,4.907,4.907,0,0,1-.752-1.062,5.341,5.341,0,0,1-1.593,1.986,9.077,9.077,0,0,1-2.329,1.331l-.7-1.045a9.73,9.73,0,0,0,1.536-.793,6.031,6.031,0,0,0,1.217-1.013,4.225,4.225,0,0,0,.8-1.267,4.087,4.087,0,0,0,.286-1.551v-.949h-3.285V23.907Zm-5.817,13.841V32.633h1.5V36.49h8.743v1.258ZM753.658,26.8V22.926h1.487V34.038h-1.487V28.074h-2.892V26.8Z"/>
        </g>
      </g>
      <g id="그룹_6710" data-name="그룹 6710">
        <g id="그룹_6708" data-name="그룹 6708">
          <path id="패스_11009" data-name="패스 11009" class="cls-2" d="M773.291,35.257l4.622-6.163a4.559,4.559,0,0,0,.625-1.1,2.943,2.943,0,0,0,.223-1.062v-.019a1.606,1.606,0,0,0-.465-1.23,1.855,1.855,0,0,0-1.322-.438,1.821,1.821,0,0,0-1.312.479,2.174,2.174,0,0,0-.611,1.354v.009h-1.924V27.08a4.958,4.958,0,0,1,.67-1.946,3.4,3.4,0,0,1,1.309-1.231,3.9,3.9,0,0,1,1.85-.424,4.62,4.62,0,0,1,2.024.405,2.857,2.857,0,0,1,1.276,1.181,3.744,3.744,0,0,1,.438,1.869v.009a4.1,4.1,0,0,1-.292,1.467,6.291,6.291,0,0,1-.811,1.477L775.753,35.1h5.013V36.87h-7.475Z"/>
          <path id="패스_11010" data-name="패스 11010" class="cls-2" d="M783.725,36.014a3.822,3.822,0,0,1-.961-2.772V27.216a3.811,3.811,0,0,1,.965-2.776,4.524,4.524,0,0,1,5.639,0,3.812,3.812,0,0,1,.962,2.78v6.026a3.8,3.8,0,0,1-.967,2.777,4.507,4.507,0,0,1-5.638-.005ZM788,34.724a2.124,2.124,0,0,0,.469-1.482V27.216a2.136,2.136,0,0,0-.464-1.481,2.323,2.323,0,0,0-2.917,0,2.136,2.136,0,0,0-.465,1.481v6.026a2.124,2.124,0,0,0,.469,1.482,2.314,2.314,0,0,0,2.908,0Z"/>
          <path id="패스_11011" data-name="패스 11011" class="cls-2" d="M792.49,35.257l4.622-6.163a4.557,4.557,0,0,0,.625-1.1,2.942,2.942,0,0,0,.223-1.062v-.019a1.606,1.606,0,0,0-.465-1.23,1.855,1.855,0,0,0-1.322-.438,1.819,1.819,0,0,0-1.312.479,2.173,2.173,0,0,0-.611,1.354v.009h-1.924V27.08a4.958,4.958,0,0,1,.67-1.946A3.4,3.4,0,0,1,794.3,23.9a3.9,3.9,0,0,1,1.851-.424,4.624,4.624,0,0,1,2.024.405,2.857,2.857,0,0,1,1.276,1.181,3.744,3.744,0,0,1,.438,1.869v.009a4.12,4.12,0,0,1-.292,1.467,6.329,6.329,0,0,1-.811,1.477L794.951,35.1h5.014V36.87H792.49Z"/>
          <path id="패스_11012" data-name="패스 11012" class="cls-2" d="M805.162,36.87H803.3V25.639L801.415,26.8V24.874l1.888-1.258h1.859Z"/>
          <path id="패스_11013" data-name="패스 11013" class="cls-2" d="M807.569,34.919h1.951V36.87h-1.951Z"/>
          <path id="패스_11014" data-name="패스 11014" class="cls-2" d="M820.988,30.289l-.009.328a1.364,1.364,0,0,1-.688.615,2.764,2.764,0,0,1-1.09.2,2.928,2.928,0,0,1-1.668-.483,3.154,3.154,0,0,1-1.116-1.363,4.9,4.9,0,0,1-.4-2.037v-.009a5.086,5.086,0,0,1,.433-2.2,3.05,3.05,0,0,1,1.268-1.385,3.98,3.98,0,0,1,2-.474,3.9,3.9,0,0,1,2,.483,3.112,3.112,0,0,1,1.262,1.4,5.166,5.166,0,0,1,.433,2.215v.009a6.875,6.875,0,0,1-.182,1.518,9.382,9.382,0,0,1-.519,1.6c-.038.079-.074.16-.11.241s-.076.163-.119.242l-2.825,5.679h-2.006Zm.087-1.149a2.592,2.592,0,0,0,.479-1.669v-.009a2.472,2.472,0,0,0-.479-1.623,1.9,1.9,0,0,0-2.716,0,2.487,2.487,0,0,0-.479,1.632v.01a2.568,2.568,0,0,0,.479,1.663,1.858,1.858,0,0,0,2.716,0Z"/>
          <path id="패스_11015" data-name="패스 11015" class="cls-2" d="M825.273,34.919h1.952V36.87h-1.952Z"/>
          <path id="패스_11016" data-name="패스 11016" class="cls-2" d="M835.767,36.551a3.326,3.326,0,0,1-1.408-1.289,3.72,3.72,0,0,1-.5-1.938V33.1a3.726,3.726,0,0,1,.5-1.868,3.3,3.3,0,0,1,1.327-1.322,2.9,2.9,0,0,1-1.127-1.108,2.974,2.974,0,0,1-.424-1.527v-.319a3.528,3.528,0,0,1,.465-1.827,3.159,3.159,0,0,1,1.313-1.222,4.7,4.7,0,0,1,3.939,0,3.163,3.163,0,0,1,1.312,1.222,3.528,3.528,0,0,1,.464,1.827v.319a2.934,2.934,0,0,1-.432,1.541,2.89,2.89,0,0,1-1.145,1.094,3.442,3.442,0,0,1,1.346,1.326A3.65,3.65,0,0,1,841.9,33.1v.219a3.728,3.728,0,0,1-.5,1.938A3.335,3.335,0,0,1,840,36.551a5.133,5.133,0,0,1-4.23,0Zm3.255-1.585a1.85,1.85,0,0,0,.76-.716,2.05,2.05,0,0,0,.269-1.062V33.06a2.065,2.065,0,0,0-.269-1.071,1.844,1.844,0,0,0-.76-.716,2.676,2.676,0,0,0-2.28,0,1.834,1.834,0,0,0-.76.72,2.1,2.1,0,0,0-.269,1.076v.137a2.034,2.034,0,0,0,.269,1.057,1.817,1.817,0,0,0,.76.707,2.7,2.7,0,0,0,2.28,0Zm-.156-5.977a1.661,1.661,0,0,0,.667-.687,2.2,2.2,0,0,0,.236-1.031v-.127a2.028,2.028,0,0,0-.236-.986,1.637,1.637,0,0,0-.667-.66,2.2,2.2,0,0,0-1.968,0,1.632,1.632,0,0,0-.665.66,2.029,2.029,0,0,0-.238.995v.136a2.122,2.122,0,0,0,.238,1.017,1.664,1.664,0,0,0,.665.683,2.122,2.122,0,0,0,1.968,0Z"/>
          <path id="패스_11017" data-name="패스 11017" class="cls-2" d="M844.639,33.647a11.333,11.333,0,0,1,0-7.394,9.035,9.035,0,0,1,1.863-3.025l.98.888a7.9,7.9,0,0,0-1.581,2.631,10.036,10.036,0,0,0,0,6.407,7.973,7.973,0,0,0,1.581,2.637l-.98.881A9.045,9.045,0,0,1,844.639,33.647Z"/>
          <path id="패스_11018" data-name="패스 11018" class="cls-2" d="M853.251,36.775V32.363h-5.357V31.087h12.291v1.276H854.8v4.412Zm5.445-6.891a9.117,9.117,0,0,1-2.765-1.06,5.13,5.13,0,0,1-1.877-1.848,5.13,5.13,0,0,1-1.877,1.848,9.131,9.131,0,0,1-2.764,1.06l-.516-1.2a9.08,9.08,0,0,0,1.661-.523,5.974,5.974,0,0,0,1.39-.817,3.835,3.835,0,0,0,.959-1.11,2.789,2.789,0,0,0,.359-1.4v-.846h1.575v.846a2.744,2.744,0,0,0,.366,1.4,3.959,3.959,0,0,0,.967,1.11,5.974,5.974,0,0,0,1.39.817,9.172,9.172,0,0,0,1.648.523Z"/>
          <path id="패스_11019" data-name="패스 11019" class="cls-2" d="M860.656,35.791a8.042,8.042,0,0,0,1.581-2.637,10.055,10.055,0,0,0,0-6.407,7.965,7.965,0,0,0-1.581-2.631l.979-.888a9.07,9.07,0,0,1,1.864,3.025,11.35,11.35,0,0,1,0,7.394,9.08,9.08,0,0,1-1.864,3.025Z"/>
          <path id="패스_11020" data-name="패스 11020" class="cls-2" d="M875.4,31.989a4.65,4.65,0,0,1-.82-.388l-.292-.173a5.471,5.471,0,0,0-.566-.315,1.088,1.088,0,0,0-.455-.1.53.53,0,0,0-.479.25,1.405,1.405,0,0,0-.159.743v.1h-1.623v-.229a3.4,3.4,0,0,1,.466-1.969,1.6,1.6,0,0,1,1.394-.656,2.563,2.563,0,0,1,.971.173,7.069,7.069,0,0,1,.934.483l.033.019.031.018c.006.006.01.01.014.01a.022.022,0,0,1,.013.009,6.327,6.327,0,0,0,.575.314,1.035,1.035,0,0,0,.438.1.524.524,0,0,0,.478-.263,1.6,1.6,0,0,0,.16-.8v-.091h1.623v.219a3.6,3.6,0,0,1-.462,2.023,1.568,1.568,0,0,1-1.39.675A2.652,2.652,0,0,1,875.4,31.989Z"/>
          <path id="패스_11021" data-name="패스 11021" class="cls-2" d="M889.65,30.289l-.009.328a1.358,1.358,0,0,1-.689.615,2.755,2.755,0,0,1-1.089.2,2.926,2.926,0,0,1-1.668-.483,3.154,3.154,0,0,1-1.116-1.363,4.9,4.9,0,0,1-.4-2.037v-.009a5.086,5.086,0,0,1,.433-2.2,3.053,3.053,0,0,1,1.267-1.385,3.987,3.987,0,0,1,2-.474,3.9,3.9,0,0,1,2,.483,3.106,3.106,0,0,1,1.262,1.4,5.181,5.181,0,0,1,.433,2.215v.009a6.937,6.937,0,0,1-.182,1.518,9.381,9.381,0,0,1-.52,1.6c-.037.079-.073.16-.109.241s-.077.163-.119.242l-2.826,5.679h-2Zm.087-1.149a2.592,2.592,0,0,0,.479-1.669v-.009a2.472,2.472,0,0,0-.479-1.623,1.9,1.9,0,0,0-2.716,0,2.487,2.487,0,0,0-.479,1.632v.01a2.568,2.568,0,0,0,.479,1.663,1.858,1.858,0,0,0,2.716,0Z"/>
          <path id="패스_11022" data-name="패스 11022" class="cls-2" d="M893.934,34.919h1.95V36.87h-1.95Z"/>
          <path id="패스_11023" data-name="패스 11023" class="cls-2" d="M905.859,36.87H904V25.639L902.112,26.8V24.874L904,23.616h1.86Z"/>
          <path id="패스_11024" data-name="패스 11024" class="cls-2" d="M909.455,36.014a3.822,3.822,0,0,1-.961-2.772V27.216a3.807,3.807,0,0,1,.966-2.776,4.524,4.524,0,0,1,5.639,0,3.812,3.812,0,0,1,.961,2.78v6.026a3.808,3.808,0,0,1-.966,2.777,4.508,4.508,0,0,1-5.639-.005Zm4.277-1.29a2.129,2.129,0,0,0,.469-1.482V27.216a2.136,2.136,0,0,0-.465-1.481,2.324,2.324,0,0,0-2.918,0,2.136,2.136,0,0,0-.465,1.481v6.026a2.129,2.129,0,0,0,.47,1.482,2.315,2.315,0,0,0,2.909,0Z"/>
          <path id="패스_11025" data-name="패스 11025" class="cls-2" d="M918.934,33.647a11.333,11.333,0,0,1,0-7.394,9.053,9.053,0,0,1,1.864-3.025l.98.888a7.918,7.918,0,0,0-1.582,2.631,10.055,10.055,0,0,0,0,6.407,7.994,7.994,0,0,0,1.582,2.637l-.98.881A9.063,9.063,0,0,1,918.934,33.647Z"/>
          <path id="패스_11026" data-name="패스 11026" class="cls-2" d="M922.189,30.787V29.512h12.292v1.275Zm1.576-6.862h9.054v.63a16.757,16.757,0,0,1-.558,4.283l-1.519-.286c.133-.544.249-1.1.344-1.662a12.956,12.956,0,0,0,.172-1.7h-7.493Zm.072,12.779V32.019h9.054V36.7Zm7.506-3.41h-5.959v2.149h5.959Z"/>
          <path id="패스_11027" data-name="패스 11027" class="cls-2" d="M934.951,35.791a8.027,8.027,0,0,0,1.582-2.637,10.072,10.072,0,0,0,0-6.407,7.95,7.95,0,0,0-1.582-2.631l.98-.888a9.069,9.069,0,0,1,1.864,3.025,11.366,11.366,0,0,1,0,7.394,9.079,9.079,0,0,1-1.864,3.025Z"/>
        </g>
        <path id="패스_11028" data-name="패스 11028" class="cls-2" d="M946.477,37.807h-1.232V23.194h1.232Z"/>
        <g id="그룹_6709" data-name="그룹 6709">
          <path id="패스_11029" data-name="패스 11029" class="cls-2" d="M953.308,35.289V33.967h4.861V30.7h1.6v3.271h6.288v1.322Zm1.635-10.821h9.394v1.546q0,.729-.059,1.613t-.164,1.776q-.1.892-.23,1.687a13.12,13.12,0,0,1-.275,1.345l-1.546-.282q.119-.521.245-1.256t.216-1.538h-7.729V28.05h7.848q.045-.489.067-.944t.022-.81v-.52h-7.789Z"/>
          <path id="패스_11030" data-name="패스 11030" class="cls-2" d="M966.834,27.441a4.191,4.191,0,0,1,.223-1.383,3.354,3.354,0,0,1,.632-1.107,2.874,2.874,0,0,1,1.011-.736,3.321,3.321,0,0,1,1.36-.267,3.5,3.5,0,0,1,1.189.193,2.912,2.912,0,0,1,1.613,1.4,3.968,3.968,0,0,1,.379,1.069H974.5v-3h1.546v7.625H974.5v-3.3h-1.218a3.911,3.911,0,0,1-.328,1.2,3.183,3.183,0,0,1-.661.952,2.9,2.9,0,0,1-.974.624,3.4,3.4,0,0,1-1.263.223,3.3,3.3,0,0,1-1.36-.268,2.86,2.86,0,0,1-1.011-.735,3.359,3.359,0,0,1-.632-1.108A4.181,4.181,0,0,1,966.834,27.441Zm4.906,0a3.263,3.263,0,0,0-.1-.847,2.078,2.078,0,0,0-.313-.677,1.451,1.451,0,0,0-.527-.453,1.6,1.6,0,0,0-.736-.163,1.469,1.469,0,0,0-.706.163,1.535,1.535,0,0,0-.513.446,2.1,2.1,0,0,0-.32.676,3.089,3.089,0,0,0-.111.84,3.142,3.142,0,0,0,.111.855,2.2,2.2,0,0,0,.32.684,1.5,1.5,0,0,0,.513.453,1.469,1.469,0,0,0,.706.163,1.6,1.6,0,0,0,.736-.163,1.451,1.451,0,0,0,.527-.453,2.088,2.088,0,0,0,.313-.677A3.263,3.263,0,0,0,971.74,27.441Zm5.365,9.692V33.342h-8.353V32.034H978.7v5.1Zm.045-5.753V23.354H978.7V31.38Z"/>
          <path id="패스_11031" data-name="패스 11031" class="cls-2" d="M980.063,35.289V33.967h12.754v1.322Zm11.237-3.88a8.729,8.729,0,0,1-1.523-.43,7.427,7.427,0,0,1-1.36-.684,6.593,6.593,0,0,1-1.13-.915,4.527,4.527,0,0,1-.817-1.121,4.978,4.978,0,0,1-.825,1.121,6.231,6.231,0,0,1-1.13.915,7.8,7.8,0,0,1-1.36.684,8.532,8.532,0,0,1-1.516.43l-.52-1.233a8.731,8.731,0,0,0,1.709-.527,5.455,5.455,0,0,0,1.442-.892,4.2,4.2,0,0,0,1-1.3,3.836,3.836,0,0,0,.379-1.739V24.245h1.635v1.472a3.848,3.848,0,0,0,.379,1.739,4.185,4.185,0,0,0,1,1.3,5.448,5.448,0,0,0,1.441.892,8.72,8.72,0,0,0,1.71.527Z"/>
          <path id="패스_11032" data-name="패스 11032" class="cls-2" d="M1004.916,24.245v1.338h-2.9v.609a3.15,3.15,0,0,0,.29,1.368,3.852,3.852,0,0,0,.758,1.077,4.538,4.538,0,0,0,1.056.788,6,6,0,0,0,1.2.5l-.728,1.175a5.249,5.249,0,0,1-1.791-.833,5.47,5.47,0,0,1-1.539-1.665,5.582,5.582,0,0,1-1.494,1.769,7.938,7.938,0,0,1-2.058,1.175l-.758-1.116a8.48,8.48,0,0,0,1.4-.727,5.523,5.523,0,0,0,1.1-.93,3.851,3.851,0,0,0,.713-1.137,3.641,3.641,0,0,0,.253-1.382v-.669H997.5V24.245Zm-5.381,12.679V32.183h1.605V35.6h7.8v1.322Zm7.6-10.092V23.354h1.59v10.2h-1.59V28.169h-2.557V26.832Z"/>
          <path id="패스_11033" data-name="패스 11033" class="cls-2" d="M1019.23,31.172q-2.26.312-4.444.468t-4.489.186l-.209-1.308,1.4-.03q.691-.015,1.405-.044V27.426h1.6V30.34q1.114-.075,2.23-.179t2.274-.267Zm-8.175-6.957h6.763v1.056a14.84,14.84,0,0,1-.141,1.873,17.334,17.334,0,0,1-.439,2.2l-1.575-.3q.192-.742.341-1.59a9.32,9.32,0,0,0,.149-1.606v-.327h-5.1Zm1.189,12.709V32.7h1.6v2.9h7.729v1.322Zm9.111-9.29h2.185v1.338h-2.185v4.682h-1.59v-10.3h1.59Z"/>
        </g>
      </g>
      <rect id="사각형_8588" data-name="사각형 8588" class="cls-1" width="2.204" height="17.604" transform="translate(763.78 21.698)"/>
    </g>
    <g id="그룹_6712" data-name="그룹 6712" transform="translate(294 63)">
      <path id="패스_11034" data-name="패스 11034" class="cls-2" d="M190.112,25.3c.092,0,.132.03.132.122v.342c0,.091-.04.126-.132.126h-.56V28.14c0,.092-.03.131-.122.131h-.472c-.092,0-.127-.039-.127-.131V25.887h-.56c-.092,0-.131-.035-.131-.126v-.342c0-.092.039-.122.131-.122Z"/>
      <path id="패스_11035" data-name="패스 11035" class="cls-2" d="M191.2,26.268a1.037,1.037,0,0,1,.661-.219.591.591,0,0,1,.643.608V28.14c0,.092-.035.131-.127.131h-.442c-.092,0-.131-.039-.131-.131v-1.3c0-.136-.026-.189-.166-.189a.825.825,0,0,0-.438.175V28.14c0,.092-.031.131-.122.131h-.451c-.092,0-.127-.039-.127-.131v-2.8c0-.092.035-.131.127-.131h.451c.091,0,.122.039.122.131Z"/>
      <path id="패스_11036" data-name="패스 11036" class="cls-2" d="M194.736,27.217c0,.083-.035.118-.118.118h-1.063V27.6c0,.131.078.192.262.192s.267-.061.267-.192v0c0-.092.035-.127.127-.127h.376c.092,0,.127.035.127.127v.031c0,.415-.236.682-.9.682s-.945-.267-.945-.682v-.893c0-.415.285-.682.945-.682s.919.267.919.682Zm-1.181-.328h.529v-.127c0-.131-.083-.2-.267-.2s-.262.066-.262.2Z"/>
      <path id="패스_11037" data-name="패스 11037" class="cls-2" d="M197.8,25.419v.342c0,.091-.04.126-.131.126h-1v.569h.932c.091,0,.131.031.131.122v.342c0,.092-.04.126-.131.126h-.932V28.14c0,.092-.031.131-.122.131h-.473c-.092,0-.127-.039-.127-.131V25.428c0-.092.035-.131.127-.131h1.6C197.762,25.3,197.8,25.327,197.8,25.419Z"/>
      <path id="패스_11038" data-name="패스 11038" class="cls-2" d="M199.425,28.074a.95.95,0,0,1-.652.232.591.591,0,0,1-.643-.608V26.215c0-.091.035-.131.127-.131h.442c.091,0,.131.04.131.131v1.3c0,.136.026.188.166.188a.724.724,0,0,0,.411-.171V26.215c0-.091.031-.131.123-.131h.45c.092,0,.127.04.127.131v1.929c0,.092-.035.127-.127.127h-.42c-.092,0-.113-.035-.127-.127Z"/>
      <path id="패스_11039" data-name="패스 11039" class="cls-2" d="M201.743,26.093c.092,0,.131.031.131.122v.3c0,.092-.039.127-.131.127h-.354v.87c0,.145.1.193.279.193h.1c.092,0,.132.039.132.131v.31c0,.092-.04.127-.132.127h-.218c-.661,0-.866-.223-.866-.682V26.64H200.5c-.092,0-.127-.035-.127-.127v-.267c0-.092.035-.114.127-.127l.188-.026h0v-.4c0-.092.035-.131.126-.131h.451c.092,0,.123.039.123.131v.4Z"/>
      <path id="패스_11040" data-name="패스 11040" class="cls-2" d="M203.44,28.074a.95.95,0,0,1-.652.232.591.591,0,0,1-.643-.608V26.215c0-.091.035-.131.127-.131h.442c.092,0,.131.04.131.131v1.3c0,.136.026.188.166.188a.721.721,0,0,0,.411-.171V26.215c0-.091.031-.131.123-.131H204c.091,0,.126.04.126.131v1.929c0,.092-.035.127-.126.127h-.42c-.092,0-.114-.035-.127-.127Z"/>
      <path id="패스_11041" data-name="패스 11041" class="cls-2" d="M205.981,26.176v.341c0,.092-.039.123-.131.131a1.013,1.013,0,0,0-.59.241V28.14c0,.092-.031.131-.123.131h-.45c-.092,0-.127-.039-.127-.131V26.211c0-.092.035-.127.127-.127h.419c.092,0,.119.035.127.127l.013.123a.77.77,0,0,1,.6-.285C205.942,26.049,205.981,26.084,205.981,26.176Z"/>
      <path id="패스_11042" data-name="패스 11042" class="cls-2" d="M208.055,27.217c0,.083-.035.118-.119.118h-1.062V27.6c0,.131.078.192.262.192s.267-.061.267-.192v0c0-.092.035-.127.127-.127h.376c.092,0,.127.035.127.127v.031c0,.415-.236.682-.9.682s-.945-.267-.945-.682v-.893c0-.415.285-.682.945-.682s.919.267.919.682Zm-1.181-.328h.529v-.127c0-.131-.083-.2-.267-.2s-.262.066-.262.2Z"/>
      <path id="패스_11043" data-name="패스 11043" class="cls-2" d="M209.179,26.731c0-.415.341-.682,1-.682s1,.267,1,.682v.893c0,.415-.341.682-1,.682s-1-.267-1-.682Zm1.3.057c0-.144-.122-.192-.3-.192s-.3.048-.3.192v.775c0,.148.123.2.3.2s.3-.048.3-.2Z"/>
      <path id="패스_11044" data-name="패스 11044" class="cls-2" d="M211.768,26.093v-.214c0-.416.333-.683.993-.683h.048c.092,0,.131.035.131.127v.311c0,.091-.039.131-.131.131h-.048c-.179,0-.293.048-.293.192v.136h.311c.091,0,.131.031.131.122v.3c0,.092-.04.127-.131.127h-.311v1.5c0,.092-.031.131-.123.131h-.45c-.092,0-.127-.039-.127-.131v-1.5h-.219c-.091,0-.126-.035-.126-.127v-.267c0-.092.035-.114.126-.127l.215-.026Z"/>
      <path id="패스_11045" data-name="패스 11045" class="cls-2" d="M194.679,33.52c-.079,0-.11-.044-.11-.131V30.677c0-.092.035-.131.127-.131h.989c.822,0,1.12.372,1.12.748v1.478c0,.376-.3.748-1.12.748Zm.612-2.384V32.93h.394c.214,0,.4-.083.4-.285V31.421c0-.2-.184-.285-.4-.285Z"/>
      <path id="패스_11046" data-name="패스 11046" class="cls-2" d="M197.942,30.957c0,.092-.031.127-.123.127h-.45c-.092,0-.127-.035-.127-.127v-.363c0-.092.035-.131.127-.131h.45c.092,0,.123.039.123.131Zm0,2.432c0,.092-.031.131-.123.131h-.45c-.092,0-.127-.039-.127-.131V31.464c0-.092.035-.131.127-.131h.45c.092,0,.123.039.123.131Z"/>
      <path id="패스_11047" data-name="패스 11047" class="cls-2" d="M198.335,32.882v-.91a.594.594,0,0,1,.648-.674,1.043,1.043,0,0,1,.678.245l.009-.079c.013-.092.03-.131.127-.131h.415c.092,0,.127.039.127.131v2.244c0,.416-.333.683-.993.683h-.626c-.092,0-.131-.035-.131-.127v-.311c0-.092.039-.131.131-.131h.626c.179,0,.293-.048.293-.192v-.3a1.062,1.062,0,0,1-.656.223A.594.594,0,0,1,198.335,32.882Zm.7-.11c0,.088,0,.184.171.184a.841.841,0,0,0,.433-.179v-.7a.833.833,0,0,0-.433-.18c-.166,0-.171.1-.171.184Z"/>
      <path id="패스_11048" data-name="패스 11048" class="cls-2" d="M201.476,30.957c0,.092-.031.127-.123.127h-.45c-.092,0-.127-.035-.127-.127v-.363c0-.092.035-.131.127-.131h.45c.092,0,.123.039.123.131Zm0,2.432c0,.092-.031.131-.123.131h-.45c-.092,0-.127-.039-.127-.131V31.464c0-.092.035-.131.127-.131h.45c.092,0,.123.039.123.131Z"/>
      <path id="패스_11049" data-name="패스 11049" class="cls-2" d="M203.112,31.342c.092,0,.131.03.131.122v.3c0,.092-.039.127-.131.127h-.354v.87c0,.144.1.192.279.192h.1c.092,0,.132.04.132.132v.31c0,.092-.04.127-.132.127h-.218c-.661,0-.866-.223-.866-.682v-.949h-.193c-.092,0-.127-.035-.127-.127V31.5c0-.092.035-.114.127-.127l.188-.026h.005v-.4c0-.092.035-.131.127-.131h.45c.092,0,.123.039.123.131v.4Z"/>
      <path id="패스_11050" data-name="패스 11050" class="cls-2" d="M203.554,31.959c0-.416.284-.661.927-.661.66,0,.923.245.923.661v1.43c0,.092-.035.131-.127.131h-.4c-.1,0-.114-.039-.127-.131l-.009-.066a.943.943,0,0,1-.612.232.567.567,0,0,1-.643-.56v-.188c0-.3.244-.564.7-.564h.534V32c0-.135-.066-.2-.249-.2s-.263.044-.263.179v.031c0,.092-.035.127-.127.127h-.4c-.092,0-.126-.035-.126-.127Zm1.163.892v-.144h-.4c-.127,0-.149.07-.149.135V32.9c0,.1.083.114.149.114A.77.77,0,0,0,204.717,32.851Z"/>
      <path id="패스_11051" data-name="패스 11051" class="cls-2" d="M206.519,33.389c0,.092-.03.131-.122.131h-.451c-.092,0-.127-.039-.127-.131v-2.8c0-.092.035-.131.127-.131h.451c.092,0,.122.039.122.131Z"/>
      <path id="패스_11052" data-name="패스 11052" class="cls-2" d="M194.351,38.638c0,.092-.031.131-.123.131H193.8a.113.113,0,0,1-.118-.061l-.7-1.164a2.429,2.429,0,0,1-.188-.393v1.487c0,.092-.031.131-.123.131h-.428c-.092,0-.127-.039-.127-.131V35.926c0-.092.035-.131.127-.131h.428a.11.11,0,0,1,.11.052l.739,1.238a3.428,3.428,0,0,1,.153.328V35.926c0-.092.035-.131.127-.131h.428c.092,0,.123.039.123.131Z"/>
      <path id="패스_11053" data-name="패스 11053" class="cls-2" d="M196.652,37.715c0,.083-.035.118-.118.118h-1.063V38.1c0,.132.078.193.262.193s.267-.061.267-.193v0c0-.092.035-.127.127-.127h.376c.092,0,.127.035.127.127v.031c0,.415-.236.682-.9.682s-.945-.267-.945-.682v-.893c0-.415.285-.682.945-.682s.919.267.919.682Zm-1.181-.328H196V37.26c0-.131-.083-.2-.267-.2s-.262.066-.262.2Z"/>
      <path id="패스_11054" data-name="패스 11054" class="cls-2" d="M199.482,38.651c-.027.087-.04.118-.132.118h-.538c-.092,0-.113-.039-.131-.118l-.179-.835a1.847,1.847,0,0,1-.04-.241c0,.013-.03.144-.056.241l-.25.835c-.022.079-.039.118-.131.118H197.5c-.092,0-.109-.035-.131-.118l-.525-1.938c-.026-.092.035-.131.127-.131h.429c.091,0,.122.053.144.131l.254.971c.021.1.03.21.035.223,0-.013.03-.144.052-.223l.271-.971c.022-.078.053-.131.145-.131h.424c.092,0,.127.053.144.131l.21.971.04.223c0-.022.03-.157.048-.223l.245-.971c.021-.078.052-.131.144-.131h.354c.092,0,.153.039.127.131Z"/>
      <path id="패스_11055" data-name="패스 11055" class="cls-2" d="M201.227,38.769c-.079,0-.11-.044-.11-.131V35.926c0-.092.035-.131.127-.131h.989c.822,0,1.119.371,1.119.748v1.478c0,.376-.3.748-1.119.748Zm.612-2.384v1.793h.394c.214,0,.4-.083.4-.284V36.669c0-.2-.184-.284-.4-.284Z"/>
      <path id="패스_11056" data-name="패스 11056" class="cls-2" d="M205.61,37.715c0,.083-.036.118-.119.118h-1.062V38.1c0,.132.078.193.262.193s.267-.061.267-.193v0c0-.092.035-.127.127-.127h.376c.092,0,.127.035.127.127v.031c0,.415-.237.682-.9.682s-.945-.267-.945-.682v-.893c0-.415.284-.682.945-.682s.919.267.919.682Zm-1.181-.328h.529V37.26c0-.131-.083-.2-.267-.2s-.262.066-.262.2Z"/>
      <path id="패스_11057" data-name="패스 11057" class="cls-2" d="M206.008,37.207c0-.415.284-.66.927-.66.66,0,.923.245.923.66v1.431c0,.092-.035.131-.127.131h-.4c-.1,0-.113-.039-.126-.131l-.009-.066a.943.943,0,0,1-.612.232.567.567,0,0,1-.643-.56v-.188c0-.3.244-.564.7-.564h.534v-.241c0-.135-.066-.2-.249-.2s-.263.044-.263.179v.031c0,.092-.035.127-.127.127h-.4c-.092,0-.126-.035-.126-.127Zm1.163.893v-.145h-.4c-.127,0-.149.07-.149.136v.057c0,.1.083.114.149.114A.774.774,0,0,0,207.171,38.1Z"/>
      <path id="패스_11058" data-name="패스 11058" class="cls-2" d="M208.973,38.638c0,.092-.031.131-.122.131H208.4c-.092,0-.127-.039-.127-.131v-2.8c0-.092.035-.131.127-.131h.451c.091,0,.122.039.122.131Z"/>
    </g>
    <rect id="사각형_8589" data-name="사각형 8589" class="cls-3" width="1200" height="60" transform="translate(360 64)"/>
  </g>
</svg>
