<svg xmlns="http://www.w3.org/2000/svg" width="1200" height="60" viewBox="0 0 1200 60">
  <defs>
    <style>
      .cls-1 {
        fill: #91d4f5;
      }

      .cls-2, .cls-4 {
        fill: #fff;
      }

      .cls-3 {
        fill: #487cea;
        stroke: rgba(0,0,0,0);
      }

      .cls-4 {
        font-size: 14px;
        font-family: NotoSansCJKkr-Bold, Noto Sans CJK KR;
        font-weight: 700;
        letter-spacing: -0.01em;
      }

      .cls-5, .cls-6 {
        fill: none;
      }

      .cls-5 {
        stroke: #487cea;
        stroke-linecap: round;
        stroke-linejoin: round;
        stroke-width: 1.4px;
      }
    </style>
  </defs>
  <g id="그룹_6791" data-name="그룹 6791" transform="translate(-360 -60)">
    <g id="그룹_6778" data-name="그룹 6778" transform="translate(612.422 82)">
      <path id="패스_11399" data-name="패스 11399" class="cls-1" d="M466.74,24.512V40.786h-2.054V24.512Z" transform="translate(-464.686 -24.512)"/>
      <path id="패스_11400" data-name="패스 11400" class="cls-1" d="M486.837,37c.19-.006.377-.014.561-.025h2.813q.534,0,.923-.009t.941-.061l-.414,1.916c-.311-.023-.587-.041-.828-.051s-.519-.018-.829-.018H483.86V36.817a6.472,6.472,0,0,0,.785-.647q.648-.579,1.614-1.51.465-.467,1.061-1.088a15.811,15.811,0,0,0,1.114-1.294,11.36,11.36,0,0,0,.828-1.329,2.624,2.624,0,0,0,.345-1.208,3.539,3.539,0,0,0-.112-.915,1.86,1.86,0,0,0-.354-.707,1.567,1.567,0,0,0-.613-.475,2.24,2.24,0,0,0-.906-.164,2.336,2.336,0,0,0-.9.164,3.429,3.429,0,0,0-.742.423,2.984,2.984,0,0,0-.639.621,6.6,6.6,0,0,0-.5.76l-1.329-1.1a4.8,4.8,0,0,1,.794-1.139,5.151,5.151,0,0,1,1.07-.88,5.225,5.225,0,0,1,1.225-.57,4.389,4.389,0,0,1,1.329-.207,4.075,4.075,0,0,1,1.536.285,3.78,3.78,0,0,1,1.225.785,3.741,3.741,0,0,1,.785,1.226,4.119,4.119,0,0,1,.285,1.553,3.937,3.937,0,0,1-.2,1.217,6.921,6.921,0,0,1-.509,1.182,8.976,8.976,0,0,1-.743,1.165q-.43.579-.914,1.113-.793.88-1.6,1.648a18.127,18.127,0,0,1-1.519,1.3C486.46,37.013,486.647,37,486.837,37Z" transform="translate(-464.686 -24.512)"/>
      <path id="패스_11401" data-name="패스 11401" class="cls-1" d="M502.534,34.686a8.1,8.1,0,0,1-.725,2.183,4.579,4.579,0,0,1-1.381,1.6,3.569,3.569,0,0,1-2.14.621,3.732,3.732,0,0,1-2.192-.6,4.258,4.258,0,0,1-1.364-1.588,7.362,7.362,0,0,1-.724-2.183,13.922,13.922,0,0,1-.207-2.373,13.461,13.461,0,0,1,.216-2.39,7.5,7.5,0,0,1,.733-2.184,4.6,4.6,0,0,1,1.38-1.587,3.6,3.6,0,0,1,2.158-.622,3.708,3.708,0,0,1,2.183.613,4.539,4.539,0,0,1,1.389,1.562,8.017,8.017,0,0,1,.691,2.192,14.28,14.28,0,0,1,.207,2.416A12.765,12.765,0,0,1,502.534,34.686Zm-2.046-3.866a8.459,8.459,0,0,0-.25-1.666,3.922,3.922,0,0,0-.682-1.355,1.546,1.546,0,0,0-1.285-.578,1.487,1.487,0,0,0-1.277.613,4.078,4.078,0,0,0-.656,1.441,8.305,8.305,0,0,0-.268,1.735q-.042.89-.043,1.424,0,.569.043,1.423a6.835,6.835,0,0,0,.285,1.649,3.573,3.573,0,0,0,.665,1.4,1.553,1.553,0,0,0,1.285.57,1.486,1.486,0,0,0,1.251-.6,3.9,3.9,0,0,0,.665-1.468,9.211,9.211,0,0,0,.258-1.708q.053-.881.052-1.449T500.488,30.82Z" transform="translate(-464.686 -24.512)"/>
      <path id="패스_11402" data-name="패스 11402" class="cls-1" d="M507.754,37c.19-.006.377-.014.561-.025h2.813q.534,0,.923-.009t.941-.061l-.414,1.916c-.311-.023-.587-.041-.828-.051s-.519-.018-.829-.018h-6.144V36.817a6.474,6.474,0,0,0,.785-.647q.648-.579,1.614-1.51.465-.467,1.061-1.088a15.817,15.817,0,0,0,1.114-1.294,11.364,11.364,0,0,0,.828-1.329,2.624,2.624,0,0,0,.345-1.208,3.539,3.539,0,0,0-.112-.915,1.861,1.861,0,0,0-.354-.707,1.567,1.567,0,0,0-.613-.475,2.24,2.24,0,0,0-.906-.164,2.336,2.336,0,0,0-.9.164,3.429,3.429,0,0,0-.742.423,2.984,2.984,0,0,0-.639.621,6.6,6.6,0,0,0-.5.76l-1.329-1.1a4.8,4.8,0,0,1,.794-1.139,5.15,5.15,0,0,1,1.07-.88,5.207,5.207,0,0,1,1.225-.57,4.389,4.389,0,0,1,1.329-.207,4.075,4.075,0,0,1,1.536.285,3.78,3.78,0,0,1,1.225.785,3.742,3.742,0,0,1,.785,1.226,4.119,4.119,0,0,1,.285,1.553,3.937,3.937,0,0,1-.2,1.217,6.913,6.913,0,0,1-.509,1.182,8.973,8.973,0,0,1-.743,1.165q-.43.579-.914,1.113-.793.88-1.6,1.648a18.122,18.122,0,0,1-1.519,1.3C507.377,37.013,507.564,37,507.754,37Z" transform="translate(-464.686 -24.512)"/>
      <path id="패스_11403" data-name="패스 11403" class="cls-1" d="M518.463,38.284q.016-.311.017-.621c.011-.207.017-.415.017-.622V28.4a10.263,10.263,0,0,1-1.07.656,12.446,12.446,0,0,1-1.191.552l-.638-1.381a8.955,8.955,0,0,0,.828-.414q.466-.258.949-.587t.941-.707a7.206,7.206,0,0,0,.82-.794h1.484V36.455q0,.6.009,1.216c0,.409.026.814.06,1.217h-2.261Q518.445,38.594,518.463,38.284Z" transform="translate(-464.686 -24.512)"/>
      <path id="패스_11404" data-name="패스 11404" class="cls-1" d="M527.791,39.259a1.317,1.317,0,0,1-1.01.44,1.358,1.358,0,0,1-1.027-.423,1.448,1.448,0,0,1-.406-1.044,1.394,1.394,0,0,1,.4-1,1.35,1.35,0,0,1,1.019-.414,1.417,1.417,0,0,1,1,.406,1.33,1.33,0,0,1,.431,1.009A1.469,1.469,0,0,1,527.791,39.259Z" transform="translate(-464.686 -24.512)"/>
      <path id="패스_11405" data-name="패스 11405" class="cls-1" d="M534.789,39.009a6.071,6.071,0,0,0,1.829-.751,9.724,9.724,0,0,0,3.029-2.857,7.411,7.411,0,0,0,.906-1.743,4.229,4.229,0,0,1-1.078.51,3.575,3.575,0,0,1-.993.146,4.211,4.211,0,0,1-1.64-.31,3.5,3.5,0,0,1-1.259-.881,3.909,3.909,0,0,1-.82-1.337,4.851,4.851,0,0,1-.285-1.7,4.624,4.624,0,0,1,.336-1.769,4.384,4.384,0,0,1,.958-1.441,4.621,4.621,0,0,1,1.441-.94A4.541,4.541,0,0,1,539,25.582a4.415,4.415,0,0,1,1.838.371A3.893,3.893,0,0,1,542.227,27a4.685,4.685,0,0,1,.872,1.622,6.873,6.873,0,0,1,.3,2.089,8.728,8.728,0,0,1-.6,3.166,10.887,10.887,0,0,1-1.614,2.84,11.877,11.877,0,0,1-2.407,2.243,8.642,8.642,0,0,1-2.856,1.329Zm6.359-8.284a6,6,0,0,0,.009-.967,4.1,4.1,0,0,0-.25-1.009,3.142,3.142,0,0,0-.457-.8,2.542,2.542,0,0,0-.674-.509,1.8,1.8,0,0,0-.845-.2,1.913,1.913,0,0,0-.82.181,2.289,2.289,0,0,0-.7.509,2.7,2.7,0,0,0-.492.889,3.729,3.729,0,0,0-.181,1.217,3.523,3.523,0,0,0,.147,1.044,2,2,0,0,0,.457.8,1.81,1.81,0,0,0,.682.553,2.2,2.2,0,0,0,.94.189,2.469,2.469,0,0,0,1.018-.224,3.767,3.767,0,0,0,.967-.639A5.611,5.611,0,0,0,541.148,30.725Z" transform="translate(-464.686 -24.512)"/>
      <path id="패스_11406" data-name="패스 11406" class="cls-1" d="M547.585,39.259a1.314,1.314,0,0,1-1.009.44,1.358,1.358,0,0,1-1.027-.423,1.448,1.448,0,0,1-.406-1.044,1.4,1.4,0,0,1,.4-1,1.35,1.35,0,0,1,1.019-.414,1.418,1.418,0,0,1,1,.406,1.33,1.33,0,0,1,.431,1.009A1.47,1.47,0,0,1,547.585,39.259Z" transform="translate(-464.686 -24.512)"/>
      <path id="패스_11407" data-name="패스 11407" class="cls-1" d="M558.052,38.284q.016-.311.017-.621c.012-.207.017-.415.017-.622V28.4a10.142,10.142,0,0,1-1.069.656,12.68,12.68,0,0,1-1.191.552l-.639-1.381a8.952,8.952,0,0,0,.829-.414q.465-.258.949-.587t.94-.707a7.205,7.205,0,0,0,.82-.794h1.484V36.455q0,.6.009,1.216t.06,1.217h-2.26C558.029,38.692,558.041,38.491,558.052,38.284Z" transform="translate(-464.686 -24.512)"/>
      <path id="패스_11408" data-name="패스 11408" class="cls-1" d="M573.222,36.265c-.161-.011-.31-.023-.449-.035s-.258-.017-.362-.017a1.261,1.261,0,0,1-.242-.018v1.261c0,.172,0,.325-.008.457a2.649,2.649,0,0,0,.008.371c0,.126.006.256.018.388s.028.279.051.44h-2.192c.012-.149.023-.291.035-.423s.018-.261.018-.388.017-.256.017-.388V36.195q-.6.018-.76.018h-4.832V34.694l3.866-7.628c.08-.172.158-.331.233-.475s.141-.284.2-.423a4.554,4.554,0,0,0,.19-.431c.057-.149.121-.311.19-.483h2.278c-.126.184-.233.348-.319.492a4.755,4.755,0,0,0-.233.44c-.081.138-.158.282-.233.431s-.153.317-.233.5l-2.779,5.73q-.258.518-.5.923t-.449.716c.08,0,.187,0,.319-.008s.262-.015.388-.027.262,0,.372-.008.187-.008.232-.008h2.072V29.448l2.053-.19v5.178h.691c.138-.012.282-.021.431-.027a3.162,3.162,0,0,0,.432-.043V36.3Z" transform="translate(-464.686 -24.512)"/>
      <path id="패스_11409" data-name="패스 11409" class="cls-1" d="M577.839,39.259a1.317,1.317,0,0,1-1.01.44,1.358,1.358,0,0,1-1.027-.423,1.452,1.452,0,0,1-.406-1.044,1.4,1.4,0,0,1,.4-1,1.349,1.349,0,0,1,1.019-.414,1.416,1.416,0,0,1,1,.406,1.33,1.33,0,0,1,.431,1.009A1.469,1.469,0,0,1,577.839,39.259Z" transform="translate(-464.686 -24.512)"/>
      <path id="패스_11410" data-name="패스 11410" class="cls-1" d="M582.827,39.965a3.952,3.952,0,0,1-1.5-.984,5.011,5.011,0,0,1-1.014-1.638,6.638,6.638,0,0,1-.382-1.53,14.74,14.74,0,0,1-.127-2.052,11.938,11.938,0,0,1,.109-1.694,6.19,6.19,0,0,1,.328-1.329,5.25,5.25,0,0,1,1.013-1.682,4.817,4.817,0,0,1,1.56-1.123l.341.777a5.3,5.3,0,0,0-.953.862,3.718,3.718,0,0,0-.614.984,5.041,5.041,0,0,0-.334,1.329,14.716,14.716,0,0,0-.1,1.851q0,.875.061,1.579a8.258,8.258,0,0,0,.194,1.25,5.01,5.01,0,0,0,.674,1.622,3.043,3.043,0,0,0,1.1,1.013Z" transform="translate(-464.686 -24.512)"/>
      <path id="패스_11411" data-name="패스 11411" class="cls-1" d="M586.359,35.5a3.373,3.373,0,0,1-1.39-.613,1.338,1.338,0,0,1-.576-1.1,1.292,1.292,0,0,1,.206-.7,1.75,1.75,0,0,1,.583-.559,3.172,3.172,0,0,1,.856-.364,4.043,4.043,0,0,1,1.062-.133,4.164,4.164,0,0,1,1.081.133,3.161,3.161,0,0,1,.862.364,1.782,1.782,0,0,1,.57.559,1.323,1.323,0,0,1-.327,1.773,3.37,3.37,0,0,1-1.3.594v.729c.453-.008.935-.025,1.445-.048s.935-.062,1.275-.109v1.262q-1.056.133-2.561.195t-3.254.06c-.219,0-.422,0-.608.006s-.388.019-.607.042v-1.4a5.366,5.366,0,0,0,.607.037h.608l1.468-.012Zm-1.371-3.836c-.178,0-.341,0-.486.006a4.236,4.236,0,0,0-.474.042v-1.3a3.4,3.4,0,0,0,.474.036h5.184a3.664,3.664,0,0,0,.486-.036v1.3a4.61,4.61,0,0,0-.486-.042c-.145,0-.3-.006-.473-.006Zm1.226-1.749H585.8c-.065,0-.13,0-.194.006s-.134.01-.207.019V28.71a3.518,3.518,0,0,0,.407.024h2.568a3.568,3.568,0,0,0,.413-.024v1.227c-.146-.009-.284-.015-.413-.019s-.263-.006-.4-.006Zm.03,4.419a2.077,2.077,0,0,0,1.718-.006.585.585,0,0,0,.376-.54.555.555,0,0,0-.37-.515,1.993,1.993,0,0,0-.868-.176,1.963,1.963,0,0,0-.856.176.555.555,0,0,0-.37.515A.582.582,0,0,0,586.244,34.331Zm6.878-1.189c.146,0,.3,0,.461-.006a3.508,3.508,0,0,0,.462-.042v1.5a3.387,3.387,0,0,0-.467-.043q-.249-.006-.456-.006h-.485v3.291c0,.274,0,.548.006.819s.018.54.042.808h-1.6q.036-.4.048-.808c.008-.271.012-.545.012-.819V30.228q0-.4-.012-.808t-.048-.819h1.6c-.024.275-.039.548-.042.819s-.006.54-.006.808v2.914Z" transform="translate(-464.686 -24.512)"/>
      <path id="패스_11412" data-name="패스 11412" class="cls-1" d="M594.191,39.2a2.992,2.992,0,0,0,1.092-1.013,5.269,5.269,0,0,0,.68-1.622,8.375,8.375,0,0,0,.2-1.25q.06-.7.06-1.579a13.752,13.752,0,0,0-.109-1.851,5.532,5.532,0,0,0-.328-1.329,4.012,4.012,0,0,0-.625-.984,5.571,5.571,0,0,0-.941-.862l.34-.777a4.843,4.843,0,0,1,1.548,1.123,5.407,5.407,0,0,1,1.026,1.682,6.256,6.256,0,0,1,.328,1.329,11.929,11.929,0,0,1,.109,1.694,14.728,14.728,0,0,1-.128,2.052,6.54,6.54,0,0,1-.382,1.53,5.215,5.215,0,0,1-1.02,1.638,3.9,3.9,0,0,1-1.493.984Z" transform="translate(-464.686 -24.512)"/>
      <path id="패스_11413" data-name="패스 11413" class="cls-1" d="M605.842,38.284q.017-.311.017-.621c.011-.207.017-.415.017-.622V28.4a10.346,10.346,0,0,1-1.069.656,12.693,12.693,0,0,1-1.192.552l-.638-1.381a9.084,9.084,0,0,0,.829-.414q.465-.258.949-.587t.94-.707a7.206,7.206,0,0,0,.82-.794H608V36.455q0,.6.009,1.216c.006.409.025.814.06,1.217h-2.26C605.818,38.692,605.83,38.491,605.842,38.284Z" transform="translate(-464.686 -24.512)"/>
      <path id="패스_11414" data-name="패스 11414" class="cls-1" d="M619.769,32.33a4.619,4.619,0,0,1,.811.673,3,3,0,0,1,.535.889,3.031,3.031,0,0,1,.19,1.1,3.8,3.8,0,0,1-.63,2.209,4.923,4.923,0,0,1-1.614,1.485,7.3,7.3,0,0,1-2.174.82,7.739,7.739,0,0,1-2.313.146c-.254-.011-.5-.032-.742-.06a5.633,5.633,0,0,1-.708-.129l-.466-1.554a2.13,2.13,0,0,0,.293.086,2.588,2.588,0,0,0,.311.052l.319.035a3.363,3.363,0,0,0,.337.017,7.462,7.462,0,0,0,1.743-.1,5.6,5.6,0,0,0,1.657-.552,3.373,3.373,0,0,0,1.208-1.009,2.512,2.512,0,0,0,.483-1.545,2.006,2.006,0,0,0-.336-1.13,2.233,2.233,0,0,0-.906-.786,4.343,4.343,0,0,0-1.114-.224,11.152,11.152,0,0,0-1.665-.017V30.984q.345.035.673.043c.219.006.4.009.553.009a3.963,3.963,0,0,0,1.053-.13,2.059,2.059,0,0,0,.776-.388,1.7,1.7,0,0,0,.483-.587,1.751,1.751,0,0,0,.172-.794,1.71,1.71,0,0,0-.155-.751,1.905,1.905,0,0,0-.414-.561,2.216,2.216,0,0,0-.648-.327,2.5,2.5,0,0,0-.785-.122,2.887,2.887,0,0,0-.664.079q-.336.077-.7.2a4.971,4.971,0,0,0-.759.354c-.254.143-.507.3-.76.474l-1.1-1.294a7.837,7.837,0,0,1,.992-.7,7.077,7.077,0,0,1,1.044-.509,6.892,6.892,0,0,1,1.113-.293,6.613,6.613,0,0,1,1.183-.1,5.158,5.158,0,0,1,1.44.207,4.109,4.109,0,0,1,1.287.621,3.331,3.331,0,0,1,.9,1.018,2.847,2.847,0,0,1,.346,1.433,3.257,3.257,0,0,1-.148.984,3.142,3.142,0,0,1-.405.845,3.24,3.24,0,0,1-.708.7,3.652,3.652,0,0,1-.949.492A3.7,3.7,0,0,1,619.769,32.33Z" transform="translate(-464.686 -24.512)"/>
      <path id="패스_11415" data-name="패스 11415" class="cls-1" d="M626.024,29.819a1.317,1.317,0,0,1-1.009.44,1.366,1.366,0,0,1-1.028-.423,1.452,1.452,0,0,1-.405-1.044,1.393,1.393,0,0,1,.4-1A1.348,1.348,0,0,1,625,27.376a1.417,1.417,0,0,1,1,.406,1.329,1.329,0,0,1,.432,1.01A1.471,1.471,0,0,1,626.024,29.819Zm0,6.938a1.316,1.316,0,0,1-1.009.439,1.362,1.362,0,0,1-1.028-.423,1.448,1.448,0,0,1-.405-1.044,1.392,1.392,0,0,1,.4-1A1.345,1.345,0,0,1,625,34.314a1.417,1.417,0,0,1,1,.406,1.327,1.327,0,0,1,.432,1.009A1.472,1.472,0,0,1,626.024,36.757Z" transform="translate(-464.686 -24.512)"/>
      <path id="패스_11416" data-name="패스 11416" class="cls-1" d="M635.681,32.33a4.621,4.621,0,0,1,.811.673,2.994,2.994,0,0,1,.535.889,3.031,3.031,0,0,1,.19,1.1,3.794,3.794,0,0,1-.63,2.209,4.923,4.923,0,0,1-1.614,1.485,7.3,7.3,0,0,1-2.174.82,7.739,7.739,0,0,1-2.313.146c-.254-.011-.5-.032-.742-.06a5.667,5.667,0,0,1-.708-.129L628.57,37.9a2.13,2.13,0,0,0,.293.086,2.588,2.588,0,0,0,.311.052l.319.035c.11.011.222.017.337.017a7.456,7.456,0,0,0,1.743-.1,5.6,5.6,0,0,0,1.657-.552,3.372,3.372,0,0,0,1.208-1.009,2.512,2.512,0,0,0,.483-1.545,2,2,0,0,0-.336-1.13,2.227,2.227,0,0,0-.906-.786,4.342,4.342,0,0,0-1.114-.224,11.151,11.151,0,0,0-1.665-.017V30.984q.345.035.673.043t.553.009a3.957,3.957,0,0,0,1.053-.13,2.059,2.059,0,0,0,.776-.388,1.7,1.7,0,0,0,.483-.587,1.751,1.751,0,0,0,.172-.794,1.7,1.7,0,0,0-.155-.751,1.888,1.888,0,0,0-.414-.561,2.209,2.209,0,0,0-.647-.327,2.511,2.511,0,0,0-.786-.122,2.887,2.887,0,0,0-.664.079q-.336.077-.7.2a4.968,4.968,0,0,0-.759.354c-.254.143-.507.3-.759.474l-1.1-1.294a7.837,7.837,0,0,1,.992-.7,7.075,7.075,0,0,1,1.044-.509,6.89,6.89,0,0,1,1.113-.293,6.614,6.614,0,0,1,1.183-.1,5.171,5.171,0,0,1,1.441.207,4.115,4.115,0,0,1,1.286.621,3.331,3.331,0,0,1,.9,1.018,2.837,2.837,0,0,1,.346,1.433,3.255,3.255,0,0,1-.148.984,3.142,3.142,0,0,1-.405.845,3.238,3.238,0,0,1-.708.7,3.654,3.654,0,0,1-.949.492A3.69,3.69,0,0,1,635.681,32.33Z" transform="translate(-464.686 -24.512)"/>
      <path id="패스_11417" data-name="패스 11417" class="cls-1" d="M647.657,34.686a8.027,8.027,0,0,1-.724,2.183,4.569,4.569,0,0,1-1.381,1.6,3.566,3.566,0,0,1-2.14.621,3.73,3.73,0,0,1-2.192-.6,4.259,4.259,0,0,1-1.364-1.588,7.362,7.362,0,0,1-.724-2.183,13.922,13.922,0,0,1-.207-2.373,13.367,13.367,0,0,1,.216-2.39,7.475,7.475,0,0,1,.733-2.184,4.6,4.6,0,0,1,1.381-1.587,3.59,3.59,0,0,1,2.157-.622,3.708,3.708,0,0,1,2.183.613,4.529,4.529,0,0,1,1.389,1.562,7.983,7.983,0,0,1,.691,2.192,14.382,14.382,0,0,1,.207,2.416A12.681,12.681,0,0,1,647.657,34.686Zm-2.045-3.866a8.388,8.388,0,0,0-.25-1.666,3.92,3.92,0,0,0-.681-1.355,1.549,1.549,0,0,0-1.286-.578,1.493,1.493,0,0,0-1.278.613,4.094,4.094,0,0,0-.655,1.441,8.313,8.313,0,0,0-.268,1.735q-.043.89-.043,1.424,0,.569.043,1.423a6.791,6.791,0,0,0,.285,1.649,3.587,3.587,0,0,0,.665,1.4,1.553,1.553,0,0,0,1.285.57,1.489,1.489,0,0,0,1.252-.6,3.917,3.917,0,0,0,.664-1.468,9.3,9.3,0,0,0,.259-1.708c.035-.587.051-1.07.051-1.449S645.641,31.389,645.612,30.82Z" transform="translate(-464.686 -24.512)"/>
      <path id="패스_11418" data-name="패스 11418" class="cls-1" d="M656.77,33.348a2.1,2.1,0,0,1-1.26.414,2.976,2.976,0,0,1-.837-.155,8.842,8.842,0,0,1-1.2-.484q-.777-.344-1.294-.526a2.66,2.66,0,0,0-.76-.181,1.391,1.391,0,0,0-.855.328,3.987,3.987,0,0,0-.819.914l-.569-1.535a3.707,3.707,0,0,1,1.044-1.26,2.13,2.13,0,0,1,1.268-.414,3.238,3.238,0,0,1,.828.146,8.991,8.991,0,0,1,1.208.458c.081.046.164.089.251.129s.175.078.268.112.184.09.275.13.191.077.294.112a2.19,2.19,0,0,0,.527.19,2.3,2.3,0,0,0,.457.051,1.374,1.374,0,0,0,.8-.31,3.926,3.926,0,0,0,.855-.932l.569,1.536A3.913,3.913,0,0,1,656.77,33.348Z" transform="translate(-464.686 -24.512)"/>
    </g>
    <g id="그룹_6780" data-name="그룹 6780" transform="translate(824.17 82)">
      <path id="패스_11419" data-name="패스 11419" class="cls-1" d="M675.914,23.948V40.223H673.86V23.948Z" transform="translate(-673.86 -23.948)"/>
      <path id="패스_11420" data-name="패스 11420" class="cls-1" d="M698.385,30.61a6.237,6.237,0,0,1-3.47-1.113,2.722,2.722,0,0,1-1.173-2.149,2.272,2.272,0,0,1,.388-1.243,3.559,3.559,0,0,1,1.131-1.069,6.692,6.692,0,0,1,1.829-.743,10.984,10.984,0,0,1,4.885,0,6.778,6.778,0,0,1,1.811.726,3.393,3.393,0,0,1,1.131,1.052,2.3,2.3,0,0,1,.388,1.26,2.746,2.746,0,0,1-1.173,2.157,6.221,6.221,0,0,1-3.486,1.122v1.4H704.1c.449,0,.888,0,1.32-.008s.872-.026,1.32-.061v2.037q-.672-.052-1.32-.061c-.432-.006-.871-.009-1.32-.009H694.95c-.449,0-.888,0-1.32.009s-.872.026-1.32.061V31.939q.672.053,1.32.061c.432.005.871.008,1.32.008h3.435Zm-4.316,5.453c0-.207,0-.424-.007-.655a4.822,4.822,0,0,0-.061-.656h2.347a4.626,4.626,0,0,0-.061.647c-.006.225-.008.435-.008.63V37.41h6.592q.674,0,1.3-.009c.414-.005.846-.026,1.294-.06v2.036c-.448-.034-.88-.055-1.294-.06s-.846-.008-1.3-.008h-8.8Zm7.913-7.619q.924-.456.924-1.1,0-.673-.924-1.121a5.609,5.609,0,0,0-2.441-.449,5.729,5.729,0,0,0-2.469.449q-.932.448-.931,1.069,0,.674.915,1.14a6.81,6.81,0,0,0,4.926.008Z" transform="translate(-673.86 -23.948)"/>
      <path id="패스_11421" data-name="패스 11421" class="cls-1" d="M715.832,24.915a7.4,7.4,0,0,0-.061.751c-.005.235-.007.48-.007.733v5h-4.85v2.813h1.863c.243,0,.581-.014,1.019-.043s.891-.061,1.363-.1.944-.095,1.381-.146.788-.1,1.053-.148v1.847c-.277.058-.633.115-1.071.173s-.909.1-1.415.138-1.052.083-1.6.112-1.081.044-1.587.044h-3.124V29.54h4.85V26.813h-3.3q-.43,0-.785.009t-.768.06V24.846q.414.051.768.06t.785.009Zm5.367,4.746c.208,0,.426,0,.656-.009a4.844,4.844,0,0,0,.657-.06v2.175a4.731,4.731,0,0,0-.665-.061c-.236-.006-.451-.009-.648-.009h-.707v5.558q0,.586.009,1.165c.006.385.025.768.061,1.147h-2.3q.051-.569.069-1.147t.017-1.165v-10.8q0-.57-.017-1.148t-.069-1.165h2.3c-.036.391-.055.78-.061,1.165s-.009.768-.009,1.148v3.21Z" transform="translate(-673.86 -23.948)"/>
      <path id="패스_11422" data-name="패스 11422" class="cls-1" d="M726.351,32.207a3.867,3.867,0,0,1-1.337-.889,3.972,3.972,0,0,1-.864-1.3,4.138,4.138,0,0,1-.31-1.6,4.2,4.2,0,0,1,.31-1.6,4.027,4.027,0,0,1,2.2-2.209,4.422,4.422,0,0,1,1.717-.328,4.252,4.252,0,0,1,1.683.328,4.02,4.02,0,0,1,1.32.9,3.822,3.822,0,0,1,.88,1.312,4.2,4.2,0,0,1,.311,1.6,4.139,4.139,0,0,1-.311,1.6,3.833,3.833,0,0,1-.88,1.3,3.91,3.91,0,0,1-1.32.889,4.357,4.357,0,0,1-1.683.319A4.531,4.531,0,0,1,726.351,32.207Zm-.336,3.253q0-.311-.009-.656a4.822,4.822,0,0,0-.061-.656h2.279a4.626,4.626,0,0,0-.061.647c-.006.225-.009.434-.009.63V37.41l6.265.017q.673,0,1.295-.008c.414-.007.846-.026,1.294-.061v2.019c-.448-.034-.88-.055-1.294-.06s-.846-.008-1.295-.008h-8.4ZM729.544,30a2.419,2.419,0,0,0,.543-1.58,2.478,2.478,0,0,0-.543-1.6,1.8,1.8,0,0,0-1.476-.673,1.815,1.815,0,0,0-1.493.673,2.479,2.479,0,0,0-.544,1.6,2.42,2.42,0,0,0,.544,1.58,1.828,1.828,0,0,0,1.493.664A1.809,1.809,0,0,0,729.544,30Zm7.144,4.374c.006.288.027.576.061.863h-2.278c.035-.287.057-.575.069-.863s.018-.58.018-.88V25.864q0-.431-.018-.863c-.012-.288-.034-.581-.069-.88h2.278c-.034.3-.055.592-.061.88s-.008.576-.008.863v7.628Q736.68,33.942,736.688,34.372Z" transform="translate(-673.86 -23.948)"/>
      <path id="패스_11423" data-name="패스 11423" class="cls-1" d="M748.5,37.548c0,.207,0,.426.008.656a4.82,4.82,0,0,0,.06.655h-2.225a4.358,4.358,0,0,0,.059-.63c.006-.224.009-.439.009-.647V33.854h-1.07c-.276,0-.534,0-.777.009a7.713,7.713,0,0,0-.776.061V31.9a6.186,6.186,0,0,0,.776.052h2.641c.3,0,.642,0,1.027-.017s.774-.029,1.165-.052.768-.052,1.13-.086.67-.075.924-.121v1.846a13.169,13.169,0,0,1-1.329.164q-.761.062-1.622.1Zm-4.116-11.123a2.875,2.875,0,0,1,.716-1.044,3.243,3.243,0,0,1,1.079-.708,3.608,3.608,0,0,1,1.388-.259,3.508,3.508,0,0,1,1.39.268,3.137,3.137,0,0,1,1.761,1.769,3.318,3.318,0,0,1,.25,1.277,3.235,3.235,0,0,1-.985,2.347,3.378,3.378,0,0,1-1.087.673,3.634,3.634,0,0,1-1.329.242,3.846,3.846,0,0,1-1.388-.242,3.149,3.149,0,0,1-1.079-.673,2.892,2.892,0,0,1-.716-1.035,3.53,3.53,0,0,1,0-2.615Zm2.191,2.39a1.4,1.4,0,0,0,.992.4,1.481,1.481,0,0,0,.992-.379,1.379,1.379,0,0,0,.441-1.1,1.567,1.567,0,0,0-.414-1.1,1.37,1.37,0,0,0-2.02-.009,1.559,1.559,0,0,0-.414,1.113A1.418,1.418,0,0,0,746.578,28.815Zm4.289,7.818q-.311,0-.647.009a4.21,4.21,0,0,0-.63.06V34.666a4.823,4.823,0,0,0,.656.061c.23,0,.448.007.655.007h1.139V26.709q0-.568-.017-1.147c-.011-.385-.029-.774-.051-1.165h2.191q-.051.587-.052,1.165v12.15c0,.386.018.767.052,1.147h-2.191c.022-.38.04-.754.051-1.122s.017-.741.017-1.121Zm6.342,1.8q.009.577.061,1.147h-2.192c.034-.379.058-.762.069-1.147s.017-.774.017-1.166V26.451q0-.57-.017-1.148c-.011-.385-.035-.774-.069-1.165h2.192q-.053.586-.061,1.165c-.006.385-.008.768-.008,1.148v10.82C757.2,37.663,757.2,38.051,757.209,38.437Z" transform="translate(-673.86 -23.948)"/>
      <path id="패스_11424" data-name="패스 11424" class="cls-1" d="M760.2,36.029v-9.32c0-.31,0-.6-.009-.879s-.025-.57-.059-.881H762.4c-.036.311-.055.6-.061.881s-.009.569-.009.879v1.778h3.193V26.709c0-.31,0-.6-.008-.879s-.027-.57-.061-.881h2.279c-.036.311-.056.6-.061.881s-.009.569-.009.879v9.32Zm5.316-5.626h-3.193v3.745h3.193Zm6.792,8.017c0,.385.025.768.059,1.147h-2.295q.051-.569.07-1.147t.016-1.165v-10.8c0-.38-.006-.763-.016-1.148s-.036-.774-.07-1.165h2.295c-.034.391-.055.78-.059,1.165s-.009.768-.009,1.148v10.8Q772.3,37.841,772.311,38.42Z" transform="translate(-673.86 -23.948)"/>
      <path id="패스_11425" data-name="패스 11425" class="cls-1" d="M784.262,35.408q-.381.1-.933.2t-1.225.181q-.656.089-1.407.139t-1.51.052h-3.555V26.761c0-.344,0-.67-.009-.975s-.025-.635-.06-.992h2.261c-.035.357-.054.687-.06.992s-.009.631-.009.975V34.1h1.484q.57,0,1.242-.035t1.364-.121q.69-.068,1.32-.164t1.1-.2Zm3.675-5.592c.208,0,.426,0,.656-.008a4.671,4.671,0,0,0,.656-.061v2.14a4.876,4.876,0,0,0-.664-.06q-.354-.009-.648-.009h-.724v5.437q0,.586.008,1.165t.06,1.147H785q.053-.569.069-1.147t.018-1.165v-10.8q0-.57-.018-1.148T785,24.138h2.278q-.051.586-.06,1.165c-.006.385-.008.768-.008,1.148v3.365Z" transform="translate(-673.86 -23.948)"/>
    </g>
    <g id="그룹_6787" data-name="그룹 6787" transform="translate(-22.441 -3.206)">
      <g id="그룹_6782" data-name="그룹 6782" transform="translate(431.189 85.206)">
        <path id="패스_11426" data-name="패스 11426" class="cls-2" d="M268.124,26.924h2.882v6.019c.889-1.039,3.664-4.08,5.369-6.019h3.492l-5.419,5.606,5.616,7.881h-3.5l-4.139-5.991-1.422,1.36v4.631h-2.882Z" transform="translate(-268.124 -25.206)"/>
        <path id="패스_11427" data-name="패스 11427" class="cls-2" d="M283.855,37.3,282.8,40.411h-2.866l4.579-13.487h3.663l4.778,13.487h-3.066L288.783,37.3Zm4.3-2.391c-.958-2.845-1.568-4.664-1.893-5.876h-.02c-.333,1.329-1.006,3.445-1.774,5.876Z" transform="translate(-268.124 -25.206)"/>
        <path id="패스_11428" data-name="패스 11428" class="cls-2" d="M297.6,26.924V40.411h-2.916V26.924Z" transform="translate(-268.124 -25.206)"/>
        <path id="패스_11429" data-name="패스 11429" class="cls-2" d="M302.707,36.458c.308,1.355,1.279,1.948,2.84,1.948s2.223-.615,2.223-1.6c0-1.1-.651-1.575-2.957-2.111-3.67-.861-4.578-2.2-4.578-4.017,0-2.351,1.759-3.947,4.951-3.947,3.581,0,5.007,1.925,5.2,3.9h-2.938c-.141-.83-.6-1.731-2.339-1.731-1.183,0-1.9.489-1.9,1.447,0,.938.573,1.318,2.752,1.823,3.923.925,4.783,2.384,4.783,4.285,0,2.463-1.864,4.153-5.429,4.153-3.423,0-5.226-1.686-5.549-4.145Z" transform="translate(-268.124 -25.206)"/>
        <path id="패스_11430" data-name="패스 11430" class="cls-2" d="M315.73,29.315h-4.1V26.924h11.1v2.391h-4.082v11.1H315.73Z" transform="translate(-268.124 -25.206)"/>
        <path id="패스_11431" data-name="패스 11431" class="cls-2" d="M336.81,26.952c0,5.129-1.728,9.312-7.676,12.186l-1.255-1.892c4.274-2.055,6.13-4.674,6.475-8.385h-5.583V26.952Zm4.983-1.746V41.957h-2.419V25.206Z" transform="translate(-268.124 -25.206)"/>
        <path id="패스_11432" data-name="패스 11432" class="cls-2" d="M353.329,33.682v1.073h4.547V39.1h-9.167v.945h9.6v1.8H346.326v-4.4h9.185v-.909h-9.2V34.755h4.62V33.682H344.58V31.79h15.133v1.892Zm4.838-2.583c-2.892-.309-4.966-1.4-6.021-2.929C351.091,29.7,349,30.79,346.108,31.1l-.782-1.8c3.765-.364,5.584-2.055,5.584-3.674v-.31h2.473v.31c0,1.619,1.819,3.31,5.584,3.674Z" transform="translate(-268.124 -25.206)"/>
        <path id="패스_11433" data-name="패스 11433" class="cls-2" d="M370.594,32.354c0,3.692-1.873,6-4.4,6s-4.4-2.309-4.4-6c0-3.674,1.873-5.966,4.4-5.966S370.594,28.68,370.594,32.354Zm-6.493,0c0,2.492.855,3.819,2.091,3.819s2.092-1.327,2.092-3.819c0-2.474-.855-3.8-2.092-3.8S364.1,29.88,364.1,32.354ZM375.2,25.206V42.012h-2.4V25.206Z" transform="translate(-268.124 -25.206)"/>
        <path id="패스_11434" data-name="패스 11434" class="cls-2" d="M386.985,35.282a6.248,6.248,0,0,1-3.8-3.31,6.581,6.581,0,0,1-4,3.637l-1.219-1.91a5.383,5.383,0,0,0,3.947-5.2v-.237h-3.292V26.352h9v1.909h-3.256v.218a5.154,5.154,0,0,0,3.783,4.929Zm5.457,4.492v1.911H381.02V36.428h2.4v3.346Zm-2.783-10.221V25.224h2.4V37.446h-2.4V31.5H387.04V29.553Z" transform="translate(-268.124 -25.206)"/>
        <path id="패스_11435" data-name="패스 11435" class="cls-2" d="M408.672,33.536a6.112,6.112,0,0,1-3.711-3.074,6.378,6.378,0,0,1-3.965,3.4l-1.237-1.873a5.088,5.088,0,0,0,3.947-5.02v-1.2h2.419v1.2A4.87,4.87,0,0,0,409.89,31.7Zm5.693,6.384v1.855H402.87V37.21h8.657v-.928h-8.675V34.445h11.04v4.493h-8.658v.982Zm-2.874-10.331h-3.056v-1.91h3.056V25.224h2.4v8.512h-2.4Z" transform="translate(-268.124 -25.206)"/>
        <path id="패스_11436" data-name="패스 11436" class="cls-2" d="M425.209,34.136h-7.894V26.424h7.894v1.219h3.02V25.224h2.4v9.822h-2.4V32.9h-3.02ZM430.7,38.72c0,2.055-2.182,3.256-5.747,3.256-3.547,0-5.729-1.2-5.729-3.256s2.182-3.256,5.729-3.256C428.52,35.464,430.7,36.664,430.7,38.72Zm-7.839-10.386H419.68v3.911h3.183ZM428.3,38.72c0-.964-1.146-1.419-3.346-1.419-2.183,0-3.329.455-3.329,1.419s1.146,1.419,3.329,1.419C427.155,40.139,428.3,39.684,428.3,38.72Zm-3.092-9.167v1.436h3.02V29.553Z" transform="translate(-268.124 -25.206)"/>
        <path id="패스_11437" data-name="패스 11437" class="cls-2" d="M440.019,37.119c1.364-.091,2.728-.181,4.038-.364l.181,1.746a58.837,58.837,0,0,1-10.494.691l-.291-1.946c1.255,0,2.673,0,4.165-.036V35.791c-1.8-.346-2.965-1.473-2.965-3.037,0-1.874,1.71-3.147,4.165-3.147,2.437,0,4.147,1.273,4.147,3.147,0,1.564-1.164,2.691-2.946,3.037Zm3.819-8.167H433.78V27.079h3.838v-1.8h2.4v1.8h3.819Zm-5.02,5.148c1.128,0,1.873-.473,1.873-1.346,0-.855-.745-1.328-1.873-1.328-1.109,0-1.873.473-1.873,1.328C436.945,33.627,437.709,34.1,438.818,34.1Zm8.513-8.876V41.976h-2.4V25.224Z" transform="translate(-268.124 -25.206)"/>
      </g>
      <g id="그룹_6783" data-name="그룹 6783" transform="translate(383.441 86.492)">
        <path id="패스_11438" data-name="패스 11438" class="cls-2" d="M220.375,40.411V38.473l1.762-1.591c3-2.69,4.453-4.218,4.478-5.819,0-1.111-.655-2-2.24-2a5.058,5.058,0,0,0-2.93,1.126l-.9-2.287a7.555,7.555,0,0,1,4.472-1.413c3.108,0,4.8,1.813,4.8,4.29,0,2.3-1.645,4.14-3.639,5.9l-1.268,1.051v.042h5.178v2.638Z" transform="translate(-220.375 -26.492)"/>
        <path id="패스_11439" data-name="패스 11439" class="cls-2" d="M241.541,33.511c0,4.218-1.712,7.132-5.2,7.132-3.54,0-5.1-3.173-5.116-7.045,0-3.977,1.668-7.106,5.208-7.106C240.092,26.492,241.541,29.758,241.541,33.511Zm-7.113.073c-.009,3.15.753,4.642,1.978,4.642,1.246,0,1.93-1.565,1.93-4.675,0-3.034-.662-4.629-1.937-4.629C235.221,28.922,234.423,30.4,234.428,33.584Z" transform="translate(-220.375 -26.492)"/>
        <path id="패스_11440" data-name="패스 11440" class="cls-2" d="M242.483,40.411V38.473l1.762-1.591c3-2.69,4.453-4.218,4.478-5.819,0-1.111-.655-2-2.241-2a5.058,5.058,0,0,0-2.929,1.126l-.9-2.287a7.56,7.56,0,0,1,4.473-1.413c3.108,0,4.8,1.813,4.8,4.29,0,2.3-1.645,4.14-3.64,5.9l-1.267,1.051v.042H252.2v2.638Z" transform="translate(-220.375 -26.492)"/>
        <path id="패스_11441" data-name="패스 11441" class="cls-2" d="M257.613,29.576h-.042l-2.6,1.236-.53-2.4,3.629-1.687h2.642V40.411h-3.1Z" transform="translate(-220.375 -26.492)"/>
      </g>
    </g>
    <rect id="사각형_8635" data-name="사각형 8635" class="cls-3" width="137.607" height="31.316" rx="15.658" transform="translate(1046.893 74.342)"/>
    <text id="참가신청" class="cls-4" transform="translate(1082 95.342)"><tspan x="0" y="0">참가신청</tspan></text>
    <circle id="타원_1582" data-name="타원 1582" class="cls-2" cx="8" cy="8" r="8" transform="translate(1143 82.342)"/>
    <path id="패스_11447" data-name="패스 11447" class="cls-5" d="M4.781,4.385,7.769,7.373,4.781,10.36" transform="translate(1144.965 83.457)"/>
    <rect id="사각형_8637" data-name="사각형 8637" class="cls-6" width="1200" height="60" transform="translate(360 60)"/>
  </g>
</svg>
