<svg xmlns="http://www.w3.org/2000/svg" xmlns:xlink="http://www.w3.org/1999/xlink" width="407" height="261" viewBox="0 0 407 261">
  <defs>
    <style>
      .cls-1, .cls-7 {
        fill: none;
      }

      .cls-1 {
        opacity: 0.311;
      }

      .cls-2 {
        fill: #fff;
      }

      .cls-3 {
        fill: #1e2222;
      }

      .cls-4 {
        fill: #c6c7cc;
      }

      .cls-5 {
        fill: #b3b3b3;
      }

      .cls-6 {
        fill: #0933b3;
      }

      .cls-8 {
        fill: #e53c38;
      }

      .cls-9 {
        fill: #c7c7c7;
      }

      .cls-10 {
        fill: #505050;
      }

      .cls-11 {
        fill: #414550;
      }

      .cls-12 {
        fill: #f6f6f6;
      }

      .cls-13 {
        fill: #e1e2e4;
      }

      .cls-14 {
        fill: #86888c;
      }

      .cls-15 {
        fill: #f3f3f3;
      }

      .cls-16, .cls-17 {
        fill: #a4aab4;
      }

      .cls-16 {
        stroke: rgba(0,0,0,0);
      }

      .cls-18 {
        filter: url(#사각형_6146);
      }

      .cls-19 {
        filter: url(#사각형_5090);
      }
    </style>
    <filter id="사각형_5090" x="0" y="0" width="407" height="261" filterUnits="userSpaceOnUse">
      <feOffset dx="4" dy="5" input="SourceAlpha"/>
      <feGaussianBlur stdDeviation="10" result="blur"/>
      <feFlood flood-opacity="0.161"/>
      <feComposite operator="in" in2="blur"/>
      <feComposite in="SourceGraphic"/>
    </filter>
    <filter id="사각형_6146" x="0" y="0" width="407" height="71" filterUnits="userSpaceOnUse">
      <feOffset dx="4" dy="5" input="SourceAlpha"/>
      <feGaussianBlur stdDeviation="10" result="blur-2"/>
      <feFlood flood-opacity="0.059"/>
      <feComposite operator="in" in2="blur-2"/>
      <feComposite in="SourceGraphic"/>
    </filter>
  </defs>
  <g id="그룹_6929" data-name="그룹 6929" transform="translate(12 -709.998)">
    <path id="사각형_4370" data-name="사각형 4370" class="cls-1" d="M0,0H19.78V3.776H0Z" transform="translate(79.733 738.828)"/>
    <g class="cls-19" transform="matrix(1, 0, 0, 1, -12, 710)">
      <rect id="사각형_5090-2" data-name="사각형 5090" class="cls-2" width="347" height="201" rx="5" transform="translate(26 25)"/>
    </g>
    <g class="cls-18" transform="matrix(1, 0, 0, 1, -12, 710)">
      <path id="사각형_6146-2" data-name="사각형 6146" class="cls-2" d="M10,0H337a10,10,0,0,1,10,10v1a0,0,0,0,1,0,0H0a0,0,0,0,1,0,0V10A10,10,0,0,1,10,0Z" transform="translate(26 25)"/>
    </g>
    <path id="사각형_4370-2" data-name="사각형 4370" class="cls-1" d="M0,0H19.866V3.793H0Z" transform="translate(79.016 738.453)"/>
    <path id="패스_5703" data-name="패스 5703" class="cls-3" d="M1.664-2.766v-.51H2.53v-.2H.864v-.438h1.6v-.824H.614v.2H2.225v.422H.62v.836h.794v.51H.312v.2H2.771v-.2ZM4.938-4.377a6.13,6.13,0,0,1-.109,1.291l.247.027a6.664,6.664,0,0,0,.106-1.319v-.269H5.067v0H3.326v.2H4.938ZM3.064-2.829v.205H5.511v-.205Zm4.964-2.1H7.78v1.976h.247Zm-1.916.851a.442.442,0,0,1,.462-.45.444.444,0,0,1,.468.45.445.445,0,0,1-.468.456A.444.444,0,0,1,6.111-4.081Zm1.171,0a.666.666,0,0,0-.709-.664.663.663,0,0,0-.7.664.666.666,0,0,0,.7.67A.669.669,0,0,0,7.282-4.081Zm-.748,1.59v-.667H6.286v.869H8.109v-.2Z" transform="translate(283.901 744.332)"/>
    <path id="패스_5702" data-name="패스 5702" class="cls-3" d="M1.708-3.838H1.127v-.274H.921v.274H.338v.166h1.37ZM.677-3.127c0-.158.141-.259.347-.259s.344.1.344.259-.141.256-.344.256S.677-2.971.677-3.127Zm.45.412c.267-.033.438-.189.438-.412,0-.254-.219-.417-.541-.417s-.543.163-.543.417c0,.226.174.382.44.415v.241c-.224.008-.44.01-.631.01l.03.174a9.223,9.223,0,0,0,1.461-.091l-.015-.153c-.206.028-.425.043-.639.053Zm.782-1.4V-1.86h.206V-4.112Zm1.838,1.33v.153h.458V-2.4h.206V-4.115H4.205v1.333Zm-.46-1.089c.214,0,.36.1.36.239s-.146.241-.36.241-.36-.1-.36-.241S3.074-3.871,3.287-3.871Zm0,.634c.329,0,.556-.153.556-.395s-.226-.392-.556-.392-.556.156-.556.392S2.958-3.237,3.287-3.237Zm-.08.759h.206v-.445c.2-.013.412-.035.611-.065l-.018-.148a12.252,12.252,0,0,1-1.453.065l.028.171c.186,0,.4,0,.626-.013Zm-.126.4v-.488H2.875v.656H4.469v-.168Zm1.893-1.8V-3.7H5.8a1.534,1.534,0,0,1-.933,1.255l.113.161A1.7,1.7,0,0,0,6.005-3.874ZM6.951-3.2H6.589v-.915H6.383V-1.86h.206V-3.029h.362Zm1.836-.913V-2.9h.206V-4.112ZM7.539-2.792v.9H8.993v-.9h-.2v.277H7.743v-.277Zm.2.438H8.789v.3H7.743Zm.038-1.652a.533.533,0,0,0-.586.518.532.532,0,0,0,.586.52.535.535,0,0,0,.591-.52A.536.536,0,0,0,7.781-4.007Zm0,.171a.355.355,0,0,1,.39.347.355.355,0,0,1-.39.35.354.354,0,0,1-.385-.35A.353.353,0,0,1,7.781-3.836Z" transform="translate(266.813 743.424)"/>
    <path id="사각형_5130" data-name="사각형 5130" class="cls-4" d="M3.431.181a3.251,3.251,0,0,0-2.3,5.549,3.23,3.23,0,0,0,2.3.952h8.308a3.251,3.251,0,0,0,2.3-5.549,3.23,3.23,0,0,0-2.3-.952H3.431m0-.181h8.308a3.431,3.431,0,1,1,0,6.863H3.431A3.431,3.431,0,0,1,3.431,0Z" transform="translate(280.565 737.188)"/>
    <path id="선_1789" data-name="선 1789" class="cls-5" d="M-.319,1.806H-.5V0h.181Z" transform="translate(263.277 739.717)"/>
    <path id="패스_5701" data-name="패스 5701" class="cls-3" d="M.71-3.705h.37v1.1C.957-2.6.831-2.6.71-2.6Zm.571,0h.241v-.166H.268v.166H.509v1.111c-.106,0-.206,0-.3,0l.025.174A9.323,9.323,0,0,0,1.641-2.5l-.015-.153c-.111.015-.226.025-.344.033Zm1.064.493H1.973v-.9H1.766V-1.86h.206V-3.041h.372ZM4.336-2.9H3v-.357H4.263v-.163H3v-.334H4.314v-.166H2.787v1.187H4.336ZM2.523-2.32v.168H4.57V-2.32Zm2.62-1.544H4.937V-2.4h.176a5.291,5.291,0,0,0,1.031-.091l-.028-.176a4.889,4.889,0,0,1-.973.093Zm1.323-.251v.744H5.775V-3.2h.691v1.345h.206V-4.115Zm2.977.691H8.1v-.435H9.428v-.166H7.9v.767H9.443Zm-.785,1.4c-.355,0-.563-.088-.563-.246s.209-.246.563-.246.563.088.563.246S9.011-2.023,8.659-2.023Zm0-.654c-.48,0-.772.146-.772.407s.292.407.772.407.772-.146.772-.407S9.139-2.677,8.659-2.677ZM7.64-3.041v.171H9.682v-.171Zm2.514.676h1.363v.485h.206v-.654H10.155Zm.9-.51v-.236h.7v-.161H10.394v-.236h1.318v-.548H10.185V-3.9h1.323v.234H10.19v.551h.656v.236h-.92v.168h2.047v-.168Zm1.823.342a.338.338,0,0,1-.352-.347.339.339,0,0,1,.352-.35.339.339,0,0,1,.355.35A.339.339,0,0,1,12.878-2.533Zm0-.868a.514.514,0,0,0-.546.52.511.511,0,0,0,.546.518.512.512,0,0,0,.551-.518A.516.516,0,0,0,12.878-3.4Zm.1-.686h-.206v.334H12.2v.166h1.33v-.166h-.556Zm1.345.9h-.37v-.925h-.206V-1.86h.206V-3.014h.37Zm.314-.684v.166h.847a1.492,1.492,0,0,1-.95,1.257l.111.168a1.689,1.689,0,0,0,1.049-1.592Zm1.511-.244V-1.86h.206V-4.115Z" transform="translate(239.697 743.424)"/>
    <path id="패스_5699" data-name="패스 5699" class="cls-3" d="M-12.723-3.018H-13.2v-.694h.473Zm-.8,0h-.3v.264h1.74v-.264h-.307v-.694h.314v-.264h-1.76v.264h.314ZM-14-2.4v.269h2.1V-2.4Zm3.5.013v-.344h.7V-3h-1.343v-.259h1.29v-.772h-1.622v.264h1.295v.249h-1.292v.785h.639v.344h-.88v.272h2.1v-.272Zm2.034-1.22v.269h.246v.561h.309V-4.135h-.309v.528Zm.181.526a.616.616,0,0,1-.41-.6v-.063h.337v-.264H-9.383v.264h.365v.063a.665.665,0,0,1-.438.646l.168.254A.772.772,0,0,0-8.855-3.2a.718.718,0,0,0,.4.375Zm-.759.664h1.262v.558h.332v-.82H-9.046Zm1.28-1.76v1.411h.314V-4.177Zm2.5,1.194h-1.29v-.259h1.22V-3.5h-1.22v-.244h1.272v-.267H-6.892v1.287h1.627ZM-7.138-2.4v.269h2.1V-2.4ZM-3.56-4.024a.589.589,0,0,0-.636.571.588.588,0,0,0,.636.571.59.59,0,0,0,.639-.571A.591.591,0,0,0-3.56-4.024Zm0,.284a.285.285,0,0,1,.314.287.285.285,0,0,1-.314.287.285.285,0,0,1-.314-.287A.285.285,0,0,1-3.56-3.74Zm.855-.44v2.323h.332V-4.18ZM-4.251-2.327A7.464,7.464,0,0,0-2.81-2.432l-.02-.239A10.415,10.415,0,0,1-4.294-2.6Zm3.168-.505H-.62v-.256h-.9v-.2h.847v-.689H-1.85v.256H-1v.191h-.847v.7h.432v.292c-.206.005-.4.005-.591.005l.04.272A9.425,9.425,0,0,0-.522-2.347l-.023-.241c-.171.018-.355.03-.538.038ZM-.417-4.18v2.323h.332V-4.18Z" transform="translate(144.674 743.455)"/>
    <path id="패스_5700" data-name="패스 5700" class="cls-3" d="M-11.038-3.677h.337v-.269h-1.031v.269h.372v.113a1.171,1.171,0,0,1-.458,1.026l.2.244a1.075,1.075,0,0,0,.425-.621.95.95,0,0,0,.412.566l.194-.241a1.068,1.068,0,0,1-.448-.973Zm.47.289h-.294v.269h.294v1.152h.309V-4.14h-.309Zm.468-.792v2.316h.314V-4.18Zm.827,1.37a1.124,1.124,0,0,0,.837-.551,1.142,1.142,0,0,0,.847.538l.126-.262c-.5-.073-.767-.352-.8-.654h.694V-4H-9.311v.264h.694a.831.831,0,0,1-.785.666Zm1,.41v-.51H-8.6v.51h-.883v.269h2.1V-2.4Zm1.994-1.28h.3V-2.7h-.3Zm-.309,1.24h.913v-1.5h-.913Zm1.607-1.74v.885h-.194v-.847h-.309v2.175h.309V-3.028h.194v1.164h.314V-4.18Zm.7.241v.264h.752A1.348,1.348,0,0,1-4.39-2.518l.176.256A1.687,1.687,0,0,0-3.19-3.939Zm1.521-.239v.888h-.448v.269h.448v1.159h.332V-4.177Zm2.608,0H-.485V-2.5H-.15Zm-.48,1.134a.721.721,0,0,1-.543-.679V-3.75h.458v-.262h-1.26v.262h.465v.028a.74.74,0,0,1-.553.714l.168.259a.9.9,0,0,0,.558-.493A.888.888,0,0,0-.8-2.789Zm-.729.878v-.488h-.332V-1.9h1.6v-.264Z" transform="translate(166.218 743.455)"/>
    <path id="패스_5698" data-name="패스 5698" class="cls-3" d="M-11.038-3.682h.337v-.269h-1.031v.269h.372v.113a1.171,1.171,0,0,1-.458,1.026l.2.244A1.075,1.075,0,0,0-11.2-2.92a.95.95,0,0,0,.412.566l.194-.241a1.068,1.068,0,0,1-.448-.973Zm.47.289h-.294v.269h.294v1.152h.309V-4.145h-.309Zm.468-.792v2.316h.314V-4.185Zm.827,1.37a1.124,1.124,0,0,0,.837-.551,1.142,1.142,0,0,0,.847.538l.126-.262c-.5-.073-.767-.352-.8-.654h.694v-.264H-9.311v.264h.694a.831.831,0,0,1-.785.666Zm1,.41v-.51H-8.6v.51h-.883v.269h2.1V-2.4ZM-6.343-4h-.334v.337a1.126,1.126,0,0,1-.566,1.056l.2.269a1.1,1.1,0,0,0,.536-.666,1.055,1.055,0,0,0,.5.624l.2-.262a1.093,1.093,0,0,1-.536-1.021Zm1.3.712h-.337v-.89h-.332v2.316h.332V-3.016h.337Zm2.069.141A.612.612,0,0,1-3.512-3.7h.458v-.262h-.458V-4.19h-.332v.229H-4.3V-3.7h.453a.639.639,0,0,1-.536.586l.153.259a.851.851,0,0,0,.553-.432.862.862,0,0,0,.548.392Zm.468.649v-.262H-4.06V-2.5h.581c-.058.171-.277.332-.681.377l.118.251a1.041,1.041,0,0,0,.759-.387,1.022,1.022,0,0,0,.754.39l.118-.251c-.4-.048-.619-.214-.681-.38Zm-.03-1.162v-.518h-.332v1.318h.332V-3.39h.307v-.274Zm.593-.279v.264h.772a1.356,1.356,0,0,1-.9,1.159l.174.262A1.689,1.689,0,0,0-.834-3.944ZM-.48-4.185v2.316h.334V-4.185Z" transform="translate(121.46 743.461)"/>
    <g id="그룹_5020" data-name="그룹 5020" transform="translate(79.016 738.359)">
      <path id="사각형_4370-3" data-name="사각형 4370" class="cls-1" d="M0,0H18.211V3.477H0Z" transform="translate(0 0.402)"/>
      <g id="그룹_70673" data-name="그룹 70673" transform="translate(0 0.898)">
        <g id="그룹_6" data-name="그룹 6" transform="translate(0 0.004)">
          <path id="패스_1" data-name="패스 1" class="cls-6" d="M-500.257,282.041a.882.882,0,0,1-.946.871h-1.231v-2.974h1.147a.862.862,0,0,1,.925.849.749.749,0,0,1-.255.582A.771.771,0,0,1-500.257,282.041Zm-1.507-1.465v.527h.477a.245.245,0,0,0,.185-.075.253.253,0,0,0,.071-.189.251.251,0,0,0-.07-.189.243.243,0,0,0-.185-.074Zm.837,1.415a.271.271,0,0,0-.076-.2.263.263,0,0,0-.2-.08h-.561v.569h.561a.263.263,0,0,0,.2-.08.271.271,0,0,0,.076-.2Z" transform="translate(502.433 -279.879)"/>
          <path id="패스_2" data-name="패스 2" class="cls-6" d="M-362.971,282.257v.654h-1.716v-2.974h.67v2.319Z" transform="translate(370.497 -279.879)"/>
          <path id="패스_3" data-name="패스 3" class="cls-6" d="M-326.784,280.592h-.753v2.319h-.67v-2.319h-.753v-.654h2.177Z" transform="translate(336.278 -279.879)"/>
          <path id="패스_4" data-name="패스 4" class="cls-6" d="M-276.284,281.686l-.26-.284a1.288,1.288,0,0,1-.758.233.925.925,0,0,1-1.046-.9,1.009,1.009,0,0,1,.469-.853.912.912,0,0,1-.121-.471.872.872,0,0,1,.942-.87,1,1,0,0,1,.963.649l-.573.335c-.075-.2-.192-.323-.381-.323a.252.252,0,0,0-.194.063.259.259,0,0,0-.086.187.639.639,0,0,0,.23.42l.54.607a2.272,2.272,0,0,0,.138-.467l.561.323a2.193,2.193,0,0,1-.268.624l.368.416Zm-.67-.739-.536-.586-.025-.025a.421.421,0,0,0-.155.331c0,.2.126.348.423.348a.609.609,0,0,0,.293-.068Z" transform="translate(287.799 -278.544)"/>
          <path id="패스_5" data-name="패스 5" class="cls-6" d="M-206.779,279.938v2.974h-.5l-1.131-1.615v1.614h-.67v-2.973h.5l1.13,1.614v-1.614Z" transform="translate(221.454 -279.879)"/>
          <path id="패스_6" data-name="패스 6" class="cls-6" d="M-80.864,280.592h-.753v2.319h-.67v-2.319h-.753v-.654h2.177Z" transform="translate(100.73 -279.879)"/>
          <g id="그룹_1" data-name="그룹 1" transform="translate(15.146 0.081)">
            <path id="패스_7" data-name="패스 7" class="cls-6" d="M-142.417,282.753a.386.386,0,0,1-.232-.354v-1.947h-.7v2.016a.974.974,0,0,0,.927.977Z" transform="translate(143.344 -280.453)"/>
            <path id="패스_8" data-name="패스 8" class="cls-6" d="M-111.1,280.453V282.4a.385.385,0,0,1-.274.369v.677a.974.974,0,0,0,.927-.977v-2.016Z" transform="translate(112.718 -280.453)"/>
          </g>
        </g>
        <g id="그룹_7" data-name="그룹 7" transform="translate(2.375 0)">
          <path id="패스_9" data-name="패스 9" class="cls-6" d="M-444.163,296.972a.859.859,0,0,1-.432.117.864.864,0,0,1-.864-.864.86.86,0,0,1,.075-.352l-.5-.45a1.51,1.51,0,0,0-.23.8,1.517,1.517,0,0,0,1.517,1.517,1.51,1.51,0,0,0,.932-.32Z" transform="translate(446.113 -294.663)"/>
          <path id="패스_10" data-name="패스 10" class="cls-6" d="M-432.787,279.252a.86.86,0,0,1,.482-.148.864.864,0,0,1,.864.864.86.86,0,0,1-.1.4l.494.445a1.51,1.51,0,0,0,.26-.849,1.517,1.517,0,0,0-1.517-1.517,1.511,1.511,0,0,0-.976.356Z" transform="translate(433.822 -278.451)"/>
        </g>
      </g>
      <path id="패스_1-2" data-name="패스 1" class="cls-6" d="M-500.257,282.041a.882.882,0,0,1-.946.871h-1.231v-2.974h1.147a.862.862,0,0,1,.925.849.749.749,0,0,1-.255.582A.771.771,0,0,1-500.257,282.041Zm-1.507-1.465v.527h.477a.245.245,0,0,0,.185-.075.253.253,0,0,0,.071-.189.251.251,0,0,0-.07-.189.243.243,0,0,0-.185-.074Zm.837,1.415a.271.271,0,0,0-.076-.2.263.263,0,0,0-.2-.08h-.561v.569h.561a.263.263,0,0,0,.2-.08.271.271,0,0,0,.076-.2Z" transform="translate(502.433 -278.977)"/>
      <path id="패스_2-2" data-name="패스 2" class="cls-6" d="M-362.971,282.257v.654h-1.716v-2.974h.67v2.319Z" transform="translate(370.497 -278.977)"/>
      <path id="패스_3-2" data-name="패스 3" class="cls-6" d="M-326.784,280.592h-.753v2.319h-.67v-2.319h-.753v-.654h2.177Z" transform="translate(336.278 -278.977)"/>
      <path id="패스_4-2" data-name="패스 4" class="cls-6" d="M-276.284,281.686l-.26-.284a1.288,1.288,0,0,1-.758.233.925.925,0,0,1-1.046-.9,1.009,1.009,0,0,1,.469-.853.912.912,0,0,1-.121-.471.872.872,0,0,1,.942-.87,1,1,0,0,1,.963.649l-.573.335c-.075-.2-.192-.323-.381-.323a.252.252,0,0,0-.194.063.259.259,0,0,0-.086.187.639.639,0,0,0,.23.42l.54.607a2.272,2.272,0,0,0,.138-.467l.561.323a2.193,2.193,0,0,1-.268.624l.368.416Zm-.67-.739-.536-.586-.025-.025a.421.421,0,0,0-.155.331c0,.2.126.348.423.348a.609.609,0,0,0,.293-.068Z" transform="translate(287.799 -277.642)"/>
      <path id="패스_5-2" data-name="패스 5" class="cls-6" d="M-206.779,279.938v2.974h-.5l-1.131-1.615v1.614h-.67v-2.973h.5l1.13,1.614v-1.614Z" transform="translate(221.455 -278.977)"/>
      <path id="패스_6-2" data-name="패스 6" class="cls-6" d="M-80.864,280.592h-.753v2.319h-.67v-2.319h-.753v-.654h2.177Z" transform="translate(100.73 -278.977)"/>
      <g id="그룹_1-2" data-name="그룹 1" transform="translate(15.146 0.983)">
        <path id="패스_7-2" data-name="패스 7" class="cls-6" d="M-142.417,282.753a.386.386,0,0,1-.232-.354v-1.947h-.7v2.016a.974.974,0,0,0,.927.977Z" transform="translate(143.344 -280.453)"/>
        <path id="패스_8-2" data-name="패스 8" class="cls-6" d="M-111.1,280.453V282.4a.385.385,0,0,1-.274.369v.677a.974.974,0,0,0,.927-.977v-2.016Z" transform="translate(112.718 -280.453)"/>
      </g>
      <rect id="사각형_5999" data-name="사각형 5999" class="cls-7" width="20" height="5" transform="translate(-0.016 -0.361)"/>
    </g>
    <path id="패스_5514" data-name="패스 5514" class="cls-3" d="M12.906-.639H-.819A.181.181,0,0,1-1-.819.181.181,0,0,1-.819-1H12.906a.181.181,0,0,1,.181.181A.181.181,0,0,1,12.906-.639Z" transform="translate(131.671 747.037)"/>
    <rect id="사각형_5090-3" data-name="사각형 5090" class="cls-7" width="347" height="195" rx="10" transform="translate(14 740.998)"/>
    <path id="패스_8136" data-name="패스 8136" class="cls-3" d="M-192.775-23.815h-1.2v-1.7h1.2Zm-1.793,0h-.75v.484h3.887v-.484h-.755v-1.7h.767v-.479h-3.916v.479h.767Zm-1.159,1.407v.49H-191v-.49Zm7.814.029v-.888h1.626v-.479h-3.12v-.727h3v-1.649H-190v.479h3.01v.7h-3v1.678h1.482v.888h-2.053v.49h4.717v-.49Zm4.665-2.791v.49h.686v1.338h.554v-3.033h-.554v1.205Zm.409,1.211a1.521,1.521,0,0,1-.975-1.419V-25.6h.83v-.479h-2.307v.479h.894v.225a1.65,1.65,0,0,1-1.026,1.528l.311.456a1.86,1.86,0,0,0,1.015-1.055,1.732,1.732,0,0,0,.957.946Zm-1.684,1.344h2.935v1.338h.594v-1.816h-3.529Zm2.964-3.869v3.177h.565v-3.177Zm5.513,2.751h-3v-.715h2.849v-.467h-2.849v-.669h2.964v-.479h-3.57v2.808h3.61Zm-4.192,1.332v.484h4.723V-22.4Zm7.993-3.719a1.291,1.291,0,0,0-1.413,1.251,1.291,1.291,0,0,0,1.413,1.251,1.3,1.3,0,0,0,1.419-1.251A1.3,1.3,0,0,0-172.246-26.121Zm0,.507a.754.754,0,0,1,.836.744.757.757,0,0,1-.836.744.755.755,0,0,1-.83-.744A.752.752,0,0,1-172.246-25.614Zm2.007-.877v5.219h.6V-26.49Zm-3.587,4.117a18.126,18.126,0,0,0,3.316-.231l-.04-.432a23.807,23.807,0,0,1-3.35.173Zm7.093-1.159h1.113V-24h-2.157v-.559h2.024v-1.459h-2.624v.467h2.041V-25h-2.03v1.471h1.032v.784c-.5.012-.969.017-1.407.017l.075.49a20.94,20.94,0,0,0,3.316-.19l-.046-.438c-.432.052-.882.081-1.338.1Zm1.655-2.964v5.23h.6V-26.5Zm5.011.9H-163v1.171h3.616v-.415h-3.033v-.369h2.941v-1.148h-3.535v.409h2.947Zm-2.393,3.454h3v-1.165h-3.6v.409h3.01v.369h-3v1.194h3.743v-.409h-3.154Zm-1.148-1.955v.438h4.723V-24.1ZM-153-26.479h-.594v3.789H-153Zm-1.078,2.624a1.7,1.7,0,0,1-1.274-1.557v-.19h1.113v-.479h-2.849v.479h1.13v.19a1.776,1.776,0,0,1-1.292,1.655l.311.461a2.1,2.1,0,0,0,1.292-1.205,2.059,2.059,0,0,0,1.269,1.113Zm-1.724,2v-1.176h-.6v1.661h3.552v-.484Zm6.972-2.78h.542V-23.2h.565V-26.49h-.565v1.361h-.542v-1.263h-.554v3.016h.554Zm-.732-1.263h-1v-.536h-.582v.536h-1.009v.467h2.595Zm-1.874,1.592c0-.283.231-.467.582-.467s.588.185.588.467-.242.467-.588.467S-151.434-24.028-151.434-24.31Zm1.7,0c0-.536-.461-.9-1.119-.9s-1.113.363-1.113.9.461.9,1.113.9S-149.733-23.768-149.733-24.31Zm.283,2.583c-.744,0-1.171-.167-1.171-.479s.427-.473,1.171-.473,1.165.161,1.165.473S-148.7-21.727-149.451-21.727Zm0-1.4c-1.1,0-1.765.334-1.765.923s.663.928,1.765.928,1.759-.34,1.759-.928S-148.349-23.128-149.451-23.128Zm3.754.19c-.352,0-.6-.283-.6-.715s.248-.721.6-.721.6.288.6.721S-145.345-22.938-145.7-22.938Zm0-1.926a1.122,1.122,0,0,0-1.13,1.211,1.125,1.125,0,0,0,1.13,1.211,1.125,1.125,0,0,0,1.13-1.211A1.122,1.122,0,0,0-145.7-24.864Zm.294-1.471h-.588v.7h-.986v.479h2.549v-.479h-.975Zm2.307-.15v2.157h-.554v-2.047h-.554v4.856h.554v-2.318h.554v2.56h.565v-5.207Zm1.765,2.549a2.523,2.523,0,0,0,1.88-1.13,2.535,2.535,0,0,0,1.886,1.13l.213-.467c-.992-.133-1.724-.7-1.759-1.309h1.574v-.479h-3.835v.479h1.586c-.035.605-.767,1.176-1.759,1.309Zm4.239.381H-141.8v.479h2.041v1.8h.594v-1.8h2.07Zm2.047-2.451h-.577v.94a2.6,2.6,0,0,1-1.1,2.261l.363.45a2.509,2.509,0,0,0,1.026-1.494,2.375,2.375,0,0,0,.963,1.378l.334-.461a2.518,2.518,0,0,1-1.015-2.163Zm1.223,1.344h-.767v.484h.767v2.658h.559v-4.867h-.559Zm1.061-1.822v5.207h.565v-5.207Zm2.976,2.953a2.986,2.986,0,0,0,.657.069,2.67,2.67,0,0,0,.657-.075V-22.4h-1.315Zm.657-2.186c.784,0,1.332.346,1.332.894s-.548.9-1.332.9-1.338-.346-1.338-.9S-129.919-25.718-129.129-25.718Zm1.251,3.316v-1.355a1.2,1.2,0,0,0,.663-1.067c0-.83-.807-1.361-1.915-1.361s-1.915.531-1.915,1.361a1.2,1.2,0,0,0,.663,1.067V-22.4h-1.1v.484h4.717V-22.4Zm2.122.755a.441.441,0,0,0,.444-.461.451.451,0,0,0-.444-.473.451.451,0,0,0-.444.473A.441.441,0,0,0-125.755-21.646Z" transform="translate(347.958 802.918)"/>
    <g id="그룹_5658" data-name="그룹 5658" transform="translate(183.438 758.629)">
      <ellipse id="타원_709" data-name="타원 709" class="cls-6" cx="4.064" cy="4.064" rx="4.064" ry="4.064"/>
      <circle id="타원_1234" data-name="타원 1234" class="cls-2" cx="0.5" cy="0.5" r="0.5" transform="translate(1.822 3.563)"/>
      <circle id="타원_1235" data-name="타원 1235" class="cls-2" cx="0.5" cy="0.5" r="0.5" transform="translate(3.564 3.563)"/>
      <circle id="타원_1236" data-name="타원 1236" class="cls-2" cx="0.5" cy="0.5" r="0.5" transform="translate(5.306 3.563)"/>
    </g>
    <path id="패스_8139" data-name="패스 8139" class="cls-3" d="M3-15.714H1.68v-.49H3Zm.469-.861H1.211v1.236H3.464Zm-1.8,2.159H1.19v.962H3.514v-.378H1.665Zm-.825-.66v.375H2.148v.566h.476V-14.7H3.846v-.375Zm4.3-1.42a.844.844,0,0,0-.912.818.842.842,0,0,0,.912.818.846.846,0,0,0,.915-.818A.848.848,0,0,0,5.136-16.5Zm0,.407a.409.409,0,0,1,.451.411.409.409,0,0,1-.451.411.409.409,0,0,1-.451-.411A.409.409,0,0,1,5.136-16.089Zm1.225-.631v3.33h.476v-3.33ZM4.145-14.064a10.7,10.7,0,0,0,2.065-.151l-.029-.342a14.929,14.929,0,0,1-2.1.108Zm4.21-.043h1.831v.714h.476v-1.092H8.355Zm.5-2.108h1.316v.429H8.859Zm.9,1.114v-.31h.887v-1.175H8.391v1.175h.89v.31H8.023v.378h3V-15.1Zm3.492-.1a1.026,1.026,0,0,1-.75-.951h.645v-.378H11.361v.378h.652a1.078,1.078,0,0,1-.782,1.013l.241.375a1.3,1.3,0,0,0,.793-.717,1.234,1.234,0,0,0,.753.652Zm-1.489.988h1.788v.822h.476v-1.2H11.761Zm1.788-2.5v.789h-.49v.382h.49v.8h.476v-1.971Z" transform="translate(78.686 817.387)"/>
    <path id="패스_8140" data-name="패스 8140" class="cls-8" d="M1.372-13.273l.269-.315.269.315.169-.123-.211-.354.367-.156-.065-.2-.389.091-.036-.405H1.534l-.036.409L1.109-14.1l-.065.2.367.156L1.2-13.4Z" transform="translate(92.937 815.074)"/>
    <path id="패스_8134" data-name="패스 8134" class="cls-2" d="M.541,0H215.709a.541.541,0,0,1,.541.541V7.028a.541.541,0,0,1-.541.541H.541A.541.541,0,0,1,0,7.028V.541A.541.541,0,0,1,.541,0Z" transform="translate(79.375 841.785)"/>
    <path id="사각형_5074_-_윤곽선" data-name="사각형 5074 - 윤곽선" class="cls-9" d="M.541.18a.361.361,0,0,0-.36.36V7.028a.361.361,0,0,0,.36.36H215.709a.361.361,0,0,0,.36-.36V.541a.361.361,0,0,0-.36-.36H.541m0-.18H215.709a.541.541,0,0,1,.541.541V7.028a.541.541,0,0,1-.541.541H.541A.541.541,0,0,1,0,7.028V.541A.541.541,0,0,1,.541,0Z" transform="translate(79.375 841.785)"/>
    <path id="패스_8141" data-name="패스 8141" class="cls-9" d="M2.932-12.355H2.71v1.773h.222ZM2.424-11.1a.826.826,0,0,1-.608-.741v-.132h.549v-.178H1.034v.178h.554v.132a.863.863,0,0,1-.614.789l.116.173a1.017,1.017,0,0,0,.614-.6,1.03,1.03,0,0,0,.611.551Zm-.83.935v-.581H1.372v.762H3.005v-.181Zm3.292-1.349h.308v.695h.214v-1.535H5.195v.66H4.886v-.611H4.676v1.4h.211Zm-.305-.551H4.075v-.27H3.857v.27H3.348v.176H4.581Zm-.933.716c0-.149.127-.249.319-.249s.319.1.319.249-.13.251-.319.251S3.648-11.2,3.648-11.352Zm.835,0c0-.249-.211-.414-.516-.414s-.519.165-.519.414.214.416.519.416S4.484-11.1,4.484-11.352Zm.127,1.246c-.37,0-.592-.092-.592-.251s.222-.254.592-.254.589.092.589.254S4.978-10.106,4.611-10.106Zm0-.676c-.505,0-.811.151-.811.424s.305.422.811.422.811-.151.811-.422S5.116-10.781,4.611-10.781Zm1.881.124a.364.364,0,0,1-.378-.373.364.364,0,0,1,.378-.376.365.365,0,0,1,.381.376A.364.364,0,0,1,6.492-10.657Zm0-.933a.553.553,0,0,0-.587.56.549.549,0,0,0,.587.557.551.551,0,0,0,.592-.557A.554.554,0,0,0,6.492-11.59Zm.108-.738H6.379v.36H5.768v.178H7.2v-.178H6.6Zm1.446.968h-.4v-.995H7.427v2.422h.222v-1.241h.4Zm2.1-.268H8.717v-.641H8.5v.822h1.649ZM8.7-10.7H8.479v.708h1.679v-.181H8.7Zm-.5-.422v.178h2.2v-.178Zm4.355.03h-.6v-.843h.6Zm-.824,0h-.37v.181h1.787v-.181h-.37v-.843h.376v-.178h-1.8v.178h.376Zm-.57.665v.184h2.2v-.184Zm3.628.014v-.457h.776v-.178H14.069v-.392H15.5v-.738h-1.66V-12h1.443v.378H13.85v.749h.711v.457h-.987v.181h2.2v-.181ZM17-11.733v.181h.365v.66h.211V-12.3h-.211v.57Zm.189.573a.764.764,0,0,1-.473-.684v-.135h.416v-.181H16.053v.181H16.5v.138a.821.821,0,0,1-.492.738l.116.17a.922.922,0,0,0,.487-.541.876.876,0,0,0,.465.484Zm-.773.573h1.408v.657h.222v-.835h-1.63Zm1.416-1.768v1.481h.214v-1.481Zm2.533,1.306H18.921v-.384h1.362v-.176H18.921v-.36h1.416v-.178H18.7v1.276h1.665Zm-1.949.622v.181h2.2v-.181Zm3.671-1.465h.433v-.181H21.411v.181h.46v.219a1.265,1.265,0,0,1-.527,1.089l.135.165a1.255,1.255,0,0,0,.5-.768,1.159,1.159,0,0,0,.487.708l.135-.162a1.175,1.175,0,0,1-.516-1.033Zm.649.405h-.4v.181h.4v1.246h.211V-12.3h-.211Zm.487-.873v2.425h.214V-12.36Zm.816,1.841h1.457v.589h.222V-10.7H24.035Zm.254-1.562h1.195v.47H24.289Zm.711.954v-.308h.7v-.822h-1.63v.822h.706v.308h-.989v.178h2.195v-.178Zm2.306-1.022c.4,0,.624.092.624.254s-.227.254-.624.254-.624-.092-.624-.254S26.909-12.149,27.306-12.149Zm0,.673c.533,0,.851-.146.851-.419s-.319-.422-.851-.422-.851.149-.851.422S26.774-11.476,27.306-11.476Zm-.608,1.1h1.425v-.546H26.474v.168H27.9v.216H26.482v.581H28.2v-.173H26.7Zm-.489-.933v.178H28.4v-.178Zm4.728-1.043v1.3h.222v-1.3ZM29.6-10.935v.97h1.562v-.97h-.219v.3H29.815v-.3Zm.219.47h1.124v.322H29.815Zm.041-1.776a.573.573,0,0,0-.63.557.572.572,0,0,0,.63.56.575.575,0,0,0,.635-.56A.576.576,0,0,0,29.855-12.241Zm0,.184a.381.381,0,0,1,.419.373.382.382,0,0,1-.419.376.38.38,0,0,1-.414-.376A.38.38,0,0,1,29.855-12.057Zm3.014.843a5.476,5.476,0,0,1-.962.057v-.368h.822v-.687H31.683v.181h.83v.335h-.822v.719h.173a5.6,5.6,0,0,0,1.027-.059Zm-.908.66h1.4v.624h.222v-.806H31.961Zm1.4-1.8V-12h-.473v.181h.473v.324h-.473v.178h.473v.449h.222v-1.489Zm1.246,1.676a.334.334,0,0,1-.322-.37.333.333,0,0,1,.322-.365.334.334,0,0,1,.322.365A.336.336,0,0,1,34.607-10.679Zm0-.922a.516.516,0,0,0-.519.551.515.515,0,0,0,.519.554.515.515,0,0,0,.519-.554A.516.516,0,0,0,34.607-11.6Zm.108-.687H34.5v.343H34v.181h1.2v-.181h-.492Zm1.133-.073v1.024h-.311V-12.3h-.208v2.252h.208v-1.1h.311v1.219h.214V-12.36Zm.795,1.181a1.226,1.226,0,0,0,.881-.554,1.22,1.22,0,0,0,.881.554l.087-.176c-.427-.062-.846-.341-.846-.66v-.014h.76v-.178H36.635v.178H37.4v.014c0,.319-.419.6-.841.66Zm1.976.2h-2.19v.181h.979v.862h.222v-.862h.992Zm.946-1.152h-.214v.462a1.231,1.231,0,0,1-.533,1.046l.138.168a1.242,1.242,0,0,0,.5-.746,1.185,1.185,0,0,0,.478.692l.127-.173a1.179,1.179,0,0,1-.5-.995Zm.638.641h-.4v.184h.4v1.252h.208V-12.3H40.2Zm.492-.87v2.425h.211v-2.425ZM42.025-11a1.445,1.445,0,0,0,.335.038A1.493,1.493,0,0,0,42.7-11v.57h-.676Zm.335-1.033c.389,0,.67.178.67.449s-.281.449-.67.449-.668-.178-.668-.449S41.971-12.03,42.36-12.03Zm.562,1.6v-.657a.55.55,0,0,0,.319-.5c0-.378-.365-.622-.881-.622s-.881.243-.881.622a.554.554,0,0,0,.324.5v.654h-.541v.184h2.2v-.184Zm.995.33a.179.179,0,0,0,.178-.187.183.183,0,0,0-.178-.192.183.183,0,0,0-.178.192A.179.179,0,0,0,43.917-10.1Zm2.225,0a.874.874,0,0,0,.487-.151l-.089-.162a.633.633,0,0,1-.368.116.486.486,0,0,1-.487-.514h.989a.96.96,0,0,0,.011-.141c0-.419-.211-.689-.584-.689a.71.71,0,0,0-.662.773A.7.7,0,0,0,46.142-10.1Zm-.46-.887a.452.452,0,0,1,.422-.457c.23,0,.365.159.365.457Zm1.068.851h.259l.2-.343c.051-.089.1-.178.151-.262h.014c.054.084.108.173.157.262l.216.343h.27l-.484-.741.446-.727H47.72l-.181.324c-.043.081-.087.162-.132.243H47.4c-.049-.081-.1-.162-.146-.243l-.2-.324h-.265l.446.7Zm1.506.533a2.513,2.513,0,0,0,.4-1.373,2.5,2.5,0,0,0-.4-1.37l-.151.07a2.524,2.524,0,0,1,.346,1.3,2.517,2.517,0,0,1-.346,1.3Zm2.265-1.56h-.687V-11.6h.687Zm.216-1.022h-.216v.405h-.687v-.405h-.219v1.2h1.122Zm-.627,1.435h-.222v.76H51.5v-.181H50.11Zm1.287-.876v-.733h-.222v1.779H51.4v-.86h.36v-.187Zm.846.351h.835v-.868h-1.06v.178h.841v.508h-.835v.957h.184a6.5,6.5,0,0,0,1.07-.073l-.019-.184a6.165,6.165,0,0,1-1.016.073Zm1.465-1.089v.554h-.478v.181h.478v.484h-.495v.181h.495v1.03h.222v-2.43Zm1.744,2.254c-.384,0-.608-.095-.608-.265s.224-.265.608-.265.6.095.6.265S55.83-10.106,55.451-10.106Zm0-.7c-.519,0-.833.157-.833.438s.314.438.833.438.827-.157.827-.438S55.965-10.808,55.451-10.808Zm.111-.351v-.281h.73v-.178H54.851v-.449h1.425v-.178H54.629v.806h.711v.281h-.987v.178h2.195v-.178Zm2.9-.554H57.273V-12.1h1.189Zm.219-.562H57.057v.738h1.625Zm.284,1.119v-.178H56.77v.178h.987v.238h-.722v.168h1.43v.216H57.043v.576h1.714v-.173h-1.5v-.241h1.425v-.546h-.706v-.238Zm1.579-.992h-.219v.435a1.3,1.3,0,0,1-.627,1.092l.138.178a1.354,1.354,0,0,0,.6-.808,1.311,1.311,0,0,0,.589.754l.135-.178a1.2,1.2,0,0,1-.616-1.038Zm1.438.589v-.184H61.6v-.614h-.222v2.422H61.6v-.908h.387v-.184H61.6v-.533Zm.949-.505c.235,0,.4.124.4.305s-.165.308-.4.308-.4-.122-.4-.308S62.7-12.065,62.931-12.065Zm0,.784c.36,0,.608-.192.608-.478s-.249-.476-.608-.476-.608.192-.608.476S62.571-11.281,62.931-11.281Zm.806.122a11.78,11.78,0,0,1-1.595.078l.027.187c.192,0,.411,0,.641-.011v.9h.222v-.911a7.206,7.206,0,0,0,.719-.076Zm.184-1.195V-10.7h-.549v.173h.549v.6h.222v-2.425Zm.792.26v.178h.911A1.6,1.6,0,0,1,64.6-10.565l.119.181A1.816,1.816,0,0,0,65.847-12.1Zm1.625-.262v2.425h.222v-2.425Z" transform="translate(82.18 856.781)"/>
    <path id="패스_8142" data-name="패스 8142" class="cls-8" d="M1.372-13.273l.269-.315.269.315.169-.123-.211-.354.367-.156-.065-.2-.389.091-.036-.405H1.534l-.036.409L1.109-14.1l-.065.2.367.156L1.2-13.4Z" transform="translate(99.425 848.27)"/>
    <path id="패스_8143" data-name="패스 8143" class="cls-3" d="M2.695-15.055H2.017v-.995h.678Zm-1.15,0H1.112v.378H3.606v-.378h-.44v-.995h.451v-.378H1.094v.378h.451Zm-.685.887v.386H3.866v-.386Zm4.963.018v-.494H6.828v-.382H4.9V-15.4H6.753V-16.5H4.428v.378H6.284v.357H4.432v1.125h.915v.494H4.086v.389H7.092v-.389ZM8.685-15.9v.386h.353v.8h.443v-1.946H9.038v.757Zm.259.753a.882.882,0,0,1-.587-.865v-.09H8.84v-.378H7.373v.378H7.9v.09a.953.953,0,0,1-.627.926l.241.364a1.106,1.106,0,0,0,.62-.595,1.029,1.029,0,0,0,.58.537Zm-1.088.952H9.665v.8h.476v-1.175H7.856ZM9.69-16.716v2.022h.451v-2.022ZM13.222-15H11.373v-.371h1.748v-.368H11.373v-.35H13.2v-.382H10.89v1.845h2.332Zm-2.685.84v.386h3.006v-.386ZM15.543-16h.483v-.386H14.549V-16h.533v.162a1.679,1.679,0,0,1-.656,1.471l.281.35a1.541,1.541,0,0,0,.609-.89,1.361,1.361,0,0,0,.591.811l.278-.346a1.531,1.531,0,0,1-.642-1.395Zm.674.414H15.8v.386h.422v1.651h.443v-3.114h-.443Zm.67-1.135V-13.4h.451V-16.72Zm1.161,2.613h1.831v.714h.476v-1.092H18.048Zm.5-2.108h1.316v.429H18.553Zm.9,1.114v-.31h.887v-1.175H18.084v1.175h.89v.31H17.717v.378h3V-15.1Z" transform="translate(78.671 850.617)"/>
    <path id="패스_8135" data-name="패스 8135" class="cls-2" d="M.541,0H215.709a.541.541,0,0,1,.541.541V7.028a.541.541,0,0,1-.541.541H.541A.541.541,0,0,1,0,7.028V.541A.541.541,0,0,1,.541,0Z" transform="translate(79.375 924.805)"/>
    <path id="사각형_6103_-_윤곽선" data-name="사각형 6103 - 윤곽선" class="cls-9" d="M.541.18a.361.361,0,0,0-.36.36V7.028a.361.361,0,0,0,.36.36H215.709a.361.361,0,0,0,.36-.36V.541a.361.361,0,0,0-.36-.36H.541m0-.18H215.709a.541.541,0,0,1,.541.541V7.028a.541.541,0,0,1-.541.541H.541A.541.541,0,0,1,0,7.028V.541A.541.541,0,0,1,.541,0Z" transform="translate(79.375 924.805)"/>
    <path id="패스_8144" data-name="패스 8144" class="cls-9" d="M2.75-11.485a5.686,5.686,0,0,1-1.076.1v-.849H1.455V-11.2h.189A5.658,5.658,0,0,0,2.777-11.3ZM3-10.131H1.906v-.322H3Zm0-.5H1.906v-.322H1.687v1h1.53v-1H3ZM3.58-11.8H3.22v-.541H3v1.26H3.22v-.535h.36Zm.319-.281v.178H4.81a1.6,1.6,0,0,1-1.022,1.352l.119.181a1.816,1.816,0,0,0,1.127-1.711Zm1.625-.262V-9.92h.222v-2.425Zm2.641,0H7.942V-11.1h.222Zm-1.719.627a.375.375,0,0,1,.411-.36.374.374,0,0,1,.411.36.373.373,0,0,1-.411.357A.375.375,0,0,1,6.445-11.718Zm1.038,0a.565.565,0,0,0-.627-.541.562.562,0,0,0-.624.541.56.56,0,0,0,.624.535A.563.563,0,0,0,7.483-11.718Zm-.665,1.589V-10.4H8.164v-.587H6.594v.176H7.945v.246H6.6v.608H8.245v-.176Zm4.087-.4h.224v-1.811h-.224v.568h-.53v.184h.53Zm-.357-.573a.87.87,0,0,1-.587-.787V-12.2H9.74v.3a.914.914,0,0,1-.606.846l.116.176a1.056,1.056,0,0,0,.6-.633,1.019,1.019,0,0,0,.578.576Zm-.757.949v-.576H9.57v.757h1.616v-.181Zm2.9-1.092a3.809,3.809,0,0,1-.816.065v-.33h.695v-.17H11.87v-.305h.722v-.178h-.935V-11h.154a4.138,4.138,0,0,0,.9-.068Zm-.719.678h1.408v.649H13.6v-.827h-1.63Zm1.416-1.773v.63H13.06V-12.3h-.211v1.408h.211v-.641h.324v.657H13.6v-1.468Z" transform="translate(86.472 939.793)"/>
    <path id="패스_8146" data-name="패스 8146" class="cls-3" d="M3.018-16.313h-.76v-.364H1.782v.364H1.028v.371H3.018Zm-.627,1.132c0,.173-.148.267-.364.267s-.368-.094-.368-.267.148-.27.368-.27S2.391-15.358,2.391-15.181Zm-1.182,0c0,.371.339.627.818.627s.815-.256.815-.627-.339-.631-.815-.631S1.209-15.559,1.209-15.181Zm-.191,1.215A11.03,11.03,0,0,0,3.1-14.1l-.032-.346a16.506,16.506,0,0,1-2.1.09Zm2.217-2.75V-13.4H3.71v-3.319Zm2.144,1.352H4.73V-16.1h.649Zm.469-1.114H4.265v1.489H5.847ZM5.7-13.765c-.422,0-.652-.09-.652-.285s.231-.285.652-.285.649.094.649.285S6.118-13.765,5.7-13.765Zm0-.941c-.688,0-1.124.245-1.124.656s.436.66,1.124.66,1.121-.245,1.121-.66S6.381-14.705,5.7-14.705Zm1.085-1.269v-.742H6.3v1.925h.476v-.789h.44v-.393ZM10-15.592a7.356,7.356,0,0,1-1.269.13v-1.114H8.255v1.507h.281a7.669,7.669,0,0,0,1.517-.141Zm.263,1.78H9.03v-.306h1.233Zm0-.674H9.03v-.332H8.558v1.384h2.177v-1.384h-.472Zm.912-1.553h-.44v-.678h-.476v1.741h.476v-.674h.44Zm.357-.335V-16h1.106a1.943,1.943,0,0,1-1.283,1.662l.249.375a2.421,2.421,0,0,0,1.521-2.415Zm2.1-.346V-13.4h.479V-16.72Zm3.7,0h-.479v1.662h.479Zm-2.249.854a.383.383,0,0,1,.429-.375.377.377,0,0,1,.422.375.375.375,0,0,1-.422.375A.381.381,0,0,1,15.081-15.862Zm1.312,0a.8.8,0,0,0-.883-.757.808.808,0,0,0-.89.757.808.808,0,0,0,.89.76A.8.8,0,0,0,16.393-15.862Zm-.8,2.058v-.209H17.33v-.9H15.117v.364h1.741v.2H15.121v.919h2.292V-13.8Z" transform="translate(78.589 928.781)"/>
    <path id="패스_8148" data-name="패스 8148" class="cls-10" d="M2.336-11.924H1.693v-.9h.643Zm-.879,0h-.4v.193H2.967v-.193h-.4v-.9h.4v-.19H1.056v.19h.4Zm-.608.709v.2H3.192v-.2Zm3.869.014v-.487h.828v-.19H3.953V-12.3H5.484v-.787H3.714v.193h1.54v.4H3.72v.8h.758v.487H3.426v.193h2.35V-11.2Zm2.359-1.407v.193h.389v.7H7.69v-1.505H7.465v.608Zm.2.611a.815.815,0,0,1-.5-.729v-.144h.444v-.193H6.07v.193h.476v.147a.876.876,0,0,1-.525.787l.124.182a.984.984,0,0,0,.519-.577.935.935,0,0,0,.5.516Zm-.825.611h1.5v.7h.236v-.891H6.453ZM7.964-13.27v1.58h.228v-1.58Zm2.7,1.393H9.129v-.409h1.453v-.187H9.129v-.383H10.64v-.19H8.89v1.361h1.776Zm-2.079.663v.193h2.347v-.193ZM12.5-12.777h.461v-.193H11.784v.193h.49v.234a1.35,1.35,0,0,1-.562,1.162l.144.176a1.339,1.339,0,0,0,.533-.819,1.237,1.237,0,0,0,.519.755l.144-.173a1.253,1.253,0,0,1-.551-1.1Zm.692.433h-.427v.193h.427v1.329h.225v-2.393h-.225Zm.519-.931v2.586h.228v-2.586Zm2.1.819H15.17V-13h.643Zm-.879,0h-.381v.19H16.43v-.19h-.381V-13h.392v-.19h-1.9V-13h.389Zm1.214,1.545h-1.3v-.43h1.3Zm.516-.92v-.19H14.325v.19h1.052v.3h-.764v.807h1.765v-.807h-.764v-.3Zm2.041-.513H17.447v-.334H18.7Zm.234-.845H18.7v.329H17.447v-.329h-.234v1.032h1.724Zm-1.505,1.742H17.2v.7h1.788v-.193H17.433Zm-.533-.458v.19h1.075v.5h.236v-.5h1.038v-.19Zm3.275.427c-.251,0-.427-.274-.427-.695s.176-.686.427-.686.424.271.424.686S20.423-11.479,20.175-11.479Zm0-1.594c-.381,0-.652.352-.652.9s.271.905.652.905.649-.352.649-.905S20.556-13.074,20.175-13.074Zm1.713.649v-.2h-.412v-.649h-.236v2.583h.236v-.969h.412v-.2h-.412v-.574Zm.764.951c-.208,0-.337-.262-.337-.686s.13-.678.337-.678.334.262.334.678S22.854-11.474,22.652-11.474Zm.874-.793H23.2c-.029-.487-.236-.79-.548-.79-.337,0-.554.346-.554.9s.216.905.554.905c.317,0,.528-.311.548-.819h.326v1.26h.225v-2.4h-.225Zm.513-1.006v2.586h.225v-2.586Zm1.822,1.791a.357.357,0,0,1-.343-.4.355.355,0,0,1,.343-.389.356.356,0,0,1,.343.389A.358.358,0,0,1,25.861-11.482Zm0-.983a.55.55,0,0,0-.554.588.55.55,0,0,0,.554.591.55.55,0,0,0,.554-.591A.55.55,0,0,0,25.861-12.466Zm.115-.732h-.234v.366h-.525v.193H26.5v-.193h-.525Zm1.208-.078v1.093h-.332v-1.032h-.222v2.4h.222V-11.99h.332v1.3h.228v-2.586ZM29.3-12.223a5.16,5.16,0,0,1-1.15.089v-.75h.908v-.19H27.917v1.133h.2a5.635,5.635,0,0,0,1.208-.089Zm-.314,1.344c-.383,0-.62-.115-.62-.306s.236-.306.62-.306.617.115.617.306S29.367-10.88,28.986-10.88Zm0-.8c-.525,0-.853.185-.853.5s.329.5.853.5.851-.185.851-.5S29.508-11.681,28.986-11.681Zm.825-.92v-.672h-.239v1.54h.239v-.672h.381v-.2Zm1.329,1.142a.388.388,0,0,1-.4-.4.388.388,0,0,1,.4-.4.389.389,0,0,1,.407.4A.389.389,0,0,1,31.14-11.459Zm0-.995a.59.59,0,0,0-.626.6.586.586,0,0,0,.626.594.587.587,0,0,0,.631-.594A.591.591,0,0,0,31.14-12.454Zm.115-.787h-.236v.383h-.652v.19h1.525v-.19h-.637ZM32.8-12.209h-.424V-13.27h-.236v2.583h.236V-12.01H32.8Zm2.237-.285H33.513v-.683h-.236v.877h1.759Zm-1.54.989H33.26v.755H35.05v-.193H33.5Zm-.536-.45v.19H35.3v-.19Zm4.691-1.026h-.646V-13.3h-.236v.314h-.643v.19h1.525Zm-1.156.776c0-.167.159-.277.392-.277s.4.11.4.277-.159.28-.4.28S36.495-12.036,36.495-12.206Zm1.012,0c0-.277-.251-.456-.62-.456s-.617.179-.617.456.248.458.617.458S37.507-11.926,37.507-12.206Zm-.193,1.335c-.378,0-.608-.1-.608-.265s.231-.265.608-.265.608.1.608.265S37.691-10.871,37.314-10.871Zm0-.712c-.522,0-.842.161-.842.447s.32.447.842.447.842-.164.842-.447S37.833-11.583,37.314-11.583Zm.81-.972v-.718h-.236v1.664h.236v-.75h.383v-.2Zm.833,1.243h1.554v.629h.236V-11.5H38.957Zm.271-1.667H40.5v.5H39.228Zm.758,1.018v-.329h.75v-.877H39v.877h.753v.329H38.695v.19h2.341v-.19Zm3.353-.631H41.826V-13h1.488v-.19H41.59v.784h1.75ZM41.8-11.168h1.52v-.608H41.558v.185h1.525v.248H41.566v.626h1.828V-10.9H41.8Zm-.519-1.026V-12h2.341v-.193Zm3.748-.856c.424,0,.666.1.666.271s-.242.271-.666.271-.666-.1-.666-.271S44.6-13.051,45.026-13.051Zm0,.718c.568,0,.908-.156.908-.447s-.34-.45-.908-.45-.908.159-.908.45S44.458-12.333,45.026-12.333Zm-.649,1.171H45.9v-.582H44.138v.179h1.525v.231H44.147v.62h1.828V-10.9h-1.6Zm-.522-.995v.19H46.2v-.19Zm5.049.819h.239V-13.27H48.9v.605h-.565v.2H48.9Zm-.381-.611a.928.928,0,0,1-.626-.839v-.329h-.236v.32a.975.975,0,0,1-.646.9l.124.187a1.126,1.126,0,0,0,.643-.675,1.087,1.087,0,0,0,.617.614Zm-.807,1.012v-.614H47.48v.807H49.2v-.193ZM50.8-12.1a4.063,4.063,0,0,1-.871.069v-.352h.741v-.182h-.741v-.326h.77v-.19h-1v1.243h.164a4.414,4.414,0,0,0,.957-.072Zm-.767.724h1.5v.692h.236v-.882H50.038Zm1.511-1.891v.672H51.2v-.626h-.225v1.5H51.2v-.683h.346v.7h.228V-13.27Zm1.266,1.788a.357.357,0,0,1-.343-.4.355.355,0,0,1,.343-.389.356.356,0,0,1,.343.389A.358.358,0,0,1,52.814-11.482Zm0-.983a.55.55,0,0,0-.554.588.55.55,0,0,0,.554.591.55.55,0,0,0,.554-.591A.55.55,0,0,0,52.814-12.466Zm.115-.732H52.7v.366h-.525v.193h1.283v-.193H52.93Zm1.208-.078v1.093h-.332v-1.032h-.222v2.4h.222V-11.99h.332v1.3h.228v-2.586Zm.848,1.26a1.307,1.307,0,0,0,.94-.591,1.3,1.3,0,0,0,.94.591l.092-.187c-.456-.066-.9-.363-.9-.7v-.014h.81v-.19H54.977v.19h.816v.014c0,.34-.447.637-.9.7Zm2.108.216H54.758v.193H55.8v.92h.236v-.92H57.1ZM58.1-13.028h-.228v.493a1.313,1.313,0,0,1-.568,1.116l.147.179a1.324,1.324,0,0,0,.536-.8,1.264,1.264,0,0,0,.51.738l.136-.185a1.258,1.258,0,0,1-.533-1.061Zm.68.683h-.427v.2h.427v1.335H59v-2.4h-.222Zm.525-.928v2.586h.225v-2.586Zm1.419,1.45a1.542,1.542,0,0,0,.358.04,1.593,1.593,0,0,0,.363-.04v.608h-.721Zm.358-1.1c.415,0,.715.19.715.479s-.3.479-.715.479-.712-.19-.712-.479S60.669-12.924,61.084-12.924Zm.6,1.71v-.7a.586.586,0,0,0,.34-.531c0-.4-.389-.663-.94-.663s-.94.259-.94.663a.591.591,0,0,0,.346.533v.7h-.577v.2h2.35v-.2Zm1.061.352a.19.19,0,0,0,.19-.2.2.2,0,0,0-.19-.2.2.2,0,0,0-.19.2A.19.19,0,0,0,62.745-10.862Z" transform="translate(78.861 931.922)"/>
    <path id="패스_8149" data-name="패스 8149" class="cls-8" d="M1.372-13.273l.269-.315.269.315.169-.123-.211-.354.367-.156-.065-.2-.389.091-.036-.405H1.534l-.036.409L1.109-14.1l-.065.2.367.156L1.2-13.4Z" transform="translate(92.937 878.898)"/>
    <path id="패스_8150" data-name="패스 8150" class="cls-3" d="M3.018-16.313h-.76v-.364H1.782v.364H1.028v.371H3.018Zm-.627,1.132c0,.173-.148.267-.364.267s-.368-.094-.368-.267.148-.27.368-.27S2.391-15.358,2.391-15.181Zm-1.182,0c0,.371.339.627.818.627s.815-.256.815-.627-.339-.631-.815-.631S1.209-15.559,1.209-15.181Zm-.191,1.215A11.03,11.03,0,0,0,3.1-14.1l-.032-.346a16.506,16.506,0,0,1-2.1.09Zm2.217-2.75V-13.4H3.71v-3.319Zm2.144,1.352H4.73V-16.1h.649Zm.469-1.114H4.265v1.489H5.847ZM5.7-13.765c-.422,0-.652-.09-.652-.285s.231-.285.652-.285.649.094.649.285S6.118-13.765,5.7-13.765Zm0-.941c-.688,0-1.124.245-1.124.656s.436.66,1.124.66,1.121-.245,1.121-.66S6.381-14.705,5.7-14.705Zm1.085-1.269v-.742H6.3v1.925h.476v-.789h.44v-.393Zm2.79,1.013a2.9,2.9,0,0,0,.018-.317,2.3,2.3,0,0,0-.022-.324h.292v.642Zm-.7.443c-.187,0-.3-.252-.3-.76s.108-.757.3-.757.292.249.292.757S9.055-14.518,8.871-14.518Zm.988-1.467H9.477a.66.66,0,0,0-.605-.5c-.443,0-.721.454-.721,1.2s.278,1.207.721,1.207a.668.668,0,0,0,.609-.5h.378v1.027H10.3v-3.114H9.859Zm.66-.735V-13.4h.451V-16.72Zm2.815,1.579a1.028,1.028,0,0,1-.76-1.013v-.36H12.09v.357A1.086,1.086,0,0,1,11.3-15.08l.252.371a1.291,1.291,0,0,0,.789-.717,1.241,1.241,0,0,0,.75.656Zm-1.034.624h-.476v1.063h2.253v-.378H12.3Zm1.662-1.236v-.962h-.476v2.429h.476v-1.074h.44v-.393Z" transform="translate(78.589 881.277)"/>
    <path id="패스_8151" data-name="패스 8151" class="cls-10" d="M2.19-11.191h-.6v-.843h.6Zm-.824,0H1v.181H2.782v-.181h-.37v-.843h.376v-.178H.99v.178h.376Zm-.57.665v.184h2.2v-.184Zm3.628.014v-.457H5.2v-.178H3.706v-.392H5.142v-.738H3.482v.181H4.925v.378H3.487v.749H4.2v.457H3.212v.181h2.2v-.181Zm2.211-1.319v.181H7v.66H7.21V-12.4H7v.57Zm.189.573a.764.764,0,0,1-.473-.684v-.135h.416v-.181H5.69v.181h.446v.138a.821.821,0,0,1-.492.738l.116.17a.922.922,0,0,0,.487-.541.876.876,0,0,0,.465.484Zm-.773.573H7.458v.657H7.68v-.835H6.05Zm1.416-1.768v1.481H7.68v-1.481ZM10-11.147H8.558v-.384H9.921v-.176H8.558v-.36H9.975v-.178H8.334v1.276H10Zm-1.949.622v.181h2.2v-.181Zm4-.606a1.765,1.765,0,0,0,.022-.278,1.765,1.765,0,0,0-.022-.278h.33v.557Zm-.5.362c-.192,0-.316-.246-.316-.641s.124-.638.316-.638.316.246.316.638S11.751-10.769,11.556-10.769Zm.827-1.1h-.376a.485.485,0,0,0-.451-.384c-.314,0-.516.324-.516.843s.2.846.516.846a.488.488,0,0,0,.451-.384h.376v.8h.211V-12.4h-.211Zm.476-.587v2.425h.211v-2.425Zm1.984,1.219a.849.849,0,0,1-.6-.768v-.305h-.222v.3a.881.881,0,0,1-.605.833l.116.176a1.006,1.006,0,0,0,.605-.616,1.02,1.02,0,0,0,.592.557Zm-.814.4h-.222v.751h1.608v-.181H14.03Zm1.281-.876v-.746h-.222v1.792h.222v-.862h.36v-.184Zm1.276.687a1.306,1.306,0,0,0,.9-.654,1.289,1.289,0,0,0,.908.643l.089-.178c-.422-.068-.884-.4-.884-.787v-.051h.8v-.181H16.568v.181h.8V-12c0,.387-.46.724-.879.795Zm1.011.5v-.587h-.222v.587h-.989v.184h2.2v-.184Zm2.3-1.735c.4,0,.624.092.624.254s-.227.254-.624.254-.624-.092-.624-.254S19.506-12.261,19.9-12.261Zm0,.673c.535,0,.851-.146.851-.419s-.316-.422-.851-.422-.851.149-.851.422S19.368-11.588,19.9-11.588Zm.27.565H19.62v-.241h.551ZM21-11.264v-.178h-2.19v.178H19.4v.241h-.33v.168H20.5v.216H19.076v.581H20.79v-.173h-1.5v-.246h1.425v-.546H20.39v-.241Zm1.992-1.192v2.43h.222v-2.43Zm-1.057.187c-.36,0-.616.33-.616.846s.257.846.616.846.616-.33.616-.846S22.29-12.269,21.931-12.269Zm0,.2c.235,0,.4.254.4.646s-.168.649-.4.649-.405-.254-.405-.649S21.693-12.069,21.931-12.069Zm2.381-.127v.184H25.2a1.649,1.649,0,0,1-1,1.349l.122.173a1.823,1.823,0,0,0,1.1-1.706Zm2.125.724h-.389v-.984h-.222v2.425h.222v-1.257h.389Zm2.108-.308H27.121V-12.4H26.9v.8h1.646ZM27.7-10.212c-.381,0-.606-.1-.606-.268s.224-.27.606-.27.606.1.606.27S28.075-10.212,27.7-10.212Zm0-.711c-.516,0-.83.159-.83.443s.314.441.83.441.83-.159.83-.441S28.213-10.923,27.7-10.923Zm-1.092-.4v.181H28.8v-.181Zm3.855-.887h-.606v-.273h-.222v.273h-.6v.178h1.43Zm-1.084.716c0-.157.146-.257.368-.257s.37.1.37.257-.149.257-.37.257S29.375-11.331,29.375-11.491Zm.949,0c0-.257-.235-.422-.581-.422s-.578.165-.578.422.232.424.578.424S30.324-11.231,30.324-11.491Zm.36,1.249H29.6v-.268h1.087Zm0-.441H29.6v-.257h-.219v.876H30.9v-.876h-.219Zm.578-1.157H30.9v-.616h-.222v1.408H30.9v-.605h.36Zm.551-.381h-.222v1.562h.2a5.76,5.76,0,0,0,1.189-.114l-.024-.189a5.728,5.728,0,0,1-1.143.114Zm1.392-.235v2.422h.222v-2.422Zm.979.416h.906v-.184H33.962v1.592h.192a5.748,5.748,0,0,0,1.146-.087l-.024-.184a5.893,5.893,0,0,1-1.092.081Zm1.941.541h-.4v-.957H35.5v2.43h.222v-1.289h.4Zm.387,1.3a.179.179,0,0,0,.178-.187.183.183,0,0,0-.178-.192.183.183,0,0,0-.178.192A.179.179,0,0,0,36.511-10.2Z" transform="translate(83.77 895.816)"/>
    <path id="패스_8152" data-name="패스 8152" class="cls-6" d="M1.187-11.057a1.765,1.765,0,0,0,.022-.278,1.765,1.765,0,0,0-.022-.278h.33v.557Zm-.5.362c-.192,0-.316-.246-.316-.641s.124-.638.316-.638.316.246.316.638S.884-10.7.689-10.7Zm.827-1.1H1.141a.485.485,0,0,0-.451-.384c-.314,0-.516.324-.516.843s.2.846.516.846a.488.488,0,0,0,.451-.384h.376v.8h.211v-2.252H1.516Zm.476-.587v2.425H2.2v-2.425Zm1.984,1.219a.849.849,0,0,1-.6-.768v-.305H3.157v.3a.881.881,0,0,1-.606.833l.116.176a1.006,1.006,0,0,0,.606-.616,1.02,1.02,0,0,0,.592.557Zm-.814.4H2.941v.751H4.549v-.181H3.163Zm1.281-.876v-.746H4.222v1.792h.222v-.862H4.8v-.184Zm1.276.346a1.176,1.176,0,0,0,.9-.43,1.17,1.17,0,0,0,.895.43l.07-.168c-.46-.046-.827-.232-.846-.5h.751v-.176h-.76v-.251H6.506v.251h-.76v.176H6.5c-.019.27-.387.457-.843.5Zm.043.749H7.22v.587h.222v-.762H5.763Zm-.243-.614v.178H7.712v-.178Zm3.714-.595v.181h.478v.635h.224v-1.443H9.712v.627Zm.135.551a.835.835,0,0,1-.589-.741v-.084h.533V-12.2H8.017v.178h.541v.084a.894.894,0,0,1-.611.808l.116.176a1.049,1.049,0,0,0,.611-.616,1,1,0,0,0,.584.546Zm-.232,1.07c-.365,0-.587-.1-.587-.278s.222-.281.587-.281.587.105.587.281S9.5-10.13,9.137-10.13Zm0-.73c-.5,0-.808.165-.808.451s.311.451.808.451.806-.165.806-.451S9.634-10.86,9.137-10.86Zm2.984-1.522v2.43h.222v-2.43Zm-1.057.187c-.36,0-.616.33-.616.846s.257.846.616.846.616-.33.616-.846S11.423-12.2,11.064-12.2Zm0,.2c.235,0,.4.254.4.646s-.168.649-.4.649-.405-.254-.405-.649S10.826-12,11.064-12Zm2.9,1.295c-.232,0-.395-.254-.395-.649s.162-.646.395-.646.392.254.392.646S14.194-10.7,13.964-10.7Zm1.127-1.681v.924h-.527c-.035-.454-.273-.738-.6-.738-.354,0-.605.33-.605.846s.251.846.605.846c.338,0,.578-.3.6-.773h.527v1.325h.222v-2.43Zm.951,1.087h.835v-.868h-1.06v.178h.841v.508h-.835v.957h.184a6.5,6.5,0,0,0,1.07-.073l-.019-.184a6.165,6.165,0,0,1-1.016.073Zm1.465-1.089v.554H17.03v.181h.478v.484h-.495v.181h.495v1.03h.222v-2.43Zm1.738.278c.37,0,.622.138.622.351s-.251.354-.622.354-.619-.138-.619-.354S18.879-12.106,19.246-12.106Zm0,.884c.505,0,.849-.205.849-.533s-.343-.53-.849-.53-.846.205-.846.53S18.743-11.222,19.246-11.222Zm1.1.23H18.154v.184h.981v.854h.222v-.854h.992Zm2.214-1.389h-.222V-10.6h.222Zm-.53,1.208A.9.9,0,0,1,21.428-12v-.246h-.222V-12a.945.945,0,0,1-.608.87l.116.181a1.088,1.088,0,0,0,.605-.649,1.045,1.045,0,0,0,.6.6Zm-.808.981v-.576H21v.757h1.633v-.181Zm1.9-1.93v.184h.889a1.649,1.649,0,0,1-1,1.349l.122.173a1.823,1.823,0,0,0,1.1-1.706Zm2.125.724h-.389v-.984h-.222v2.425h.222v-1.257h.389Zm.924.376a1.445,1.445,0,0,0,.335.038,1.493,1.493,0,0,0,.341-.038v.57h-.676Zm.335-1.033c.389,0,.67.178.67.449s-.281.449-.67.449-.668-.178-.668-.449S26.118-12.055,26.507-12.055Zm.562,1.6v-.657a.55.55,0,0,0,.319-.5c0-.378-.365-.622-.881-.622s-.881.243-.881.622a.554.554,0,0,0,.324.5v.654h-.541v.184h2.2v-.184Zm1.1-.3h.219c-.049-.424.438-.584.438-.981a.462.462,0,0,0-.505-.481.675.675,0,0,0-.516.249l.141.13a.461.461,0,0,1,.349-.173.274.274,0,0,1,.292.292C28.586-11.4,28.107-11.225,28.169-10.755Zm.116.633a.179.179,0,0,0,.181-.187.184.184,0,0,0-.181-.192.183.183,0,0,0-.178.192A.179.179,0,0,0,28.286-10.122ZM0-9.8H28.969v.18H0Z" transform="translate(86.764 903.281)"/>
    <path id="패스_8153" data-name="패스 8153" class="cls-2" d="M.541,0H36.222a.541.541,0,0,1,.541.541V6.668a.541.541,0,0,1-.541.541H.541A.541.541,0,0,1,0,6.668V.541A.541.541,0,0,1,.541,0Z" transform="translate(79.375 872.484)"/>
    <path id="사각형_6110_-_윤곽선" data-name="사각형 6110 - 윤곽선" class="cls-4" d="M.541.18a.361.361,0,0,0-.36.36V6.668a.361.361,0,0,0,.36.36H36.222a.361.361,0,0,0,.36-.36V.541a.361.361,0,0,0-.36-.36H.541m0-.18H36.222a.541.541,0,0,1,.541.541V6.668a.541.541,0,0,1-.541.541H.541A.541.541,0,0,1,0,6.668V.541A.541.541,0,0,1,.541,0Z" transform="translate(79.375 872.484)"/>
    <path id="패스_8137" data-name="패스 8137" class="cls-2" d="M.541,0H37.123a.541.541,0,0,1,.541.541V6.668a.541.541,0,0,1-.541.541H.541A.541.541,0,0,1,0,6.668V.541A.541.541,0,0,1,.541,0Z" transform="translate(124.788 872.484)"/>
    <path id="사각형_6112_-_윤곽선" data-name="사각형 6112 - 윤곽선" class="cls-4" d="M.541.18a.361.361,0,0,0-.36.36V6.668a.361.361,0,0,0,.36.36H37.123a.361.361,0,0,0,.36-.36V.541a.361.361,0,0,0-.36-.36H.541m0-.18H37.123a.541.541,0,0,1,.541.541V6.668a.541.541,0,0,1-.541.541H.541A.541.541,0,0,1,0,6.668V.541A.541.541,0,0,1,.541,0Z" transform="translate(124.788 872.484)"/>
    <path id="패스_8154" data-name="패스 8154" class="cls-11" d="M1.444-9.761c.4,0,.657-.366.657-1.1s-.257-1.09-.657-1.09-.66.355-.66,1.09S1.041-9.761,1.444-9.761Zm0-.21c-.242,0-.4-.268-.4-.891s.161-.877.4-.877.4.26.4.877S1.684-9.971,1.444-9.971Z" transform="translate(81.617 887.07)"/>
    <path id="패스_8155" data-name="패스 8155" class="cls-11" d="M1.444-9.761c.4,0,.657-.366.657-1.1s-.257-1.09-.657-1.09-.66.355-.66,1.09S1.041-9.761,1.444-9.761Zm0-.21c-.242,0-.4-.268-.4-.891s.161-.877.4-.877.4.26.4.877S1.684-9.971,1.444-9.971Z" transform="translate(127.028 886.672)"/>
    <path id="패스_8156" data-name="패스 8156" class="cls-11" d="M1.408-5.889a.425.425,0,0,0,.351-.252l-.131-.093c-.063.121-.134.172-.214.172-.159,0-.28-.237-.5-.237a.425.425,0,0,0-.353.252l.129.091c.066-.121.136-.172.217-.172C1.065-6.128,1.183-5.889,1.408-5.889Z" transform="translate(119.283 882.215)"/>
    <path id="패스_8138" data-name="패스 8138" class="cls-11" d="M1.87-10.185v.154H2.33V-9.8h.207v-1.723H2.33v1.337Zm-.462-1.092c.214,0,.361.1.361.24s-.146.242-.361.242-.361-.1-.361-.242S1.194-11.277,1.409-11.277Zm0,.636c.331,0,.558-.154.558-.4s-.227-.394-.558-.394-.558.156-.558.394S1.078-10.642,1.409-10.642Zm-.081.762h.207v-.447c.2-.013.414-.035.613-.066l-.018-.149a12.293,12.293,0,0,1-1.458.066L.7-10.3c.187,0,.4,0,.628-.013Zm-.126.4v-.489H.995v.658h1.6v-.169Z" transform="translate(164.064 886.527)"/>
    <path id="패스_5434" data-name="패스 5434" class="cls-4" d="M12610.439-6738.167a.177.177,0,0,1-.126-.053l-1.262-1.262a.176.176,0,0,1,0-.254.18.18,0,0,1,.255,0l1.133,1.134,1.135-1.134a.179.179,0,0,1,.254,0,.18.18,0,0,1,0,.254l-1.261,1.262A.18.18,0,0,1,12610.439-6738.167Z" transform="translate(-12497.727 7614.957)"/>
    <path id="패스_5437" data-name="패스 5437" class="cls-4" d="M12610.439-6738.167a.177.177,0,0,1-.126-.053l-1.262-1.262a.176.176,0,0,1,0-.254.18.18,0,0,1,.255,0l1.133,1.134,1.135-1.134a.179.179,0,0,1,.254,0,.18.18,0,0,1,0,.254l-1.261,1.262A.18.18,0,0,1,12610.439-6738.167Z" transform="translate(-12451.414 7614.957)"/>
    <path id="패스_8157" data-name="패스 8157" class="cls-2" d="M0,0H3.6V3.6H0Z" transform="translate(79.375 882.723)"/>
    <path id="사각형_6100_-_윤곽선" data-name="사각형 6100 - 윤곽선" class="cls-4" d="M.18.18V3.424H3.424V.18H.18M0,0H3.6V3.6H0Z" transform="translate(79.375 882.723)"/>
    <path id="패스_8158" data-name="패스 8158" class="cls-12" d="M2.613,0A2.613,2.613,0,1,1,0,2.613,2.613,2.613,0,0,1,2.613,0Z" transform="translate(79.375 889.57)"/>
    <path id="타원_951_-_윤곽선" data-name="타원 951 - 윤곽선" class="cls-13" d="M2.613.18A2.433,2.433,0,0,0,.893,4.333,2.433,2.433,0,1,0,4.333.893,2.417,2.417,0,0,0,2.613.18m0-.18A2.613,2.613,0,1,1,0,2.613,2.613,2.613,0,0,1,2.613,0Z" transform="translate(79.375 889.57)"/>
    <path id="패스_1-3" data-name="패스 1" class="cls-6" d="M-501.158,281.169a.516.516,0,0,1-.554.51h-.721v-1.741h.672a.5.5,0,0,1,.542.5.439.439,0,0,1-.149.341A.452.452,0,0,1-501.158,281.169Zm-.882-.858v.308h.279a.144.144,0,0,0,.108-.044.148.148,0,0,0,.041-.11.147.147,0,0,0-.041-.111.142.142,0,0,0-.109-.043Zm.49.828a.159.159,0,0,0-.044-.12.154.154,0,0,0-.117-.047h-.328v.333h.328a.154.154,0,0,0,.117-.047.158.158,0,0,0,.044-.12Z" transform="translate(583.789 611.348)"/>
    <path id="패스_8159" data-name="패스 8159" class="cls-14" d="M1.659-8.949,1.8-9.017A2.326,2.326,0,0,1,1.48-10.23,2.332,2.332,0,0,1,1.8-11.444l-.144-.066a2.356,2.356,0,0,0-.371,1.279A2.365,2.365,0,0,0,1.659-8.949Zm.51-1.65A1.065,1.065,0,0,0,3-11.06a1.069,1.069,0,0,0,.835.462l.073-.164c-.4-.045-.757-.24-.775-.489h.7v-.167H2.168v.167h.7c-.018.25-.378.444-.775.489Zm1.4.939c0,.151-.212.24-.565.24s-.565-.088-.565-.24S2.645-9.9,3-9.9,3.566-9.811,3.566-9.66Zm.459-.636v-.167H1.979v.167H2.9v.242c-.421.02-.671.159-.671.394,0,.257.293.4.777.4s.772-.141.772-.4c0-.235-.247-.373-.669-.394V-10.3Zm.439.5h1.36v.54h.207v-.706H4.464Zm.247-1.251h1.1v.262h-1.1Zm.653.7v-.27h.651v-.845h-.2v.257h-1.1v-.257h-.2v.845h.651v.27H4.235v.169H6.283v-.169Zm3.287.525h.209v-1.69H8.652v.53H8.158v.172h.494Zm-.333-.535a.812.812,0,0,1-.547-.734v-.288H7.565v.28a.853.853,0,0,1-.565.79l.108.164a.985.985,0,0,0,.563-.59.951.951,0,0,0,.54.537Zm-.706.886v-.537H7.406v.706H8.915v-.169Zm2.7-1.019a3.555,3.555,0,0,1-.762.061v-.308H10.2V-10.9H9.553v-.285h.674v-.167H9.354v1.087H9.5a3.862,3.862,0,0,0,.838-.063Zm-.671.633h1.314v.605h.207v-.772H9.644Zm1.322-1.655v.588h-.3v-.547h-.2v1.314h.2v-.6h.3v.613h.2v-1.37Zm1.171.24v.172h.83a1.539,1.539,0,0,1-.936,1.259l.114.161a1.7,1.7,0,0,0,1.027-1.592Zm1.983.676h-.363v-.918h-.207v2.263h.207v-1.173h.363Zm1.968-.288h-1.33v-.583h-.207v.749h1.536ZM15.3-9.428c-.356,0-.565-.093-.565-.25s.209-.252.565-.252.565.091.565.252S15.648-9.428,15.3-9.428Zm0-.664c-.482,0-.775.149-.775.414s.293.411.775.411.775-.149.775-.411S15.777-10.092,15.3-10.092Zm-1.019-.371v.169h2.046v-.169Zm2.372,1.514a2.345,2.345,0,0,0,.373-1.282,2.337,2.337,0,0,0-.373-1.279l-.141.066a2.356,2.356,0,0,1,.323,1.214,2.35,2.35,0,0,1-.323,1.214Z" transform="translate(96.521 813.191)"/>
    <path id="패스_8160" data-name="패스 8160" class="cls-2" d="M3.784,0h17.66a3.784,3.784,0,1,1,0,7.569H3.784A3.784,3.784,0,1,1,3.784,0Z" transform="translate(107.488 808.684)"/>
    <path id="사각형_3065_-_윤곽선" data-name="사각형 3065 - 윤곽선" class="cls-6" d="M3.784.18a3.605,3.605,0,0,0-1.4,6.925,3.581,3.581,0,0,0,1.4.283h17.66a3.605,3.605,0,0,0,1.4-6.925,3.581,3.581,0,0,0-1.4-.283H3.784m0-.18h17.66a3.784,3.784,0,1,1,0,7.569H3.784A3.784,3.784,0,1,1,3.784,0Z" transform="translate(107.488 808.684)"/>
    <path id="패스_8161" data-name="패스 8161" class="cls-2" d="M3.784,0h17.66a3.784,3.784,0,1,1,0,7.569H3.784A3.784,3.784,0,1,1,3.784,0Z" transform="translate(135.601 808.684)"/>
    <path id="사각형_3066_-_윤곽선" data-name="사각형 3066 - 윤곽선" class="cls-6" d="M3.784.18a3.605,3.605,0,0,0-1.4,6.925,3.581,3.581,0,0,0,1.4.283h17.66a3.605,3.605,0,0,0,1.4-6.925,3.581,3.581,0,0,0-1.4-.283H3.784m0-.18h17.66a3.784,3.784,0,1,1,0,7.569H3.784A3.784,3.784,0,1,1,3.784,0Z" transform="translate(135.601 808.684)"/>
    <path id="패스_8162" data-name="패스 8162" class="cls-6" d="M2.753-11.713v.365H2.115v.181h.638v.578h.224v-1.8H2.753v.5H2.209A1.161,1.161,0,0,0,2.25-12.2H1.144v.178h.868a1.276,1.276,0,0,1-.992.965l.1.181a1.615,1.615,0,0,0,1.03-.835ZM1.666-10.2v-.56H1.444v.741H3.037V-10.2ZM4.829-11.21a.835.835,0,0,1-.589-.741v-.1h.533v-.181H3.477v.181h.541v.1a.881.881,0,0,1-.611.795l.116.176a1.027,1.027,0,0,0,.608-.605,1,1,0,0,0,.587.549Zm-1.054.578h1.4v.665h.222v-.843H3.774Zm1.4-1.762v.633H4.7v.181h.473v.638h.222v-1.452Zm1.944,1.36A1.445,1.445,0,0,0,7.451-11a1.493,1.493,0,0,0,.341-.038v.57H7.116Zm.335-1.033c.389,0,.67.178.67.449s-.281.449-.67.449-.668-.178-.668-.449S7.061-12.067,7.451-12.067Zm.562,1.6v-.657a.55.55,0,0,0,.319-.5c0-.378-.365-.622-.881-.622s-.881.243-.881.622a.554.554,0,0,0,.324.5v.654H6.353v.184h2.2v-.184ZM10.065-11.7v.184h.484v.6h.224v-1.47h-.224v.689Zm.146.508a.773.773,0,0,1-.608-.681v-.046h.535V-12.1H9.6v-.3H9.381v.3H8.843v.178h.538v.046a.823.823,0,0,1-.6.743l.108.17a.966.966,0,0,0,.608-.565.983.983,0,0,0,.611.5ZM9.97-10.145c-.365,0-.584-.1-.584-.273s.219-.27.584-.27.589.1.589.27S10.34-10.145,9.97-10.145Zm0-.716c-.5,0-.806.162-.806.443s.308.446.806.446.811-.162.811-.446S10.473-10.862,9.97-10.862Z" transform="translate(114.221 823.781)"/>
    <path id="패스_8163" data-name="패스 8163" class="cls-6" d="M2.743-10.131H1.632v-.314H2.743Zm0-.487H1.632v-.305H1.413v.97H2.965v-.97H2.743Zm-1.114-.676a.382.382,0,0,1-.414-.378.38.38,0,0,1,.414-.376.38.38,0,0,1,.414.376A.382.382,0,0,1,1.629-11.293ZM2.74-12.342v.576H2.246a.577.577,0,0,0-.616-.465.57.57,0,0,0-.624.56.57.57,0,0,0,.624.562.578.578,0,0,0,.619-.476H2.74v.543h.224v-1.3Zm1.352.627h.449V-11.9H4.095v-.36H3.881v.36H3.432v.184h.449v.116a1.2,1.2,0,0,1-.514,1.016l.13.165a1.194,1.194,0,0,0,.492-.722,1.133,1.133,0,0,0,.5.67l.127-.168a1.1,1.1,0,0,1-.522-.962Zm.654.327h-.37v.184h.37v1.157h.211v-2.241H4.746Zm.487-.957v2.422h.214v-2.422Zm3.2.924c-.441-.065-.873-.365-.873-.7v-.135H7.325v.135c0,.346-.427.638-.868.7l.089.178a1.242,1.242,0,0,0,.895-.568,1.272,1.272,0,0,0,.9.568Zm.105.441H6.346v.184h.979v.879h.222V-10.8h.992Zm1.033.273H9.06v-.641h.508Zm0-.816H9.06v-.592H8.849v1.587h.927v-1.587H9.568Zm1.043-.822v.96h-.327v-.906h-.208v2.252h.208V-11.2h.327V-9.92h.211v-2.425Z" transform="translate(142.345 823.734)"/>
    <path id="패스_8164" data-name="패스 8164" class="cls-15" d="M3.784,0h17.66a3.784,3.784,0,1,1,0,7.569H3.784A3.784,3.784,0,1,1,3.784,0Z" transform="translate(79.375 808.684)"/>
    <path id="패스_8165" data-name="패스 8165" class="cls-16" d="M2.146-11.253A.823.823,0,0,1,1.559-12v-.268H1.338v.249a.887.887,0,0,1-.6.833l.116.176a1.013,1.013,0,0,0,.6-.614,1.018,1.018,0,0,0,.578.546Zm-.289,1.108c-.36,0-.578-.1-.578-.268s.219-.27.578-.27.576.1.576.27S2.214-10.145,1.857-10.145Zm0-.711c-.495,0-.8.159-.8.443s.305.441.8.441.8-.159.8-.441S2.349-10.856,1.857-10.856Zm.77-.911v-.624H2.406v1.468h.222v-.66h.36v-.184Zm1.941.346a5.126,5.126,0,0,1-1.07.081v-.714h.846v-.178H3.276v1.076h.189a5.219,5.219,0,0,0,1.127-.087Zm-.827.706H4.828v.533H3.741ZM3.525-10H5.046v-.887H3.525Zm1.881-1.8h-.36V-12.4H4.825v1.376h.222v-.6h.36Zm1.476.768A1.445,1.445,0,0,0,7.217-11a1.493,1.493,0,0,0,.341-.038v.57H6.882Zm.335-1.033c.389,0,.67.178.67.449s-.281.449-.67.449-.668-.178-.668-.449S6.828-12.067,7.217-12.067Zm.562,1.6v-.657a.55.55,0,0,0,.319-.5c0-.378-.365-.622-.881-.622s-.881.243-.881.622a.554.554,0,0,0,.324.5v.654H6.12v.184h2.2v-.184ZM9.831-11.7v.184h.484v.6h.224v-1.47h-.224v.689Zm.146.508a.773.773,0,0,1-.608-.681v-.046H9.9V-12.1H9.369v-.3H9.147v.3H8.609v.178h.538v.046a.823.823,0,0,1-.6.743l.108.17a.966.966,0,0,0,.608-.565.983.983,0,0,0,.611.5Zm-.241,1.052c-.365,0-.584-.1-.584-.273s.219-.27.584-.27.589.1.589.27S10.107-10.145,9.736-10.145Zm0-.716c-.5,0-.806.162-.806.443s.308.446.806.446.811-.162.811-.446S10.239-10.862,9.736-10.862Z" transform="translate(86.342 823.781)"/>
    <g id="그룹_5660" data-name="그룹 5660" transform="translate(80.102 926.348)">
      <g id="그룹_1896" data-name="그룹 1896" transform="translate(1.695 0.819)">
        <rect id="사각형_2418" data-name="사각형 2418" class="cls-17" width="3.1" height="2.864" transform="translate(0 0.181)"/>
        <rect id="사각형_2419" data-name="사각형 2419" class="cls-4" width="3.1" height="2.441" transform="translate(0 0.605)"/>
        <g id="그룹_1774" data-name="그룹 1774" transform="translate(0.333 1.001)">
          <g id="그룹_1772" data-name="그룹 1772">
            <rect id="사각형_2420" data-name="사각형 2420" class="cls-2" width="0.395" height="0.395" rx="0.198"/>
            <rect id="사각형_2421" data-name="사각형 2421" class="cls-2" width="0.395" height="0.395" rx="0.198" transform="translate(0.68)"/>
            <rect id="사각형_2422" data-name="사각형 2422" class="cls-2" width="0.395" height="0.395" rx="0.198" transform="translate(1.359)"/>
            <rect id="사각형_2423" data-name="사각형 2423" class="cls-2" width="0.395" height="0.395" rx="0.198" transform="translate(2.039)"/>
          </g>
          <g id="그룹_1773" data-name="그룹 1773" transform="translate(0 0.627)">
            <rect id="사각형_2424" data-name="사각형 2424" class="cls-2" width="0.395" height="0.395" rx="0.198"/>
            <rect id="사각형_2425" data-name="사각형 2425" class="cls-2" width="0.395" height="0.395" rx="0.198" transform="translate(0.68)"/>
            <rect id="사각형_2426" data-name="사각형 2426" class="cls-2" width="0.395" height="0.395" rx="0.198" transform="translate(1.359)"/>
            <rect id="사각형_2427" data-name="사각형 2427" class="cls-2" width="0.395" height="0.395" rx="0.198" transform="translate(2.039)"/>
          </g>
          <rect id="사각형_2428" data-name="사각형 2428" class="cls-2" width="0.395" height="0.395" rx="0.198" transform="translate(0 1.253)"/>
          <rect id="사각형_2429" data-name="사각형 2429" class="cls-2" width="0.395" height="0.395" rx="0.198" transform="translate(0.68 1.253)"/>
          <rect id="사각형_2430" data-name="사각형 2430" class="cls-2" width="0.395" height="0.395" rx="0.198" transform="translate(1.359 1.253)"/>
          <rect id="사각형_3068" data-name="사각형 3068" class="cls-2" width="0.395" height="0.395" rx="0.198" transform="translate(2.039 1.253)"/>
        </g>
        <rect id="사각형_2431" data-name="사각형 2431" class="cls-4" width="0.196" height="0.445" rx="0.098" transform="translate(0.432 0)"/>
        <rect id="사각형_2432" data-name="사각형 2432" class="cls-4" width="0.196" height="0.445" rx="0.098" transform="translate(1.112 0)"/>
        <rect id="사각형_2433" data-name="사각형 2433" class="cls-4" width="0.196" height="0.445" rx="0.098" transform="translate(1.792 0)"/>
        <rect id="사각형_2434" data-name="사각형 2434" class="cls-4" width="0.196" height="0.445" rx="0.098" transform="translate(2.471 0)"/>
      </g>
      <rect id="사각형_3084" data-name="사각형 3084" class="cls-7" width="6.386" height="4.644"/>
    </g>
  </g>
</svg>
