<svg xmlns="http://www.w3.org/2000/svg" width="1201" height="108.001" viewBox="0 0 1201 108.001">
  <defs>
    <style>
      .cls-1 {
        fill: #f6f6f6;
      }

      .cls-2 {
        fill: none;
      }
    </style>
  </defs>
  <g id="그룹_5049" data-name="그룹 5049" transform="translate(-359 -3302)">
    <g id="그룹_5048" data-name="그룹 5048">
      <path id="빼기_5" data-name="빼기 5" class="cls-1" d="M23156.592-612.557h-22.371V-684h38.318c8.441,0,16.2,2.753,21.852,7.753a26.373,26.373,0,0,1,6.625,8.95,28.17,28.17,0,0,1,2.43,11.674,25.373,25.373,0,0,1-2.111,10.7,25.017,25.017,0,0,1-6.418,8.752,25.512,25.512,0,0,1,8.959,9.587,26,26,0,0,1,3.07,12.844c0,.4-.008.8-.02,1.183h-22.65a9.1,9.1,0,0,0,.287-2.883l-.006.006a9.053,9.053,0,0,0-2.525-6.843,8.827,8.827,0,0,0-6.3-2.677c-.133,0-.266,0-.4.009h-18.74v12.388Zm15.947-32.547c.09,0,.182,0,.273,0a8.27,8.27,0,0,0,5.9-2.5,8.5,8.5,0,0,0,2.361-6.3,8.4,8.4,0,0,0-2.338-6.328,8.069,8.069,0,0,0-5.842-2.484c-.121,0-.236,0-.355.008l-15.941.006v17.6Z" transform="translate(-22506 4022.558)"/>
      <path id="빼기_13" data-name="빼기 13" class="cls-1" d="M23716.148-613.282h-22.971a13.093,13.093,0,0,0,1.322-5.682V-684h21.828v67.358a33.365,33.365,0,0,1-.178,3.361Zm-51.3,0h-24.375a32.63,32.63,0,0,1-.178-3.362V-684h23.23v65.043a13.144,13.144,0,0,0,1.32,5.675Z" transform="translate(-22506 4023.282)"/>
      <path id="빼기_6" data-name="빼기 6" class="cls-1" d="M23244.891-635.839h-26.6a50.265,50.265,0,0,1-4.715-21.378,50.406,50.406,0,0,1,7.674-26.785l16.689,15.032a28.453,28.453,0,0,0-2.518,11.754,28.924,28.924,0,0,0,9.471,21.376Z" transform="translate(-22506 4045.838)"/>
      <path id="빼기_7" data-name="빼기 7" class="cls-1" d="M23309.533-610.453h-9.391l-10.371-9.337a28.846,28.846,0,0,0,3.373-13.518,28.9,28.9,0,0,0-28.867-28.867,28.685,28.685,0,0,0-16.119,4.935l-16.486-14.87A50.551,50.551,0,0,1,23264.227-684h.051a50.369,50.369,0,0,1,19.73,3.984,50.519,50.519,0,0,1,16.113,10.865,50.529,50.529,0,0,1,10.865,16.114,50.386,50.386,0,0,1,3.984,19.731,50.5,50.5,0,0,1-1.375,11.769,50.594,50.594,0,0,1-4.062,11.086Z" transform="translate(-22506 4020.453)"/>
      <path id="빼기_8" data-name="빼기 8" class="cls-1" d="M23328.346-612.558V-684h22.377v71.444h-22.377Z" transform="translate(-22506 4022.558)"/>
      <path id="빼기_9" data-name="빼기 9" class="cls-1" d="M23403.863-612.558v-49.581h-25.176V-684h72.723l.006,21.863h-25.176v49.581h-22.377Z" transform="translate(-22506 4022.559)"/>
      <path id="빼기_10" data-name="빼기 10" class="cls-1" d="M23472.893-610.571h-22.863v-.1a34.051,34.051,0,0,1,4.191-16.308,33.477,33.477,0,0,1,11.469-12.194,30.5,30.5,0,0,1-4.057-15.737,29.563,29.563,0,0,1,2.283-11.6,26.9,26.9,0,0,1,6.424-9.21,29.289,29.289,0,0,1,9.939-6.072,36.8,36.8,0,0,1,12.822-2.19c.365-.012.734-.018,1.1-.018a32.791,32.791,0,0,1,18.844,5.939,33.479,33.479,0,0,1,12.221,15.763l-19.16,11.2c-2.73-7.253-6.893-10.779-12.723-10.779a8.384,8.384,0,0,0-.887-.047,8.423,8.423,0,0,0-5.6,2.141,8.693,8.693,0,0,0-2.883,6.245c0,5.472,3.324,9.182,7.533,13.88l0,.006.139.153,18.039,20.283a75.9,75.9,0,0,0,4.617-15.6l18.74,10.779a73.53,73.53,0,0,1-4.887,13.464h-37.893l-11.615-12.7-.838-.849a13.983,13.983,0,0,0-5.174,11.066,14.166,14.166,0,0,0,.211,2.482Z" transform="translate(-22506 4020.572)"/>
      <path id="빼기_11" data-name="빼기 11" class="cls-1" d="M23624.564-612.557h-36.332L23570-638.584v26.026h-22.377V-684h16.779l37.756,53.942V-684h22.406v71.444Z" transform="translate(-22506 4022.558)"/>
      <path id="빼기_14" data-name="빼기 14" class="cls-1" d="M23750.445-612.558v-49.581h-25.17V-684H23798v21.863h-25.178v49.581h-22.377Z" transform="translate(-22506 4022.559)"/>
      <path id="빼기_12" data-name="빼기 12" class="cls-1" d="M23664.842-613.282h-24.373a32.634,32.634,0,0,1-.178-3.362V-684h23.23v65.043a13.134,13.134,0,0,0,1.318,5.675Z" transform="translate(-22506 4023.282)"/>
    </g>
    <rect id="사각형_6239" data-name="사각형 6239" class="cls-2" width="1201" height="108" transform="translate(359 3302)"/>
  </g>
</svg>
