<svg width="268" height="309" viewBox="0 0 268 309" fill="none" xmlns="http://www.w3.org/2000/svg">
<path d="M161.819 39.406C161.153 38.7284 160.266 38.312 159.319 38.2321C158.588 35.9321 155.283 34.203 151.319 34.203C147.368 34.203 144.074 35.919 143.319 38.198H143.269C140.569 43.207 143.269 69.074 143.269 69.074C144.927 74.038 154.552 76.894 154.552 76.894C159.51 78.548 168.989 68.624 168.989 68.624C170.789 66.067 171.089 55.391 171.089 55.391C172.346 42.313 161.819 39.403 161.819 39.406Z" fill="#F29785"/>
<path d="M138.839 93.798L124.826 131.57L93.1382 137.242V145.092L148.505 145.233L138.839 93.798Z" fill="#B8BCC1"/>
<path d="M232.97 68.693H183.339C180.796 68.6941 178.356 69.7054 176.559 71.5046C174.761 73.3038 173.751 75.7435 173.752 78.287C173.752 78.576 173.766 78.868 173.793 79.157L180.864 156.257C181.125 159.091 181.032 161.946 180.587 164.757L174.587 202.776C174.371 204.145 174.453 205.544 174.83 206.877C175.206 208.211 175.867 209.447 176.767 210.501C177.667 211.554 178.785 212.4 180.044 212.98C181.302 213.559 182.671 213.859 184.057 213.859H243.422C245.712 213.859 247.926 213.04 249.664 211.549C251.401 210.058 252.548 207.994 252.896 205.731L259.604 162.231C259.777 161.098 259.745 159.943 259.511 158.821L242.357 76.316C241.906 74.1604 240.727 72.2257 239.017 70.8374C237.308 69.4491 235.172 68.6919 232.97 68.693V68.693Z" fill="#3959B5"/>
<path d="M196.212 248.051H190.698V277.427H196.212V248.051Z" fill="#AEB4AA"/>
<path d="M199.471 277.428H187.441V284.546H199.471V277.428Z" fill="#00203A"/>
<path d="M215.711 208.054H169.699C168.209 208.054 166.781 208.646 165.727 209.699C164.674 210.752 164.081 212.181 164.081 213.671V223.69C164.081 225.18 164.673 226.609 165.727 227.662C166.78 228.716 168.209 229.308 169.699 229.308H181.825V246.731C181.826 247.082 181.965 247.418 182.214 247.666C182.462 247.914 182.798 248.054 183.149 248.054H186.841V257.354C186.841 257.705 186.981 258.042 187.229 258.291C187.478 258.539 187.815 258.679 188.166 258.679H198.751C199.102 258.678 199.439 258.539 199.687 258.29C199.935 258.042 200.074 257.705 200.074 257.354V248.054H203.761C204.112 248.054 204.449 247.915 204.697 247.667C204.945 247.418 205.085 247.082 205.085 246.731V229.307H215.711C216.449 229.307 217.179 229.161 217.861 228.879C218.542 228.597 219.161 228.183 219.683 227.661C220.204 227.139 220.618 226.52 220.9 225.839C221.182 225.157 221.327 224.427 221.327 223.689V213.671C221.327 212.181 220.736 210.753 219.682 209.699C218.629 208.646 217.201 208.054 215.711 208.054Z" fill="#3959B5"/>
<path d="M145.934 302.645C148.966 302.645 151.423 300.187 151.423 297.156C151.423 294.125 148.966 291.667 145.934 291.667C142.903 291.667 140.445 294.125 140.445 297.156C140.445 300.187 142.903 302.645 145.934 302.645Z" fill="#00203A"/>
<path d="M193.453 302.645C196.484 302.645 198.942 300.187 198.942 297.156C198.942 294.125 196.484 291.667 193.453 291.667C190.421 291.667 187.964 294.125 187.964 297.156C187.964 300.187 190.421 302.645 193.453 302.645Z" fill="#00203A"/>
<path d="M240.976 302.645C244.008 302.645 246.465 300.187 246.465 297.156C246.465 294.125 244.008 291.667 240.976 291.667C237.945 291.667 235.487 294.125 235.487 297.156C235.487 300.187 237.945 302.645 240.976 302.645Z" fill="#00203A"/>
<path d="M240.968 284.548H145.935C140.72 284.548 140.972 291.662 140.972 291.662H245.952C245.952 291.662 246.192 284.548 240.968 284.548Z" fill="#00203A"/>
<path d="M223.344 68.693H173.712C171.169 68.6946 168.73 69.7061 166.933 71.5052C165.135 73.3044 164.125 75.7437 164.126 78.287C164.126 78.576 164.141 78.868 164.166 79.157L171.238 156.257C171.5 159.091 171.407 161.946 170.962 164.757L164.962 202.776C164.746 204.144 164.83 205.544 165.206 206.877C165.583 208.21 166.244 209.446 167.144 210.499C168.044 211.552 169.162 212.398 170.42 212.978C171.678 213.558 173.047 213.859 174.432 213.859H233.795C236.084 213.859 238.298 213.039 240.035 211.548C241.772 210.057 242.918 207.994 243.266 205.731L249.975 162.231C250.149 161.098 250.118 159.943 249.884 158.821L232.731 76.316C232.28 74.1606 231.1 72.2261 229.391 70.8379C227.681 69.4497 225.546 68.6922 223.344 68.693V68.693Z" fill="#426EDC"/>
<path d="M223.953 197.426H130.073C126.651 197.426 123.877 200.2 123.877 203.622V212.484C123.877 215.906 126.651 218.68 130.073 218.68H223.953C227.375 218.68 230.149 215.906 230.149 212.484V203.622C230.149 200.2 227.375 197.426 223.953 197.426Z" fill="#426EDC"/>
<path d="M172.096 73.688L176.228 80.03L159.577 93.436C159.577 93.436 154.572 80.9359 154.302 73.1219C154.302 73.1219 166.162 69.2469 166.658 67.1639L167.078 67.571C168.979 69.4115 170.663 71.4638 172.096 73.688V73.688Z" fill="#F29785"/>
<path d="M182.688 131.38C186.893 130.922 191.127 130.788 195.353 130.98C193.379 126.143 191.82 121.146 190.692 116.045L192.83 131.435L145.238 134.569C145.238 134.569 138.168 103.379 138.854 93.8049C138.884 93.4852 138.99 93.1772 139.16 92.9053C139.331 92.6333 139.563 92.4052 139.838 92.239L155.887 82.005L160.932 89.928L177.678 79.484C177.678 79.484 197.215 80.048 206.285 81.626C207.364 81.8069 208.371 82.2851 209.192 83.0067C210.014 83.7283 210.618 84.6648 210.937 85.7109C214.367 96.9189 225.648 134.426 223.088 134.426C223.088 134.426 217.549 146.873 191.835 145.366L182.196 145.085" fill="#C1C8D2"/>
<path d="M157.252 50.936C157.833 50.936 158.304 50.1507 158.304 49.182C158.304 48.2133 157.833 47.428 157.252 47.428C156.671 47.428 156.2 48.2133 156.2 49.182C156.2 50.1507 156.671 50.936 157.252 50.936Z" fill="#142D3E"/>
<path d="M147.63 50.936C148.211 50.936 148.682 50.1507 148.682 49.182C148.682 48.2133 148.211 47.428 147.63 47.428C147.049 47.428 146.578 48.2133 146.578 49.182C146.578 50.1507 147.049 50.936 147.63 50.936Z" fill="#142D3E"/>
<path d="M150.8 55.4561C149.907 56.5739 148.898 57.5949 147.792 58.5021C147.792 58.5021 147.601 59.1881 149.069 59.8561C148.73 59.8561 150.61 60.3461 151.169 59.2161L150.8 55.4561Z" fill="#D88779"/>
<path d="M178.768 88.7631L175.637 123.14L166.184 153.956L157.173 155.963L155.801 83.84L165.26 85.277L167.9 84.501L178.912 78.85" fill="#FFF6FB"/>
<path d="M155.887 82.006C155.887 82.006 146.538 88.886 144.734 96.606L152.555 103.024C152.555 103.024 144.734 107.534 144.734 108.836C144.734 108.836 143.334 149.042 157.167 155.951L155.887 82.006Z" fill="#9DA3AA"/>
<path d="M177.32 79.5141C177.288 79.4391 177.976 79.014 178.033 78.985C178.513 78.669 179.083 78.5187 179.657 78.557C179.956 78.5945 180.241 78.7078 180.484 78.886C180.806 79.1362 181.107 79.4122 181.384 79.7111C181.69 80.0171 182.019 80.29 182.35 80.567C183.087 81.1884 183.82 81.816 184.55 82.45C185.453 83.238 186.345 84.04 187.225 84.856C188.125 85.687 189 86.5371 189.847 87.4151C190.576 88.1523 191.258 88.9349 191.889 89.7581C192.335 90.2605 192.654 90.8622 192.82 91.5131C192.838 91.6227 192.834 91.7348 192.809 91.843C192.809 91.843 185.291 101.4 181.683 102.074H188.751C188.751 102.074 181.028 153.902 166.194 158.014C166.194 158.014 179.088 106.045 178.486 85.9351C178.551 83.7367 178.154 81.5491 177.32 79.5141V79.5141Z" fill="#9DA3AA"/>
<path d="M172.061 109.038C172.112 109.922 172.078 110.809 171.961 111.686C171.642 114.071 171.318 116.455 170.991 118.836C170.076 125.531 169.118 132.22 168.115 138.903C167.547 142.656 166.971 146.403 166.27 150.132C166.17 150.691 165.77 154.771 165.033 154.932L160.688 155.893C160.293 146.038 159.929 136.182 159.598 126.324C159.45 121.842 158.821 117.371 158.97 112.883C159.134 110.055 159.762 107.273 160.828 104.649L163.618 96.7999C163.773 96.3679 164.675 92.706 165.11 92.6L167.89 91.9139L169.962 99.955C170.964 102.905 171.667 105.948 172.061 109.038V109.038Z" fill="#426EDC"/>
<path d="M182.692 145.134L148.505 145.234C148.505 145.234 137.577 147.243 133.618 145.234C133.618 145.234 132.218 136.809 132.703 135.981C132.703 135.981 160.046 133.173 182.683 131.576" fill="#C1C8D2"/>
<path d="M188.862 277.937C188.567 277.951 188.006 279.513 187.884 279.767C186.042 283.337 183.376 286.417 180.107 288.751C178.194 290.186 176.148 291.432 173.995 292.472C172.715 293.099 171.401 293.657 170.066 294.156C169.38 294.414 168.674 294.656 167.966 294.882C167.442 295.156 167.004 295.57 166.701 296.078C166.399 296.587 166.244 297.169 166.253 297.76C166.263 298.352 166.437 298.929 166.755 299.427C167.074 299.925 167.525 300.325 168.058 300.582C174.041 299.927 180.025 299.327 186.01 298.782C187.361 298.707 188.675 298.315 189.847 297.638C190.47 297.227 191.933 295.601 192.106 297.53L192.606 298.89L200.915 298.29C200.915 298.29 203.14 279.66 201.521 277.367L188.862 277.937Z" fill="#555963"/>
<path d="M141.417 281.851C141.225 282.229 141.056 282.617 140.911 283.015C140.38 284.056 139.753 285.046 139.037 285.97C136.403 289.279 133.024 291.917 129.176 293.67C128.176 294.146 127.159 294.571 126.124 294.946C124.979 295.367 123.837 295.296 123.455 296.732C123.078 298.121 123.28 299.503 124.702 300.038L136.268 298.768C137.844 298.683 139.398 298.362 140.879 297.816C141.602 297.46 142.291 297.037 142.936 296.554C143.436 296.216 143.96 296.36 144.023 297.107L144.435 298.692L151.113 298.212C151.113 298.212 152.9 283.238 151.602 281.394L141.417 281.851Z" fill="#555963"/>
<path d="M198.811 159.07L200.011 163.82H147.075V159.07H198.811Z" fill="#C1C8D2"/>
<path d="M163.822 159.07H157.166L160.494 162.004L163.822 159.07Z" fill="#FFF6FB"/>
<path d="M198.058 163.825C199.011 168.147 199.65 172.532 199.97 176.946C200.286 180.184 200.219 183.449 199.77 186.671C199.171 189.586 197.723 192.259 195.608 194.353C194.87 195.203 194.03 195.958 193.108 196.603C189.252 199.303 184.538 198.946 180.072 198.975L171.477 199.032L202.49 276.432C202.608 276.728 202.604 277.059 202.478 277.352C202.352 277.646 202.116 277.877 201.82 277.996C201.689 278.048 201.55 278.077 201.409 278.081L189.671 278.701C187.167 278.437 184.773 277.537 182.716 276.086C182.435 275.629 182.158 275.172 181.877 274.698L178.902 269.798L174.502 262.546L169.013 253.505L162.794 243.251L156.188 232.366L149.554 221.418L143.22 210.979L137.542 201.629L132.875 193.935L129.55 188.468L127.95 185.815C127.91 185.764 127.877 185.709 127.85 185.65L154.61 278.71C154.813 279.387 154.739 280.117 154.404 280.739C154.069 281.361 153.501 281.825 152.825 282.029C152.576 282.103 152.317 282.141 152.058 282.141H137.516C136.798 282.14 136.098 281.918 135.511 281.505C134.924 281.091 134.478 280.507 134.236 279.831L95.0729 170.574C94.7996 169.811 94.7138 168.994 94.8226 168.191C94.9314 167.389 95.2317 166.624 95.6981 165.961C96.1645 165.299 96.7832 164.759 97.5023 164.385C98.2214 164.012 99.0196 163.818 99.8297 163.818L198.058 163.825Z" fill="#B4BAC1"/>
<path d="M160.501 199.023L169.101 198.97C173.571 198.942 178.284 199.295 182.137 196.599C183.06 195.955 183.899 195.199 184.637 194.349C186.752 192.254 188.2 189.581 188.8 186.665C189.249 183.443 189.316 180.179 189 176.941C188.682 172.527 188.043 168.142 187.088 163.82H198.046C199.001 168.142 199.64 172.527 199.958 176.941C200.277 180.179 200.21 183.443 199.758 186.665C199.159 189.581 197.71 192.254 195.595 194.349C194.858 195.2 194.018 195.956 193.095 196.599C189.245 199.299 184.531 198.942 180.06 198.97L171.469 199.023L202.479 276.429C202.551 276.609 202.579 276.804 202.56 276.997C202.54 277.19 202.475 277.376 202.368 277.538C202.262 277.701 202.118 277.835 201.949 277.93C201.78 278.025 201.59 278.077 201.396 278.083L198.588 278.268C198.1 278.281 160.501 199.023 160.501 199.023Z" fill="#99A2AA"/>
<path d="M142.958 209.268L153.996 276.683L127.832 185.666L142.958 209.268Z" fill="#99A2AA"/>
<path d="M264.445 145.094H2.79C1.24913 145.094 0 146.343 0 147.884V156.283C0 157.824 1.24913 159.073 2.79 159.073H264.445C265.986 159.073 267.235 157.824 267.235 156.283V147.884C267.235 146.343 265.986 145.094 264.445 145.094Z" fill="#798591"/>
<path d="M243.655 145.094H209.714C206.684 145.094 204.227 147.551 204.227 150.581V303.513C204.227 306.543 206.684 309 209.714 309H243.655C246.685 309 249.142 306.543 249.142 303.513V150.581C249.142 147.551 246.685 145.094 243.655 145.094Z" fill="#798591"/>
<path d="M72.8172 145.094H38.8762C35.8458 145.094 33.3892 147.551 33.3892 150.581V303.513C33.3892 306.543 35.8458 309 38.8762 309H72.8172C75.8475 309 78.3042 306.543 78.3042 303.513V150.581C78.3042 147.551 75.8475 145.094 72.8172 145.094Z" fill="#798591"/>
<path d="M249.142 159.073H204.227V168.574H249.142V159.073Z" fill="#5C666D"/>
<path d="M78.3042 159.073H33.3892V168.574H78.3042V159.073Z" fill="#5C666D"/>
<path d="M112.951 139.375H123.318C123.516 139.375 123.713 139.414 123.897 139.49C124.08 139.566 124.247 139.677 124.387 139.818C124.528 139.958 124.639 140.125 124.715 140.308C124.791 140.492 124.83 140.688 124.83 140.887V145.093H111.439V140.887C111.439 140.688 111.478 140.492 111.554 140.308C111.63 140.125 111.741 139.958 111.882 139.818C112.022 139.677 112.189 139.566 112.372 139.49C112.556 139.414 112.752 139.375 112.951 139.375V139.375Z" fill="#E5DED4"/>
<path d="M132.621 137.401C132.621 137.401 120.955 135.038 117.249 136.193C117.249 136.193 114.192 136.842 114.049 138.647C117.634 140.827 121.69 142.116 125.876 142.407C125.876 142.407 131.407 142.407 132.905 140.274L132.621 137.401Z" fill="#F29785"/>
<path d="M93.156 139.964C93.156 139.964 81.4919 137.601 77.7839 138.756C77.7839 138.756 74.729 139.405 74.584 141.211C78.1692 143.391 82.2245 144.68 86.4102 144.97C86.4102 144.97 91.941 144.97 93.439 142.837L93.156 139.964Z" fill="#F29785"/>
<path d="M114.939 137.132L112.201 141.514C112.026 141.794 112.111 142.163 112.391 142.338L113.12 142.794C113.4 142.969 113.769 142.884 113.944 142.604L116.683 138.222C116.858 137.942 116.773 137.573 116.493 137.398L115.764 136.942C115.483 136.767 115.115 136.852 114.939 137.132Z" fill="#F29785"/>
<path d="M117.658 139.11L115.628 141.53C115.415 141.783 115.448 142.16 115.701 142.372L116.36 142.925C116.613 143.138 116.99 143.105 117.203 142.852L119.233 140.432C119.445 140.179 119.412 139.801 119.159 139.589L118.501 139.036C118.248 138.824 117.87 138.857 117.658 139.11Z" fill="#F29785"/>
<path d="M117.047 138L113.658 141.901C113.442 142.15 113.468 142.528 113.718 142.744L114.367 143.308C114.616 143.525 114.994 143.499 115.211 143.249L118.6 139.349C118.816 139.1 118.79 138.722 118.54 138.505L117.891 137.941C117.642 137.724 117.264 137.751 117.047 138Z" fill="#F29785"/>
<path d="M123.865 0H48.4751C46.3495 0.00686088 44.313 0.854611 42.8103 2.35803C41.3076 3.86145 40.4609 5.89843 40.4551 8.02405V22.057C40.4622 24.1818 41.3095 26.2174 42.812 27.7197C44.3145 29.2221 46.3503 30.0692 48.4751 30.076H123.865C124.272 30.0672 124.678 30.0266 125.079 29.955L131.885 37.9969V8.02405C131.88 5.89835 131.033 3.86114 129.53 2.35767C128.028 0.854188 125.991 0.00659847 123.865 0V0Z" fill="#EEEEEE"/>
<path d="M50.4341 7.11499H121.265" stroke="#A4AAB4" stroke-width="0.4" stroke-miterlimit="10" stroke-linecap="round"/>
<path d="M50.4341 14.04H121.265" stroke="#A4AAB4" stroke-width="0.4" stroke-miterlimit="10" stroke-linecap="round"/>
<path d="M50.4341 20.954H121.265" stroke="#A4AAB4" stroke-width="0.4" stroke-miterlimit="10" stroke-linecap="round"/>
<path d="M146.842 61.401C147.17 62.452 147.825 63.3707 148.711 64.0231C149.598 64.6754 150.67 65.0272 151.771 65.0272C152.872 65.0272 153.944 64.6754 154.831 64.0231C155.717 63.3707 156.372 62.452 156.7 61.401H146.842Z" fill="#FFF0E1"/>
<path d="M166.275 93.117C168.027 93.117 169.448 91.2904 169.448 89.037C169.448 86.7837 168.027 84.957 166.275 84.957C164.523 84.957 163.102 86.7837 163.102 89.037C163.102 91.2904 164.523 93.117 166.275 93.117Z" fill="#426EDC"/>
<path d="M162.196 26.0451C159.296 23.8691 155.409 24.6531 152.157 25.4161C151.772 25.5071 151.388 25.599 150.998 25.667C150.091 25.8148 149.202 26.0544 148.344 26.3821C146.816 26.9846 145.385 27.8087 144.097 28.828C143.763 29.0854 143.449 29.3671 143.157 29.6711C143.157 29.6711 134.998 38.363 142.251 44.443C142.984 42.6832 144.006 41.0584 145.276 39.636C145.675 39.1851 146.11 38.767 146.576 38.386C146.943 38.0403 147.373 37.7687 147.843 37.5861C148.386 37.4636 148.947 37.4486 149.496 37.542C150.335 37.6043 151.176 37.624 152.017 37.6011H154.894C155.725 37.6416 156.538 37.8577 157.279 38.2354C158.02 38.6131 158.673 39.1436 159.194 39.792C159.631 40.2982 159.976 40.877 160.214 41.5021C160.392 42.0705 160.506 42.6566 160.556 43.25C160.639 43.8412 160.805 44.4178 161.048 44.9631C161.468 46.0011 162.13 46.9244 162.977 47.657C163.537 48.1135 164.207 48.4134 164.921 48.526C165.48 48.5717 166.022 48.7386 166.51 49.0151C167.012 49.3318 167.468 49.7146 167.868 50.1531C168.697 51.0468 169.157 52.2217 169.155 53.4411V57.885C169.155 57.747 170.022 57.1301 170.131 57.0241C170.899 56.2684 171.579 55.4277 172.157 54.5181C172.709 53.6539 173.152 52.7253 173.478 51.7531C173.839 50.6531 173.778 49.5081 174.054 48.4041C174.031 48.4951 174.416 48.241 174.446 48.204C174.55 48.0509 174.643 47.8914 174.726 47.7261C174.912 47.4331 175.088 47.1331 175.257 46.8261C175.568 46.2645 175.843 45.6837 176.08 45.0871C176.499 44.0457 176.764 42.9489 176.868 41.8311C177.021 39.8835 176.612 37.9329 175.689 36.2111C174.768 34.5372 173.554 33.043 172.103 31.8001C170.725 30.5948 169.229 29.5299 167.64 28.6211C166.407 27.9044 165.134 27.2605 163.826 26.693C163.292 26.467 162.747 26.2421 162.196 26.0451Z" fill="#142D3E"/>
<path d="M119.005 72.4771H46.5232C44.8608 72.4771 43.5132 73.8247 43.5132 75.4871V122.202C43.5132 123.864 44.8608 125.212 46.5232 125.212H119.005C120.668 125.212 122.015 123.864 122.015 122.202V75.4871C122.015 73.8247 120.668 72.4771 119.005 72.4771Z" fill="#989FA5"/>
<path d="M114.96 72.4771H42.4778C40.8154 72.4771 39.4678 73.8247 39.4678 75.4871V122.202C39.4678 123.864 40.8154 125.212 42.4778 125.212H114.96C116.622 125.212 117.97 123.864 117.97 122.202V75.4871C117.97 73.8247 116.622 72.4771 114.96 72.4771Z" fill="#C1C8D2"/>
<path d="M102.866 141.953H76.0972V145.091H102.866V141.953Z" fill="#989FA5"/>
<path d="M85.7739 125.216L80.76 145.097H77.167L82.7668 125.216H85.7739Z" fill="#989FA5"/>
<path d="M82.7639 125.216L77.752 145.097H62.9619L68.562 125.216H82.7639Z" fill="#C1C8D2"/>
<path d="M173.283 90.3161C172.966 90.2974 172.654 90.2282 172.358 90.111C170.932 89.5497 169.559 88.8595 168.258 88.049C167.604 87.7648 167.013 87.3532 166.52 86.8382C166.026 86.3231 165.641 85.7148 165.385 85.049C165.359 84.9301 165.367 84.8065 165.407 84.6915C165.446 84.5766 165.517 84.4748 165.61 84.397C168.641 81.589 173.522 81.939 176.874 79.575C176.947 79.5311 177.028 79.5026 177.113 79.4914C177.197 79.4801 177.283 79.4862 177.365 79.5093C177.447 79.5324 177.523 79.5721 177.589 79.6259C177.655 79.6796 177.71 79.7465 177.749 79.822C177.794 79.9014 177.824 79.9886 177.836 80.079C178.136 82.352 177.136 83.306 176.358 85.74C176.153 86.4267 175.913 87.1026 175.639 87.765C175.639 87.765 174.79 89.972 173.763 90.256C173.607 90.297 173.445 90.3172 173.283 90.3161Z" fill="#EFE6EB"/>
<path d="M161.336 91.558C160.711 91.4552 160.134 91.1561 159.69 90.704C159.185 90.2202 158.715 89.7013 158.283 89.151C157.972 88.763 157.427 88.1001 157.162 87.6791C157.046 87.4941 156.933 87.305 156.827 87.114C156.766 87.007 156.707 86.899 156.649 86.791C156.616 86.731 156.585 86.6701 156.549 86.6111C156.527 86.5681 156.455 86.477 156.455 86.431C156.116 85.3372 155.93 84.2018 155.903 83.057C156.974 83.37 157.838 83.6841 158.915 83.9231C159.897 84.1351 160.89 84.2962 161.889 84.406C162.84 84.518 163.811 84.5481 164.755 84.7061C164.939 84.7167 165.121 84.7537 165.295 84.816C165.57 84.966 165.412 85.4241 165.372 85.6421C165.309 85.9911 165.226 86.336 165.123 86.675C164.919 87.3539 164.639 88.0074 164.288 88.623C164.188 88.8 164.052 88.969 163.963 89.15C163.675 89.7295 163.322 90.2749 162.913 90.776C162.581 91.196 162.102 91.4745 161.573 91.5551C161.494 91.5636 161.415 91.5646 161.336 91.558Z" fill="#EFE6EB"/>
</svg>
