<svg xmlns="http://www.w3.org/2000/svg" width="105" height="22" viewBox="0 0 105 22">
    <defs>
        <style>
            .cls-2{fill:#0933b3}
        </style>
    </defs>
    <g id="그룹_4870" transform="translate(-846 -197.116)">
        <path id="사각형_4370" fill="none" d="M0 0h96.152v18.356H0z" opacity="0.311" transform="translate(846 197.479)"/>
        <g id="그룹_70673" transform="translate(846 200.1)">
            <g id="그룹_6" transform="translate(0 0.019)">
                <path id="패스_1" d="M-490.941 291.041c0 2.781-2.232 4.6-4.994 4.6h-6.5v-15.7h6.056c2.7 0 4.884 1.772 4.884 4.484a3.956 3.956 0 0 1-1.348 3.073 4.069 4.069 0 0 1 1.9 3.545zm-7.959-7.741v2.781h2.519a1.3 1.3 0 0 0 .975-.4 1.335 1.335 0 0 0 .373-1 1.323 1.323 0 0 0-.369-1 1.283 1.283 0 0 0-.979-.391zm4.418 7.469a1.43 1.43 0 0 0-.4-1.081 1.386 1.386 0 0 0-1.059-.422h-2.959v3.005h2.961a1.386 1.386 0 0 0 1.06-.422 1.43 1.43 0 0 0 .4-1.082z" class="cls-2" transform="translate(502.433 -279.624)"/>
                <path id="패스_2" d="M-355.626 292.184v3.454h-9.061v-15.7h3.536v12.247z" class="cls-2" transform="translate(395.363 -279.624)"/>
                <path id="패스_3" d="M-317.468 283.393h-3.978v12.246h-3.536v-12.246h-3.978v-3.455h11.492z" class="cls-2" transform="translate(367.593 -279.624)"/>
                <path id="패스_4" d="M-267.452 295.133l-1.371-1.5a6.8 6.8 0 0 1-4 1.23c-3.182 0-5.525-1.77-5.525-4.729a5.329 5.329 0 0 1 2.475-4.5 4.815 4.815 0 0 1-.641-2.487c0-2.644 2.011-4.594 4.973-4.594a5.254 5.254 0 0 1 5.083 3.426l-3.028 1.77c-.4-1.054-1.016-1.7-2.011-1.7a1.33 1.33 0 0 0-1.024.331 1.369 1.369 0 0 0-.456.987 3.372 3.372 0 0 0 1.213 2.218l2.851 3.205a11.988 11.988 0 0 0 .73-2.465l2.961 1.7a11.585 11.585 0 0 1-1.415 3.295l1.945 2.2zm-3.536-3.9l-2.829-3.093-.133-.134a2.223 2.223 0 0 0-.818 1.748c0 1.054.663 1.838 2.232 1.838a3.216 3.216 0 0 0 1.548-.359z" class="cls-2" transform="translate(328.252 -278.544)"/>
                <path id="패스_5" d="M-196.923 279.938v15.7h-2.652l-5.971-8.525v8.523h-3.536v-15.7h2.652l5.966 8.524v-8.524z" class="cls-2" transform="translate(274.409 -279.624)"/>
                <path id="패스_6" d="M-71.548 283.393h-3.978v12.246h-3.536v-12.246h-3.978v-3.455h11.492z" class="cls-2" transform="translate(176.441 -279.624)"/>
                <g id="그룹_1" transform="translate(79.971 0.428)">
                    <path id="패스_7" d="M-138.448 292.6a2.038 2.038 0 0 1-1.224-1.869v-10.278h-3.672V291.1a5.144 5.144 0 0 0 4.895 5.157z" class="cls-2" transform="translate(143.344 -280.453)"/>
                    <path id="패스_8" d="M-109.923 280.453v10.277a2.032 2.032 0 0 1-1.446 1.948v3.577a5.143 5.143 0 0 0 4.895-5.157v-10.645z" class="cls-2" transform="translate(118.489 -280.453)"/>
                </g>
            </g>
            <g id="그룹_7" transform="translate(12.539 0)">
                <path id="패스_9" d="M-435.818 303.6a4.536 4.536 0 0 1-2.281.615 4.561 4.561 0 0 1-4.561-4.561 4.537 4.537 0 0 1 .4-1.857l-2.637-2.375a7.971 7.971 0 0 0-1.213 4.232 8.01 8.01 0 0 0 8.01 8.01 7.97 7.97 0 0 0 4.918-1.69z" class="cls-2" transform="translate(446.113 -291.412)"/>
                <path id="패스_10" d="M-430.674 282.68a4.54 4.54 0 0 1 2.547-.78 4.561 4.561 0 0 1 4.561 4.561 4.538 4.538 0 0 1-.533 2.136l2.608 2.349a7.97 7.97 0 0 0 1.373-4.485 8.01 8.01 0 0 0-8.01-8.01 7.977 7.977 0 0 0-5.153 1.879z" class="cls-2" transform="translate(436.14 -278.451)"/>
            </g>
        </g>
        <path id="사각형_5999" fill="none" d="M0 0H105V22H0z" transform="translate(846 197.116)"/>
    </g>
</svg>
