<svg xmlns="http://www.w3.org/2000/svg" width="110" height="23" viewBox="0 0 110 23">
  <defs>
    <style>
      .cls-1, .cls-3 {
        fill: none;
      }

      .cls-1 {
        opacity: 0.311;
      }

      .cls-2 {
        fill: #0933b3;
      }
    </style>
  </defs>
  <g id="그룹_5292" data-name="그룹 5292" transform="translate(-846 -196.789)">
    <path id="사각형_4370" data-name="사각형 4370" class="cls-1" d="M0,0H100.833V19.25H0Z" transform="translate(846 197.507)"/>
    <g id="그룹_70673" data-name="그룹 70673" transform="translate(846 200.255)">
      <g id="그룹_6" data-name="그룹 6" transform="translate(0 0.02)">
        <path id="패스_1" data-name="패스 1" class="cls-2" d="M-490.382,291.581c0,2.917-2.341,4.822-5.238,4.822h-6.814V279.938h6.351c2.827,0,5.121,1.858,5.121,4.7a4.149,4.149,0,0,1-1.414,3.223,4.267,4.267,0,0,1,1.993,3.718Zm-8.343-8.114v2.917h2.642a1.358,1.358,0,0,0,1.022-.414,1.4,1.4,0,0,0,.391-1.044,1.388,1.388,0,0,0-.387-1.049,1.345,1.345,0,0,0-1.027-.41Zm4.633,7.833a1.5,1.5,0,0,0-.419-1.134,1.454,1.454,0,0,0-1.111-.442h-3.105v3.152h3.105a1.454,1.454,0,0,0,1.111-.442,1.5,1.5,0,0,0,.419-1.135Z" transform="translate(502.433 -279.609)"/>
        <path id="패스_2" data-name="패스 2" class="cls-2" d="M-355.185,292.781V296.4h-9.5V279.938h3.709v12.843Z" transform="translate(396.857 -279.609)"/>
        <path id="패스_3" data-name="패스 3" class="cls-2" d="M-316.909,283.561h-4.172V296.4h-3.709V283.561h-4.172v-3.623h12.052Z" transform="translate(369.474 -279.609)"/>
        <path id="패스_4" data-name="패스 4" class="cls-2" d="M-266.921,295.941l-1.437-1.575a7.132,7.132,0,0,1-4.195,1.29c-3.337,0-5.794-1.857-5.794-4.96a5.588,5.588,0,0,1,2.6-4.724,5.05,5.05,0,0,1-.672-2.608c0-2.773,2.109-4.818,5.215-4.818a5.51,5.51,0,0,1,5.33,3.593L-269.054,284c-.417-1.106-1.066-1.786-2.109-1.786a1.394,1.394,0,0,0-1.074.347,1.435,1.435,0,0,0-.479,1.035,3.536,3.536,0,0,0,1.272,2.326l2.99,3.361a12.57,12.57,0,0,0,.765-2.585l3.105,1.787a12.15,12.15,0,0,1-1.484,3.455l2.04,2.3Zm-3.709-4.09-2.966-3.243-.139-.141a2.331,2.331,0,0,0-.858,1.833c0,1.106.7,1.927,2.34,1.927a3.373,3.373,0,0,0,1.624-.377Z" transform="translate(330.682 -278.544)"/>
        <path id="패스_5" data-name="패스 5" class="cls-2" d="M-196.331,279.938V296.4h-2.781l-6.262-8.94V296.4h-3.709V279.938h2.781l6.257,8.939v-8.939Z" transform="translate(277.59 -279.609)"/>
        <path id="패스_6" data-name="패스 6" class="cls-2" d="M-70.988,283.561H-75.16V296.4h-3.709V283.561H-83.04v-3.623h12.052Z" transform="translate(180.988 -279.609)"/>
        <g id="그룹_1" data-name="그룹 1" transform="translate(83.865 0.449)">
          <path id="패스_7" data-name="패스 7" class="cls-2" d="M-138.21,293.191a2.137,2.137,0,0,1-1.284-1.96V280.453h-3.85v11.163a5.394,5.394,0,0,0,5.133,5.408Z" transform="translate(143.344 -280.453)"/>
          <path id="패스_8" data-name="패스 8" class="cls-2" d="M-109.853,280.453V291.23a2.131,2.131,0,0,1-1.516,2.043v3.751a5.394,5.394,0,0,0,5.133-5.408V280.453Z" transform="translate(118.836 -280.453)"/>
        </g>
      </g>
      <g id="그룹_7" data-name="그룹 7" transform="translate(13.15 0)">
        <path id="패스_9" data-name="패스 9" class="cls-2" d="M-435.317,304a4.757,4.757,0,0,1-2.392.645,4.783,4.783,0,0,1-4.783-4.783,4.757,4.757,0,0,1,.417-1.947l-2.765-2.491a8.359,8.359,0,0,0-1.272,4.438,8.4,8.4,0,0,0,8.4,8.4,8.358,8.358,0,0,0,5.158-1.772Z" transform="translate(446.113 -291.216)"/>
        <path id="패스_10" data-name="패스 10" class="cls-2" d="M-430.547,282.885a4.761,4.761,0,0,1,2.671-.818,4.783,4.783,0,0,1,4.784,4.783,4.759,4.759,0,0,1-.559,2.24l2.735,2.463a8.358,8.358,0,0,0,1.44-4.7,8.4,8.4,0,0,0-8.4-8.4,8.365,8.365,0,0,0-5.4,1.971Z" transform="translate(436.279 -278.451)"/>
      </g>
    </g>
    <path id="패스_1-2" data-name="패스 1" class="cls-2" d="M-490.382,291.581c0,2.917-2.341,4.822-5.238,4.822h-6.814V279.938h6.351c2.827,0,5.121,1.858,5.121,4.7a4.149,4.149,0,0,1-1.414,3.223,4.267,4.267,0,0,1,1.993,3.718Zm-8.343-8.114v2.917h2.642a1.358,1.358,0,0,0,1.022-.414,1.4,1.4,0,0,0,.391-1.044,1.388,1.388,0,0,0-.387-1.049,1.345,1.345,0,0,0-1.027-.41Zm4.633,7.833a1.5,1.5,0,0,0-.419-1.134,1.454,1.454,0,0,0-1.111-.442h-3.105v3.152h3.105a1.454,1.454,0,0,0,1.111-.442,1.5,1.5,0,0,0,.419-1.135Z" transform="translate(1348.433 -79.334)"/>
    <path id="패스_2-2" data-name="패스 2" class="cls-2" d="M-355.185,292.781V296.4h-9.5V279.938h3.709v12.843Z" transform="translate(1242.857 -79.334)"/>
    <path id="패스_3-2" data-name="패스 3" class="cls-2" d="M-316.909,283.561h-4.172V296.4h-3.709V283.561h-4.172v-3.623h12.052Z" transform="translate(1215.474 -79.334)"/>
    <path id="패스_4-2" data-name="패스 4" class="cls-2" d="M-266.921,295.941l-1.437-1.575a7.132,7.132,0,0,1-4.195,1.29c-3.337,0-5.794-1.857-5.794-4.96a5.588,5.588,0,0,1,2.6-4.724,5.05,5.05,0,0,1-.672-2.608c0-2.773,2.109-4.818,5.215-4.818a5.51,5.51,0,0,1,5.33,3.593L-269.054,284c-.417-1.106-1.066-1.786-2.109-1.786a1.394,1.394,0,0,0-1.074.347,1.435,1.435,0,0,0-.479,1.035,3.536,3.536,0,0,0,1.272,2.326l2.99,3.361a12.57,12.57,0,0,0,.765-2.585l3.105,1.787a12.15,12.15,0,0,1-1.484,3.455l2.04,2.3Zm-3.709-4.09-2.966-3.243-.139-.141a2.331,2.331,0,0,0-.858,1.833c0,1.106.7,1.927,2.34,1.927a3.373,3.373,0,0,0,1.624-.377Z" transform="translate(1176.682 -78.269)"/>
    <path id="패스_5-2" data-name="패스 5" class="cls-2" d="M-196.331,279.938V296.4h-2.781l-6.262-8.94V296.4h-3.709V279.938h2.781l6.257,8.939v-8.939Z" transform="translate(1123.59 -79.334)"/>
    <path id="패스_6-2" data-name="패스 6" class="cls-2" d="M-70.988,283.561H-75.16V296.4h-3.709V283.561H-83.04v-3.623h12.052Z" transform="translate(1026.989 -79.334)"/>
    <g id="그룹_1-2" data-name="그룹 1" transform="translate(929.865 200.724)">
      <path id="패스_7-2" data-name="패스 7" class="cls-2" d="M-138.21,293.191a2.137,2.137,0,0,1-1.284-1.96V280.453h-3.85v11.163a5.394,5.394,0,0,0,5.133,5.408Z" transform="translate(143.344 -280.453)"/>
      <path id="패스_8-2" data-name="패스 8" class="cls-2" d="M-109.853,280.453V291.23a2.131,2.131,0,0,1-1.516,2.043v3.751a5.394,5.394,0,0,0,5.133-5.408V280.453Z" transform="translate(118.836 -280.453)"/>
    </g>
    <rect id="사각형_5999" data-name="사각형 5999" class="cls-3" width="110" height="23" transform="translate(846 196.789)"/>
  </g>
</svg>
