<svg width="84" height="20" viewBox="0 0 84 20" fill="none" xmlns="http://www.w3.org/2000/svg">
<path d="M3.6 6.9H7.6V0.5H11.2V19H0V0.5H3.6V6.9ZM7.6 9.7H3.6V16.2H7.6V9.7ZM17.7 7.2H19.7V10H17.7V19.3H14.1V0H17.7V7.2Z" fill="#0933B3"/>
<path d="M22.3998 3.3V0.5H39.7998V8.3H25.9998V10.5H39.9998V13.3H32.6998V16.4H40.4998V19.3H21.2998V16.5H29.0998V13.3H22.3998V5.5H36.1998V3.3H22.3998Z" fill="#0933B3"/>
<path d="M46.8002 1.8H50.8002V0.3H54.4002V9.3H43.2002V0.3H46.8002V1.8ZM57.3002 13.9V12.9H44.2002V10.5H61.0002V16.3H47.8002V17.3H61.2002V19.7H44.2002V13.9H57.3002ZM50.8002 4.6H46.8002V6.4H50.8002V4.6ZM61.0002 6V9.5H57.4002V0H61.0002V3.2H63.0002V6H61.0002Z" fill="#0933B3"/>
<path d="M64.5 13.2H83.7V16H75.9V20H72.3V16H64.5V13.2ZM65.2 0.5H83.1V3.3H76.3V3.9C76.3 4.6 76.2 5.3 76 5.9L83.7 8.6L81.9 11.1L74.2 8.5C72.5 9.9 69.8 10.9 66.2 11.4L64.8 8.8C66.3 8.7 67.5 8.5 68.5 8.2C69.5 7.9 70.3 7.6 70.9 7.2C71.5 6.8 72 6.3 72.2 5.8C72.5 5.3 72.6 4.7 72.6 4V3.3H65.1V0.5H65.2Z" fill="#0933B3"/>
</svg>
