<svg xmlns="http://www.w3.org/2000/svg" width="1158" height="242" viewBox="0 0 1158 242">
  <defs>
    <style>
      .cls-1 {
        opacity: 0.5;
      }

      .cls-2, .cls-4 {
        fill: none;
      }

      .cls-2 {
        opacity: 0.311;
      }

      .cls-3 {
        fill: #edeff3;
      }
    </style>
  </defs>
  <g id="그룹_5024" data-name="그룹 5024" class="cls-1" transform="translate(-846 -196.774)">
    <path id="사각형_4370" data-name="사각형 4370" class="cls-2" d="M0,0H1061.465V202.643H0Z" transform="translate(846 204.339)"/>
    <g id="그룹_70673" data-name="그룹 70673" transform="translate(846 233.269)">
      <g id="그룹_6" data-name="그룹 6" transform="translate(0 0.207)">
        <path id="패스_1" data-name="패스 1" class="cls-3" d="M-375.567,402.5c0,30.7-24.645,50.756-55.136,50.756h-71.73V279.938h66.852c29.763,0,53.912,19.56,53.912,49.5a43.671,43.671,0,0,1-14.882,33.925A44.921,44.921,0,0,1-375.568,402.5Zm-87.826-85.419v30.7h27.812a14.3,14.3,0,0,0,10.762-4.363,14.743,14.743,0,0,0,4.119-10.993,14.612,14.612,0,0,0-4.073-11.04,14.163,14.163,0,0,0-10.808-4.315Zm48.776,82.458a15.787,15.787,0,0,0-4.407-11.934,15.3,15.3,0,0,0-11.69-4.654H-463.4v33.177h32.689a15.3,15.3,0,0,0,11.7-4.654,15.79,15.79,0,0,0,4.407-11.944Z" transform="translate(502.433 -276.472)"/>
        <path id="패스_2" data-name="패스 2" class="cls-3" d="M-264.658,415.132V453.26H-364.687V279.938h39.04V415.132Z" transform="translate(703.338 -276.472)"/>
        <path id="패스_3" data-name="패스 3" class="cls-3" d="M-202.085,318.076H-246V453.269h-39.039V318.076h-43.918V279.938h126.866Z" transform="translate(755.436 -276.473)"/>
        <path id="패스_4" data-name="패스 4" class="cls-3" d="M-158.07,461.68-173.2,445.1a75.073,75.073,0,0,1-44.157,13.579c-35.128,0-60.99-19.543-60.99-52.208a58.828,58.828,0,0,1,27.324-49.727A53.158,53.158,0,0,1-258.1,329.29c0-29.194,22.2-50.714,54.9-50.714A58,58,0,0,1-147.091,316.4l-33.426,19.543c-4.39-11.639-11.219-18.806-22.2-18.806a14.677,14.677,0,0,0-11.308,3.652,15.109,15.109,0,0,0-5.037,10.9c0,9.649,5.854,16.08,13.39,24.489l31.474,35.382a132.308,132.308,0,0,0,8.054-27.216l32.689,18.807a127.905,127.905,0,0,1-15.617,36.37l21.471,24.247Zm-39.04-43.053-31.227-34.14L-229.8,383a24.537,24.537,0,0,0-9.028,19.3c0,11.639,7.316,20.29,24.636,20.29a35.509,35.509,0,0,0,17.091-3.966Z" transform="translate(829.272 -278.544)"/>
        <path id="패스_5" data-name="패스 5" class="cls-3" d="M-74.852,279.938V453.269h-29.275l-65.914-94.106v94.086h-39.04V279.938h29.275l65.867,94.1v-94.1Z" transform="translate(930.259 -276.473)"/>
        <path id="패스_6" data-name="패스 6" class="cls-3" d="M43.826,318.076H-.092V453.269h-39.04V318.076H-83.04V279.938H43.826Z" transform="translate(1114.136 -276.473)"/>
        <g id="그룹_1" data-name="그룹 1" transform="translate(882.837 4.728)">
          <path id="패스_7" data-name="패스 7" class="cls-3" d="M-89.3,414.547a22.5,22.5,0,0,1-13.514-20.634V280.453h-40.532V397.96c.093,30.6,23.912,55.692,54.036,56.933Z" transform="translate(143.344 -280.453)"/>
          <path id="패스_8" data-name="패스 8" class="cls-3" d="M-95.407,280.453V393.9a22.432,22.432,0,0,1-15.962,21.507v39.483c30.124-1.241,53.943-26.337,54.036-56.933V280.453Z" transform="translate(189.975 -280.453)"/>
        </g>
      </g>
      <g id="그룹_7" data-name="그룹 7" transform="translate(138.429 0)">
        <path id="패스_9" data-name="패스 9" class="cls-3" d="M-332.464,385.707a50.081,50.081,0,0,1-25.181,6.79A50.355,50.355,0,0,1-408,342.143a50.082,50.082,0,0,1,4.388-20.5l-29.111-26.219a88,88,0,0,0-13.39,46.72,88.428,88.428,0,0,0,88.428,88.428,87.988,87.988,0,0,0,54.3-18.659Z" transform="translate(446.113 -251.138)"/>
        <path id="패스_10" data-name="패스 10" class="cls-3" d="M-404.512,325.133a50.118,50.118,0,0,1,28.118-8.608,50.354,50.354,0,0,1,50.355,50.355,50.1,50.1,0,0,1-5.881,23.584l28.8,25.928a87.981,87.981,0,0,0,15.159-49.512,88.429,88.429,0,0,0-88.429-88.429A88.061,88.061,0,0,0-433.28,299.2Z" transform="translate(464.851 -278.451)"/>
      </g>
    </g>
    <path id="패스_1-2" data-name="패스 1" class="cls-3" d="M-375.567,402.5c0,30.7-24.645,50.756-55.136,50.756h-71.73V279.938h66.852c29.763,0,53.912,19.56,53.912,49.5a43.671,43.671,0,0,1-14.882,33.925A44.921,44.921,0,0,1-375.568,402.5Zm-87.826-85.419v30.7h27.812a14.3,14.3,0,0,0,10.762-4.363,14.743,14.743,0,0,0,4.119-10.993,14.612,14.612,0,0,0-4.073-11.04,14.163,14.163,0,0,0-10.808-4.315Zm48.776,82.458a15.787,15.787,0,0,0-4.407-11.934,15.3,15.3,0,0,0-11.69-4.654H-463.4v33.177h32.689a15.3,15.3,0,0,0,11.7-4.654,15.79,15.79,0,0,0,4.407-11.944Z" transform="translate(1348.433 -42.996)"/>
    <path id="패스_2-2" data-name="패스 2" class="cls-3" d="M-264.658,415.132V453.26H-364.687V279.938h39.04V415.132Z" transform="translate(1549.337 -42.996)"/>
    <path id="패스_3-2" data-name="패스 3" class="cls-3" d="M-202.085,318.076H-246V453.269h-39.039V318.076h-43.918V279.938h126.866Z" transform="translate(1601.437 -42.996)"/>
    <path id="패스_4-2" data-name="패스 4" class="cls-3" d="M-158.07,461.68-173.2,445.1a75.073,75.073,0,0,1-44.157,13.579c-35.128,0-60.99-19.543-60.99-52.208a58.828,58.828,0,0,1,27.324-49.727A53.158,53.158,0,0,1-258.1,329.29c0-29.194,22.2-50.714,54.9-50.714A58,58,0,0,1-147.091,316.4l-33.426,19.543c-4.39-11.639-11.219-18.806-22.2-18.806a14.677,14.677,0,0,0-11.308,3.652,15.109,15.109,0,0,0-5.037,10.9c0,9.649,5.854,16.08,13.39,24.489l31.474,35.382a132.308,132.308,0,0,0,8.054-27.216l32.689,18.807a127.905,127.905,0,0,1-15.617,36.37l21.471,24.247Zm-39.04-43.053-31.227-34.14L-229.8,383a24.537,24.537,0,0,0-9.028,19.3c0,11.639,7.316,20.29,24.636,20.29a35.509,35.509,0,0,0,17.091-3.966Z" transform="translate(1675.273 -45.067)"/>
    <path id="패스_5-2" data-name="패스 5" class="cls-3" d="M-74.852,279.938V453.269h-29.275l-65.914-94.106v94.086h-39.04V279.938h29.275l65.867,94.1v-94.1Z" transform="translate(1776.259 -42.997)"/>
    <path id="패스_6-2" data-name="패스 6" class="cls-3" d="M43.826,318.076H-.092V453.269h-39.04V318.076H-83.04V279.938H43.826Z" transform="translate(1960.137 -42.996)"/>
    <g id="그룹_1-2" data-name="그룹 1" transform="translate(1728.836 238.205)">
      <path id="패스_7-2" data-name="패스 7" class="cls-3" d="M-89.3,414.547a22.5,22.5,0,0,1-13.514-20.634V280.453h-40.532V397.96c.093,30.6,23.912,55.692,54.036,56.933Z" transform="translate(143.344 -280.453)"/>
      <path id="패스_8-2" data-name="패스 8" class="cls-3" d="M-95.407,280.453V393.9a22.432,22.432,0,0,1-15.962,21.507v39.483c30.124-1.241,53.943-26.337,54.036-56.933V280.453Z" transform="translate(189.975 -280.453)"/>
    </g>
    <rect id="사각형_5999" data-name="사각형 5999" class="cls-4" width="1158" height="242" transform="translate(846 196.774)"/>
  </g>
</svg>
