<svg xmlns="http://www.w3.org/2000/svg" width="9.657" height="13.912" viewBox="0 0 9.657 13.912">
  <defs>
    <style>
      .cls-1 {
        fill: #86888c;
      }

      .cls-2 {
        fill: #fff;
      }
    </style>
  </defs>
  <g id="그룹_3719" data-name="그룹 3719" transform="translate(-673.074 -681.336)">
    <path id="패스_4137" data-name="패스 4137" class="cls-1" d="M1532.625-110.309v-.04c0-.04,0-.078-.006-.115a4.827,4.827,0,0,0-4.823-4.643,4.829,4.829,0,0,0-4.824,4.643c0,.037,0,.076,0,.115v.07a4.831,4.831,0,0,0,.187,1.33c.887,3.589,4.642,7.754,4.642,7.754s3.753-4.166,4.64-7.754a4.832,4.832,0,0,0,.188-1.33Z" transform="translate(-849.895 796.443)"/>
    <circle id="타원_1231" data-name="타원 1231" class="cls-2" cx="1.786" cy="1.786" r="1.786" transform="translate(676.116 684.722)"/>
  </g>
</svg>
