<svg xmlns="http://www.w3.org/2000/svg" width="85" height="25" viewBox="0 0 85 25">
  <defs>
    <style>
      .cls-1 {
        fill: #fff;
      }

      .cls-2 {
        fill: #034c6f;
      }
    </style>
  </defs>
  <g id="그룹_4415" data-name="그룹 4415" transform="translate(-388 -3716)">
    <rect id="사각형_5791" data-name="사각형 5791" class="cls-1" width="85" height="25" transform="translate(388 3716)"/>
    <g id="그룹_4412" data-name="그룹 4412" transform="translate(-81.879 1952.438)">
      <g id="그룹_4409" data-name="그룹 4409" transform="translate(475.878 1768.19)">
        <g id="그룹_4408" data-name="그룹 4408" transform="translate(0 0)">
          <path id="패스_4710" data-name="패스 4710" class="cls-2" d="M475.878,1771.5h2.207v6.313h9.4V1771.5h2.207v15.617h-2.207v-7.432h-9.4v7.432h-2.207Z" transform="translate(-475.878 -1771.17)"/>
          <path id="패스_4711" data-name="패스 4711" class="cls-2" d="M565.887,1781.463c-.891,2.681-2.85,4.9-7.3,4.9-5.187,0-8-3.63-8-8.1a7.859,7.859,0,0,1,8.12-8.172c4.508,0,6.628,2.428,7.24,4.992h-2.266c-.675-1.636-1.93-3.147-5-3.147-3.584,0-5.753,2.648-5.753,6.248,0,3.54,2.15,6.347,5.775,6.347,2.94,0,4.118-1.262,4.966-3.064Z" transform="translate(-533.158 -1770.087)"/>
        </g>
      </g>
      <g id="그룹_4411" data-name="그룹 4411" transform="translate(512.754 1767.613)">
        <g id="그룹_4410" data-name="그룹 4410" transform="translate(0)">
          <path id="패스_4712" data-name="패스 4712" class="cls-2" d="M634,1785.827V1770.44h1.143v14.332h9.035v1.055Z" transform="translate(-633.997 -1769.781)"/>
          <path id="패스_4713" data-name="패스 4713" class="cls-2" d="M695.955,1798.981v-1.868a5.1,5.1,0,0,1-4.286,2.132c-2.088,0-4.33-1.187-4.33-3.517v-.044c0-2.33,2-3.649,4.9-3.649a13.491,13.491,0,0,1,3.715.483v-.483c0-2.264-1.385-3.429-3.693-3.429a7.512,7.512,0,0,0-3.517.9l-.4-.945a9.008,9.008,0,0,1,3.979-.967c2.88,0,4.682,1.494,4.682,4.4v6.99Zm.022-5.473a14.868,14.868,0,0,0-3.8-.506c-2.374,0-3.693,1.055-3.693,2.616v.044c0,1.627,1.539,2.572,3.253,2.572,2.286,0,4.243-1.407,4.243-3.451Z" transform="translate(-674.898 -1782.935)"/>
          <path id="패스_4714" data-name="패스 4714" class="cls-2" d="M751.087,1783.924a5.392,5.392,0,0,1-4.616-2.682v2.418h-1.077v-16.047h1.077v7.342a5.413,5.413,0,0,1,4.616-2.77,5.567,5.567,0,0,1,5.451,5.825v.044A5.608,5.608,0,0,1,751.087,1783.924Zm4.286-5.869a4.511,4.511,0,0,0-4.4-4.836,4.7,4.7,0,0,0-4.572,4.814v.044a4.681,4.681,0,0,0,4.572,4.814c2.44,0,4.4-1.781,4.4-4.792Z" transform="translate(-719.414 -1767.613)"/>
        </g>
      </g>
    </g>
  </g>
</svg>
