<svg xmlns="http://www.w3.org/2000/svg" width="185" height="185" viewBox="0 0 185 185">
  <defs>
    <style>
      .cls-1 {
        fill: none;
      }

      .cls-2, .cls-25 {
        fill: #f6f7f9;
      }

      .cls-3 {
        fill: #cae8f6;
      }

      .cls-4 {
        fill: #006abb;
      }

      .cls-27, .cls-5 {
        fill: #fff;
      }

      .cls-6 {
        fill: #a27e4b;
      }

      .cls-7 {
        fill: #413d43;
      }

      .cls-8 {
        fill: #c8e3f6;
      }

      .cls-9 {
        fill: #fffefd;
      }

      .cls-10 {
        fill: #3f3e40;
      }

      .cls-11 {
        fill: #a8e6fc;
      }

      .cls-12 {
        fill: #2a246e;
      }

      .cls-13 {
        fill: #f29785;
      }

      .cls-14 {
        fill: #006cba;
      }

      .cls-15 {
        fill: #9fe0f8;
      }

      .cls-16 {
        fill: #92d6f3;
      }

      .cls-17 {
        fill: #142d3e;
      }

      .cls-18 {
        fill: #eec601;
      }

      .cls-19 {
        fill: #ff6158;
        opacity: 0.85;
      }

      .cls-20 {
        fill: #303a49;
      }

      .cls-21 {
        fill: #ffc900;
      }

      .cls-22 {
        fill: #b4bac1;
      }

      .cls-22, .cls-23, .cls-24, .cls-25, .cls-26, .cls-27 {
        fill-rule: evenodd;
      }

      .cls-23 {
        fill: #2a276a;
      }

      .cls-24 {
        fill: #99a2aa;
      }

      .cls-26 {
        fill: #d3d3d3;
      }
    </style>
  </defs>
  <g id="그룹_5663" data-name="그룹 5663" transform="translate(-811.536 -651.537)">
    <rect id="사각형_5556" data-name="사각형 5556" class="cls-1" width="185" height="185" transform="translate(811.536 651.537)"/>
    <path id="패스_4473" data-name="패스 4473" class="cls-2" d="M2791.181,1286.325c0-15.583-12.946-28.455-29.728-30.461-1.08-16.1-16-28.864-34.243-28.864-15.8,0-29.111,9.574-33.092,22.6a54.818,54.818,0,0,0-23.375-5.089c-25.264,0-45.744,16.24-45.744,36.274,0,11.2,6.4,21.206,16.451,27.86,13.756,11.639,39.8,19.493,69.677,19.493,44.212,0,80.053-17.2,80.053-38.418,0-.5-.027-1-.067-1.5C2791.157,1287.591,2791.181,1286.96,2791.181,1286.325Z" transform="translate(-1804.277 -527.506)"/>
    <path id="패스_4474" data-name="패스 4474" class="cls-3" d="M2675.233,1447.826a7.947,7.947,0,0,0-6.887,4.1,12.292,12.292,0,0,0-3.545-8.106,13.3,13.3,0,0,0-10.307-3.214,16.326,16.326,0,0,0-8.633,4.16,15.559,15.559,0,0,0-1.394,1.456c-.4.47-1.149,1.554-1.149,1.554s-.02.016-.05.036a8.047,8.047,0,0,0-3.48-.791,8.788,8.788,0,0,0,0,17.558c.187,0,.372-.009.556-.021.042.008.086.017.128.021a39.558,39.558,0,0,0,4.142,0h29.941c.106,0,.209-.006.313-.01.122.006.243.01.366.01a8.383,8.383,0,0,0,0-16.75Z" transform="translate(-1808.286 -661.331)"/>
    <path id="패스_4475" data-name="패스 4475" class="cls-4" d="M2707.884,1240.534c.079-.066.222-.171.24-.241.035-.135-.316-.454-.413-.569-.02-.024-.042-.047-.062-.072-1.563-4.979-6.805-8.64-13.035-8.64-6.365,0-11.7,3.823-13.131,8.967a14.932,14.932,0,0,0-.884,4.445.158.158,0,0,1-.293.077c-.033-.053-.067-.1-.1-.156-1.157-2.933-3.637-4.96-6.51-4.96-3.98,0-7.206,3.89-7.206,8.688,0,4.546,2.9,8.275,6.585,8.654a1.992,1.992,0,0,0,.514.135,65.444,65.444,0,0,0,9.275.475q2.194-.007,4.387-.093,1.237-.047,2.474-.115a3.24,3.24,0,0,0,1.331-.157l2.692-1.44a1.93,1.93,0,0,0,.513-.393c.194-.212.373-.447.553-.67,7.37-.093,13.313-5.306,13.313-11.726A10.247,10.247,0,0,0,2707.884,1240.534Z" transform="translate(-1830.283 -530.021)"/>
    <rect id="사각형_5549" data-name="사각형 5549" class="cls-5" width="15.521" height="0.499" rx="0.25" transform="translate(908.518 731.084) rotate(-33.814)"/>
    <path id="패스_4476" data-name="패스 4476" class="cls-3" d="M2997.037,1199.359a3.978,3.978,0,0,0-3.453,2.063,6.158,6.158,0,0,0-1.773-4.073,6.663,6.663,0,0,0-5.163-1.61,8.18,8.18,0,0,0-4.325,2.084,7.773,7.773,0,0,0-.7.73c-.2.235-.576.779-.576.779l-.028.02a4.024,4.024,0,0,0-1.741-.4,4.4,4.4,0,0,0,0,8.8c.094,0,.185-.008.277-.015.022,0,.044.012.066.015a19.8,19.8,0,0,0,2.075,0h15c.053,0,.1-.008.157-.01s.122.01.184.01a4.2,4.2,0,0,0,0-8.39Z" transform="translate(-2023.704 -507.881)"/>
    <g id="그룹_4077" data-name="그룹 4077" transform="translate(859.991 684.97)">
      <g id="그룹_4074" data-name="그룹 4074" transform="translate(78.216 0)">
        <path id="패스_4477" data-name="패스 4477" class="cls-6" d="M2962.328,1219.989l-.174-.376-.877.455.188.335a.8.8,0,0,0-.17.4.227.227,0,0,0,.018.127l3.329,7.226a.479.479,0,0,0,.425.329l.924-.355a.677.677,0,0,0,.189-.529l-3.349-7.3a.567.567,0,0,0-.058-.075.584.584,0,0,0-.225-.152Z" transform="translate(-2953.261 -1207.847)"/>
        <ellipse id="타원_1268" data-name="타원 1268" class="cls-7" cx="5.503" cy="5.419" rx="5.503" ry="5.419" transform="translate(0 10.825) rotate(-79.599)"/>
        <g id="그룹_4073" data-name="그룹 4073" transform="translate(0.875 0.884)">
          <ellipse id="타원_1269" data-name="타원 1269" class="cls-8" cx="4.742" cy="4.669" rx="4.742" ry="4.669" transform="translate(0 9.328) rotate(-79.599)"/>
          <path id="패스_4478" data-name="패스 4478" class="cls-9" d="M2964.2,1198.044a3.144,3.144,0,0,0-.574-.986,3.594,3.594,0,0,0-.743-.706s-.017-.01-.019-.007c-.247.29-.469.557-.7.833,0,0-.015.012-.011.014a1.636,1.636,0,0,1,.669.632,2.752,2.752,0,0,1,.3.563Z" transform="translate(-2954.681 -1194.146)"/>
          <path id="패스_4479" data-name="패스 4479" class="cls-9" d="M2960.217,1194.534a4.2,4.2,0,0,0-.783-.39,5.139,5.139,0,0,0-.629-.2c-.167.643-.255,1.044-.255,1.044a5.166,5.166,0,0,1,1.029.451C2959.886,1195,2960.217,1194.534,2960.217,1194.534Z" transform="translate(-2952.427 -1192.644)"/>
        </g>
        <path id="패스_4480" data-name="패스 4480" class="cls-10" d="M2961.532,1217.954a.255.255,0,0,1-.025.127,1.118,1.118,0,0,1-.486.408,1.756,1.756,0,0,1-.585.2c-.19.013-.38-.2-.464-.354-.046-.086-.085-.177-.123-.267a.187.187,0,0,1,.091-.243l.922-.437.278-.132c.024-.011.107-.069.135-.064s.092.185.109.227a2.356,2.356,0,0,1,.1.313A2,2,0,0,1,2961.532,1217.954Z" transform="translate(-2952.357 -1206.328)"/>
        <path id="패스_4481" data-name="패스 4481" class="cls-5" d="M2963.079,1218.981l.093-.038a.135.135,0,0,0,.074-.174l-.037-.094a.131.131,0,0,0-.171-.074l-.093.038a.135.135,0,0,0-.074.174l.037.094A.13.13,0,0,0,2963.079,1218.981Z" transform="translate(-2954.255 -1207.206)"/>
      </g>
      <path id="패스_4482" data-name="패스 4482" class="cls-11" d="M2730.218,1260.868l17.548-10.45,3.724,2.115V1280.4h-3.724l-17.548,9.33Z" transform="translate(-2730.218 -1227.155)"/>
      <rect id="사각형_5550" data-name="사각형 5550" class="cls-12" width="27.813" height="29.973" transform="translate(17.563 23.263)"/>
      <g id="그룹_4076" data-name="그룹 4076" transform="translate(17.563 4.839)">
        <path id="패스_4483" data-name="패스 4483" class="cls-13" d="M2885.283,1219.631c.669,1.02,1.407,2,2.15,2.966.3.392.749.643,1.049,1.051a.839.839,0,0,1-.131,1.119c-.222.274-.637.438-.681.79a13.57,13.57,0,0,0-.071,1.5c-.006.557,0,1.115.011,1.672.006.314-.035.66-.06.974a3.134,3.134,0,0,1-.663,1.494,3.226,3.226,0,0,1-.985.995,5.5,5.5,0,0,1-1.583.515,11.357,11.357,0,0,1-1.58.109c-.229,0-.187,0-.3.246l-.347.764a.789.789,0,0,1-.147.26,6.4,6.4,0,0,1-.978.656,4.134,4.134,0,0,1-.831.558,3.928,3.928,0,0,1-1.028,0c-.29,0-.454.061-.651-.14a6.43,6.43,0,0,1-1.3-1.457,17.083,17.083,0,0,0-.992-1.812,3.409,3.409,0,0,1-.525-.823,2.933,2.933,0,0,1,.012-.909c.039-.421.1-.842.153-1.262.033-.27-.1-.4-.247-.643l-.334-.559a2.351,2.351,0,0,1-.288-.482,1.907,1.907,0,0,1,.1-.673l.241-1.338c.042-.238.019-.27.221-.387.7-.408,1.4-.822,2.109-1.225.518-.3,1.047-.572,1.571-.856a14.1,14.1,0,0,1,1.559-.823,19.721,19.721,0,0,0,3.689-1.646C2884.722,1220.077,2885,1219.842,2885.283,1219.631Z" transform="translate(-2838.482 -1212.697)"/>
        <g id="그룹_4075" data-name="그룹 4075" transform="translate(0 9.451)">
          <path id="패스_4484" data-name="패스 4484" class="cls-13" d="M2937.58,1255.424c1.12-4.833,3.47-15.819,3.977-18.194a4.436,4.436,0,0,0,.1-.927v-5.1a1.844,1.844,0,0,0-.028-.3,3.679,3.679,0,0,1,.9-3.4.454.454,0,0,1,.173-.1,7.239,7.239,0,0,1,2.394-.262.277.277,0,0,0,.272-.184.853.853,0,0,1,.947-.568.427.427,0,0,1,.2.074,2.532,2.532,0,0,1,.712.751.248.248,0,0,0,.264.106c.476-.086.995.581.995.581a1.2,1.2,0,0,0,.482.765.481.481,0,0,0,.4.1.964.964,0,0,1,.809.37.424.424,0,0,1,.07.487,10.173,10.173,0,0,1-1.764,2.009c-.485.522-.374.866-.309.982a.25.25,0,0,1,.032.134c-.031.513-.926.953-1.218,1.083a.141.141,0,0,0-.085.138c.433,7.053-.863,19.368-.95,20.183,0,.029-.007.057-.012.086a56.125,56.125,0,0,1-4.026,12.925,1.482,1.482,0,0,1-.84.786,4.362,4.362,0,0,1-2.59-.257c-3.359-1.866-6.034-6.344-6.034-6.344l2.364-8.894a7.929,7.929,0,0,0,2.625,3.031A.091.091,0,0,0,2937.58,1255.424Z" transform="translate(-2874.538 -1226.375)"/>
          <path id="패스_4485" data-name="패스 4485" class="cls-13" d="M2777.277,1269.673a39.265,39.265,0,0,0,8.708.684,55.906,55.906,0,0,0,6.531-.684l3.67,7.962a69.472,69.472,0,0,1-18.909-1.99Z" transform="translate(-2777.277 -1253.514)"/>
          <path id="패스_4486" data-name="패스 4486" class="cls-14" d="M2843.82,1254.281a17.057,17.057,0,0,0,3.814-2.249.4.4,0,0,1,.337-.076c3.458.784,8.158,3.881,8.354,4.011l.014.01a32.666,32.666,0,0,1,7.343,8.647.614.614,0,0,1,.046.112,14.334,14.334,0,0,1-.626,7.081.25.25,0,0,1-.013.03c-.919,1.926-2.172,4.122-2.684,5a.412.412,0,0,1-.6.125,44.178,44.178,0,0,1-5.637-5.225.411.411,0,0,0-.687.127,31.624,31.624,0,0,1-4.1,6.979.413.413,0,0,1-.328.16H2827.39a.416.416,0,0,1-.4-.31c-.742-2.905.918-11.284,1.4-13.575a.412.412,0,0,0-.463-.491,12.7,12.7,0,0,1-3.142.039.384.384,0,0,1-.1-.027c-4.121-1.666-5.363-7.224-5.6-8.508a.419.419,0,0,1,.178-.419c7.606-5.193,10.678-6.885,11.148-7.137a.391.391,0,0,1,.139-.044,59.885,59.885,0,0,1,8.836-.2.41.41,0,0,1,.374.3,10.252,10.252,0,0,0,1.882,3.835,5.885,5.885,0,0,0,1.844,1.773A.406.406,0,0,0,2843.82,1254.281Z" transform="translate(-2803.475 -1240.096)"/>
          <path id="패스_4487" data-name="패스 4487" class="cls-11" d="M2932.4,1291.812a11.7,11.7,0,0,1,1.708,2.29,3.111,3.111,0,0,1,.335,1.6,12.943,12.943,0,0,1-1.784,6.583,19.878,19.878,0,0,1-2.716,3.386.235.235,0,0,1-.271.038,2.552,2.552,0,0,1-1.12-1.259.224.224,0,0,1,.045-.242,19.079,19.079,0,0,0,2.935-4.786,3.1,3.1,0,0,0,.164-.473,23.7,23.7,0,0,0,.552-7.065A.09.09,0,0,1,2932.4,1291.812Z" transform="translate(-2872.083 -1267.375)"/>
          <path id="패스_4488" data-name="패스 4488" class="cls-15" d="M2813.55,1268.67a4.077,4.077,0,0,1,2.229-.59.141.141,0,0,1,.131.121c.845,4.51,2.4,5.968,2.4,5.968,1.432,1.4,2.865,2.568,3.255,2.883a.065.065,0,0,1-.03.113,4.713,4.713,0,0,1-2.992-.439c-3.267-2.371-4.863-7.446-5.025-7.982A.067.067,0,0,1,2813.55,1268.67Z" transform="translate(-2799.994 -1252.515)"/>
          <circle id="타원_1270" data-name="타원 1270" class="cls-15" cx="1.019" cy="1.019" r="1.019" transform="translate(35.011 17.379)"/>
          <circle id="타원_1271" data-name="타원 1271" class="cls-15" cx="0.791" cy="0.791" r="0.791" transform="translate(33.962 21.963)"/>
          <path id="패스_4489" data-name="패스 4489" class="cls-11" d="M2873.819,1248.568c.9-.031,1.84,1.126,1.84,1.126a11.689,11.689,0,0,1,2.223,3.47,8.117,8.117,0,0,0,3.229-.781,2.058,2.058,0,0,1,1.131-.246c.243.469-.472,1.045-.472,1.045a11.179,11.179,0,0,1-3.229,1.67,43.112,43.112,0,0,1-2.722,9.5.1.1,0,0,1-.2-.056c.621-3.4,1.458-8.7,1.458-8.7a3.8,3.8,0,0,0-.972-2.72s-1.762-2.28-1.989-2.5a.433.433,0,0,1-.117-.2A10.6,10.6,0,0,1,2873.819,1248.568Z" transform="translate(-2837.79 -1240.285)"/>
          <path id="패스_4490" data-name="패스 4490" class="cls-16" d="M2842.587,1265a35.009,35.009,0,0,1,1.865-8.5h0c1.986-4.185,3.441-5.377,3.726-5.581.013-.009.024.01.016.025a41.417,41.417,0,0,0-4.3,11.818h0a7.983,7.983,0,0,1-1.28,2.246C2842.6,1265.024,2842.585,1265.015,2842.587,1265Z" transform="translate(-2818.213 -1241.759)"/>
          <path id="패스_4491" data-name="패스 4491" class="cls-16" d="M2911.939,1278.49c.008-.114.119-.152.162-.054.629,1.428.509,5.388.509,5.388a12.968,12.968,0,0,1-.553,4.5c-.036.093-.138.08-.161-.02C2911.45,1286.349,2911.84,1279.974,2911.939,1278.49Z" transform="translate(-2861.524 -1258.971)"/>
        </g>
        <path id="패스_4492" data-name="패스 4492" class="cls-17" d="M2866.729,1222.661a.936.936,0,0,1-.3-.818,5.28,5.28,0,0,1,.926-2.4c.219-.3.671-.349,1.007-.467a25.128,25.128,0,0,1,4.1-1.267,10.366,10.366,0,0,0,2.425-.735l1.9-.83c.541-.237,1.089-.54,1.652-.722a4.545,4.545,0,0,1,.6-.114c.135-.024.776-.237.885-.159.131.094.088.791.09.94,0,.243,0,.487-.021.73a1.214,1.214,0,0,1-.66,1,1.42,1.42,0,0,0-.139.077c-.391.259-.722.582-1.1.861a3.316,3.316,0,0,1-1.248.471,6.827,6.827,0,0,0-2.474.63c-.487.332-.575.85-.976,1.235a4.2,4.2,0,0,1-2.33.9,2.6,2.6,0,0,0-.622.062c-.356.166-.47.813-.506,1.155a2.174,2.174,0,0,0,.8,2.14c.2.155.511.228.669.409.3.34.075,1.032-.055,1.393a1.8,1.8,0,0,1-.2.472c-.112.141-.223.118-.424.107a2.818,2.818,0,0,1-1.44-.544,4.474,4.474,0,0,1-1.392-1.535,6.685,6.685,0,0,1-.563-1.582,5.159,5.159,0,0,0-.2-.86A1.643,1.643,0,0,0,2866.729,1222.661Z" transform="translate(-2833.153 -1209.876)"/>
        <path id="패스_4493" data-name="패스 4493" class="cls-18" d="M2861.664,1211.24c-2.417-8.589,6.225-12.843,12.505-8.418a.364.364,0,0,1,0,.6l-11.93,8.034A.378.378,0,0,1,2861.664,1211.24Z" transform="translate(-2829.91 -1201.05)"/>
        <path id="패스_4494" data-name="패스 4494" class="cls-18" d="M2864.13,1216.066l12.536-8.32a.141.141,0,0,1,.079-.024h6.72a.337.337,0,0,1,.25.577c-3.088,2.948-16,6.967-19.474,8.01A.135.135,0,0,1,2864.13,1216.066Z" transform="translate(-2831.677 -1205.232)"/>
        <circle id="타원_1272" data-name="타원 1272" class="cls-19" cx="1.866" cy="1.866" r="1.866" transform="translate(41.312 11.083)"/>
        <ellipse id="타원_1273" data-name="타원 1273" class="cls-19" cx="0.346" cy="0.71" rx="0.346" ry="0.71" transform="translate(36.924 13.909)"/>
        <circle id="타원_1274" data-name="타원 1274" class="cls-20" cx="0.653" cy="0.653" r="0.653" transform="translate(44.515 9.383)"/>
      </g>
    </g>
    <g id="그룹_4078" data-name="그룹 4078" transform="translate(944.984 760.482)">
      <path id="패스_4495" data-name="패스 4495" class="cls-21" d="M2979.058,1437.681a.07.07,0,0,0-.07-.07h-2.978a.07.07,0,0,0-.069.07l.086,13.947a3.472,3.472,0,0,0-1.156.545,3.3,3.3,0,0,0-1.233,1.65c-.411.243-.723.512-.764.784a.075.075,0,0,0,.028.065,4.637,4.637,0,0,1,.822.821,1.868,1.868,0,0,0,.153.257,2.657,2.657,0,0,0,3.708.2,3.2,3.2,0,0,0,1.324-2.021,2.674,2.674,0,0,0,.148-.729Z" transform="translate(-2967.307 -1419.997)"/>
      <path id="패스_4496" data-name="패스 4496" class="cls-11" d="M2966.17,1437.733a.122.122,0,0,0-.122-.123h-2.979a.123.123,0,0,0-.122.123l.092,14.269a4.124,4.124,0,0,0-.686.156,3.36,3.36,0,0,0-2.222,1.964.594.594,0,0,0-.073.3,1.73,1.73,0,0,0,.051.821c.38,1.184,2,1.723,3.619,1.2a3.012,3.012,0,0,0,2.322-2.606,2.565,2.565,0,0,0,.122-.642Z" transform="translate(-2959.256 -1419.997)"/>
      <rect id="사각형_5551" data-name="사각형 5551" class="cls-5" width="15.317" height="20.447" transform="translate(0 0)"/>
      <rect id="사각형_5552" data-name="사각형 5552" class="cls-12" width="10.065" height="1.27" transform="translate(1.881 2.785)"/>
      <rect id="사각형_5553" data-name="사각형 5553" class="cls-12" width="10.065" height="1.27" transform="translate(1.881 5.277)"/>
      <rect id="사각형_5554" data-name="사각형 5554" class="cls-12" width="10.065" height="1.27" transform="translate(1.881 7.769)"/>
      <rect id="사각형_5555" data-name="사각형 5555" class="cls-12" width="10.065" height="1.27" transform="translate(1.814 10.193)"/>
    </g>
    <g id="그룹_4079" data-name="그룹 4079" transform="translate(859.536 746.518)">
      <path id="패스_4497" data-name="패스 4497" class="cls-22" d="M2763.527,1403.061h-15.154c-.7,13.383-3.192,22.359-6.63,29.007h28.416C2766.72,1425.42,2764.229,1416.444,2763.527,1403.061Z" transform="translate(-2736.987 -1384.378)"/>
      <path id="패스_4498" data-name="패스 4498" class="cls-23" d="M2811.345,1480.785h-80.832a1.527,1.527,0,0,0-1.513,1.533h0a1.527,1.527,0,0,0,1.513,1.533h80.832a1.528,1.528,0,0,0,1.513-1.533h0A1.528,1.528,0,0,0,2811.345,1480.785Z" transform="translate(-2729 -1433.095)"/>
      <path id="패스_4499" data-name="패스 4499" class="cls-24" d="M2753.061,1403.061h-4.687c-.7,13.383-3.192,22.359-6.63,29.007h8.789C2751.842,1425.42,2752.794,1416.444,2753.061,1403.061Z" transform="translate(-2736.987 -1384.378)"/>
      <path id="패스_4500" data-name="패스 4500" class="cls-25" d="M2773.587,1413.847h-15.706q-.218,2.561-.529,4.894h16.764Q2773.806,1416.406,2773.587,1413.847Z" transform="translate(-2746.771 -1391.139)"/>
      <path id="패스_4501" data-name="패스 4501" class="cls-26" d="M2757.881,1413.847c-.011.133-.023.266-.034.4l-.007.08-.008.079-.007.079-.029.316-.008.079-.007.078-.008.078-.037.373v.017l-.008.078-.008.077c-.012.128-.026.256-.04.383v0l-.008.077-.008.077-.008.077-.032.306-.009.076-.008.076-.009.076q-.021.19-.044.378l-.008.075-.009.075c-.014.121-.028.242-.043.363l0,.012-.008.074-.009.074-.009.075-.036.286v.009l-.01.074-.009.073-.01.074-.038.293-.01.074h5.185q.118-2.335.2-4.894Z" transform="translate(-2746.771 -1391.139)"/>
      <path id="패스_4502" data-name="패스 4502" class="cls-27" d="M2808.949,1460.187h-3.225a4.707,4.707,0,0,0-4.7,4.7v2.988h2.983v-2.988a1.723,1.723,0,0,1,1.716-1.716h3.225Z" transform="translate(-2774.145 -1420.184)"/>
      <path id="패스_4503" data-name="패스 4503" class="cls-22" d="M2848.815,1353H2823.9c-1.153,22-5.249,36.761-10.9,47.69h46.716C2854.064,1389.761,2849.969,1375,2848.815,1353Z" transform="translate(-2781.651 -1353)"/>
      <path id="패스_4504" data-name="패스 4504" class="cls-24" d="M2831.607,1353H2823.9c-1.153,22-5.249,36.761-10.9,47.69h14.449C2829.6,1389.761,2831.167,1375,2831.607,1353Z" transform="translate(-2781.651 -1353)"/>
      <path id="패스_4505" data-name="패스 4505" class="cls-25" d="M2865.353,1370.733h-25.821q-.358,4.212-.87,8.046h27.563Q2865.714,1374.94,2865.353,1370.733Z" transform="translate(-2797.736 -1364.115)"/>
      <path id="패스_4506" data-name="패스 4506" class="cls-26" d="M2847.186,1378.779h-8.524c.021-.158.04-.32.06-.479q.078-.6.152-1.2c.026-.212.051-.425.076-.638q.077-.651.15-1.312c.023-.2.044-.407.066-.612q.073-.683.141-1.378c.02-.2.039-.4.059-.6q.067-.712.131-1.438c.012-.13.024-.257.035-.388h7.987Q2847.382,1374.944,2847.186,1378.779Z" transform="translate(-2797.736 -1364.115)"/>
    </g>
  </g>
</svg>
