<svg xmlns="http://www.w3.org/2000/svg" width="48" height="21" viewBox="0 0 48 21">
    <g transform="translate(-443 -542)">
        <rect width="48" height="21" fill="#edf4fe" rx="10.5" transform="translate(443 542)"/>
        <path fill="#0933b3" d="M1.044 0h1.368v-4.68a2.254 2.254 0 0 1 1.62-.9c.78 0 1.116.456 1.116 1.6V0h1.38v-4.152c0-1.68-.624-2.616-2.028-2.616a3.145 3.145 0 0 0-2.184 1.08H2.28L2.172-6.6H1.044zm9.936.156a4 4 0 0 0 2.232-.7l-.48-.876a2.8 2.8 0 0 1-1.572.492A1.993 1.993 0 0 1 9.12-2.94h4.28a3.567 3.567 0 0 0 .06-.7c0-1.872-.936-3.132-2.688-3.132a3.2 3.2 0 0 0-3.012 3.48A3.17 3.17 0 0 0 10.98.156zM9.108-3.888a1.79 1.79 0 0 1 1.692-1.8c.96 0 1.476.66 1.476 1.8zM15.78 0h1.6l.8-3.252c.168-.624.288-1.236.42-1.92h.06c.144.684.264 1.284.42 1.908L19.92 0h1.656l1.7-6.6h-1.3l-.852 3.576c-.144.636-.252 1.248-.384 1.872h-.04c-.156-.624-.288-1.236-.444-1.872L19.308-6.6h-1.284L17.1-3.024c-.156.624-.288 1.248-.432 1.872h-.048c-.12-.624-.228-1.236-.36-1.872L15.384-6.6h-1.392z" transform="translate(455 556)"/>
    </g>
</svg>
