<svg xmlns="http://www.w3.org/2000/svg" width="262" height="200" viewBox="0 0 262 200">
  <defs>
    <style>
      .cls-1 {
        fill: #f6f6f6;
      }

      .cls-2 {
        fill: #c6c7cc;
      }
    </style>
  </defs>
  <g id="그룹_5664" data-name="그룹 5664" transform="translate(-380 -1041)">
    <rect id="사각형_6345" data-name="사각형 6345" class="cls-1" width="262" height="200" rx="10" transform="translate(380 1041)"/>
    <g id="그룹_5125" data-name="그룹 5125" transform="translate(459.293 1135.041)">
      <g id="그룹_5123" data-name="그룹 5123" transform="translate(0 0.021)">
        <path id="패스_5866" data-name="패스 5866" class="cls-2" d="M142.825,296.956c0,2.7-2.2,4.463-4.921,4.463h-6.4V286.178h5.966c2.656,0,4.812,1.72,4.812,4.355a3.815,3.815,0,0,1-1.328,2.983A3.935,3.935,0,0,1,142.825,296.956Zm-7.838-7.512v2.7h2.482a1.35,1.35,0,0,0,0-2.7Zm4.354,7.25a1.377,1.377,0,0,0-1.437-1.459h-2.917v2.918H137.9A1.377,1.377,0,0,0,139.341,296.694Z" transform="translate(-131.503 -285.873)"/>
        <path id="패스_5867" data-name="패스 5867" class="cls-2" d="M278.177,298.066v3.353H269.25V286.178h3.483v11.888Z" transform="translate(-239.03 -285.873)"/>
        <path id="패스_5868" data-name="패스 5868" class="cls-2" d="M316.3,289.531h-3.919v11.888H308.9V289.531h-3.919v-3.353H316.3Z" transform="translate(-266.918 -285.873)"/>
        <path id="패스_5869" data-name="패스 5869" class="cls-2" d="M366.324,300.9l-1.35-1.459a6.766,6.766,0,0,1-3.941,1.2c-3.135,0-5.443-1.72-5.443-4.594a5.16,5.16,0,0,1,2.438-4.376,4.627,4.627,0,0,1-.632-2.417c0-2.569,1.982-4.463,4.9-4.463a5.177,5.177,0,0,1,5.007,3.331l-2.983,1.72c-.392-1.023-1-1.655-1.981-1.655a1.322,1.322,0,0,0-1.459,1.285,3.259,3.259,0,0,0,1.2,2.155l2.809,3.114a11.491,11.491,0,0,0,.719-2.4L368.523,294a11.183,11.183,0,0,1-1.393,3.2l1.916,2.134Zm-3.484-3.789-2.787-3-.13-.131a2.147,2.147,0,0,0-.806,1.7c0,1.023.653,1.785,2.2,1.785A3.2,3.2,0,0,0,362.84,297.112Z" transform="translate(-306.428 -284.789)"/>
        <path id="패스_5870" data-name="패스 5870" class="cls-2" d="M436.835,286.178v15.241h-2.613l-5.879-8.274v8.274H424.86V286.178h2.613l5.878,8.274v-8.274Z" transform="translate(-360.501 -285.873)"/>
        <path id="패스_5871" data-name="패스 5871" class="cls-2" d="M562.218,289.531H558.3v11.888h-3.483V289.531H550.9v-3.353h11.322Z" transform="translate(-458.887 -285.873)"/>
        <g id="그룹_5122" data-name="그룹 5122" transform="translate(78.78 0.418)">
          <path id="패스_5872" data-name="패스 5872" class="cls-2" d="M495.416,298.485a1.977,1.977,0,0,1-1.206-1.815v-9.977h-3.617v10.334a5.026,5.026,0,0,0,4.823,5.007Z" transform="translate(-490.593 -286.693)"/>
          <path id="패스_5873" data-name="패스 5873" class="cls-2" d="M523.994,286.693v9.977a1.977,1.977,0,0,1-1.425,1.891v3.472a5.026,5.026,0,0,0,4.823-5.007V286.693Z" transform="translate(-515.554 -286.693)"/>
        </g>
      </g>
      <g id="그룹_5124" data-name="그룹 5124" transform="translate(12.357)">
        <path id="패스_5874" data-name="패스 5874" class="cls-2" d="M197.965,309.72A4.489,4.489,0,0,1,191.616,304l-2.6-2.339a7.89,7.89,0,0,0,11.546,10.4Z" transform="translate(-187.826 -297.941)"/>
        <path id="패스_5875" data-name="패스 5875" class="cls-2" d="M203.224,288.858a4.493,4.493,0,0,1,6.479,5.833l2.57,2.314a7.891,7.891,0,0,0-11.616-10.459Z" transform="translate(-197.842 -284.694)"/>
      </g>
    </g>
  </g>
</svg>
