<svg xmlns="http://www.w3.org/2000/svg" width="196" height="196" viewBox="0 0 196 196">
    <defs>
        <style>
            .cls-2{fill:#3959b5}.cls-2,.cls-7{isolation:isolate}.cls-10{fill:#f6f7f9}.cls-8{fill:#385486}
        </style>
    </defs>
    <g id="그룹_5075" transform="translate(-1066 -489)">
        <path id="패스_5858" fill="#c7cfda" fill-rule="evenodd" d="M3104.913 1723.251a1.827 1.827 0 1 1-3.333 1.495 3.646 3.646 0 0 1-2.478-1.351 3.813 3.813 0 0 1-5.021-.684 5.058 5.058 0 0 1-3.067-.335 5.619 5.619 0 0 1-8.957-.327 4.3 4.3 0 1 1 .554-7.122 5.621 5.621 0 0 1 7.034-.863 5.046 5.046 0 0 1 6.067-.593 4.4 4.4 0 0 1 8.335 1.906h.153a2.368 2.368 0 0 1 1.163 4.431 3.657 3.657 0 0 1-.451 3.448z" transform="translate(-2007.74 -1137.586)"/>
        <path id="사각형_6272" d="M0 0h17.68a2.849 2.849 0 0 1 2.849 2.849v55.3H0V0z" class="cls-2" transform="translate(1230.797 587.12)"/>
        <path id="사각형_6273" d="M0 0h18.271a2.85 2.85 0 0 1 2.85 2.85v55.469H0V0z" class="cls-2" transform="translate(1175.995 587.098)"/>
        <path id="사각형_6274" d="M0 0h17.823a2.85 2.85 0 0 1 2.85 2.85v55.174H0V0z" class="cls-2" transform="translate(1204.117 587.089)"/>
        <g id="그룹_5060" fill-rule="evenodd" transform="translate(1090.534 586.127)">
            <path id="패스_5859" fill="#f6f7f9" d="M3108.911 1728.6h6.583l1.927 59.207h-10.437z" transform="translate(-3106.984 -1728.596)"/>
            <path id="패스_5860" fill="#c1c8d2" d="M3115.958 1733.489l.133 4.094h-7.079l.133-4.094zm.256 7.88l.134 4.094h-7.593l.133-4.094zm.258 7.881l.133 4.094h-8.105l.133-4.094zm.256 7.88l.134 4.094h-8.618l.133-4.094z" transform="translate(-3107.334 -1729.956)"/>
        </g>
        <path id="패스_5861" fill="#bdc2c8" fill-rule="evenodd" d="M3145.34 1776.3l34.6-17.6v11.4l-34.6 17.6z" transform="translate(-2027.116 -1150.838)"/>
        <path id="사각형_6275" fill="#bdc2c8" d="M0 0H20.225V20.879H0z" transform="translate(1099.914 624.538)"/>
        <g id="그룹_5061" class="cls-7" transform="translate(1211.939 592.659)">
            <rect id="사각형_6276" width="1.843" height="13.313" class="cls-8" rx=".251"/>
            <rect id="사각형_6277" width="1.843" height="13.313" class="cls-8" rx=".251" transform="translate(3.27)"/>
            <rect id="사각형_6278" width="1.843" height="13.313" class="cls-8" rx=".243" transform="translate(6.773)"/>
        </g>
        <g id="그룹_5062" class="cls-7" transform="translate(1181.523 590.09)">
            <rect id="사각형_6279" width="1.843" height="13.313" class="cls-8" rx=".251"/>
            <rect id="사각형_6280" width="1.843" height="13.313" class="cls-8" rx=".251" transform="translate(3.27)"/>
            <rect id="사각형_6281" width="1.843" height="13.313" class="cls-8" rx=".243" transform="translate(6.773)"/>
        </g>
        <path id="패스_5862" d="M3187.838 1751.949l26.823-21.915a.447.447 0 0 1 .729.346v20.768a.447.447 0 0 0 .728.347l26.572-21.469a.447.447 0 0 1 .728.347v20.747a.446.446 0 0 0 .735.341l25.312-21.4a.447.447 0 0 1 .735.341v57.36a.446.446 0 0 1-.447.446h-81.631a.447.447 0 0 1-.447-.446v-35.466a.444.444 0 0 1 .163-.347z" transform="translate(-2038.888 -1142.838)" style="isolation:isolate" fill="#426edc"/>
        <path id="사각형_6282" d="M0 0H23.59V20.32H0z" class="cls-10" transform="translate(1168.678 625.049)"/>
        <path id="사각형_6283" fill="#cae8f6" d="M0 0H39.161V17.439H0z" transform="translate(1119.63 629.467)"/>
        <path id="패스_5863" fill="#2a276a" fill-rule="evenodd" d="M3086.723 1810.512h179.868c1.853 0 3.367.739 3.367 1.642 0 .9-1.514 1.642-3.367 1.642h-179.868c-1.852 0-3.366-.739-3.366-1.642 0-.903 1.515-1.642 3.366-1.642z" transform="translate(-2009.88 -1165.247)"/>
        <rect id="사각형_6284" width="42.742" height="3.27" fill="#99a2aa" rx=".381" transform="translate(1117.839 626.372)"/>
        <g id="그룹_5063" transform="translate(1161.048 613.026)">
            <rect id="사각형_6285" width="5.917" height="5.917" class="cls-10" rx=".203"/>
            <rect id="사각형_6286" width="5.917" height="5.917" class="cls-10" rx=".203" transform="translate(7.007)"/>
            <rect id="사각형_6287" width="5.917" height="5.917" class="cls-10" rx=".203" transform="translate(13.926)"/>
            <rect id="사각형_6288" width="5.917" height="5.917" class="cls-10" rx=".203" transform="translate(20.845)"/>
        </g>
        <g id="그룹_5064" transform="translate(1198.01 613.026)">
            <rect id="사각형_6289" width="5.917" height="5.917" class="cls-10" rx=".203"/>
            <rect id="사각형_6290" width="5.917" height="5.917" class="cls-10" rx=".203" transform="translate(7.007)"/>
            <rect id="사각형_6291" width="5.917" height="5.917" class="cls-10" rx=".203" transform="translate(13.926)"/>
            <rect id="사각형_6292" width="5.917" height="5.917" class="cls-10" rx=".203" transform="translate(20.845)"/>
        </g>
        <g id="그룹_5065" transform="translate(1198.01 622.09)">
            <rect id="사각형_6293" width="5.917" height="5.917" class="cls-10" rx=".203"/>
            <rect id="사각형_6294" width="5.917" height="5.917" class="cls-10" rx=".203" transform="translate(7.007)"/>
            <rect id="사각형_6295" width="5.917" height="5.917" class="cls-10" rx=".203" transform="translate(13.926)"/>
            <rect id="사각형_6296" width="5.917" height="5.917" class="cls-10" rx=".203" transform="translate(20.845)"/>
        </g>
        <g id="그룹_5066" class="cls-7" transform="translate(1237.345 592.659)">
            <rect id="사각형_6297" width="1.843" height="13.313" class="cls-8" rx=".251"/>
            <rect id="사각형_6298" width="1.843" height="13.313" class="cls-8" rx=".251" transform="translate(3.27)"/>
            <rect id="사각형_6299" width="1.843" height="13.313" class="cls-8" rx=".243" transform="translate(6.773)"/>
        </g>
        <g id="그룹_5067" class="cls-7" transform="translate(1237.345 608.308)">
            <rect id="사각형_6300" width="1.843" height="13.313" class="cls-8" rx=".251"/>
            <rect id="사각형_6301" width="1.843" height="13.313" class="cls-8" rx=".251" transform="translate(3.27)"/>
            <rect id="사각형_6302" width="1.843" height="13.313" class="cls-8" rx=".243" transform="translate(6.773)"/>
        </g>
        <path id="사각형_6303" fill="#385486" d="M0 0H9.317V19.035H0z" transform="translate(1236.878 626.334)" style="isolation:isolate"/>
        <path id="사각형_6306" fill="none" d="M0 0H196V196H0z" transform="translate(1066 489)"/>
    </g>
</svg>
