<svg xmlns="http://www.w3.org/2000/svg" width="30" height="30" viewBox="0 0 30 30">
    <g>
        <g>
            <path fill="#fae100" d="M0 0H21.976V9.298H0z" transform="translate(-691 -383) translate(-44.14 -52.975) translate(738.69 444.917)"/>
            <g>
                <path d="M76.01 74.579h1.485l-.742-2.109z" transform="translate(-691 -383) translate(-44.14 -52.975) translate(737 439) translate(-66.589 -63.488)"/>
                <path d="M12.89 0C5.771 0 0 4.55 0 10.163c0 3.629 2.413 6.817 6.042 8.612-.2.68-1.269 4.38-1.311 4.671 0 0-.026.218.115.3a.389.389 0 0 0 .307.019c.407-.057 4.71-3.075 5.453-3.594a16.306 16.306 0 0 0 2.283.155c7.119 0 12.89-4.55 12.89-10.163S20.009 0 12.89 0zM6.511 8.585c-.016 1.438.012 2.95-.011 4.365-.007.452-.268.587-.62.716a.233.233 0 0 1-.124.009c-.4-.079-.724-.223-.734-.724-.029-1.414.009-2.929-.011-4.366-.341-.014-.827.014-1.143 0a.7.7 0 0 1-.725-.723.682.682 0 0 1 .732-.721c1.163-.017 2.6-.017 3.765 0a.678.678 0 0 1 .731.721.7.7 0 0 1-.723.723c-.311.015-.795-.013-1.137 0zm6.246 5.015a1.145 1.145 0 0 1-.473.1.61.61 0 0 1-.62-.328l-.372-.964H9.029l-.372.964a.612.612 0 0 1-.62.328 1.135 1.135 0 0 1-.472-.1c-.206-.094-.4-.354-.177-1.056L9.172 7.86a1.115 1.115 0 0 1 .992-.734 1.124 1.124 0 0 1 .992.735l1.777 4.68c.226.703.029.969-.176 1.059zm3.758 0h-2.386a.7.7 0 0 1-.713-.682V7.87a.76.76 0 0 1 1.518 0v4.369h1.58a.683.683 0 1 1 0 1.363zm5.825-.56a.744.744 0 0 1-1.334.347l-1.744-2.309-.258.258v1.622a.744.744 0 1 1-1.487 0V7.875a.744.744 0 0 1 1.487 0v1.594l2.076-2.075a.575.575 0 0 1 .413-.166.754.754 0 0 1 .731.692.583.583 0 0 1-.162.452l-1.7 1.694 1.831 2.426a.744.744 0 0 1 .143.55z" transform="translate(-691 -383) translate(-44.14 -52.975) translate(737 439)"/>
            </g>
        </g>
        <path fill="none" d="M0 0H30V30H0z" transform="translate(-691 -383) translate(691 383)"/>
    </g>
</svg>
