<svg xmlns="http://www.w3.org/2000/svg" width="84" height="15" viewBox="0 0 84 15">
  <defs>
    <style>
      .cls-1 {
        fill: #0933b3;
      }
    </style>
  </defs>
  <g id="그룹_4918" data-name="그룹 4918" transform="translate(-487 -3709)">
    <path id="다각형_82" data-name="다각형 82" class="cls-1" d="M7.538,1.114a.5.5,0,0,1,.924,0l1.62,3.908a.5.5,0,0,0,.426.307l4.258.31a.5.5,0,0,1,.284.883L11.8,9.231a.5.5,0,0,0-.165.5l1.015,4.082a.5.5,0,0,1-.746.547L8.261,12.14a.5.5,0,0,0-.521,0L4.1,14.365a.5.5,0,0,1-.746-.547L4.365,9.736a.5.5,0,0,0-.165-.5L.951,6.522a.5.5,0,0,1,.284-.883l4.258-.31a.5.5,0,0,0,.426-.307Z" transform="translate(487 3709)"/>
    <path id="다각형_137" data-name="다각형 137" class="cls-1" d="M7.538,1.114a.5.5,0,0,1,.924,0l1.62,3.908a.5.5,0,0,0,.426.307l4.258.31a.5.5,0,0,1,.284.883L11.8,9.231a.5.5,0,0,0-.165.5l1.015,4.082a.5.5,0,0,1-.746.547L8.261,12.14a.5.5,0,0,0-.521,0L4.1,14.365a.5.5,0,0,1-.746-.547L4.365,9.736a.5.5,0,0,0-.165-.5L.951,6.522a.5.5,0,0,1,.284-.883l4.258-.31a.5.5,0,0,0,.426-.307Z" transform="translate(504 3709)"/>
    <path id="다각형_138" data-name="다각형 138" class="cls-1" d="M7.538,1.114a.5.5,0,0,1,.924,0l1.62,3.908a.5.5,0,0,0,.426.307l4.258.31a.5.5,0,0,1,.284.883L11.8,9.231a.5.5,0,0,0-.165.5l1.015,4.082a.5.5,0,0,1-.746.547L8.261,12.14a.5.5,0,0,0-.521,0L4.1,14.365a.5.5,0,0,1-.746-.547L4.365,9.736a.5.5,0,0,0-.165-.5L.951,6.522a.5.5,0,0,1,.284-.883l4.258-.31a.5.5,0,0,0,.426-.307Z" transform="translate(521 3709)"/>
    <path id="다각형_139" data-name="다각형 139" class="cls-1" d="M7.538,1.114a.5.5,0,0,1,.924,0l1.62,3.908a.5.5,0,0,0,.426.307l4.258.31a.5.5,0,0,1,.284.883L11.8,9.231a.5.5,0,0,0-.165.5l1.015,4.082a.5.5,0,0,1-.746.547L8.261,12.14a.5.5,0,0,0-.521,0L4.1,14.365a.5.5,0,0,1-.746-.547L4.365,9.736a.5.5,0,0,0-.165-.5L.951,6.522a.5.5,0,0,1,.284-.883l4.258-.31a.5.5,0,0,0,.426-.307Z" transform="translate(538 3709)"/>
    <path id="다각형_140" data-name="다각형 140" class="cls-1" d="M7.538,1.114a.5.5,0,0,1,.924,0l1.62,3.908a.5.5,0,0,0,.426.307l4.258.31a.5.5,0,0,1,.284.883L11.8,9.231a.5.5,0,0,0-.165.5l1.015,4.082a.5.5,0,0,1-.746.547L8.261,12.14a.5.5,0,0,0-.521,0L4.1,14.365a.5.5,0,0,1-.746-.547L4.365,9.736a.5.5,0,0,0-.165-.5L.951,6.522a.5.5,0,0,1,.284-.883l4.258-.31a.5.5,0,0,0,.426-.307Z" transform="translate(555 3709)"/>
  </g>
</svg>
