<svg xmlns="http://www.w3.org/2000/svg" width="750" height="460" viewBox="0 0 750 460">
    <defs>
        <filter id="사각형_5090" width="750" height="460" x="0" y="0" filterUnits="userSpaceOnUse">
            <feOffset dx="4" dy="5"/>
            <feGaussianBlur result="blur" stdDeviation="10"/>
            <feFlood flood-opacity=".161"/>
            <feComposite in2="blur" operator="in"/>
            <feComposite in="SourceGraphic"/>
        </filter>
        <filter id="패스_6569" width="59.313" height="24.094" x="206.938" y="158.781" filterUnits="userSpaceOnUse">
            <feOffset dy="1"/>
            <feGaussianBlur result="blur-2" stdDeviation="1.5"/>
            <feFlood flood-opacity=".251"/>
            <feComposite in2="blur-2" operator="in"/>
            <feComposite in="SourceGraphic"/>
        </filter>
        <filter id="패스_6570" width="59.313" height="24.094" x="263" y="158.781" filterUnits="userSpaceOnUse">
            <feOffset dy="1"/>
            <feGaussianBlur result="blur-3" stdDeviation="1.5"/>
            <feFlood flood-opacity=".251"/>
            <feComposite in2="blur-3" operator="in"/>
            <feComposite in="SourceGraphic"/>
        </filter>
        <filter id="패스_6573" width="59.313" height="24.094" x="150.875" y="158.781" filterUnits="userSpaceOnUse">
            <feOffset dy="1"/>
            <feGaussianBlur result="blur-4" stdDeviation="1.5"/>
            <feFlood flood-opacity=".251"/>
            <feComposite in2="blur-4" operator="in"/>
            <feComposite in="SourceGraphic"/>
        </filter>
        <filter id="패스_6576" width="750" height="83" x="0" y="0" filterUnits="userSpaceOnUse">
            <feOffset dx="4" dy="5"/>
            <feGaussianBlur result="blur-5" stdDeviation="10"/>
            <feFlood flood-opacity=".059"/>
            <feComposite in2="blur-5" operator="in"/>
            <feComposite in="SourceGraphic"/>
        </filter>
        <style>
            .cls-1{fill:#fff}.cls-2{fill:#1e2222}.cls-3{fill:#0933b3}.cls-4{fill:#e53c38}.cls-5{fill:#c7c7c7}.cls-6{fill:#505050}.cls-7{fill:#c6c7cc}.cls-8{fill:#414550}.cls-13{fill:none}
        </style>
    </defs>
    <g id="그룹_5308" transform="translate(-334 -2870)">
        <g id="그룹_5209" filter="url(#사각형_5090)" transform="translate(0 123) matrix(1, 0, 0, 1, 334, 2747)">
            <rect id="사각형_5090-2" width="690" height="400" class="cls-1" rx="10" transform="translate(26 25)"/>
        </g>
        <path id="패스_6575" d="M-189.84-21.149h-2.392v-3.392h2.392zm-3.577 0h-1.495v.966h7.751v-.966h-1.507v-3.392h1.53v-.959h-7.809v.955h1.529zm-2.311 2.806v.977h9.43v-.977zm15.583.057v-1.771h3.243v-.955h-6.222v-1.448h5.992v-3.289h-7.176v.955h6v1.394h-5.98v3.347h2.956v1.771h-4.094v.978h9.407v-.978zm9.3-5.566v.978h1.368v2.668h1.1v-6.049h-1.1v2.4zm.816 2.415a3.032 3.032 0 0 1-1.943-2.829v-.449h1.656v-.955h-4.6v.955h1.783v.449a3.291 3.291 0 0 1-2.047 3.048l.621.909a3.708 3.708 0 0 0 2.024-2.1 3.453 3.453 0 0 0 1.909 1.886zm-3.358 2.679h5.853v2.668h1.184v-3.622h-7.038zm5.911-7.716v6.336h1.127v-6.336zm10.994 5.485h-5.992v-1.426h5.681v-.931h-5.681v-1.334h5.911v-.954h-7.118v5.6h7.2zm-8.361 2.656v.966h9.419v-.966zm15.939-7.417a2.574 2.574 0 0 0-2.818 2.5 2.574 2.574 0 0 0 2.818 2.5 2.584 2.584 0 0 0 2.829-2.5 2.584 2.584 0 0 0-2.825-2.499zm0 1.012a1.5 1.5 0 0 1 1.667 1.483 1.51 1.51 0 0 1-1.663 1.485 1.506 1.506 0 0 1-1.656-1.483 1.5 1.5 0 0 1 1.656-1.483zm4-1.748v10.407h1.2v-10.406zm-7.153 8.211a36.148 36.148 0 0 0 6.613-.46l-.081-.863a47.476 47.476 0 0 1-6.681.345zm14.145-2.312h2.219v-.931h-4.3v-1.115h4.036v-2.91h-5.232v.931h4.071v1.092h-4.048v2.933h2.058v1.564c-.989.023-1.932.035-2.806.035l.149.977a41.759 41.759 0 0 0 6.613-.379l-.092-.874c-.862.1-1.76.161-2.668.2zm3.3-5.911v10.43h1.2V-26.5zm9.993 1.794h-5.854v2.335h7.211v-.831h-6.038v-.736h5.865v-2.284h-7.05v.816h5.877zm-4.773 6.889h5.98v-2.323h-7.176v.817h6v.736h-5.98v2.385h7.464v-.817h-6.29zm-2.288-3.9v.874h9.419v-.874zm21.16-4.75h-1.18v7.555h1.185zm-2.151 5.233a3.387 3.387 0 0 1-2.542-3.105v-.38h2.22v-.955h-5.681v.955h2.254v.38a3.542 3.542 0 0 1-2.576 3.3l.621.92a4.179 4.179 0 0 0 2.576-2.4 4.106 4.106 0 0 0 2.53 2.219zm-3.429 3.982v-2.35h-1.2v3.312h7.084v-.966zm13.9-5.543h1.081v2.864h1.127v-6.555h-1.127v2.714h-1.081v-2.519h-1.1v6.015h1.1zm-1.461-2.518h-2v-1.069h-1.161v1.069h-2.013v.931h5.175zm-3.738 3.174c0-.563.46-.931 1.161-.931s1.173.368 1.173.931-.483.932-1.173.932-1.162-.369-1.162-.933zm3.393 0c0-1.069-.92-1.794-2.231-1.794s-2.219.724-2.219 1.794.92 1.794 2.219 1.794 2.237-.713 2.237-1.795zm.564 5.152c-1.484 0-2.335-.334-2.335-.955s.851-.943 2.335-.943 2.323.322 2.323.943-.827.954-2.322.954zm0-2.795c-2.2 0-3.519.667-3.519 1.84s1.322 1.851 3.519 1.851 3.507-.678 3.507-1.851-1.309-1.84-3.506-1.84zm7.486.379c-.7 0-1.2-.563-1.2-1.426s.494-1.437 1.2-1.437 1.2.575 1.2 1.438-.497 1.426-1.198 1.426zm0-3.841a2.238 2.238 0 0 0-2.254 2.415 2.244 2.244 0 0 0 2.254 2.415 2.244 2.244 0 0 0 2.256-2.415 2.238 2.238 0 0 0-2.254-2.414zm.587-2.933h-1.173v1.391h-1.966v.955h5.083v-.955h-1.943zm4.6-.3v4.3h-1.1v-4.083h-1.1v9.683h1.1v-4.623h1.1v5.106h1.127v-10.381zm3.519 5.083a5.032 5.032 0 0 0 3.75-2.252 5.056 5.056 0 0 0 3.76 2.254l.426-.931c-1.978-.265-3.438-1.4-3.507-2.611h3.139v-.955h-7.647v.955h3.163c-.069 1.207-1.53 2.346-3.507 2.611zm8.453.759h-9.4v.955h4.071v3.6h1.185v-3.6h4.128zm4.083-4.887h-1.15v1.874a5.2 5.2 0 0 1-2.185 4.508l.725.9a5 5 0 0 0 2.047-2.979 4.737 4.737 0 0 0 1.921 2.748l.667-.92a5.021 5.021 0 0 1-2.025-4.311zm2.438 2.679h-1.53v.966h1.53v5.3h1.115v-9.706h-1.115zm2.116-3.634v10.384h1.127v-10.382zm5.934 5.888a5.954 5.954 0 0 0 1.311.138A5.324 5.324 0 0 0-61.6-20.6v2.265h-2.622zm1.311-4.358c1.564 0 2.657.69 2.657 1.782s-1.093 1.794-2.657 1.794-2.668-.69-2.668-1.794 1.093-1.781 2.669-1.781zm2.5 6.612v-2.7a2.4 2.4 0 0 0 1.315-2.128c0-1.656-1.61-2.714-3.818-2.714s-3.818 1.058-3.818 2.714a2.388 2.388 0 0 0 1.323 2.128v2.7h-2.2v.966h9.413v-.966zm4.232 1.507a.88.88 0 0 0 .885-.92.9.9 0 0 0-.885-.943.9.9 0 0 0-.885.943.88.88 0 0 0 .881.921z" class="cls-2" transform="translate(830.389 3000.381)"/>
        <g id="그룹_5211" transform="translate(696.896 2946.186)">
            <circle id="타원_709" cx="8.104" cy="8.104" r="8.104" class="cls-3" transform="translate(0 0)"/>
            <ellipse id="타원_1234" cx="1.158" cy=".579" class="cls-1" rx="1.158" ry=".579" transform="translate(3.473 8.104)"/>
            <ellipse id="타원_1235" cx="1.158" cy=".579" class="cls-1" rx="1.158" ry=".579" transform="translate(6.946 8.104)"/>
            <ellipse id="타원_1236" cx="1.158" cy=".579" class="cls-1" rx="1.158" ry=".579" transform="translate(10.419 8.104)"/>
        </g>
        <path id="패스_6566" d="M5.138-14.715H2.515v-.977h2.623zm.934-1.718H1.58v2.465h4.493zm-3.586 4.306h-.949v1.919h4.636v-.755H2.486zM.84-13.443v.748h2.609v1.128H4.4v-1.128h2.434v-.748zm8.567-2.832a1.684 1.684 0 0 0-1.818 1.632 1.68 1.68 0 0 0 1.818 1.632 1.686 1.686 0 0 0 1.826-1.632 1.69 1.69 0 0 0-1.826-1.631zm0 .812a.815.815 0 0 1 .9.819.815.815 0 0 1-.9.819.815.815 0 0 1-.9-.819.815.815 0 0 1 .9-.818zm2.444-1.258v6.641h.949v-6.64zm-4.42 5.3a21.337 21.337 0 0 0 4.118-.3l-.057-.683a29.771 29.771 0 0 1-4.183.216zm8.4-.086h3.651v1.423h.949v-2.178h-4.6zm1.006-4.2h2.623v.855h-2.628zm1.79 2.221v-.618h1.763v-2.343H15.9v2.343h1.775v.618h-2.51v.755h5.98v-.755zm6.965-.2a2.046 2.046 0 0 1-1.495-1.9h1.287v-.755H21.82v.755h1.3a2.15 2.15 0 0 1-1.56 2.02l.482.748a2.591 2.591 0 0 0 1.581-1.43 2.46 2.46 0 0 0 1.5 1.3zm-2.968 1.969h3.565v1.639h.949v-2.393h-4.52zm3.565-4.981v1.574h-.978v.762h.978v1.6h.949v-3.932z" class="cls-2" transform="translate(488.836 3034.728)"/>
        <path id="패스_6567" d="M1.7-12.135l.537-.627.537.627.336-.246-.42-.705.731-.311-.129-.395-.776.181-.071-.809h-.42l-.075.82-.776-.188-.129.395.731.311-.414.705z" class="cls-4" transform="translate(517.457 3032.533)"/>
        <path id="패스_6560" d="M1.078 0h429.094a1.078 1.078 0 0 1 1.078 1.078v12.938a1.078 1.078 0 0 1-1.078 1.078H1.078A1.078 1.078 0 0 1 0 14.016V1.078A1.078 1.078 0 0 1 1.078 0z" class="cls-1" transform="translate(489.375 3092.297)"/>
        <path id="사각형_5074_-_윤곽선" d="M1.078.359a.72.72 0 0 0-.719.719v12.938a.72.72 0 0 0 .719.719h429.094a.72.72 0 0 0 .719-.719V1.078a.72.72 0 0 0-.719-.719H1.078m0-.359h429.094a1.078 1.078 0 0 1 1.078 1.078v12.938a1.078 1.078 0 0 1-1.078 1.078H1.078A1.078 1.078 0 0 1 0 14.016V1.078A1.078 1.078 0 0 1 1.078 0z" class="cls-5" transform="translate(489.375 3092.297)"/>
        <path id="패스_6561" d="M4.878-12.349h-.442v3.536h.442zm-1.013 2.5a1.646 1.646 0 0 1-1.214-1.481v-.264h1.095v-.356H1.094v.356H2.2v.264A1.722 1.722 0 0 1 .975-9.756l.232.345A2.027 2.027 0 0 0 2.43-10.6a2.054 2.054 0 0 0 1.219 1.1zM2.209-7.988v-1.159h-.442v1.52h3.256v-.361zm6.566-2.69h.615v1.385h.426v-3.062H9.39v1.315h-.615v-1.218h-.42v2.792h.42zm-.609-1.1H7.158v-.539h-.437v.539H5.708v.35h2.458zm-1.86 1.429c0-.3.253-.5.636-.5s.636.2.636.5-.259.5-.636.5-.636-.198-.636-.5zm1.666 0c0-.5-.42-.825-1.03-.825s-1.035.329-1.035.825.426.83 1.035.83 1.03-.324 1.03-.83zm.253 2.485c-.739 0-1.181-.183-1.181-.5s.442-.507 1.181-.507 1.175.182 1.175.505-.441.502-1.175.502zm0-1.348c-1.008 0-1.617.3-1.617.846s.609.841 1.617.841 1.617-.3 1.617-.841-.609-.846-1.617-.846zm3.752.248a.725.725 0 0 1-.755-.744.726.726 0 0 1 .755-.749.728.728 0 0 1 .76.749.726.726 0 0 1-.76.744zm0-1.86a1.1 1.1 0 0 0-1.17 1.116 1.1 1.1 0 0 0 1.17 1.11 1.1 1.1 0 0 0 1.181-1.11 1.105 1.105 0 0 0-1.181-1.116zm.216-1.472h-.442v.717h-1.218v.356h2.852v-.356h-1.192zm2.884 1.93h-.792v-1.984h-.442v4.83h.442v-2.474h.792zm4.183-.534h-2.846v-1.278h-.442v1.639h3.288zm-2.879 1.85h-.442v1.412h3.348V-8h-2.906zm-1-.841v.356h4.383v-.356zm8.684.059h-1.2v-1.682h1.2zm-1.644 0h-.741v.361h3.563v-.361h-.739v-1.682h.749v-.356H21.67v.356h.749zm-1.14 1.326v.367h4.383v-.367zm7.234.027v-.911h1.547v-.356h-2.975v-.782h2.863V-12h-3.31v.361h2.879v.755h-2.868v1.494h1.418v.911H26.1v.361h4.393v-.361zm4.41-2.631v.361h.728v1.315h.42v-2.814h-.42v1.137zm.375 1.143a1.523 1.523 0 0 1-.943-1.364v-.27h.83v-.361h-2.143v.361h.889v.275a1.637 1.637 0 0 1-.981 1.472l.232.34a1.839 1.839 0 0 0 .97-1.078 1.747 1.747 0 0 0 .927.965zm-1.539 1.143h2.809v1.31h.442V-9.18h-3.251zm2.825-3.525V-9.4h.426v-2.954zm5.051 2.6h-2.874v-.765h2.717v-.35h-2.717v-.717h2.825v-.356h-3.272v2.547h3.321zM35.75-8.506v.361h4.388v-.361zm7.32-2.922h.863v-.361h-2.2v.361h.916v.437a2.523 2.523 0 0 1-1.051 2.172l.27.329a2.5 2.5 0 0 0 1-1.531 2.312 2.312 0 0 0 .97 1.412l.27-.323a2.343 2.343 0 0 1-1.03-2.059zm1.294.809h-.8v.361h.8v2.485h.42v-4.474h-.42zm.97-1.741v4.835h.426v-4.835zm1.628 3.671h2.906v1.175h.442v-1.531h-3.348zm.507-3.116h2.383v.938h-2.383zm1.418 1.9v-.615h1.4v-1.639h-3.249v1.639h1.407v.62h-1.973v.356h4.377V-9.9zm4.6-2.038c.792 0 1.245.183 1.245.507s-.453.507-1.245.507-1.245-.183-1.245-.507.451-.504 1.243-.504zm0 1.342c1.062 0 1.7-.291 1.7-.836s-.636-.841-1.7-.841-1.7.3-1.7.841.636.837 1.698.837zm-1.215 2.192h2.841V-9.5h-3.288v.334h2.852v.431h-2.836v1.159h3.418v-.345h-2.987zm-.976-1.86v.356h4.377v-.356zm9.428-2.081v2.593h.442v-2.593zM58.05-9.52v1.935h3.116v-1.934h-.436v.593h-2.242v-.593zm.437.938h2.243v.641h-2.242zm.081-3.542a1.142 1.142 0 0 0-1.256 1.11A1.14 1.14 0 0 0 58.568-9.9a1.147 1.147 0 0 0 1.267-1.116 1.149 1.149 0 0 0-1.267-1.107zm0 .367a.761.761 0 0 1 .836.744.762.762 0 0 1-.836.749.758.758 0 0 1-.825-.749.757.757 0 0 1 .825-.743zm6.011 1.682a10.921 10.921 0 0 1-1.919.113v-.733h1.64v-1.369h-2.087v.361h1.655v.668h-1.639V-9.6h.345a11.162 11.162 0 0 0 2.048-.119zm-1.811 1.316h2.792v1.245H66V-9.12h-3.232zm2.792-3.59v.712h-.943v.361h.943v.647h-.943v.356h.943v.895H66v-2.97zm2.485 3.342a.667.667 0 0 1-.641-.739.663.663 0 0 1 .641-.728.666.666 0 0 1 .641.728.67.67 0 0 1-.641.739zm0-1.838a1.029 1.029 0 0 0-1.035 1.1 1.028 1.028 0 0 0 1.035 1.105 1.028 1.028 0 0 0 1.035-1.106 1.029 1.029 0 0 0-1.035-1.099zm.216-1.369h-.437v.685h-.981v.361h2.4v-.361h-.981zm2.259-.146v2.043h-.62v-1.93h-.415v4.49h.415v-2.2h.62v2.431h.426v-4.834zM72.1-10a2.444 2.444 0 0 0 1.757-1.105A2.433 2.433 0 0 0 75.619-10l.173-.35c-.852-.124-1.687-.679-1.687-1.315v-.035h1.515v-.356h-3.532v.356h1.526v.027c0 .636-.836 1.191-1.676 1.315zm3.941.4h-4.363v.361h1.952v1.72h.442v-1.72h1.978zm1.887-2.3h-.426v.922a2.455 2.455 0 0 1-1.062 2.086l.275.334a2.476 2.476 0 0 0 1-1.488 2.363 2.363 0 0 0 .954 1.38l.253-.345a2.351 2.351 0 0 1-1-1.984zm1.272 1.281h-.8v.367h.8v2.5h.415v-4.49H79.2zm.981-1.736v4.835h.42v-4.835zm2.652 2.711a2.882 2.882 0 0 0 .668.075 2.978 2.978 0 0 0 .679-.075v1.137h-1.343zm.668-2.059c.776 0 1.337.356 1.337.895s-.561.895-1.337.895-1.331-.356-1.331-.895.559-.892 1.335-.892zm1.121 3.2v-1.31a1.1 1.1 0 0 0 .636-.992c0-.755-.728-1.24-1.757-1.24s-1.757.485-1.757 1.24a1.1 1.1 0 0 0 .647 1v1.3h-1.074v.367h4.393v-.367zm1.984.658a.356.356 0 0 0 .356-.372.366.366 0 0 0-.352-.383.366.366 0 0 0-.356.383.356.356 0 0 0 .356.369zm4.436 0a1.742 1.742 0 0 0 .97-.3l-.178-.323a1.262 1.262 0 0 1-.733.232.97.97 0 0 1-.97-1.024h1.973a1.915 1.915 0 0 0 .022-.28c0-.836-.42-1.375-1.164-1.375a1.416 1.416 0 0 0-1.321 1.542 1.4 1.4 0 0 0 1.406 1.525zm-.916-1.768a.9.9 0 0 1 .841-.911c.458 0 .728.318.728.911zm2.129 1.7h.518l.394-.685c.1-.178.2-.356.3-.523h.033c.108.167.216.345.313.523l.431.685h.539L93.818-9.4l.889-1.45H94.2l-.361.647c-.086.162-.173.323-.264.485h-.022c-.1-.162-.2-.323-.291-.485l-.394-.647h-.528l.889 1.4zm3 1.062a5.011 5.011 0 0 0 .8-2.738 4.993 4.993 0 0 0-.8-2.733l-.3.14a5.034 5.034 0 0 1 .69 2.593A5.02 5.02 0 0 1 94.961-7zm4.517-3.11h-1.361v-.884h1.369zm.439-2.039h-.431v.809h-1.369V-12h-.437v2.393h2.237zM98.96-9.142h-.442v1.515h3.224v-.361H98.96zm2.566-1.747v-1.461h-.442v3.55h.442v-1.714h.717v-.372zm1.687.7h1.666v-1.73h-2.113v.356h1.676v1.013h-1.666v1.91h.367a12.959 12.959 0 0 0 2.135-.146l-.038-.367a12.3 12.3 0 0 1-2.027.146zm2.922-2.172v1.105h-.954v.361h.954v.965h-.986v.361h.986v2.054h.442v-4.845zm3.477 4.5c-.765 0-1.213-.189-1.213-.528s.447-.528 1.213-.528 1.2.189 1.2.528-.445.525-1.2.525zm0-1.4c-1.035 0-1.66.313-1.66.873s.625.873 1.66.873 1.65-.313 1.65-.873-.626-.878-1.65-.878zm.221-.7v-.561h1.455v-.356h-2.873v-.895h2.841v-.356h-3.283v1.606h1.418v.561h-1.968v.356h4.377v-.356zm5.784-1.105h-2.372v-.771h2.372zm.437-1.121h-3.24v1.472h3.24zm.566 2.232v-.356h-4.377v.356h1.968v.474h-1.439v.334h2.852v.431h-2.835v1.148h3.411v-.345h-2.986V-8.4h2.841v-1.087h-1.407v-.474zm3.148-1.978h-.437v.868a2.582 2.582 0 0 1-1.251 2.178l.275.356a2.7 2.7 0 0 0 1.2-1.612 2.613 2.613 0 0 0 1.175 1.5L121-9a2.4 2.4 0 0 1-1.229-2.07zm2.868 1.175v-.367h-.771v-1.224h-.442v4.83h.442v-1.817h.771V-9.7h-.771v-1.062zm1.892-1.008c.469 0 .8.248.8.609s-.329.615-.8.615-.8-.243-.8-.615.331-.615.8-.615zm0 1.563c.717 0 1.213-.383 1.213-.954s-.5-.949-1.213-.949-1.213.383-1.213.949.496.948 1.213.948zm1.606.243a23.491 23.491 0 0 1-3.18.156l.054.372c.383 0 .819-.005 1.278-.022v1.8h.442v-1.827a14.37 14.37 0 0 0 1.434-.151zm.367-2.383v3.3h-1.094v.345h1.093v1.191h.442v-4.835zm1.579.517v.356h1.82a3.2 3.2 0 0 1-2.038 2.7l.237.361a3.621 3.621 0 0 0 2.248-3.412zm3.24-.523v4.835h.442v-4.835z" class="cls-5" transform="translate(495.938 3109.918)"/>
        <path id="패스_6565" d="M1.7-12.135l.537-.627.537.627.336-.246-.42-.705.731-.311-.129-.395-.776.181-.071-.809h-.42l-.075.82-.776-.188-.129.395.731.311-.414.705z" class="cls-4" transform="translate(530.395 3092.908)"/>
        <path id="패스_6562" d="M4.518-13.4H3.167v-1.984h1.351zm-2.293 0h-.862v.755h4.974v-.755H5.46v-1.984h.9v-.755H1.327v.755h.9zM.86-11.631v.769h5.994v-.769zm9.9.036v-.985h2.005v-.762H8.924v-.74h3.687v-2.207H7.976v.755h3.7v.712H7.983v2.243h1.825v.985H7.293v.776h5.994v-.782zm5.707-3.486v.769h.7v1.6h.884v-3.881h-.884v1.509zm.517 1.5A1.76 1.76 0 0 1 15.81-15.3v-.18h.963v-.755h-2.925v.755h1.042v.18a1.9 1.9 0 0 1-1.251 1.847l.482.726a2.206 2.206 0 0 0 1.236-1.186 2.053 2.053 0 0 0 1.157 1.071zm-2.171 1.9h3.608v1.6h.949v-2.343h-4.559zm3.658-5.031v4.032h.9v-4.032zm7.042 3.412h-3.687v-.74h3.486v-.733h-3.486v-.7h3.637v-.762h-4.6v3.68h4.65zm-5.355 1.675v.769h5.994v-.769zm9.983-3.658h.959v-.769h-2.942v.769h1.064v.323a3.347 3.347 0 0 1-1.308 2.933l.561.7a3.073 3.073 0 0 0 1.214-1.773 2.714 2.714 0 0 0 1.179 1.617l.553-.69a3.053 3.053 0 0 1-1.279-2.782zm1.344.827h-.841v.769h.841v3.287h.884v-6.2h-.884zm1.337-2.264v6.62h.9v-6.62zm2.314 5.211h3.651v1.423h.949v-2.178h-4.6zm1.006-4.2h2.623v.855h-2.622zm1.79 2.221v-.618H39.7v-2.343h-4.491v2.343h1.775v.618h-2.508v.755h5.98v-.755z" class="cls-2" transform="translate(488.824 3095.102)"/>
        <path id="패스_6544" d="M1.078 0h429.094a1.078 1.078 0 0 1 1.078 1.078v12.938a1.078 1.078 0 0 1-1.078 1.078H1.078A1.078 1.078 0 0 1 0 14.016V1.078A1.078 1.078 0 0 1 1.078 0z" class="cls-1" transform="translate(489.375 3241.797)"/>
        <path id="사각형_6103_-_윤곽선" d="M1.078.359a.72.72 0 0 0-.719.719v12.938a.72.72 0 0 0 .719.719h429.094a.72.72 0 0 0 .719-.719V1.078a.72.72 0 0 0-.719-.719H1.078m0-.359h429.094a1.078 1.078 0 0 1 1.078 1.078v12.938a1.078 1.078 0 0 1-1.078 1.078H1.078A1.078 1.078 0 0 1 0 14.016V1.078A1.078 1.078 0 0 1 1.078 0z" class="cls-5" transform="translate(489.375 3241.797)"/>
        <path id="패스_6545" d="M4.037-10.631a11.339 11.339 0 0 1-2.145.2v-1.693h-.437v2.065h.377a11.284 11.284 0 0 0 2.259-.216zm.5 2.7H2.355v-.641h2.178zm0-1H2.355v-.641h-.436v1.995H4.97v-1.992h-.437zm1.159-2.334h-.721v-1.075h-.447v2.512h.447v-1.067h.717zm.636-.561v.356h1.813a3.2 3.2 0 0 1-2.038 2.7l.237.361a3.621 3.621 0 0 0 2.248-3.412zm3.24-.523v4.839h.442v-4.835zm5.267 0h-.442v2.48h.442zm-3.428 1.251a.748.748 0 0 1 .819-.717.745.745 0 0 1 .819.717.744.744 0 0 1-.819.712.747.747 0 0 1-.824-.708zm2.07 0a1.126 1.126 0 0 0-1.251-1.078 1.122 1.122 0 0 0-1.245 1.078 1.117 1.117 0 0 0 1.245 1.067 1.122 1.122 0 0 0 1.246-1.063zM12.15-7.925v-.534h2.685v-1.17H11.7v.35h2.7v.491h-2.687v1.213H15v-.35zm8.151-.8h.447v-3.615H20.3v1.132h-1.056v.367H20.3zm-.712-1.143a1.734 1.734 0 0 1-1.17-1.569v-.615h-.442v.6a1.824 1.824 0 0 1-1.207 1.684l.232.35a2.106 2.106 0 0 0 1.2-1.261 2.032 2.032 0 0 0 1.154 1.148zM18.08-7.979v-1.148h-.442v1.509h3.224v-.361zm5.773-2.178a7.6 7.6 0 0 1-1.628.129v-.658h1.385v-.34h-1.385v-.609h1.439v-.356H21.8v2.323h.307A8.252 8.252 0 0 0 23.9-9.8zM22.419-8.8h2.809v1.29h.442v-1.65h-3.251zm2.825-3.536v1.256H24.6v-1.17h-.42v2.809h.42v-1.278h.647v1.31h.426v-2.931z" class="cls-5" transform="translate(504.975 3259.409)"/>
        <path id="패스_6546" d="M4.037-10.717a11.339 11.339 0 0 1-2.145.2v-1.693h-.437v2.065h.377a11.284 11.284 0 0 0 2.259-.216zm.5 2.7H2.355v-.641h2.178zm0-1H2.355v-.641h-.436v1.995H4.97v-1.992h-.437zm1.159-2.334h-.721v-1.078h-.447v2.512h.447v-1.067h.717zm.636-.561v.356h1.813a3.2 3.2 0 0 1-2.038 2.7l.237.361a3.621 3.621 0 0 0 2.248-3.412zm3.24-.523V-7.6h.442v-4.835zm5.267 0h-.442v2.48h.442zm-3.428 1.251a.748.748 0 0 1 .819-.717.745.745 0 0 1 .819.717.744.744 0 0 1-.819.712.747.747 0 0 1-.824-.709zm2.07 0a1.126 1.126 0 0 0-1.251-1.078 1.122 1.122 0 0 0-1.245 1.078 1.117 1.117 0 0 0 1.245 1.067 1.122 1.122 0 0 0 1.246-1.064zM12.15-8.011v-.534h2.685v-1.17H11.7v.35h2.7v.491h-2.687v1.213H15v-.35zm7.331-3.935h-1.11v-.534h-.442v.534h-1.154v.356h2.706zm-2.016 1.466c0-.323.275-.534.679-.534s.679.21.679.534-.275.534-.679.534-.679-.211-.679-.534zm1.774 0c0-.523-.453-.868-1.094-.868s-1.095.348-1.095.868.447.868 1.094.868 1.095-.345 1.095-.868zm1.073 2.469h-2.259v-.512h2.259zm0-.852h-2.259v-.5h-.437v1.7h3.132v-1.7h-.437zm-.012-3.563v1.126h-.814v.356h.814v.582h-.819V-10h.819v.426h.447v-2.852zm2.857.35a1.171 1.171 0 0 0-1.294 1.137A1.174 1.174 0 0 0 23.158-9.8a1.171 1.171 0 0 0 1.294-1.137 1.168 1.168 0 0 0-1.294-1.139zm0 .377a.781.781 0 0 1 .862.76.784.784 0 0 1-.862.76.784.784 0 0 1-.862-.76.781.781 0 0 1 .863-.761zm1.93-.733v4.846h.442v-4.846zm-3.412 3.785a17.276 17.276 0 0 0 3.132-.21l-.038-.329a21.772 21.772 0 0 1-3.148.167zm5-3.267v.367h1.774a3.289 3.289 0 0 1-2 2.69l.243.345a3.635 3.635 0 0 0 2.194-3.4zm4.237 1.445h-.776v-1.962h-.442V-7.6h.442v-2.5h.776zm1.66-1.445v.367h1.774a3.289 3.289 0 0 1-2 2.69l.243.345a3.635 3.635 0 0 0 2.194-3.4zm4.237 1.445h-.779v-1.962h-.442V-7.6h.442v-2.5h.776zm4.2-.615h-2.838v-1.245h-.442v1.6h3.283zm-1.69 3.127c-.76 0-1.208-.2-1.208-.534s.447-.539 1.208-.539 1.208.194 1.208.539-.454.534-1.208.534zm0-1.418c-1.03 0-1.655.318-1.655.884s.625.879 1.655.879 1.655-.318 1.655-.879-.626-.884-1.655-.884zm-2.178-.792v.361h4.372v-.361zm7.687-1.768H43.62v-.544h-.442v.544h-1.2v.356h2.852zm-2.162 1.429c0-.313.291-.512.733-.512s.739.2.739.512-.3.512-.739.512-.733-.195-.733-.513zm1.892 0c0-.512-.469-.841-1.159-.841s-1.154.329-1.154.841.464.846 1.154.846 1.159-.33 1.159-.847zm.717 2.49h-2.167v-.534h2.167zm0-.879h-2.167v-.512h-.437v1.747h3.04v-1.747h-.437zm1.154-2.305h-.717v-1.229h-.442v2.809h.442v-1.21h.717zm1.1-.76h-.442v3.116h.4a11.487 11.487 0 0 0 2.372-.226l-.049-.377a11.423 11.423 0 0 1-2.28.226zm2.776-.469V-7.6h.442v-4.83zm1.951.83h1.806v-.367h-2.248v3.175h.386a11.462 11.462 0 0 0 2.286-.173l-.049-.367a11.752 11.752 0 0 1-2.178.162zm3.87 1.078h-.8v-1.908h-.442v4.846h.442v-2.571h.8zm.771 2.6a.356.356 0 0 0 .356-.372.366.366 0 0 0-.353-.387.366.366 0 0 0-.356.383.356.356 0 0 0 .356.372z" class="cls-6" transform="translate(498.506 3274.59)"/>
        <path id="패스_6549" d="M5.064-15.908H3.548v-.726H2.6v.726H1.1v.74h3.964zm-1.251 2.257c0 .345-.295.532-.726.532s-.733-.187-.733-.532.295-.539.733-.539.726.19.726.539zm-2.357 0c0 .74.676 1.251 1.632 1.251s1.624-.51 1.624-1.251-.676-1.258-1.624-1.258-1.632.503-1.632 1.258zm-.381 2.422a22 22 0 0 0 4.147-.259l-.065-.69A32.917 32.917 0 0 1 .96-12zM5.5-16.713v6.62h.949v-6.62zm4.277 2.7H8.478v-1.473h1.294zm.934-2.221h-3.16v2.968h3.155zm-.3 5.412c-.841 0-1.3-.18-1.3-.568s.46-.568 1.3-.568 1.294.187 1.294.568-.46.564-1.305.564zm0-1.876c-1.373 0-2.242.489-2.242 1.308s.87 1.315 2.242 1.315 2.235-.489 2.235-1.315-.876-1.31-2.246-1.31zm2.163-2.53v-1.481h-.949v3.838h.949v-1.574h.877v-.783zm6.418.762a14.67 14.67 0 0 1-2.53.259v-2.221h-.949v3h.561a15.294 15.294 0 0 0 3.026-.28zm.525 3.551h-2.464v-.611h2.458zm0-1.344h-2.464v-.661h-.942v2.76h4.341v-2.76h-.942zm1.818-3.1h-.877v-1.351H19.5v3.472h.949v-1.344h.877zm.712-.668v.755h2.207a3.875 3.875 0 0 1-2.559 3.313l.5.747a4.829 4.829 0 0 0 3.033-4.816zm4.19-.69v6.62h.956v-6.62zm7.374.007h-.961v3.31h.956zm-4.485 1.7a.764.764 0 0 1 .855-.748.752.752 0 0 1 .841.748.748.748 0 0 1-.841.747.76.76 0 0 1-.86-.746zm2.616 0a1.6 1.6 0 0 0-1.761-1.509 1.611 1.611 0 0 0-1.781 1.51 1.612 1.612 0 0 0 1.775 1.517 1.6 1.6 0 0 0 1.762-1.517zm-1.6 4.1v-.417h3.464v-1.8h-4.414v.726h3.472v.4H29.2v1.833h4.571v-.74z" class="cls-2" transform="translate(488.76 3233.102)"/>
        <path id="패스_6547" d="M0 0h7.188v7.188H0z" class="cls-1" transform="translate(489.375 3260.844)"/>
        <path id="사각형_6105_-_윤곽선" d="M.359.359v6.469h6.469V.359H.359M0 0h7.188v7.188H0z" class="cls-7" transform="translate(489.375 3260.844)"/>
        <path id="패스_6548" d="M3.815-10.559H2.533v-1.794h1.282zm-1.754 0h-.788v.385h3.8v-.385h-.787v-1.794h.8v-.38H1.262v.38h.8zM.848-9.144v.391h4.675v-.391zm7.716.029v-.972h1.65v-.379H7.041v-.834h3.053v-1.57H6.563v.385h3.07v.805H6.575v1.593h1.512v.972h-2.1v.385h4.686v-.385zm4.7-2.806v.385h.776v1.4h.449v-3h-.449v1.213zm.4 1.219a1.625 1.625 0 0 1-1.006-1.455v-.288h.885v-.385h-2.282v.385h.949v.293a1.746 1.746 0 0 1-1.046 1.57l.247.362a1.961 1.961 0 0 0 1.035-1.15 1.864 1.864 0 0 0 .989 1.029zm-1.638 1.218h3v1.4h.471v-1.779h-3.471zm3.013-3.761v3.151h.454v-3.151zm5.388 2.777h-3.065v-.817h2.9v-.374h-2.9v-.765h3.013v-.376h-3.49v2.714h3.542zm-4.146 1.324v.385h4.681v-.385zm7.808-3.116h.92v-.385h-2.351v.385h.978v.466a2.691 2.691 0 0 1-1.121 2.317l.287.351a2.67 2.67 0 0 0 1.064-1.633A2.466 2.466 0 0 0 24.9-9.254l.288-.345a2.5 2.5 0 0 1-1.1-2.2zm1.38.863h-.851v.385h.851v2.651h.448v-4.772h-.447zm1.031-1.859V-8.1h.454v-5.158zm4.186 1.633h-1.278V-12.7h1.282zm-1.754 0h-.759v.379h3.743v-.379h-.759V-12.7h.782v-.38h-3.778v.38h.776zm2.421 3.082h-2.6V-9.4h2.6zm1.029-1.834v-.379h-4.659v.379h2.1v.6H28.3v1.61h3.519v-1.61h-1.525v-.6zm4.076-1.025h-2.507v-.667h2.507zm.466-1.685h-.466v.656h-2.507v-.656h-.466v2.058h3.439zm-3 3.473h-.466v1.4h3.565v-.385h-3.1zm-1.064-.914v.379H35v1h.472v-1h2.07v-.379zm6.532.851c-.5 0-.851-.546-.851-1.386s.351-1.368.851-1.368.845.54.845 1.368-.352 1.388-.847 1.388zm0-3.18c-.759 0-1.3.7-1.3 1.794s.54 1.806 1.3 1.806 1.294-.7 1.294-1.806-.537-1.792-1.296-1.792zm3.416 1.294v-.391h-.822v-1.294h-.472v5.152h.472v-1.932h.822v-.391h-.822v-1.144zm1.524 1.9c-.414 0-.673-.523-.673-1.368 0-.828.259-1.351.673-1.351s.668.522.668 1.35c0 .845-.268 1.368-.671 1.368zm1.742-1.581h-.65c-.057-.972-.472-1.575-1.093-1.575-.673 0-1.1.69-1.1 1.788 0 1.115.431 1.806 1.1 1.806.632 0 1.052-.621 1.093-1.633h.65v2.513h.448v-4.79h-.448zM47.1-13.25v5.158h.448v-5.158zm3.634 3.571a.711.711 0 0 1-.684-.788.708.708 0 0 1 .684-.776.711.711 0 0 1 .684.776.715.715 0 0 1-.689.788zm0-1.961a1.1 1.1 0 0 0-1.1 1.173 1.1 1.1 0 0 0 1.1 1.179 1.1 1.1 0 0 0 1.1-1.179 1.1 1.1 0 0 0-1.105-1.173zm.23-1.46h-.466v.73h-1.051v.385h2.559v-.385h-1.047zm2.409-.155v2.179h-.661v-2.058h-.443v4.79h.443v-2.346h.661v2.59h.454v-5.158zm4.221 2.1a10.291 10.291 0 0 1-2.294.178v-1.495h1.811v-.38h-2.282v2.26h.4a11.238 11.238 0 0 0 2.409-.178zm-.627 2.679c-.765 0-1.236-.23-1.236-.609S56.2-9.7 56.962-9.7s1.231.23 1.231.609-.472.614-1.231.614zm0-1.6c-1.047 0-1.7.368-1.7.989s.655.989 1.7.989 1.7-.368 1.7-.989-.667-.989-1.705-.989zm1.645-1.834v-1.34h-.482v3.071h.477v-1.34h.759v-.391zm2.651 2.277a.773.773 0 0 1-.805-.793.775.775 0 0 1 .805-.8.776.776 0 0 1 .811.8.775.775 0 0 1-.816.793zm0-1.984a1.176 1.176 0 0 0-1.248 1.19 1.168 1.168 0 0 0 1.248 1.184 1.171 1.171 0 0 0 1.259-1.184 1.179 1.179 0 0 0-1.264-1.19zm.23-1.57h-.471v.765h-1.3v.379h3.042v-.379h-1.276zm3.076 2.059h-.845v-2.116h-.472v5.152h.472v-2.639h.845zm4.462-.569H65.99v-1.363h-.472v1.748h3.508zm-3.076 1.972h-.471v1.507h3.571V-8.6h-3.1zm-1.07-.9v.38h4.675v-.38zm9.355-2.047h-1.287v-.628h-.471v.627H71.2v.379h3.042zm-2.306 1.547c0-.333.316-.552.782-.552s.788.219.788.552-.316.558-.788.558-.781-.216-.781-.555zm2.018 0c0-.552-.5-.909-1.236-.909s-1.23.357-1.23.909.495.914 1.23.914 1.238-.354 1.238-.911zm-.384 2.665c-.753 0-1.213-.2-1.213-.529s.46-.529 1.213-.529 1.213.2 1.213.529-.459.529-1.213.529zm0-1.42c-1.041 0-1.679.322-1.679.891s.638.891 1.679.891 1.679-.328 1.679-.891-.647-.891-1.679-.891zm1.616-1.938v-1.432h-.471v3.318h.471v-1.495h.765v-.391zm1.662 2.478h3.1v1.254h.471v-1.633h-3.571zm.541-3.323h2.541v1h-2.542zm1.512 2.03v-.656h1.5v-1.748h-3.473v1.748h1.5v.656h-2.1v.379h4.669v-.379zm6.687-1.259h-3.019v-.808h2.967v-.38H82.1v1.564h3.49zm-3.076 2.84h3.03v-1.213h-3.508v.365h3.042v.5H82.05v1.248h3.65v-.368h-3.19zM81.475-11.1v.385h4.669v-.385zm7.475-1.708c.845 0 1.328.2 1.328.541s-.483.54-1.328.54-1.328-.2-1.328-.54.478-.54 1.328-.54zm0 1.432c1.133 0 1.811-.311 1.811-.891s-.678-.9-1.811-.9-1.811.316-1.811.9.678.892 1.811.892zm-1.294 2.335h3.03V-10.2h-3.507v.357h3.041v.46H87.2v1.233h3.645v-.368h-3.189zm-1.041-1.984v.38h4.669v-.38zm10.068 1.633h.477v-3.853h-.477v1.208h-1.127v.391h1.127zm-.759-1.219a1.85 1.85 0 0 1-1.248-1.673v-.656h-.472v.638a1.945 1.945 0 0 1-1.288 1.8l.247.374a2.246 2.246 0 0 0 1.282-1.345 2.167 2.167 0 0 0 1.231 1.225zm-1.61 2.018v-1.224h-.471v1.61h3.438v-.385zm6.158-2.323a8.1 8.1 0 0 1-1.736.138v-.7h1.478v-.362h-1.478v-.65h1.535v-.38h-1.99v2.478h.328a8.8 8.8 0 0 0 1.909-.144zm-1.529 1.444h3v1.38h.472v-1.76h-3.472zm3.013-3.772v1.34h-.69v-1.248h-.449v3h.449v-1.363h.69v1.4h.454v-3.122zm2.524 3.565a.711.711 0 0 1-.684-.788.708.708 0 0 1 .684-.776.711.711 0 0 1 .684.776.715.715 0 0 1-.684.788zm0-1.961a1.1 1.1 0 0 0-1.1 1.173 1.1 1.1 0 0 0 1.1 1.179 1.1 1.1 0 0 0 1.1-1.179 1.1 1.1 0 0 0-1.1-1.173zm.23-1.46h-.466v.73H103.2v.385h2.559v-.385h-1.049zm2.409-.155v2.179h-.661v-2.058h-.443v4.79h.443v-2.346h.661v2.59h.454v-5.158zm1.69 2.513a2.607 2.607 0 0 0 1.875-1.179 2.6 2.6 0 0 0 1.875 1.179l.184-.374c-.908-.132-1.8-.724-1.8-1.4v-.029h1.616v-.38h-3.766v.38h1.627v.029c0 .679-.891 1.271-1.788 1.4zm4.2.431h-4.657v.385h2.081v1.834h.471v-1.834h2.11zm2.012-2.45h-.454v.983a2.618 2.618 0 0 1-1.133 2.225l.293.357a2.641 2.641 0 0 0 1.07-1.587 2.521 2.521 0 0 0 1.018 1.472l.27-.368a2.508 2.508 0 0 1-1.064-2.116zm1.357 1.363h-.851v.391h.851v2.662h.443v-4.79h-.443zm1.047-1.852v5.158h.449v-5.158zm2.829 2.892a3.074 3.074 0 0 0 .713.08 3.176 3.176 0 0 0 .725-.08v1.213h-1.437zm.713-2.2c.828 0 1.426.38 1.426.955s-.6.955-1.426.955-1.42-.38-1.42-.955.596-.951 1.424-.951zm1.2 3.41v-1.4a1.169 1.169 0 0 0 .679-1.058c0-.805-.776-1.323-1.875-1.323S119.1-12.4 119.1-11.6a1.179 1.179 0 0 0 .69 1.064v1.392h-1.15v.391h4.686v-.391zm2.116.7a.38.38 0 0 0 .38-.4.39.39 0 0 0-.38-.408.39.39 0 0 0-.379.408.38.38 0 0 0 .379.405z" class="cls-6" transform="translate(489.191 3242.768)"/>
        <path id="패스_6563" d="M1.7-12.135l.537-.627.537.627.336-.246-.42-.705.731-.311-.129-.395-.776.181-.071-.809h-.42l-.075.82-.776-.188-.129.395.731.311-.414.705z" class="cls-4" transform="translate(517.457 3148.611)"/>
        <path id="패스_6564" d="M5.064-15.908H3.548v-.726H2.6v.726H1.1v.74h3.964zm-1.251 2.257c0 .345-.295.532-.726.532s-.733-.187-.733-.532.295-.539.733-.539.726.19.726.539zm-2.357 0c0 .74.676 1.251 1.632 1.251s1.624-.51 1.624-1.251-.676-1.258-1.624-1.258-1.632.503-1.632 1.258zm-.381 2.422a22 22 0 0 0 4.147-.259l-.065-.69A32.917 32.917 0 0 1 .96-12zM5.5-16.713v6.62h.949v-6.62zm4.277 2.7H8.478v-1.473h1.294zm.934-2.221h-3.16v2.968h3.155zm-.3 5.412c-.841 0-1.3-.18-1.3-.568s.46-.568 1.3-.568 1.294.187 1.294.568-.46.564-1.305.564zm0-1.876c-1.373 0-2.242.489-2.242 1.308s.87 1.315 2.242 1.315 2.235-.489 2.235-1.315-.876-1.31-2.246-1.31zm2.163-2.53v-1.481h-.949v3.838h.949v-1.574h.877v-.783zm5.563 2.02a5.775 5.775 0 0 0 .036-.633 4.58 4.58 0 0 0-.043-.647h.582v1.279zm-1.394.884c-.374 0-.589-.5-.589-1.517s.216-1.509.589-1.509.582.5.582 1.509-.225 1.513-.588 1.513zm1.969-2.925h-.762a1.315 1.315 0 0 0-1.207-.992c-.884 0-1.438.906-1.438 2.4s.553 2.408 1.438 2.408a1.332 1.332 0 0 0 1.215-1.006h.755v2.039h.884v-6.2h-.884zm1.315-1.466v6.62h.9v-6.62zm5.613 3.148a2.051 2.051 0 0 1-1.517-2.02v-.719h-.963v.712a2.166 2.166 0 0 1-1.581 2.149l.5.74a2.575 2.575 0 0 0 1.574-1.43 2.474 2.474 0 0 0 1.495 1.308zm-2.063 1.243h-.949v2.12h4.492v-.755h-3.548zm3.313-2.465v-1.919h-.949v4.844h.949v-2.146h.877v-.783z" class="cls-2" transform="translate(488.76 3150.805)"/>
        <path id="패스_6550" d="M3.577-9.909h-1.2v-1.682h1.2zm-1.644 0h-.739v.361h3.563v-.361h-.738v-1.682h.749v-.356H1.183v.356h.749zM.8-8.583v.367h4.378v-.367zm7.234.027v-.911h1.542v-.356H6.6v-.777h2.863v-1.472h-3.31v.361h2.879v.755H6.164v1.493h1.418v.911H5.614v.361h4.393v-.361zm4.41-2.631v.361h.728v1.316h.42v-2.814h-.42v1.137zm.377 1.143a1.523 1.523 0 0 1-.943-1.364v-.27h.83v-.361h-2.151v.361h.889v.275a1.637 1.637 0 0 1-.981 1.472l.232.34a1.839 1.839 0 0 0 .97-1.078 1.747 1.747 0 0 0 .933.969zM11.274-8.9h2.809v1.31h.442v-1.666h-3.251zm2.826-3.526v2.954h.426v-2.954zm5.051 2.6h-2.874v-.765h2.717v-.35h-2.717v-.717H19.1v-.356h-3.271v2.544h3.321zm-3.887 1.24v.361h4.388v-.361zm7.983-1.204a3.519 3.519 0 0 0 .043-.555 3.519 3.519 0 0 0-.043-.555h.653v1.11zm-.992.722c-.383 0-.631-.491-.631-1.278s.248-1.272.631-1.272.631.491.631 1.272-.243 1.278-.631 1.278zm1.65-2.194h-.749a.968.968 0 0 0-.9-.765c-.625 0-1.03.647-1.03 1.682s.4 1.687 1.03 1.687a.973.973 0 0 0 .9-.765h.744v1.59h.42v-4.49h-.42zm.949-1.17V-7.6h.42v-4.835zM28.81-10a1.693 1.693 0 0 1-1.191-1.531v-.609h-.442v.6a1.757 1.757 0 0 1-1.208 1.66l.232.35a2.006 2.006 0 0 0 1.208-1.229 2.034 2.034 0 0 0 1.181 1.11zm-1.623.8h-.442v1.5h3.207v-.361h-2.764zm2.555-1.747v-1.488H29.3v3.574h.442v-1.72h.717v-.367zm2.545 1.367a2.605 2.605 0 0 0 1.8-1.3 2.571 2.571 0 0 0 1.806 1.28l.178-.356c-.841-.135-1.763-.8-1.763-1.569v-.1h1.6v-.361h-3.66v.361h1.6v.1c0 .771-.916 1.445-1.752 1.585zm2.016 1v-1.17h-.442v1.17h-1.973v.367h4.388v-.367zm4.597-3.463c.792 0 1.245.183 1.245.507s-.453.507-1.245.507-1.245-.183-1.245-.507.454-.507 1.245-.507zm0 1.342c1.067 0 1.7-.291 1.7-.836s-.631-.841-1.7-.841-1.7.3-1.7.841.634.837 1.7.837zm.539 1.127h-1.1v-.48h1.1zm1.644-.48v-.356h-4.37v.356H37.9v.48h-.658v.334h2.846v.431h-2.836v1.159h3.418v-.345h-2.987v-.491h2.841v-1.088h-.652v-.48zm3.973-2.377v4.846h.442v-4.846zm-2.108.372c-.717 0-1.229.658-1.229 1.687s.512 1.687 1.229 1.687 1.229-.658 1.229-1.687-.516-1.688-1.233-1.688zm0 .4c.469 0 .8.507.8 1.288s-.334 1.294-.8 1.294-.809-.507-.809-1.294.331-1.29.805-1.29zm4.749-.253v.367h1.774a3.289 3.289 0 0 1-2 2.69l.243.345a3.635 3.635 0 0 0 2.194-3.4zm4.237 1.445h-.776v-1.962h-.442V-7.6h.442v-2.5h.776zm4.2-.615h-2.84v-1.245h-.442v1.6h3.283zm-1.691 3.125c-.76 0-1.208-.2-1.208-.534s.447-.539 1.208-.539 1.208.194 1.208.539-.451.534-1.208.534zm0-1.418c-1.03 0-1.655.318-1.655.884s.625.879 1.655.879S56.1-7.93 56.1-8.491s-.628-.884-1.657-.884zm-2.178-.792v.361h4.372v-.361zm7.687-1.768h-1.208v-.544H58.3v.544h-1.2v.356h2.852zm-2.162 1.428c0-.313.291-.512.733-.512s.739.2.739.512-.3.512-.739.512-.733-.194-.733-.512zm1.892 0c0-.512-.469-.841-1.159-.841s-1.154.329-1.154.841.464.846 1.154.846 1.159-.329 1.159-.846zm.717 2.49h-2.167v-.533H60.4zm0-.879h-2.167v-.512H57.8v1.747h3.04v-1.746h-.44zm1.154-2.304h-.717v-1.229h-.442v2.809h.442v-1.21h.717zm1.1-.76h-.443v3.116h.4a11.487 11.487 0 0 0 2.372-.226l-.049-.377a11.423 11.423 0 0 1-2.28.226zm2.776-.469V-7.6h.442v-4.83zm1.951.83h1.806v-.367h-2.248v3.175h.383a11.462 11.462 0 0 0 2.286-.173l-.049-.367a11.752 11.752 0 0 1-2.178.162zm3.87 1.078h-.8v-1.908h-.442v4.846h.442v-2.571h.8zm.771 2.6a.356.356 0 0 0 .356-.372.366.366 0 0 0-.356-.383.366.366 0 0 0-.356.383.356.356 0 0 0 .356.368z" class="cls-6" transform="translate(498.928 3180.793)"/>
        <path id="패스_6551" d="M2.366-9.732a3.519 3.519 0 0 0 .043-.555 3.519 3.519 0 0 0-.043-.555h.658v1.11zm-.992.722c-.382 0-.63-.49-.63-1.278s.248-1.272.631-1.272.631.491.631 1.272-.243 1.278-.631 1.278zm1.65-2.19h-.749a.968.968 0 0 0-.9-.765c-.625 0-1.03.647-1.03 1.682S.749-8.6 1.375-8.6a.973.973 0 0 0 .9-.765h.749v1.59h.42v-4.49h-.42zm.949-1.17v4.835h.42v-4.835zM7.93-9.943a1.693 1.693 0 0 1-1.191-1.531v-.609H6.3v.6a1.757 1.757 0 0 1-1.208 1.66l.232.35A2.006 2.006 0 0 0 6.528-10.7a2.034 2.034 0 0 0 1.181 1.11zm-1.623.8h-.442v1.5h3.207v-.361H6.307zm2.555-1.747v-1.488H8.42v3.574h.442v-1.72h.717v-.367zm2.544.69a2.345 2.345 0 0 0 1.79-.857 2.333 2.333 0 0 0 1.784.857l.14-.334c-.916-.092-1.65-.464-1.687-1h1.5v-.35h-1.516v-.5h-.442v.5H11.46v.35h1.493c-.038.539-.771.911-1.682 1zm.086 1.493H14.4v1.17h.442v-1.52h-3.349zm-.485-1.224v.356h4.372v-.356zm7.407-1.186v.361h.954v1.266h.447v-2.879h-.447v1.251zm.27 1.1a1.665 1.665 0 0 1-1.175-1.483v-.167h1.062v-.356h-2.582v.356h1.078v.167a1.782 1.782 0 0 1-1.218 1.612l.232.35a2.093 2.093 0 0 0 1.219-1.224 1.986 1.986 0 0 0 1.164 1.089zm-.464 2.134c-.728 0-1.17-.2-1.17-.555S17.493-9 18.22-9s1.17.21 1.17.561-.442.556-1.17.556zm0-1.455c-.992 0-1.612.329-1.612.9s.62.9 1.612.9 1.606-.329 1.606-.9-.614-.901-1.606-.901zm5.951-3.035v4.846h.442v-4.846zM22.064-12c-.717 0-1.229.658-1.229 1.687s.512 1.687 1.229 1.687 1.229-.658 1.229-1.687S22.781-12 22.064-12zm0 .4c.469 0 .8.507.8 1.288s-.334 1.294-.8 1.294-.809-.507-.809-1.294.334-1.288.809-1.288zm5.784 2.582c-.464 0-.787-.507-.787-1.294s.323-1.288.787-1.288.782.507.782 1.288-.324 1.291-.782 1.291zm2.252-3.356v1.844h-1.055c-.07-.906-.544-1.472-1.2-1.472-.706 0-1.207.658-1.207 1.687s.5 1.687 1.207 1.687c.674 0 1.154-.593 1.2-1.542H30.1v2.641h.442v-4.846zm1.9 2.167h1.666v-1.73h-2.12v.356h1.676v1.013h-1.665v1.908h.367a12.959 12.959 0 0 0 2.135-.146l-.038-.367a12.3 12.3 0 0 1-2.027.146zm2.922-2.172v1.105h-.954v.361h.954v.965h-.986v.361h.986v2.054h.442v-4.846zm3.466.555c.739 0 1.24.275 1.24.7s-.5.706-1.24.706-1.234-.275-1.234-.706.494-.7 1.227-.7zm0 1.763c1.008 0 1.693-.41 1.693-1.062s-.685-1.057-1.693-1.057-1.687.41-1.687 1.057.678 1.062 1.68 1.062zm2.2.458H36.2v.367h1.96v1.7h.44v-1.7h1.978zM45-12.374h-.442v3.547H45zm-1.057 2.41a1.794 1.794 0 0 1-1.208-1.65v-.486h-.442v.491a1.884 1.884 0 0 1-1.213 1.736l.232.361a2.169 2.169 0 0 0 1.208-1.294 2.084 2.084 0 0 0 1.191 1.2zm-1.616 1.957v-1.149h-.442v1.509h3.256v-.361zm3.784-3.849v.367h1.774a3.289 3.289 0 0 1-2 2.69l.243.345a3.635 3.635 0 0 0 2.194-3.4zm4.237 1.445h-.776v-1.962h-.442v4.835h.442v-2.507h.776zm1.844.749a2.882 2.882 0 0 0 .668.075 2.978 2.978 0 0 0 .679-.075v1.137h-1.347zm.668-2.059c.776 0 1.337.356 1.337.895s-.561.895-1.337.895-1.331-.356-1.331-.895.555-.896 1.331-.896zm1.121 3.2v-1.31a1.1 1.1 0 0 0 .636-.992c0-.755-.728-1.24-1.757-1.24s-1.757.485-1.757 1.24a1.1 1.1 0 0 0 .647 1v1.3h-1.078v.367h4.393v-.367zm2.194-.6h.437c-.1-.846.873-1.164.873-1.957a.922.922 0 0 0-1.008-.96 1.346 1.346 0 0 0-1.03.5l.28.259a.919.919 0 0 1 .7-.345.546.546 0 0 1 .582.582c-.003.63-.957.975-.833 1.913zm.232 1.261a.357.357 0 0 0 .361-.372.366.366 0 0 0-.361-.383.366.366 0 0 0-.356.383.356.356 0 0 0 .357.365zM0-7.219h57.771v.359H0z" class="cls-3" transform="translate(504.109 3194.391)"/>
        <path id="패스_6552" d="M1.078 0h71.156a1.078 1.078 0 0 1 1.078 1.078V13.3a1.078 1.078 0 0 1-1.078 1.078H1.078A1.078 1.078 0 0 1 0 13.3V1.078A1.078 1.078 0 0 1 1.078 0z" class="cls-1" transform="translate(489.375 3148)"/>
        <path id="사각형_6110_-_윤곽선" d="M1.078.359a.72.72 0 0 0-.719.719V13.3a.72.72 0 0 0 .719.719h71.156a.72.72 0 0 0 .719-.719V1.078a.72.72 0 0 0-.719-.719H1.078m0-.359h71.156a1.078 1.078 0 0 1 1.078 1.078V13.3a1.078 1.078 0 0 1-1.078 1.078H1.078A1.078 1.078 0 0 1 0 13.3V1.078A1.078 1.078 0 0 1 1.078 0z" class="cls-7" transform="translate(489.375 3148)"/>
        <path id="패스_6553" d="M1.078 0h72.953a1.078 1.078 0 0 1 1.078 1.078V13.3a1.078 1.078 0 0 1-1.078 1.078H1.078A1.078 1.078 0 0 1 0 13.3V1.078A1.078 1.078 0 0 1 1.078 0z" class="cls-1" transform="translate(579.938 3148)"/>
        <path id="사각형_6112_-_윤곽선" d="M1.078.359a.72.72 0 0 0-.719.719V13.3a.72.72 0 0 0 .719.719h72.953a.72.72 0 0 0 .719-.719V1.078a.72.72 0 0 0-.719-.719H1.078m0-.359h72.953a1.078 1.078 0 0 1 1.078 1.078V13.3a1.078 1.078 0 0 1-1.078 1.078H1.078A1.078 1.078 0 0 1 0 13.3V1.078A1.078 1.078 0 0 1 1.078 0z" class="cls-7" transform="translate(579.938 3148)"/>
        <path id="패스_6554" d="M2.1-7.582c.8 0 1.311-.73 1.311-2.2s-.511-2.17-1.311-2.17-1.316.707-1.316 2.174S1.3-7.582 2.1-7.582zM2.1-8c-.482 0-.8-.536-.8-1.778s.322-1.748.805-1.748.8.517.8 1.748S2.578-8 2.1-8z" class="cls-8" transform="translate(494.623 3165.36)"/>
        <path id="패스_6555" d="M2.1-7.582c.8 0 1.311-.73 1.311-2.2s-.511-2.17-1.311-2.17-1.316.707-1.316 2.174S1.3-7.582 2.1-7.582zM2.1-8c-.482 0-.8-.536-.8-1.778s.322-1.748.805-1.748.8.517.8 1.748S2.578-8 2.1-8z" class="cls-8" transform="translate(585.186 3164.642)"/>
        <path id="패스_6556" d="M2.251-5.48a.848.848 0 0 0 .7-.5l-.262-.186c-.126.241-.267.342-.428.342-.317 0-.558-.473-1-.473a.848.848 0 0 0-.7.5l.257.181c.131-.241.272-.342.433-.342.315 0 .549.478 1 .478z" class="cls-8" transform="translate(569.516 3161.38)"/>
        <path id="패스_6557" d="M3.062-8.855v.307h.916v.463h.412v-3.436h-.412v2.667zm-.921-2.179c.428 0 .719.191.719.478s-.292.483-.719.483-.719-.191-.719-.483.291-.478.719-.478zm0 1.268c.659 0 1.112-.307 1.112-.79s-.453-.785-1.112-.785-1.112.312-1.112.785.453.79 1.112.79zM1.98-8.247h.413v-.891c.408-.025.825-.07 1.223-.131l-.035-.3a24.515 24.515 0 0 1-2.908.131l.055.342c.372 0 .8-.005 1.253-.025zm-.252.8v-.976h-.412v1.313h3.19v-.337z" class="cls-8" transform="translate(658.93 3164.726)"/>
        <path id="패스_5434" d="M12611.873-6736.555a.356.356 0 0 1-.253-.1l-2.516-2.516a.357.357 0 0 1 0-.508.358.358 0 0 1 .508 0l2.261 2.261 2.263-2.261a.357.357 0 0 1 .507 0 .358.358 0 0 1 0 .508l-2.516 2.516a.356.356 0 0 1-.254.1z" class="cls-7" transform="translate(-12056.016 9893.359)"/>
        <path id="패스_5437" d="M12611.873-6736.555a.356.356 0 0 1-.253-.1l-2.516-2.516a.357.357 0 0 1 0-.508.358.358 0 0 1 .508 0l2.261 2.261 2.263-2.261a.357.357 0 0 1 .507 0 .358.358 0 0 1 0 .508l-2.516 2.516a.356.356 0 0 1-.254.1z" class="cls-7" transform="translate(-11963.656 9893.359)"/>
        <path id="패스_6558" d="M0 0h7.188v7.188H0z" class="cls-1" transform="translate(489.375 3167.047)"/>
        <path id="사각형_6100_-_윤곽선" d="M.359.359v6.469h6.469V.359H.359M0 0h7.188v7.188H0z" class="cls-7" transform="translate(489.375 3167.047)"/>
        <path id="패스_6559" fill="#f6f6f6" d="M5.211 0A5.211 5.211 0 1 1 0 5.211 5.211 5.211 0 0 1 5.211 0z" transform="translate(489.375 3179.266)"/>
        <path id="타원_951_-_윤곽선" fill="#e1e2e4" d="M5.211.359A4.852 4.852 0 0 0 1.78 8.642 4.852 4.852 0 1 0 8.642 1.78 4.82 4.82 0 0 0 5.211.359m0-.359A5.211 5.211 0 1 1 0 5.211 5.211 5.211 0 0 1 5.211 0z" transform="translate(489.375 3179.266)"/>
        <path id="패스_1" d="M-499.891 282.394a1.03 1.03 0 0 1-1.1 1.017h-1.437v-3.473h1.34a1.006 1.006 0 0 1 1.08.992.875.875 0 0 1-.3.68.9.9 0 0 1 .417.784zm-1.76-1.711v.615h.557a.286.286 0 0 0 .216-.087.3.3 0 0 0 .083-.22.293.293 0 0 0-.082-.221.284.284 0 0 0-.216-.086zm.977 1.652a.316.316 0 0 0-.088-.239A.307.307 0 0 0-501 282h-.655v.665h.655a.307.307 0 0 0 .234-.093.316.316 0 0 0 .088-.239z" class="cls-3" transform="translate(995.76 2902.922)"/>
        <path id="패스_6568" fill="#86888c" d="M2.028-6.39l.287-.136a4.638 4.638 0 0 1-.644-2.42 4.651 4.651 0 0 1 .644-2.42l-.287-.134a4.7 4.7 0 0 0-.74 2.551 4.716 4.716 0 0 0 .74 2.559zm1.016-3.29a2.124 2.124 0 0 0 1.665-.92 2.132 2.132 0 0 0 1.665.921l.146-.327c-.79-.091-1.509-.478-1.545-.976h1.4v-.332H3.044v.332h1.4c-.035.5-.755.885-1.545.976zm2.787 1.871c0 .3-.423.478-1.127.478s-1.127-.176-1.127-.478.418-.473 1.127-.473 1.127.171 1.127.473zm.916-1.268v-.332h-4.08v.332H4.5v.483c-.84.04-1.338.317-1.338.785 0 .513.584.795 1.55.795s1.54-.282 1.54-.795c0-.468-.493-.745-1.333-.785v-.483zm.875.991h2.712v1.077h.413v-1.409H7.622zm.493-2.5h2.194v.523H8.115zm1.3 1.389v-.538h1.3v-1.685h-.408v.513H8.115v-.513h-.407v1.685h1.3v.538H7.165v.337h4.085v-.337zm6.556 1.047h.418v-3.371h-.418v1.057h-.986v.342h.986zm-.661-1.063a1.618 1.618 0 0 1-1.092-1.464v-.574h-.413v.558a1.7 1.7 0 0 1-1.127 1.575l.216.327a1.965 1.965 0 0 0 1.122-1.177A1.9 1.9 0 0 0 15.094-8.9zM13.9-7.447v-1.071h-.413v1.408H16.5v-.337zm5.39-2.032a7.09 7.09 0 0 1-1.519.121v-.614h1.293v-.317H17.77v-.569h1.343v-.332h-1.74v2.168h.287a7.7 7.7 0 0 0 1.67-.126zm-1.339 1.263h2.621v1.208h.413v-1.54h-3.034zm2.636-3.3v1.172h-.6v-1.092h-.392v2.621h.392v-1.192h.6v1.223h.4v-2.732zm2.334.478v.342h1.655a3.07 3.07 0 0 1-1.867 2.511l.226.322a3.393 3.393 0 0 0 2.048-3.175zm3.955 1.348h-.724v-1.831h-.412v4.513h.413v-2.34h.724zm3.924-.574h-2.65v-1.162h-.413v1.494H30.8zm-1.58 2.918c-.709 0-1.127-.186-1.127-.5s.418-.5 1.127-.5 1.127.181 1.127.5-.421.5-1.125.5zm0-1.323c-.961 0-1.545.3-1.545.825s.584.82 1.545.82 1.545-.3 1.545-.82-.583-.825-1.543-.825zm-2.033-.74v.337h4.08v-.337zm4.731 3.019a4.677 4.677 0 0 0 .745-2.556 4.66 4.66 0 0 0-.745-2.551l-.282.131a4.7 4.7 0 0 1 .644 2.42 4.686 4.686 0 0 1-.644 2.42z" transform="translate(524.848 3031.397)"/>
        <g filter="url(#패스_6569)" transform="matrix(1, 0, 0, 1, 334, 2870)">
            <path id="패스_6569-2" d="M7.547 0h35.219a7.547 7.547 0 0 1 0 15.094H7.547A7.547 7.547 0 0 1 7.547 0z" class="cls-1" transform="translate(211.44 162.28)"/>
        </g>
        <path id="사각형_3065_-_윤곽선" d="M7.547.359a7.189 7.189 0 0 0-2.8 13.81 7.142 7.142 0 0 0 2.8.565h35.219a7.189 7.189 0 0 0 2.8-13.81 7.142 7.142 0 0 0-2.8-.565H7.547m0-.359h35.219a7.547 7.547 0 0 1 0 15.094H7.547A7.547 7.547 0 0 1 7.547 0z" class="cls-3" transform="translate(545.438 3032.281)"/>
        <g filter="url(#패스_6570)" transform="matrix(1, 0, 0, 1, 334, 2870)">
            <path id="패스_6570-2" d="M7.547 0h35.219a7.547 7.547 0 0 1 0 15.094H7.547A7.547 7.547 0 0 1 7.547 0z" class="cls-1" transform="translate(267.5 162.28)"/>
        </g>
        <path id="사각형_3066_-_윤곽선" d="M7.547.359a7.189 7.189 0 0 0-2.8 13.81 7.142 7.142 0 0 0 2.8.565h35.219a7.189 7.189 0 0 0 2.8-13.81 7.142 7.142 0 0 0-2.8-.565H7.547m0-.359h35.219a7.547 7.547 0 0 1 0 15.094H7.547A7.547 7.547 0 0 1 7.547 0z" class="cls-3" transform="translate(601.5 3032.281)"/>
        <path id="패스_6571" d="M4.475-11.025v.728H3.2v.361h1.275v1.154h.447v-3.6h-.447v.992H3.392a2.315 2.315 0 0 0 .081-.61h-2.2v.356H3A2.545 2.545 0 0 1 1.02-9.72l.194.361a3.22 3.22 0 0 0 2.054-1.666zM2.308-8.017v-1.116h-.442v1.477h3.175v-.361zm6.307-2.005A1.665 1.665 0 0 1 7.44-11.5v-.194H8.5v-.361H5.92v.361H7v.194a1.757 1.757 0 0 1-1.22 1.585l.232.35a2.049 2.049 0 0 0 1.213-1.208 2 2 0 0 0 1.17 1.094zm-2.1 1.154H9.3v1.326h.442v-1.683H6.513zM9.3-12.383v1.261h-.943v.361H9.3v1.272h.442v-2.895zm3.876 2.711a2.882 2.882 0 0 0 .668.075 2.978 2.978 0 0 0 .679-.075v1.137h-1.347zm.668-2.059c.776 0 1.337.356 1.337.895s-.561.895-1.337.895-1.331-.356-1.331-.895.555-.895 1.331-.895zm1.121 3.2v-1.31a1.1 1.1 0 0 0 .636-.992c0-.755-.728-1.24-1.757-1.24s-1.757.485-1.757 1.24a1.1 1.1 0 0 0 .647 1v1.3h-1.078v.367h4.393v-.367zm4.091-2.474v.367h.965v1.191h.447v-2.932h-.447v1.375zM19.348-10a1.542 1.542 0 0 1-1.213-1.358v-.092H19.2v-.35h-1.065v-.6h-.442v.6H16.62v.356h1.073v.092a1.641 1.641 0 0 1-1.2 1.482l.216.34a1.926 1.926 0 0 0 1.213-1.127 1.961 1.961 0 0 0 1.218 1zm-.48 2.1c-.728 0-1.164-.2-1.164-.544s.437-.539 1.164-.539 1.175.2 1.175.539-.436.544-1.175.544zm0-1.429c-.992 0-1.606.323-1.606.884s.615.889 1.606.889 1.617-.323 1.617-.889-.614-.882-1.617-.882z" class="cls-3" transform="translate(559.877 3049.932)"/>
        <path id="패스_6572" d="M4.471-7.93H2.256v-.625h2.215zm0-.97H2.256v-.61h-.437v1.935h3.094V-9.51h-.442zM2.25-10.248A.762.762 0 0 1 1.425-11a.758.758 0 0 1 .825-.749.758.758 0 0 1 .825.749.762.762 0 0 1-.825.752zm2.216-2.092v1.148h-.987a1.151 1.151 0 0 0-1.229-.927A1.137 1.137 0 0 0 1-11a1.138 1.138 0 0 0 1.25 1.119 1.153 1.153 0 0 0 1.234-.949h.981v1.084h.447v-2.594zm2.7 1.251h.895v-.367h-.895v-.717h-.425v.717h-.895v.367h.895v.232A2.391 2.391 0 0 1 5.716-8.83l.259.329a2.382 2.382 0 0 0 .981-1.439 2.259 2.259 0 0 0 .992 1.34l.252-.338a2.2 2.2 0 0 1-1.04-1.919zm1.3.652h-.739v.367h.739v2.307h.42v-4.469h-.42zm.97-1.908v4.83h.426v-4.83zm6.377 1.845c-.879-.129-1.741-.728-1.741-1.4v-.27h-.464v.27c0 .69-.852 1.272-1.73 1.4l.178.356a2.477 2.477 0 0 0 1.784-1.132 2.537 2.537 0 0 0 1.79 1.132zm.21.879h-4.366v.367h1.951V-7.5h.442v-1.756h1.978zm2.059.544h-1.013v-1.278h1.013zm0-1.628h-1.013v-1.181h-.42v3.164H18.5v-3.164h-.415zm2.081-1.639v1.914h-.652v-1.806H19.1v4.49h.415v-2.324h.652v2.56h.42v-4.835z" class="cls-3" transform="translate(615.949 3049.894)"/>
        <g filter="url(#패스_6573)" transform="matrix(1, 0, 0, 1, 334, 2870)">
            <path id="패스_6573-2" d="M7.547 0h35.219a7.547 7.547 0 0 1 0 15.094H7.547A7.547 7.547 0 0 1 7.547 0z" class="cls-1" transform="translate(155.38 162.28)"/>
        </g>
        <path id="패스_6574" d="M3.549-10.109a1.641 1.641 0 0 1-1.17-1.491v-.534h-.442v.5a1.769 1.769 0 0 1-1.2 1.66l.232.35a2.021 2.021 0 0 0 1.2-1.224 2.029 2.029 0 0 0 1.148 1.084zM2.972-7.9c-.717 0-1.154-.2-1.154-.534s.437-.539 1.154-.539 1.148.2 1.148.539-.436.534-1.148.534zm0-1.418c-.986 0-1.6.318-1.6.884s.609.879 1.6.879 1.59-.318 1.59-.879-.609-.882-1.59-.882zm1.536-1.817v-1.245h-.442v2.927h.442v-1.315h.717v-.367zm3.87.69a10.222 10.222 0 0 1-2.135.162V-11.7h1.688v-.356H5.8v2.145h.38a10.409 10.409 0 0 0 2.248-.173zM6.729-9.036H8.9v1.062H6.729zM6.3-7.618h3.033v-1.768H6.3zm3.75-3.582h-.717v-1.186h-.442v2.744h.442v-1.191h.717zm2.943 1.531a2.882 2.882 0 0 0 .668.075 2.978 2.978 0 0 0 .679-.075v1.137h-1.347zm.668-2.059c.776 0 1.337.356 1.337.895s-.561.895-1.337.895-1.331-.356-1.331-.895.555-.898 1.332-.898zm1.121 3.2v-1.31a1.1 1.1 0 0 0 .636-.992c0-.755-.728-1.24-1.757-1.24s-1.757.485-1.757 1.24a1.1 1.1 0 0 0 .647 1v1.3h-1.078v.367h4.393v-.367zm4.091-2.474v.367h.965v1.191h.447v-2.932h-.447v1.375zM19.166-10a1.542 1.542 0 0 1-1.213-1.358v-.092h1.067v-.35h-1.067v-.6h-.442v.6h-1.073v.356h1.073v.092a1.641 1.641 0 0 1-1.2 1.482l.216.34a1.926 1.926 0 0 0 1.213-1.127 1.961 1.961 0 0 0 1.218 1zm-.48 2.1c-.728 0-1.164-.2-1.164-.544s.437-.539 1.164-.539 1.175.2 1.175.539-.437.544-1.175.544zm0-1.429c-.992 0-1.606.323-1.606.884s.615.889 1.606.889 1.614-.321 1.614-.887-.612-.884-1.614-.884z" class="cls-8" transform="translate(503.998 3049.932)"/>
        <g id="그룹_5210" transform="translate(490.822 3244.877)">
            <g id="그룹_1896" transform="translate(3.381 1.634)">
                <path id="사각형_2418" fill="#a4aab4" d="M0 0H6.182V5.712H0z" transform="translate(0 0.361)"/>
                <path id="사각형_2419" d="M0 0H6.182V4.867H0z" class="cls-7" transform="translate(0 1.206)"/>
                <g id="그룹_1774" transform="translate(0.664 1.996)">
                    <g id="그룹_1772">
                        <rect id="사각형_2420" width=".788" height=".788" class="cls-1" rx=".394"/>
                        <rect id="사각형_2421" width=".788" height=".788" class="cls-1" rx=".394" transform="translate(1.355)"/>
                        <rect id="사각형_2422" width=".788" height=".788" class="cls-1" rx=".394" transform="translate(2.711)"/>
                        <rect id="사각형_2423" width=".788" height=".788" class="cls-1" rx=".394" transform="translate(4.066)"/>
                    </g>
                    <g id="그룹_1773" transform="translate(0 1.249)">
                        <rect id="사각형_2424" width=".788" height=".788" class="cls-1" rx=".394"/>
                        <rect id="사각형_2425" width=".788" height=".788" class="cls-1" rx=".394" transform="translate(1.355)"/>
                        <rect id="사각형_2426" width=".788" height=".788" class="cls-1" rx=".394" transform="translate(2.711)"/>
                        <rect id="사각형_2427" width=".788" height=".788" class="cls-1" rx=".394" transform="translate(4.066)"/>
                    </g>
                    <rect id="사각형_2428" width=".788" height=".788" class="cls-1" rx=".394" transform="translate(0 2.499)"/>
                    <rect id="사각형_2429" width=".788" height=".788" class="cls-1" rx=".394" transform="translate(1.355 2.499)"/>
                    <rect id="사각형_2430" width=".788" height=".788" class="cls-1" rx=".394" transform="translate(2.711 2.499)"/>
                    <rect id="사각형_3068" width=".788" height=".788" class="cls-1" rx=".394" transform="translate(4.066 2.499)"/>
                </g>
                <rect id="사각형_2431" width=".392" height=".888" class="cls-7" rx=".196" transform="translate(0.862 0)"/>
                <rect id="사각형_2432" width=".392" height=".888" class="cls-7" rx=".196" transform="translate(2.217 0)"/>
                <rect id="사각형_2433" width=".392" height=".888" class="cls-7" rx=".196" transform="translate(3.573 0)"/>
                <rect id="사각형_2434" width=".392" height=".888" class="cls-7" rx=".196" transform="translate(4.928 0)"/>
            </g>
            <path id="사각형_3084" d="M0 0H12.735V9.262H0z" class="cls-13" transform="translate(0 0)"/>
        </g>
        <g filter="url(#패스_6576)" transform="matrix(1, 0, 0, 1, 334, 2870)">
            <path id="패스_6576-2" d="M10 0h670a10 10 0 0 1 10 10v13H0V10A10 10 0 0 1 10 0z" class="cls-1" transform="translate(26 25)"/>
        </g>
        <path id="패스_6577" d="M3.11-3.565H1.955v-.545h-.41v.545H.385v.33H3.11zM1.06-2.15c0-.315.28-.515.69-.515s.685.2.685.515-.28.51-.685.51-.69-.2-.69-.51zm.9.82c.53-.065.87-.375.87-.82 0-.505-.435-.83-1.075-.83S.67-2.655.67-2.15c0 .45.345.76.875.825v.48C1.1-.83.67-.825.29-.825l.06.345a18.34 18.34 0 0 0 2.905-.18l-.03-.305c-.41.055-.845.085-1.27.105zm1.55-2.78V.37h.41v-4.48zm3.655 2.645v.3h.91V-.7h.41v-3.415h-.41v2.65zM6.25-3.63c.425 0 .715.19.715.475s-.29.48-.715.48-.715-.19-.715-.48.29-.475.715-.475zm0 1.26c.655 0 1.105-.305 1.105-.785s-.45-.78-1.105-.78-1.105.31-1.105.78.45.785 1.105.785zM6.09-.86h.41v-.885c.4-.025.82-.07 1.215-.13L7.68-2.17a24.363 24.363 0 0 1-2.89.13l.055.34c.37 0 .8-.005 1.245-.025zm-.25.8v-.97h-.41v1.3H8.6v-.335zM9.6-3.635v.34h1.65A3.051 3.051 0 0 1 9.395-.8l.225.32a3.372 3.372 0 0 0 2.035-3.155zm3.93 1.34h-.72v-1.82h-.41V.37h.41v-2.325h.72zm3.65-1.815v2.4h.41v-2.4zM14.7-1.485V.31h2.89v-1.8h-.4v.55h-2.08v-.55zm.4.87h2.08v.6h-2.07zm.085-3.285a1.06 1.06 0 0 0-1.165 1.03 1.058 1.058 0 0 0 1.165 1.035A1.064 1.064 0 0 0 16.36-2.87a1.066 1.066 0 0 0-1.175-1.03zm0 .34a.706.706 0 0 1 .775.69.706.706 0 0 1-.775.695.7.7 0 0 1-.765-.695.7.7 0 0 1 .765-.69z" class="cls-2" transform="translate(863 2908)"/>
        <path id="선_1789" fill="#b3b3b3" d="M-.141 3.591H-.5V0h.359z" transform="translate(855.188 2904.696)"/>
        <path id="패스_6578" d="M1.205-3.3h.735v2.18c-.245.01-.5.02-.735.025zm1.135 0h.48v-.33H.325v.33h.48v2.21h-.6l.055.35a18.539 18.539 0 0 0 2.8-.165l-.03-.305c-.22.03-.45.05-.685.065zm2.115.98h-.74v-1.79h-.41V.37h.41v-2.35h.74zm3.96.625H5.75v-.71h2.52v-.325H5.75v-.665h2.62v-.33H5.335v2.36h3.08zM4.81-.545v.335h4.07v-.335zm5.21-3.07h-.41v2.91h.35a10.522 10.522 0 0 0 2.05-.18l-.055-.35a9.721 9.721 0 0 1-1.935.185zm2.63-.5v1.48h-1.375v.34h1.375V.38h.41v-4.5zm5.92 1.375H15.9v-.865h2.64v-.33h-3.045v1.525h3.075zM17.01.045c-.7 0-1.12-.175-1.12-.49s.415-.49 1.12-.49 1.12.175 1.12.49-.42.49-1.12.49zm0-1.3c-.955 0-1.535.29-1.535.81s.58.81 1.535.81 1.535-.29 1.535-.81-.58-.81-1.535-.81zm-2.025-.725v.34h4.06v-.34zm5 1.345h2.71V.33h.41v-1.3h-3.12zm1.79-1.015v-.47h1.4v-.32H20.46v-.47h2.62V-4h-3.035v.32h2.63v.465h-2.62v1.1h1.305v.47h-1.83v.335h4.07v-.34zm3.625.68a.672.672 0 0 1-.7-.69.674.674 0 0 1 .7-.695.675.675 0 0 1 .7.695.674.674 0 0 1-.7.69zm0-1.725a1.022 1.022 0 0 0-1.085 1.035A1.016 1.016 0 0 0 25.4-.63a1.018 1.018 0 0 0 1.1-1.03 1.025 1.025 0 0 0-1.1-1.04zm.2-1.365h-.41v.665h-1.13v.33h2.64v-.33h-1.1zm2.675 1.79h-.735v-1.84h-.41V.37h.41v-2.3h.735zm.625-1.36v.33h1.685a2.966 2.966 0 0 1-1.89 2.5l.22.335A3.359 3.359 0 0 0 31-3.63zm3-.485V.37h.41v-4.485z" class="cls-2" transform="translate(809 2908)"/>
        <path id="패스_6579" d="M-11.457-1.87h-.94v-1.38h.94zm-1.6 0h-.6v.525h3.46v-.525h-.61v-1.38h.625v-.525h-3.5v.525h.625zM-14-.64v.535h4.17V-.64zm6.96.025V-1.3h1.395v-.53h-2.67v-.515h2.565V-3.88h-3.227v.525H-6.4v.495h-2.57v1.56h1.27v.685h-1.75v.54h4.17v-.54zM-3-3.04v.535h.49v1.115h.615v-2.7h-.615v1.05zM-2.637-2a1.224 1.224 0 0 1-.815-1.2v-.12h.67v-.525h-2.035v.525h.725v.12a1.322 1.322 0 0 1-.87 1.285l.335.5a1.534 1.534 0 0 0 .86-.825 1.428 1.428 0 0 0 .805.745zm-1.51 1.32h2.51V.435h.66V-1.2h-3.17zm2.545-3.5v2.81h.625v-2.805zM3.373-1.8H.808v-.515h2.425v-.51H.808v-.485h2.53v-.53h-3.2v2.56h3.235zM-.352-.635V-.1h4.17v-.535zM6.763-3.87A1.172 1.172 0 0 0 5.5-2.735 1.169 1.169 0 0 0 6.763-1.6a1.173 1.173 0 0 0 1.27-1.135 1.176 1.176 0 0 0-1.27-1.135zm0 .565a.567.567 0 0 1 .625.57.567.567 0 0 1-.625.57.567.567 0 0 1-.625-.57.567.567 0 0 1 .625-.57zm1.7-.875V.44h.66v-4.62zM5.388-.5a14.843 14.843 0 0 0 2.865-.21l-.04-.475a20.711 20.711 0 0 1-2.91.15zm6.3-1h.92v-.51h-1.785v-.4h1.685v-1.37h-2.345v.51h1.69v.38h-1.685v1.39h.86v.58c-.41.01-.805.01-1.175.01l.08.54A18.741 18.741 0 0 0 12.8-.535l-.045-.48c-.34.035-.7.06-1.07.075zm1.325-2.68V.44h.66v-4.62z" class="cls-2" transform="translate(620 2908)"/>
        <path id="패스_6580" d="M-10.267-3.18h.67v-.535h-2.05v.535h.74v.225a2.329 2.329 0 0 1-.91 2.04l.39.485a2.138 2.138 0 0 0 .845-1.235 1.888 1.888 0 0 0 .82 1.125l.385-.48a2.124 2.124 0 0 1-.89-1.935zm.935.575h-.585v.535h.585V.22h.615V-4.1h-.615zM-8.4-4.18V.425h.625V-4.18zm1.645 2.725a2.235 2.235 0 0 0 1.665-1.1A2.27 2.27 0 0 0-3.407-1.48l.25-.52c-.99-.145-1.525-.7-1.585-1.3h1.38v-.525h-3.47v.525h1.38a1.652 1.652 0 0 1-1.56 1.325zm2 .815v-1.015h-.66V-.64h-1.762v.535h4.17V-.64zM-.8-3.185h.59v1.95H-.8zM-1.412-.72H.4v-2.985h-1.812zm3.195-3.46v1.76H1.4v-1.685H.783V.22H1.4v-2.11h.385V.425h.625V-4.18zm1.39.48v.525h1.494a2.68 2.68 0 0 1-1.715 2.3l.35.51A3.355 3.355 0 0 0 5.337-3.7zM6.2-4.175v1.765h-.89v.535h.89V.43h.66v-4.605zm5.185 0h-.665v3.33h.665zm-.958 2.255a1.433 1.433 0 0 1-1.08-1.35v-.055h.91v-.52H7.752v.52h.925v.055a1.472 1.472 0 0 1-1.1 1.42l.335.515a1.8 1.8 0 0 0 1.11-.98 1.765 1.765 0 0 0 1.07.9zM8.977-.175v-.97h-.66V.35H11.5v-.525z" class="cls-2" transform="translate(665 2908)"/>
        <path id="패스_6581" d="M-10.267-3.18h.67v-.535h-2.05v.535h.74v.225a2.329 2.329 0 0 1-.91 2.04l.39.485a2.138 2.138 0 0 0 .845-1.235 1.888 1.888 0 0 0 .82 1.125l.385-.48a2.124 2.124 0 0 1-.89-1.935zm.935.575h-.585v.535h.585V.22h.615V-4.1h-.615zM-8.4-4.18V.425h.625V-4.18zm1.645 2.725a2.235 2.235 0 0 0 1.665-1.1A2.27 2.27 0 0 0-3.407-1.48l.25-.52c-.99-.145-1.525-.7-1.585-1.3h1.38v-.525h-3.47v.525h1.38a1.652 1.652 0 0 1-1.56 1.325zm2 .815v-1.015h-.66V-.64h-1.762v.535h4.17V-.64zm3.83-3.18H-1.6v.67a2.239 2.239 0 0 1-1.125 2.1l.4.535A2.2 2.2 0 0 0-1.262-1.84a2.1 2.1 0 0 0 1 1.24l.4-.52a2.173 2.173 0 0 1-1.07-2.03zm2.58 1.415H.978v-1.77h-.66V.43h.66v-2.285h.67zm4.115.28a1.217 1.217 0 0 1-1.07-1.09h.91v-.52H4.7v-.455h-.66v.455h-.9v.52h.9A1.27 1.27 0 0 1 2.973-2.05l.305.515a1.691 1.691 0 0 0 1.1-.86 1.713 1.713 0 0 0 1.09.78zm.93 1.29v-.52H3.608v.52h1.155c-.115.34-.55.66-1.355.75l.235.5a2.071 2.071 0 0 0 1.51-.77 2.033 2.033 0 0 0 1.5.775l.235-.5C6.1-.175 5.658-.5 5.533-.835zm-.06-2.31v-1.03h-.66v2.62h.66V-2.6h.61v-.545zM7.813-3.7v.525h1.535A2.7 2.7 0 0 1 7.568-.87l.345.52a3.359 3.359 0 0 0 2.11-3.35zm2.915-.48V.425h.665V-4.18z" class="cls-2" transform="translate(576 2908)"/>
        <g id="그룹_5212" transform="translate(503.281 2902.041)">
            <path id="사각형_4370" fill="none" d="M0 0h36.211v6.913H0z" opacity="0.311" transform="translate(0 0.758)"/>
            <g id="그룹_70673" transform="translate(0 1.745)">
                <g id="그룹_6" transform="translate(0 0.007)">
                    <path id="패스_1-2" d="M-498.105 284.119a1.753 1.753 0 0 1-1.881 1.731h-2.447v-5.913h2.281a1.714 1.714 0 0 1 1.839 1.689 1.49 1.49 0 0 1-.508 1.157 1.533 1.533 0 0 1 .716 1.336zm-3-2.914v1.047h.949a.488.488 0 0 0 .367-.149.5.5 0 0 0 .141-.375.5.5 0 0 0-.139-.377.483.483 0 0 0-.369-.147zm1.664 2.813a.539.539 0 0 0-.15-.407.522.522 0 0 0-.4-.159h-1.109v1.132h1.115a.522.522 0 0 0 .4-.159.539.539 0 0 0 .15-.407z" class="cls-3" transform="translate(502.433 -279.82)"/>
                    <path id="패스_2" d="M-361.275 284.55v1.3h-3.412v-5.913h1.332v4.612z" class="cls-3" transform="translate(376.24 -279.82)"/>
                    <path id="패스_3" d="M-324.633 281.239h-1.5v4.612h-1.332v-4.612h-1.5v-1.3h4.328z" class="cls-3" transform="translate(343.51 -279.82)"/>
                    <path id="패스_4" d="M-274.244 284.791l-.516-.565a2.561 2.561 0 0 1-1.506.463 1.84 1.84 0 0 1-2.081-1.781 2.007 2.007 0 0 1 .932-1.7 1.813 1.813 0 0 1-.241-.937 1.733 1.733 0 0 1 1.873-1.73 1.979 1.979 0 0 1 1.914 1.29l-1.14.667c-.15-.4-.383-.642-.757-.642a.5.5 0 0 0-.386.125.515.515 0 0 0-.172.372 1.27 1.27 0 0 0 .457.835l1.074 1.207a4.514 4.514 0 0 0 .275-.928l1.115.642a4.362 4.362 0 0 1-.533 1.241l.732.827zm-1.332-1.469l-1.065-1.165-.05-.051a.837.837 0 0 0-.308.658c0 .4.25.692.84.692a1.211 1.211 0 0 0 .583-.135z" class="cls-3" transform="translate(297.141 -278.544)"/>
                    <path id="패스_5" d="M-204.5 279.938v5.913h-1l-2.249-3.21v3.21h-1.332v-5.912h1l2.247 3.21v-3.21z" class="cls-3" transform="translate(233.684 -279.82)"/>
                    <path id="패스_6" d="M-78.712 281.239h-1.5v4.612h-1.332v-4.612h-1.5v-1.3h4.328z" class="cls-3" transform="translate(118.215 -279.82)"/>
                    <g id="그룹_1" transform="translate(30.117 0.161)">
                        <path id="패스_7" d="M-141.5 285.027a.767.767 0 0 1-.461-.7v-3.871h-1.383v4.009a1.937 1.937 0 0 0 1.844 1.935z" class="cls-3" transform="translate(143.344 -280.453)"/>
                        <path id="패스_8" d="M-110.824 280.453v3.87a.765.765 0 0 1-.545.734v1.343a1.937 1.937 0 0 0 1.843-1.942v-4.009z" class="cls-3" transform="translate(114.051 -280.453)"/>
                    </g>
                </g>
                <g id="그룹_7" transform="translate(4.722 0)">
                    <path id="패스_9" d="M-442.236 298.5a1.708 1.708 0 0 1-.859.232 1.718 1.718 0 0 1-1.718-1.718 1.708 1.708 0 0 1 .15-.7l-.993-.894a3 3 0 0 0-.457 1.594 3.017 3.017 0 0 0 3.017 3.017 3 3 0 0 0 1.852-.637z" class="cls-3" transform="translate(446.113 -293.912)"/>
                    <path id="패스_10" d="M-432.3 280.043a1.71 1.71 0 0 1 .959-.294 1.718 1.718 0 0 1 1.718 1.718 1.709 1.709 0 0 1-.2.8l.982.884a3 3 0 0 0 .517-1.689 3.017 3.017 0 0 0-3.017-3.017 3 3 0 0 0-1.941.708z" class="cls-3" transform="translate(434.357 -278.451)"/>
                </g>
            </g>
            <path id="패스_1-3" d="M-498.105 284.119a1.753 1.753 0 0 1-1.881 1.731h-2.447v-5.913h2.281a1.714 1.714 0 0 1 1.839 1.689 1.49 1.49 0 0 1-.508 1.157 1.533 1.533 0 0 1 .716 1.336zm-3-2.914v1.047h.949a.488.488 0 0 0 .367-.149.5.5 0 0 0 .141-.375.5.5 0 0 0-.139-.377.483.483 0 0 0-.369-.147zm1.664 2.813a.539.539 0 0 0-.15-.407.522.522 0 0 0-.4-.159h-1.109v1.132h1.115a.522.522 0 0 0 .4-.159.539.539 0 0 0 .15-.407z" class="cls-3" transform="translate(502.433 -278.068)"/>
            <path id="패스_2-2" d="M-361.275 284.55v1.3h-3.412v-5.913h1.332v4.612z" class="cls-3" transform="translate(376.24 -278.068)"/>
            <path id="패스_3-2" d="M-324.633 281.239h-1.5v4.612h-1.332v-4.612h-1.5v-1.3h4.328z" class="cls-3" transform="translate(343.51 -278.068)"/>
            <path id="패스_4-2" d="M-274.244 284.791l-.516-.565a2.561 2.561 0 0 1-1.506.463 1.84 1.84 0 0 1-2.081-1.781 2.007 2.007 0 0 1 .932-1.7 1.813 1.813 0 0 1-.241-.937 1.733 1.733 0 0 1 1.873-1.73 1.979 1.979 0 0 1 1.914 1.29l-1.14.667c-.15-.4-.383-.642-.757-.642a.5.5 0 0 0-.386.125.515.515 0 0 0-.172.372 1.27 1.27 0 0 0 .457.835l1.074 1.207a4.514 4.514 0 0 0 .275-.928l1.115.642a4.362 4.362 0 0 1-.533 1.241l.732.827zm-1.332-1.469l-1.065-1.165-.05-.051a.837.837 0 0 0-.308.658c0 .4.25.692.84.692a1.211 1.211 0 0 0 .583-.135z" class="cls-3" transform="translate(297.142 -276.792)"/>
            <path id="패스_5-2" d="M-204.5 279.938v5.913h-1l-2.249-3.21v3.21h-1.332v-5.912h1l2.247 3.21v-3.21z" class="cls-3" transform="translate(233.684 -278.068)"/>
            <path id="패스_6-2" d="M-78.712 281.239h-1.5v4.612h-1.332v-4.612h-1.5v-1.3h4.328z" class="cls-3" transform="translate(118.215 -278.068)"/>
            <g id="그룹_1-2" transform="translate(30.117 1.913)">
                <path id="패스_7-2" d="M-141.5 285.027a.767.767 0 0 1-.461-.7v-3.871h-1.383v4.009a1.937 1.937 0 0 0 1.844 1.935z" class="cls-3" transform="translate(143.344 -280.453)"/>
                <path id="패스_8-2" d="M-110.824 280.453v3.87a.765.765 0 0 1-.545.734v1.343a1.937 1.937 0 0 0 1.843-1.942v-4.009z" class="cls-3" transform="translate(114.051 -280.453)"/>
            </g>
            <path id="사각형_5999" d="M0 0H39V9H0z" class="cls-13" transform="translate(0.719 -0.041)"/>
        </g>
        <path id="패스_5514" d="M26.652-.282H-.641A.359.359 0 0 1-1-.641.359.359 0 0 1-.641-1h27.293a.359.359 0 0 1 .359.359.359.359 0 0 1-.359.359z" class="cls-2" transform="translate(562.996 2918.266)"/>
        <path id="패스_6582" d="M2.6-1.264v-.863h1.466v-.337H1.247v-.741h2.712V-4.6H.823v.342h2.728v.715H.833v1.415h1.343v.863H.312v.342h4.163v-.342zm5.543-2.728a10.377 10.377 0 0 1-.184 2.186l.419.046a11.281 11.281 0 0 0 .179-2.232v-.455h-.195v-.005H5.415v.342h2.728zm-3.172 2.62v.347h4.142v-.347zm8.4-3.56h-.419v3.346h.419zm-3.241 1.44a.749.749 0 0 1 .782-.761.752.752 0 0 1 .792.761.754.754 0 0 1-.792.771.751.751 0 0 1-.782-.771zm1.982 0a1.127 1.127 0 0 0-1.2-1.124 1.122 1.122 0 0 0-1.19 1.124 1.127 1.127 0 0 0 1.19 1.134 1.132 1.132 0 0 0 1.2-1.134zM10.845-.8v-1.128h-.419v1.471h3.085V-.8z" class="cls-2" transform="translate(899.229 2909.002)"/>
        <path id="사각형_5130" d="M6.823.349a6.513 6.513 0 0 0-4.571 1.843 6.17 6.17 0 0 0 0 8.9 6.513 6.513 0 0 0 4.571 1.842h16.52a6.513 6.513 0 0 0 4.571-1.842 6.17 6.17 0 0 0 0-8.9A6.513 6.513 0 0 0 23.343.349H6.823m0-.349h16.52a6.733 6.733 0 0 1 6.823 6.639 6.733 6.733 0 0 1-6.823 6.639H6.823A6.733 6.733 0 0 1 0 6.639 6.733 6.733 0 0 1 6.823 0z" class="cls-7" transform="translate(891.059 2899.668)"/>
    </g>
</svg>
