<svg xmlns="http://www.w3.org/2000/svg" width="16" height="16">
    <g data-name="그룹 6552">
        <path data-name="패스 8610" d="M372.41 1437.593h-9.928a1.222 1.222 0 0 0-1.223 1.222v6.444a1.222 1.222 0 0 0 1.223 1.222h9.928a1.222 1.222 0 0 0 1.222-1.222v-6.444a1.222 1.222 0 0 0-1.222-1.222zm-.493 2.912-4.352 2.206a.221.221 0 0 1-.1.025.24.24 0 0 1-.11-.028l-4.016-2.207a.227.227 0 1 1 .22-.4l3.911 2.148 4.243-2.152a.228.228 0 1 1 .207.406z" transform="translate(-359.419 -1434.014)" style="fill:#c6c7cc"/>
        <path data-name="사각형 7791" style="fill:none" d="M0 0h16v16H0z"/>
    </g>
</svg>
