<svg xmlns="http://www.w3.org/2000/svg" width="24" height="24">
    <defs>
        <clipPath id="clip-path">
            <path id="패스_8757" data-name="패스 8757" class="cls-1" d="M51.54 69.8h1.12s.007 3.077 0 3.794c0 .523 1.166.53 1.164.008V69.84h1.115a.549.549 0 0 0 0-1.1c-.785 0-3.407-.022-3.407-.022a.539.539 0 0 0 0 1.074" transform="translate(-51.046 -68.721)"/>
        </clipPath>
        <clipPath id="clip-path-2">
            <path id="패스_8759" data-name="패스 8759" class="cls-1" d="m66.912 70.057.624 1.953h-1.3zm-.7-.915c-.276.607-1.271 3.474-1.6 4.235-.239.55.792 1 1.031.448l.224-.784h2.05s-.07.032.2.751c.221.581 1.285.178 1.064-.4-.315-.831-1.4-3.823-1.6-4.246a.847.847 0 0 0-.738-.336.649.649 0 0 0-.629.336" transform="translate(-64.575 -68.806)"/>
        </clipPath>
        <clipPath id="clip-path-3">
            <path id="패스_8761" data-name="패스 8761" class="cls-1" d="M83.793 69.325c0 .974.006 4.115.006 4.115s-.09.624.445.624 1.723-.006 2.249-.006.524-1.12 0-1.12S85 72.932 85 72.932v-3.61a.615.615 0 0 0-1.213 0" transform="translate(-83.793 -68.81)"/>
        </clipPath>
        <clipPath id="clip-path-4">
            <path id="패스_8763" data-name="패스 8763" class="cls-1" d="M96.7 69.176c.012.427-.014 4.291-.014 4.577 0 .452 1.151.451 1.15 0v-1.52l.338-.271 1.477 2.015c.3.394 1.238-.318.94-.711l-1.57-2.066s1.065-1.151 1.484-1.568c.245-.243-.513-1.007-.758-.763l-1.9 1.9s.015-1.049 0-1.628c-.006-.22-.276-.326-.552-.326-.3 0-.6.122-.592.357" transform="translate(-96.685 -68.819)"/>
        </clipPath>
        <style>
            .cls-1{fill:#fae100}
        </style>
    </defs>
    <g id="그룹_6550" data-name="그룹 6550" transform="translate(-47 -629)">
        <g id="그룹_6549" data-name="그룹 6549" transform="translate(7.808 585.139)">
            <path id="패스_8755" data-name="패스 8755" d="M51.176 45.862c-6.011 0-10.884 3.852-10.884 8.6 0 3.093 2.065 5.8 5.164 7.321-.228.85-.825 3.079-.944 3.555-.148.592.216.584.455.426.187-.125 2.982-2.026 4.188-2.846a13.75 13.75 0 0 0 2.021.149c6.011 0 10.884-3.852 10.884-8.6s-4.873-8.6-10.884-8.6" style="fill:#381e1f"/>
            <g id="그룹_6548" data-name="그룹 6548" transform="translate(43.089 51.808)">
                <g id="그룹_6538" data-name="그룹 6538">
                    <g id="그룹_6537" data-name="그룹 6537">
                        <path id="패스_8756" data-name="패스 8756" class="cls-1" d="M51.54 69.8h1.12s.007 3.077 0 3.794c0 .523 1.166.53 1.164.008V69.84h1.115a.549.549 0 0 0 0-1.1c-.785 0-3.407-.022-3.407-.022a.539.539 0 0 0 0 1.074" transform="translate(-51.046 -68.721)"/>
                        <g id="그룹_6536" data-name="그룹 6536" style="clip-path:url(#clip-path)">
                            <path id="사각형_7787" data-name="사각형 7787" class="cls-1" transform="translate(-.165)" d="M0 0h4.761v5.399H0z"/>
                        </g>
                    </g>
                </g>
                <g id="그룹_6541" data-name="그룹 6541" transform="translate(3.519 .022)">
                    <g id="그룹_6540" data-name="그룹 6540">
                        <path id="패스_8758" data-name="패스 8758" class="cls-1" d="m66.912 70.057.624 1.953h-1.3zm-.7-.915c-.276.607-1.271 3.474-1.6 4.235-.239.55.792 1 1.031.448l.224-.784h2.05s-.07.032.2.751c.221.581 1.285.178 1.064-.4-.315-.831-1.4-3.823-1.6-4.246a.847.847 0 0 0-.738-.336.649.649 0 0 0-.629.336" transform="translate(-64.575 -68.806)"/>
                        <g id="그룹_6539" data-name="그룹 6539" style="clip-path:url(#clip-path-2)">
                            <path id="사각형_7788" data-name="사각형 7788" class="cls-1" transform="translate(-.203)" d="M0 0h5.031v5.569H0z"/>
                        </g>
                    </g>
                </g>
                <g id="그룹_6544" data-name="그룹 6544" transform="translate(8.518 .023)">
                    <g id="그룹_6543" data-name="그룹 6543">
                        <path id="패스_8760" data-name="패스 8760" class="cls-1" d="M83.793 69.325c0 .974.006 4.115.006 4.115s-.09.624.445.624 1.723-.006 2.249-.006.524-1.12 0-1.12S85 72.932 85 72.932v-3.61a.615.615 0 0 0-1.213 0" transform="translate(-83.793 -68.81)"/>
                        <g id="그룹_6542" data-name="그룹 6542" style="clip-path:url(#clip-path-3)">
                            <path id="사각형_7789" data-name="사각형 7789" class="cls-1" transform="translate(-.084)" d="M0 0h3.311v5.254H0z"/>
                        </g>
                    </g>
                </g>
                <g id="그룹_6547" data-name="그룹 6547" transform="translate(11.872 .025)">
                    <g id="그룹_6546" data-name="그룹 6546">
                        <path id="패스_8762" data-name="패스 8762" class="cls-1" d="M96.7 69.176c.012.427-.014 4.291-.014 4.577 0 .452 1.151.451 1.15 0v-1.52l.338-.271 1.477 2.015c.3.394 1.238-.318.94-.711l-1.57-2.066s1.065-1.151 1.484-1.568c.245-.243-.513-1.007-.758-.763l-1.9 1.9s.015-1.049 0-1.628c-.006-.22-.276-.326-.552-.326-.3 0-.6.122-.592.357" transform="translate(-96.685 -68.819)"/>
                        <g id="그룹_6545" data-name="그룹 6545" style="clip-path:url(#clip-path-4)">
                            <path id="사각형_7790" data-name="사각형 7790" class="cls-1" transform="translate(0 -.194)" d="M0 0h4.203v5.746H0z"/>
                        </g>
                    </g>
                </g>
            </g>
        </g>
        <path id="사각형_7793" data-name="사각형 7793" transform="translate(47 629)" style="fill:none" d="M0 0h24v24H0z"/>
    </g>
</svg>
