<svg xmlns="http://www.w3.org/2000/svg" width="140" height="28">
    <defs>
        <style>
            .cls-2{fill:#0933b3}
        </style>
    </defs>
    <g id="그룹_6020" data-name="그룹 6020" transform="translate(-845.298 -197.307)">
        <path id="사각형_4370" data-name="사각형 4370" d="M0 0h126.926v24.231H0z" transform="translate(845.993 197.661)" style="opacity:.311;fill:none"/>
        <g id="그룹_70673" data-name="그룹 70673" transform="translate(845.993 201.12)">
            <g id="그룹_6" data-name="그룹 6" transform="translate(0 .025)">
                <path id="패스_1" data-name="패스 1" class="cls-2" d="M-487.263 294.594c0 3.671-2.947 6.069-6.593 6.069h-8.577v-20.725h7.994c3.559 0 6.447 2.339 6.447 5.92a5.222 5.222 0 0 1-1.78 4.057 5.372 5.372 0 0 1 2.509 4.68zm-10.5-10.214v3.671h3.326a1.709 1.709 0 0 0 1.287-.522 1.763 1.763 0 0 0 .493-1.315 1.747 1.747 0 0 0-.487-1.32 1.693 1.693 0 0 0-1.292-.516zm5.832 9.86a1.888 1.888 0 0 0-.527-1.427 1.83 1.83 0 0 0-1.4-.557h-3.909v3.967h3.909a1.83 1.83 0 0 0 1.4-.556 1.888 1.888 0 0 0 .527-1.428z" transform="translate(502.433 -279.524)"/>
                <path id="패스_2" data-name="패스 2" class="cls-2" d="M-352.726 296.1v4.559h-11.961v-20.721h4.668V296.1z" transform="translate(405.182 -279.524)"/>
                <path id="패스_3" data-name="패스 3" class="cls-2" d="M-313.79 284.5h-5.252v16.166h-4.668V284.5h-5.252v-4.56h15.17z" transform="translate(379.958 -279.524)"/>
                <path id="패스_4" data-name="패스 4" class="cls-2" d="m-263.965 300.443-1.809-1.982a8.978 8.978 0 0 1-5.28 1.624c-4.2 0-7.293-2.337-7.293-6.243a7.035 7.035 0 0 1 3.267-5.946 6.356 6.356 0 0 1-.846-3.283c0-3.491 2.654-6.064 6.564-6.064a6.936 6.936 0 0 1 6.71 4.523l-4 2.337c-.525-1.392-1.341-2.249-2.654-2.249a1.755 1.755 0 0 0-1.352.437 1.807 1.807 0 0 0-.6 1.3c0 1.154.7 1.923 1.6 2.928l3.764 4.231a15.821 15.821 0 0 0 .963-3.254l3.909 2.249a15.293 15.293 0 0 1-1.867 4.349l2.567 2.9zm-4.668-5.148-3.734-4.082-.175-.177a2.934 2.934 0 0 0-1.08 2.308c0 1.392.875 2.426 2.946 2.426a4.247 4.247 0 0 0 2.044-.474z" transform="translate(344.225 -278.544)"/>
                <path id="패스_5" data-name="패스 5" class="cls-2" d="M-193.031 279.938v20.726h-3.5l-7.882-11.253v11.25h-4.668v-20.723h3.5l7.876 11.252v-11.252z" transform="translate(295.318 -279.524)"/>
                <path id="패스_6" data-name="패스 6" class="cls-2" d="M-67.87 284.5h-5.252v16.166h-4.668V284.5h-5.25v-4.56h15.17z" transform="translate(206.335 -279.524)"/>
                <g id="그룹_1" data-name="그룹 1" transform="translate(105.567 .565)">
                    <path id="패스_7" data-name="패스 7" class="cls-2" d="M-136.881 296.487a2.69 2.69 0 0 1-1.616-2.467v-13.567h-4.847V294.5a6.79 6.79 0 0 0 6.461 6.808z" transform="translate(143.344 -280.453)"/>
                    <path id="패스_8" data-name="패스 8" class="cls-2" d="M-109.46 280.453v13.566a2.682 2.682 0 0 1-1.909 2.572v4.721a6.79 6.79 0 0 0 6.461-6.808v-14.051z" transform="translate(120.768 -280.453)"/>
                </g>
            </g>
            <g id="그룹_7" data-name="그룹 7" transform="translate(16.553)">
                <path id="패스_9" data-name="패스 9" class="cls-2" d="M-432.523 306.219a5.989 5.989 0 0 1-3.011.812 6.021 6.021 0 0 1-6.021-6.021 5.989 5.989 0 0 1 .525-2.451l-3.481-3.135a10.523 10.523 0 0 0-1.6 5.587 10.574 10.574 0 0 0 10.574 10.574 10.521 10.521 0 0 0 6.493-2.231z" transform="translate(446.113 -290.128)"/>
                <path id="패스_10" data-name="패스 10" class="cls-2" d="M-429.84 284.033a5.992 5.992 0 0 1 3.362-1.033 6.021 6.021 0 0 1 6.021 6.021 5.991 5.991 0 0 1-.7 2.82l3.443 3.1a10.521 10.521 0 0 0 1.813-5.921 10.574 10.574 0 0 0-10.574-10.574 10.53 10.53 0 0 0-6.8 2.481z" transform="translate(437.055 -278.451)"/>
            </g>
        </g>
        <path id="패스_1-2" data-name="패스 1" class="cls-2" d="M-487.263 294.594c0 3.671-2.947 6.069-6.593 6.069h-8.577v-20.725h7.994c3.559 0 6.447 2.339 6.447 5.92a5.222 5.222 0 0 1-1.78 4.057 5.372 5.372 0 0 1 2.509 4.68zm-10.5-10.214v3.671h3.326a1.709 1.709 0 0 0 1.287-.522 1.763 1.763 0 0 0 .493-1.315 1.747 1.747 0 0 0-.487-1.32 1.693 1.693 0 0 0-1.292-.516zm5.832 9.86a1.888 1.888 0 0 0-.527-1.427 1.83 1.83 0 0 0-1.4-.557h-3.909v3.967h3.909a1.83 1.83 0 0 0 1.4-.556 1.888 1.888 0 0 0 .527-1.428z" transform="translate(1348.426 -78.379)"/>
        <path id="패스_2-2" data-name="패스 2" class="cls-2" d="M-352.726 296.1v4.559h-11.961v-20.721h4.668V296.1z" transform="translate(1251.175 -78.379)"/>
        <path id="패스_3-2" data-name="패스 3" class="cls-2" d="M-313.79 284.5h-5.252v16.166h-4.668V284.5h-5.252v-4.56h15.17z" transform="translate(1225.951 -78.379)"/>
        <path id="패스_4-2" data-name="패스 4" class="cls-2" d="m-263.965 300.443-1.809-1.982a8.978 8.978 0 0 1-5.28 1.624c-4.2 0-7.293-2.337-7.293-6.243a7.035 7.035 0 0 1 3.267-5.946 6.356 6.356 0 0 1-.846-3.283c0-3.491 2.654-6.064 6.564-6.064a6.936 6.936 0 0 1 6.71 4.523l-4 2.337c-.525-1.392-1.341-2.249-2.654-2.249a1.755 1.755 0 0 0-1.352.437 1.807 1.807 0 0 0-.6 1.3c0 1.154.7 1.923 1.6 2.928l3.764 4.231a15.821 15.821 0 0 0 .963-3.254l3.909 2.249a15.293 15.293 0 0 1-1.867 4.349l2.567 2.9zm-4.668-5.148-3.734-4.082-.175-.177a2.934 2.934 0 0 0-1.08 2.308c0 1.392.875 2.426 2.946 2.426a4.247 4.247 0 0 0 2.044-.474z" transform="translate(1190.218 -77.399)"/>
        <path id="패스_5-2" data-name="패스 5" class="cls-2" d="M-193.031 279.938v20.726h-3.5l-7.882-11.253v11.25h-4.668v-20.723h3.5l7.876 11.252v-11.252z" transform="translate(1141.311 -78.379)"/>
        <path id="패스_6-2" data-name="패스 6" class="cls-2" d="M-67.87 284.5h-5.252v16.166h-4.668V284.5h-5.25v-4.56h15.17z" transform="translate(1052.328 -78.379)"/>
        <g id="그룹_1-2" data-name="그룹 1" transform="translate(951.56 201.71)">
            <path id="패스_7-2" data-name="패스 7" class="cls-2" d="M-136.881 296.487a2.69 2.69 0 0 1-1.616-2.467v-13.567h-4.847V294.5a6.79 6.79 0 0 0 6.461 6.808z" transform="translate(143.344 -280.453)"/>
            <path id="패스_8-2" data-name="패스 8" class="cls-2" d="M-109.46 280.453v13.566a2.682 2.682 0 0 1-1.909 2.572v4.721a6.79 6.79 0 0 0 6.461-6.808v-14.051z" transform="translate(120.768 -280.453)"/>
        </g>
        <path id="사각형_5999" data-name="사각형 5999" transform="translate(845.298 197.307)" style="fill:none" d="M0 0h140v28H0z"/>
    </g>
</svg>
