<svg xmlns="http://www.w3.org/2000/svg" width="16" height="16">
    <g data-name="그룹 6551">
        <g data-name="그룹 6074">
            <path data-name="패스 8608" d="M352.278 1433.944a3.352 3.352 0 0 0-3.352 3.352v2.319h6.7v-2.315a3.352 3.352 0 0 0-3.348-3.356z" style="stroke:#c6c7cc;stroke-miterlimit:10;fill:none" transform="translate(-344.298 -1432.193)"/>
            <path data-name="패스 8609" d="M356.185 1439.111h-7.815a1.222 1.222 0 0 0-1.222 1.222v4.926a1.222 1.222 0 0 0 1.222 1.222h7.815a1.222 1.222 0 0 0 1.222-1.222v-4.926a1.222 1.222 0 0 0-1.222-1.222zm-3.54 3.841v.939a.355.355 0 1 1-.711 0v-.939a.936.936 0 1 1 .711 0z" style="fill:#c6c7cc" transform="translate(-344.298 -1432.193)"/>
        </g>
        <path data-name="사각형 7792" style="fill:none" d="M0 0h16v16H0z"/>
    </g>
</svg>
