<svg xmlns="http://www.w3.org/2000/svg" width="18" height="18" viewBox="0 0 18 18">
  <defs>
    <style>
      .cls-1 {
        fill: #0933b3;
      }
    </style>
  </defs>
  <path id="다각형_142" data-name="다각형 142" class="cls-1" d="M8.534,1.2a.5.5,0,0,1,.932,0l1.9,4.876a.5.5,0,0,0,.427.317l5.04.392a.5.5,0,0,1,.294.872l-3.9,3.464a.5.5,0,0,0-.155.487l1.208,5.181a.5.5,0,0,1-.76.532L9.273,14.555a.5.5,0,0,0-.546,0L4.48,17.321a.5.5,0,0,1-.76-.533l1.208-5.181a.5.5,0,0,0-.155-.487L.878,7.656a.5.5,0,0,1,.294-.872l5.04-.392a.5.5,0,0,0,.427-.317Z"/>
</svg>
