<svg xmlns="http://www.w3.org/2000/svg" width="26" height="26" viewBox="0 0 26 26">
  <defs>
    <style>
      .cls-1 {
        fill: #0933b3;
      }
    </style>
  </defs>
  <path id="다각형_142" data-name="다각형 142" class="cls-1" d="M12.534,1.2a.5.5,0,0,1,.932,0l3,7.706a.5.5,0,0,0,.427.317l7.94.617a.5.5,0,0,1,.294.872l-6.115,5.439a.5.5,0,0,0-.155.487l1.9,8.151a.5.5,0,0,1-.76.533l-6.719-4.376a.5.5,0,0,0-.546,0L6.008,25.321a.5.5,0,0,1-.76-.533l1.9-8.151a.5.5,0,0,0-.155-.487L.878,10.712a.5.5,0,0,1,.294-.872l7.94-.617a.5.5,0,0,0,.427-.317Z"/>
</svg>
