<svg xmlns="http://www.w3.org/2000/svg" width="14" height="14" viewBox="0 0 14 14">
  <defs>
    <style>
      .cls-1 {
        fill: #0933b3;
      }
    </style>
  </defs>
  <path id="다각형_158" data-name="다각형 158" class="cls-1" d="M6.534,1.2a.5.5,0,0,1,.932,0L8.811,4.66a.5.5,0,0,0,.427.317l3.59.279a.5.5,0,0,1,.294.872L10.337,8.606a.5.5,0,0,0-.155.487l.862,3.7a.5.5,0,0,1-.76.533L7.273,11.36a.5.5,0,0,0-.546,0L3.716,13.321a.5.5,0,0,1-.76-.533l.862-3.7a.5.5,0,0,0-.155-.487L.878,6.129a.5.5,0,0,1,.294-.872l3.59-.279a.5.5,0,0,0,.427-.317Z"/>
</svg>
