<svg xmlns="http://www.w3.org/2000/svg" width="24" height="24" viewBox="0 0 24 24">
    <g transform="translate(-686 -576)">
        <g>
            <path fill="#86888c" d="M108.436 11565.975a.713.713 0 0 1-.633-.58l-.357-1.794a5.529 5.529 0 0 1-1.126-.441l-1.553 1.036a.713.713 0 0 1-.85-.028 8.18 8.18 0 0 1-.909-.88.715.715 0 0 1-.044-.871l1-1.506a5.7 5.7 0 0 1-.534-1.214l-1.814-.362a.731.731 0 0 1-.586-.647c-.02-.227-.035-.453-.035-.686 0-.162.009-.322.017-.481a.743.743 0 0 1 .589-.683l1.782-.356a5.8 5.8 0 0 1 .525-1.3l-1.013-1.521a.715.715 0 0 1 .038-.862 8 8 0 0 1 .856-.856.718.718 0 0 1 .862-.04l1.521 1.016a5.808 5.808 0 0 1 1.3-.525l.357-1.785a.739.739 0 0 1 .682-.584c.16-.011.319-.02.479-.02.232 0 .462.015.688.037a.725.725 0 0 1 .647.584l.363 1.813a5.756 5.756 0 0 1 1.213.534l1.506-1.007a.719.719 0 0 1 .871.047 8.088 8.088 0 0 1 .88.908.714.714 0 0 1 .029.851l-1.036 1.553a5.583 5.583 0 0 1 .441 1.126l1.794.357a.717.717 0 0 1 .581.633q.026.278.026.565a6.54 6.54 0 0 1-.041.721.734.734 0 0 1-.583.649l-1.823.363a5.836 5.836 0 0 1-.441 1.045l1.019 1.526a.714.714 0 0 1-.035.859 7.809 7.809 0 0 1-.932.932.715.715 0 0 1-.859.035l-1.527-1.019a5.9 5.9 0 0 1-1.045.443l-.366 1.82a.729.729 0 0 1-.647.584 6.723 6.723 0 0 1-.723.04c-.18-.004-.369-.012-.554-.029z" transform="translate(589 -10970)"/>
            <path fill="none" d="M0 0H24V24H0z" transform="translate(686 576)"/>
        </g>
        <circle cx="3" cy="3" r="3" fill="#fff" transform="translate(695 585)"/>
    </g>
</svg>
