<svg xmlns="http://www.w3.org/2000/svg" width="24" height="24" viewBox="0 0 24 24">
  <defs>
    <style>
      .cls-1 {
        fill: #86888c;
        fill-rule: evenodd;
      }

      .cls-2 {
        fill: none;
      }
    </style>
  </defs>
  <g id="그룹_4998" data-name="그룹 4998" transform="translate(-686 -714)">
    <g id="그룹_4981" data-name="그룹 4981" transform="translate(0.588 13.465)">
      <path id="패스_4349" data-name="패스 4349" class="cls-1" d="M807.808-1101.947a2.089,2.089,0,0,1-2.089,2.089,2.089,2.089,0,0,1-2.089-2.089,2.089,2.089,0,0,1,2.089-2.089,2.089,2.089,0,0,1,2.089,2.089" transform="translate(-108.308 1814.483)"/>
      <path id="패스_4350" data-name="패스 4350" class="cls-1" d="M798.095-1105.574c-.706-1.653-1.2-2.272-1.668-3.458a3.193,3.193,0,0,1-1.032.173,3.181,3.181,0,0,1-1.915-.641,6.432,6.432,0,0,0-.994,4.158c.239,1.433,2.132,2.132,3.717,2.1,1.3-.025,2.7-.435,1.891-2.335m-9.426-4c1.653-.706,2.272-1.2,3.458-1.669a3.19,3.19,0,0,1-.173-1.031,3.179,3.179,0,0,1,.641-1.915,6.429,6.429,0,0,0-4.158-.993c-1.434.239-2.132,2.132-2.1,3.717.024,1.3.434,2.7,2.334,1.891m4-9.426c.706,1.653,1.2,2.272,1.669,3.458a3.187,3.187,0,0,1,1.031-.173,3.177,3.177,0,0,1,1.915.641,6.428,6.428,0,0,0,.994-4.157c-.239-1.434-2.132-2.132-3.718-2.1-1.3.024-2.7.434-1.891,2.334m9.426,4c-1.653.706-2.272,1.2-3.458,1.669a3.189,3.189,0,0,1,.173,1.031,3.182,3.182,0,0,1-.641,1.915,6.425,6.425,0,0,0,4.157.994c.885-.147,1.489-.924,1.912-2.183a4.958,4.958,0,0,0,.191-1.534c-.024-1.3-.435-2.7-2.335-1.892" transform="translate(-97.969 1824.821)"/>
    </g>
    <rect id="사각형_6205" data-name="사각형 6205" class="cls-2" width="24" height="24" transform="translate(686 714)"/>
  </g>
</svg>
