<svg xmlns="http://www.w3.org/2000/svg" width="30" height="30" viewBox="0 0 30 30">
    <g>
        <path fill="none" d="M0 0H30V30H0z" transform="translate(-0.281) translate(0.281)"/>
        <path fill="#0933b3" d="M13.785 21H4a3.9 3.9 0 0 1-4-3.775V8.259a3.9 3.9 0 0 1 4-3.776h9.789a3.9 3.9 0 0 1 4 3.776v8.966A3.9 3.9 0 0 1 13.785 21zM4 6.37a1.948 1.948 0 0 0-2 1.889v8.966a1.947 1.947 0 0 0 2 1.887h9.789a1.947 1.947 0 0 0 2-1.887V8.259a1.948 1.948 0 0 0-2-1.888zm4.89 10.855a.731.731 0 0 1-.75-.708v-3.068H4.894a.709.709 0 1 1 0-1.416H8.14V8.966a.75.75 0 0 1 1.5 0v3.067h3.247a.709.709 0 1 1 0 1.416H9.639v3.068a.73.73 0 0 1-.749.708zm10.318-.725v-1.89A1.921 1.921 0 0 0 21 12.742V3.776a1.948 1.948 0 0 0-2-1.888H9.215A1.978 1.978 0 0 0 7.289 3.3H5.27A3.922 3.922 0 0 1 9.215 0H19a3.9 3.9 0 0 1 4 3.776v8.966a3.867 3.867 0 0 1-3.791 3.758z" transform="translate(-0.281) translate(4.281 5)"/>
    </g>
</svg>
