<svg xmlns="http://www.w3.org/2000/svg" width="296" height="296" viewBox="0 0 296 296">
    <defs>
        <style>
            .cls-1{fill:#fff}.cls-2,.cls-24{fill:#f6f7f9}.cls-8{fill:#fffefd}.cls-10{fill:#a8e6fc}.cls-11{fill:#2a246e}.cls-12{fill:#f29785}.cls-14{fill:#9fe0f8}.cls-15{fill:#92d6f3}.cls-17{fill:#eec601}.cls-18{fill:#ff6158;opacity:.85}.cls-21{fill:#b4bac1}.cls-21,.cls-23,.cls-24,.cls-25{fill-rule:evenodd}.cls-23{fill:#99a2aa}.cls-25{fill:#d3d3d3}
        </style>
    </defs>
    <g id="그룹_4082" transform="translate(-812 -652)">
        <path id="사각형_5556" d="M0 0H296V296H0z" class="cls-1" transform="translate(812 652)"/>
        <g id="그룹_4080" transform="translate(-1799 -483.085)">
            <path id="패스_4473" d="M2892.283 1322.417c0-25.063-20.822-45.766-47.813-48.993-1.736-25.9-25.729-46.424-55.076-46.424-25.42 0-46.822 15.4-53.224 36.351a88.171 88.171 0 0 0-37.6-8.186c-40.634 0-73.574 26.121-73.574 58.342 0 18.007 10.29 34.107 26.459 44.809 22.124 18.72 64.02 31.353 112.068 31.353 71.11 0 128.756-27.665 128.756-61.791 0-.81-.043-1.615-.107-2.417.072-1.007.111-2.022.111-3.044z" class="cls-2" transform="translate(0 -15.556)"/>
            <path id="패스_4474" fill="#cae8f6" d="M2701.9 1452.279a12.782 12.782 0 0 0-11.078 6.588c-.434-4.773-2.06-9.746-5.7-13.038a21.39 21.39 0 0 0-16.577-5.169 26.258 26.258 0 0 0-13.885 6.692 25.011 25.011 0 0 0-2.243 2.342c-.635.755-1.849 2.5-1.849 2.5s-.031.025-.081.058a12.94 12.94 0 0 0-5.6-1.273c-7.454 0-13.5 6.321-13.5 14.12s6.043 14.12 13.5 14.12c.3 0 .6-.014.895-.034.068.013.137.027.206.034a63.593 63.593 0 0 0 6.662 0h48.156c.17 0 .336-.009.5-.016.2.009.391.016.589.016 7.117 0 12.886-6.031 12.886-13.47s-5.76-13.47-12.881-13.47z" transform="translate(-2.556 -100.904)"/>
            <path id="패스_4475" fill="#006abb" d="M2733.067 1246.326c.126-.106.357-.274.386-.388.057-.217-.509-.73-.664-.915l-.1-.115c-2.513-8.007-10.944-13.9-20.964-13.9-10.238 0-18.817 6.148-21.12 14.422a24.013 24.013 0 0 0-1.422 7.149.255.255 0 0 1-.473.123c-.052-.085-.107-.167-.16-.251-1.861-4.717-5.849-7.977-10.47-7.977-6.4 0-11.59 6.256-11.59 13.973 0 7.312 4.659 13.309 10.593 13.919a3.194 3.194 0 0 0 .826.218 105.232 105.232 0 0 0 14.917.765q3.528-.011 7.056-.15 1.99-.076 3.979-.186a5.206 5.206 0 0 0 2.141-.253l4.331-2.315a3.1 3.1 0 0 0 .825-.632c.313-.342.6-.719.89-1.078 11.854-.15 21.412-8.534 21.412-18.861a16.515 16.515 0 0 0-.393-3.548z" transform="translate(-16.585 -17.16)"/>
            <rect id="사각형_5549" width="24.964" height=".803" class="cls-1" rx=".402" transform="translate(2766.209 1262.253) rotate(-33.814)"/>
            <path id="패스_4476" d="M3010.4 1201.59a6.4 6.4 0 0 0-5.553 3.319 9.906 9.906 0 0 0-2.853-6.55 10.716 10.716 0 0 0-8.3-2.59 13.16 13.16 0 0 0-6.956 3.352 12.584 12.584 0 0 0-1.123 1.174c-.318.378-.926 1.252-.926 1.252s-.018.014-.046.032a6.472 6.472 0 0 0-2.8-.641 7.081 7.081 0 0 0 0 14.147c.151 0 .3-.013.446-.023.035.007.071.02.106.023a31.894 31.894 0 0 0 3.337 0h24.124c.086 0 .167-.012.252-.016s.2.016.3.016a6.754 6.754 0 0 0 0-13.495z" class="cls-2" transform="translate(-139.941 -3.041)"/>
            <g id="그룹_4077" transform="translate(2688.158 1188.085)">
                <g id="그룹_4074" transform="translate(125.802)">
                    <path id="패스_4477" fill="#a27e4b" d="M2962.967 1220.218l-.279-.6-1.411.731.3.538a1.287 1.287 0 0 0-.273.641.365.365 0 0 0 .03.2l5.354 11.622a.77.77 0 0 0 .684.53l1.486-.572a1.086 1.086 0 0 0 .3-.851l-5.387-11.737a.873.873 0 0 0-.094-.121.939.939 0 0 0-.361-.244z" transform="translate(-2948.385 -1200.688)"/>
                    <ellipse id="타원_1268" cx="8.851" cy="8.716" fill="#413d43" rx="8.851" ry="8.716" transform="translate(0 17.411) rotate(-79.599)"/>
                    <g id="그룹_4073" transform="translate(1.407 1.422)">
                        <ellipse id="타원_1269" cx="7.626" cy="7.51" fill="#c8e3f6" rx="7.626" ry="7.51" transform="translate(0 15.002) rotate(-79.599)"/>
                        <path id="패스_4478" d="M2965.443 1199.078a5.045 5.045 0 0 0-.924-1.585 5.779 5.779 0 0 0-1.2-1.136s-.027-.016-.031-.011c-.4.467-.754.9-1.128 1.339 0 .005-.023.019-.018.022a2.628 2.628 0 0 1 1.076 1.017 4.428 4.428 0 0 1 .488.906z" class="cls-8" transform="translate(-2950.14 -1192.809)"/>
                        <path id="패스_4479" d="M2961.232 1194.89a6.758 6.758 0 0 0-1.26-.627 8.211 8.211 0 0 0-1.011-.315c-.268 1.035-.41 1.678-.41 1.678a8.333 8.333 0 0 1 1.655.726c.494-.713 1.026-1.462 1.026-1.462z" class="cls-8" transform="translate(-2948.702 -1191.851)"/>
                    </g>
                    <path id="패스_4480" fill="#3f3e40" d="M2962.565 1218.418a.4.4 0 0 1-.04.2 1.8 1.8 0 0 1-.781.656 2.825 2.825 0 0 1-.942.322c-.3.02-.612-.318-.746-.57-.074-.138-.136-.284-.2-.429a.3.3 0 0 1 .146-.39l1.483-.7.447-.212c.038-.018.172-.112.218-.1s.148.3.176.366a3.7 3.7 0 0 1 .167.5 3.207 3.207 0 0 1 .072.357z" transform="translate(-2947.809 -1199.72)"/>
                    <path id="패스_4481" d="M2963.211 1219.219l.149-.061a.217.217 0 0 0 .12-.28l-.06-.152a.211.211 0 0 0-.275-.12l-.149.061a.217.217 0 0 0-.12.28l.06.151a.209.209 0 0 0 .275.121z" class="cls-1" transform="translate(-2949.019 -1200.28)"/>
                </g>
                <path id="패스_4482" d="M2730.218 1267.225l28.224-16.807 5.99 3.4v44.819h-5.99l-28.224 15.006z" class="cls-10" transform="translate(-2730.218 -1213.002)"/>
                <path id="사각형_5550" d="M0 0H44.734V48.208H0z" class="cls-11" transform="translate(28.247 37.416)"/>
                <g id="그룹_4076" transform="translate(28.247 7.782)">
                    <path id="패스_4483" d="M2891.584 1219.631c1.077 1.641 2.264 3.214 3.458 4.771.483.63 1.2 1.034 1.687 1.69a1.35 1.35 0 0 1-.211 1.8c-.358.441-1.024.7-1.094 1.271a21.806 21.806 0 0 0-.115 2.419c-.01.9 0 1.793.018 2.689.011.505-.056 1.062-.1 1.566a5.04 5.04 0 0 1-1.067 2.4 5.186 5.186 0 0 1-1.585 1.6 8.848 8.848 0 0 1-2.546.828 18.248 18.248 0 0 1-2.541.175c-.368 0-.3 0-.484.4l-.558 1.229a1.289 1.289 0 0 1-.236.418 10.32 10.32 0 0 1-1.573 1.056 6.642 6.642 0 0 1-1.337.9 6.323 6.323 0 0 1-1.654 0c-.466 0-.73.1-1.047-.224a10.335 10.335 0 0 1-2.086-2.343 27.532 27.532 0 0 0-1.6-2.914 5.478 5.478 0 0 1-.845-1.323 4.727 4.727 0 0 1 .02-1.463c.062-.678.164-1.354.246-2.03.053-.435-.168-.651-.4-1.035l-.538-.9a3.768 3.768 0 0 1-.463-.776 3.039 3.039 0 0 1 .157-1.083l.386-2.151c.069-.384.031-.435.355-.623 1.13-.657 2.256-1.322 3.392-1.971.833-.475 1.684-.92 2.527-1.377a22.708 22.708 0 0 1 2.508-1.325 31.737 31.737 0 0 0 5.933-2.648c.491-.309.936-.686 1.393-1.026z" class="cls-12" transform="translate(-2816.311 -1208.478)"/>
                    <g id="그룹_4075" transform="translate(0 15.201)">
                        <path id="패스_4484" d="M2940.7 1273.1c1.8-7.773 5.581-25.443 6.4-29.264a7.126 7.126 0 0 0 .157-1.492v-8.207a2.95 2.95 0 0 0-.045-.486 5.919 5.919 0 0 1 1.441-5.47.732.732 0 0 1 .279-.166 11.655 11.655 0 0 1 3.85-.421.446.446 0 0 0 .438-.3 1.371 1.371 0 0 1 1.523-.914.682.682 0 0 1 .325.119 4.075 4.075 0 0 1 1.145 1.208.4.4 0 0 0 .424.17c.766-.139 1.6.934 1.6.934a1.931 1.931 0 0 0 .775 1.229.774.774 0 0 0 .649.165 1.551 1.551 0 0 1 1.3.594.683.683 0 0 1 .112.783 16.35 16.35 0 0 1-2.837 3.231c-.78.84-.6 1.393-.5 1.58a.4.4 0 0 1 .052.216c-.05.825-1.49 1.533-1.96 1.743a.227.227 0 0 0-.137.222c.7 11.344-1.388 31.152-1.528 32.462 0 .047-.011.092-.02.138a90.253 90.253 0 0 1-6.476 20.788 2.384 2.384 0 0 1-1.351 1.264c-1.741.608-4.166-.413-4.166-.413-5.4-3-9.7-10.2-9.7-10.2l3.8-14.306c.862 2.328 3.507 4.358 4.222 4.875a.146.146 0 0 0 .228-.082z" class="cls-12" transform="translate(-2839.306 -1226.375)"/>
                        <path id="패스_4485" d="M2777.277 1269.673c5.8 1.4 14.006 1.1 14.006 1.1a89.925 89.925 0 0 0 10.5-1.1l5.9 12.805c-17.908.4-30.413-3.2-30.413-3.2z" class="cls-12" transform="translate(-2777.277 -1243.683)"/>
                        <path id="패스_4486" fill="#006cba" d="M2858.875 1257.941a27.429 27.429 0 0 0 6.135-3.618.65.65 0 0 1 .543-.122c5.562 1.261 13.122 6.242 13.436 6.45l.023.016c6.132 4.593 11.348 12.933 11.809 13.907a.965.965 0 0 1 .074.18c1.2 5.041-.855 10.961-1.008 11.389a.43.43 0 0 1-.02.048c-1.478 3.1-3.494 6.63-4.317 8.048a.662.662 0 0 1-.968.2 71.028 71.028 0 0 1-9.067-8.4.662.662 0 0 0-1.105.2 50.9 50.9 0 0 1-6.589 11.225.664.664 0 0 1-.527.257h-34.844a.669.669 0 0 1-.651-.5c-1.193-4.672 1.477-18.149 2.249-21.834a.664.664 0 0 0-.746-.79 20.449 20.449 0 0 1-5.053.062.629.629 0 0 1-.162-.043c-6.628-2.679-8.625-11.619-9-13.684a.673.673 0 0 1 .287-.673c12.233-8.353 17.173-11.074 17.931-11.479a.619.619 0 0 1 .223-.07 96.276 96.276 0 0 1 14.212-.327.66.66 0 0 1 .6.487 16.489 16.489 0 0 0 3.027 6.169 9.456 9.456 0 0 0 2.967 2.852.653.653 0 0 0 .541.05z" transform="translate(-2793.985 -1235.126)"/>
                        <path id="패스_4487" d="M2934.75 1291.827a18.827 18.827 0 0 1 2.747 3.683 5.009 5.009 0 0 1 .539 2.573 20.82 20.82 0 0 1-2.87 10.588 31.947 31.947 0 0 1-4.369 5.446.378.378 0 0 1-.435.062 4.112 4.112 0 0 1-1.8-2.025.362.362 0 0 1 .074-.388 30.674 30.674 0 0 0 4.721-7.7 4.931 4.931 0 0 0 .264-.762 38.121 38.121 0 0 0 .888-11.362.144.144 0 0 1 .241-.115z" class="cls-10" transform="translate(-2837.741 -1252.523)"/>
                        <path id="패스_4488" d="M2813.568 1269.029a6.56 6.56 0 0 1 3.584-.949.229.229 0 0 1 .212.2c1.359 7.255 3.867 9.6 3.867 9.6 2.3 2.244 4.607 4.13 5.235 4.636a.105.105 0 0 1-.048.182 7.578 7.578 0 0 1-4.812-.706c-5.255-3.814-7.822-11.975-8.082-12.838a.107.107 0 0 1 .044-.125z" class="cls-14" transform="translate(-2791.765 -1243.046)"/>
                        <circle id="타원_1270" cx="1.638" cy="1.638" r="1.638" class="cls-14" transform="translate(56.311 27.952)"/>
                        <circle id="타원_1271" cx="1.272" cy="1.272" r="1.272" class="cls-14" transform="translate(54.623 35.325)"/>
                        <path id="패스_4489" d="M2873.819 1248.568c1.452-.05 2.96 1.81 2.96 1.81a18.806 18.806 0 0 1 3.575 5.581c1.9.251 5.195-1.257 5.195-1.257a3.311 3.311 0 0 1 1.82-.4c.391.754-.759 1.681-.759 1.681a17.984 17.984 0 0 1-5.194 2.687 69.292 69.292 0 0 1-4.378 15.288.164.164 0 0 1-.313-.091c1-5.469 2.345-13.99 2.345-13.99.335-2.514-1.666-4.369-1.564-4.375 0 0-2.834-3.667-3.2-4.023a.7.7 0 0 1-.188-.321 17.076 17.076 0 0 1-.299-2.59z" class="cls-10" transform="translate(-2815.869 -1235.246)"/>
                        <path id="패스_4490" d="M2842.587 1273.565a56.317 56.317 0 0 1 3-13.664c3.194-6.731 5.534-8.648 5.992-8.977.021-.015.04.016.025.04-4.942 8.321-6.907 18.947-6.918 19.007a12.845 12.845 0 0 1-2.059 3.613c-.016.021-.043.007-.04-.019z" class="cls-15" transform="translate(-2803.384 -1236.187)"/>
                        <path id="패스_4491" d="M2912.092 1278.557c.013-.184.192-.244.261-.087 1.012 2.3.819 8.666.819 8.666 0 4.429-.6 6.494-.89 7.237-.059.149-.222.128-.259-.033-.717-3.14-.09-13.396.069-15.783z" class="cls-15" transform="translate(-2831.007 -1247.164)"/>
                    </g>
                    <path id="패스_4492" fill="#142d3e" d="M2866.916 1227.242a1.507 1.507 0 0 1-.48-1.315 8.5 8.5 0 0 1 1.489-3.861c.352-.483 1.08-.562 1.619-.752a40.424 40.424 0 0 1 6.6-2.038 16.659 16.659 0 0 0 3.9-1.182l3.056-1.336c.87-.381 1.752-.869 2.657-1.161a7.3 7.3 0 0 1 .958-.183c.217-.039 1.248-.382 1.424-.255.21.151.142 1.272.145 1.512.006.391-.007.783-.034 1.174a1.952 1.952 0 0 1-1.062 1.613 2.36 2.36 0 0 0-.223.124c-.629.416-1.162.936-1.761 1.384a5.338 5.338 0 0 1-2.007.757c-1.322.3-2.817.222-3.979 1.014-.783.534-.925 1.367-1.57 1.987a6.755 6.755 0 0 1-3.747 1.448 4.183 4.183 0 0 0-1 .1c-.573.267-.757 1.308-.813 1.857a3.5 3.5 0 0 0 1.294 3.441c.319.25.823.367 1.076.658.475.547.121 1.66-.089 2.241a2.9 2.9 0 0 1-.324.759c-.181.226-.359.189-.682.172a4.537 4.537 0 0 1-2.316-.875 7.206 7.206 0 0 1-2.239-2.468 10.783 10.783 0 0 1-.9-2.544 8.283 8.283 0 0 0-.322-1.383 2.634 2.634 0 0 0-.67-.888z" transform="translate(-2812.913 -1206.679)"/>
                    <path id="패스_4493" d="M2861.917 1217.439c-3.887-13.815 10.013-20.657 20.113-13.539a.585.585 0 0 1 0 .966l-19.189 12.922a.608.608 0 0 1-.924-.349z" class="cls-17" transform="translate(-2810.844 -1201.05)"/>
                    <path id="패스_4494" d="M2864.167 1221.142l20.163-13.381a.227.227 0 0 1 .126-.038h10.809a.541.541 0 0 1 .4.927c-4.966 4.742-25.734 11.2-31.321 12.884a.217.217 0 0 1-.177-.392z" class="cls-17" transform="translate(-2811.971 -1203.717)"/>
                    <circle id="타원_1272" cx="3.001" cy="3.001" r="3.001" class="cls-18" transform="translate(66.445 17.826)"/>
                    <ellipse id="타원_1273" cx=".556" cy="1.142" class="cls-18" rx=".556" ry="1.142" transform="translate(59.388 22.371)"/>
                    <circle id="타원_1274" cx="1.05" cy="1.05" r="1.05" fill="#303a49" transform="translate(71.597 15.092)"/>
                </g>
            </g>
            <g id="그룹_4078" transform="translate(2824.859 1309.535)">
                <path id="패스_4495" fill="#ffc900" d="M2982.82 1437.723a.112.112 0 0 0-.112-.112h-4.789a.112.112 0 0 0-.112.113l.139 22.433a5.579 5.579 0 0 0-1.859.876 5.309 5.309 0 0 0-1.983 2.654c-.661.391-1.163.823-1.228 1.261a.12.12 0 0 0 .045.1 7.452 7.452 0 0 1 1.322 1.319 3.005 3.005 0 0 0 .246.414c1.205 1.676 3.875 1.817 5.963.315a5.143 5.143 0 0 0 2.129-3.25 4.3 4.3 0 0 0 .239-1.172z" transform="translate(-2963.92 -1409.282)"/>
                <path id="패스_4496" d="M2969.905 1437.808a.2.2 0 0 0-.2-.2h-4.792a.2.2 0 0 0-.2.2l.147 22.949a6.632 6.632 0 0 0-1.1.251 5.405 5.405 0 0 0-3.575 3.16.955.955 0 0 0-.116.48 2.774 2.774 0 0 0 .082 1.319c.61 1.9 3.216 2.771 5.82 1.936 2.26-.724 3.773-2.493 3.735-4.192a4.128 4.128 0 0 0 .2-1.033z" class="cls-10" transform="translate(-2958.786 -1409.282)"/>
                <path id="사각형_5551" d="M0 0H24.636V32.887H0z" class="cls-1" transform="translate(0 0)"/>
                <path id="사각형_5552" d="M0 0H16.188V2.043H0z" class="cls-11" transform="translate(3.025 4.479)"/>
                <path id="사각형_5553" d="M0 0H16.188V2.043H0z" class="cls-11" transform="translate(3.025 8.487)"/>
                <path id="사각형_5554" d="M0 0H16.188V2.043H0z" class="cls-11" transform="translate(3.025 12.495)"/>
                <path id="사각형_5555" d="M0 0H16.188V2.043H0z" class="cls-11" transform="translate(2.917 16.395)"/>
            </g>
            <g id="그룹_4079" transform="translate(2687.427 1287.076)">
                <path id="패스_4497" d="M2776.781 1403.061h-24.375c-1.127 21.526-5.135 35.962-10.664 46.654h45.7c-5.526-10.692-9.533-25.128-10.661-46.654z" class="cls-21" transform="translate(-2734.094 -1373.012)"/>
                <path id="패스_4498" fill="#2a276a" fill-rule="evenodd" d="M2861.442 1480.785h-130.008a2.456 2.456 0 0 0-2.434 2.465 2.457 2.457 0 0 0 2.434 2.466h130.008a2.457 2.457 0 0 0 2.434-2.466 2.457 2.457 0 0 0-2.434-2.465z" transform="translate(-2729 -1404.082)"/>
                <path id="패스_4499" d="M2759.946 1403.061h-7.54c-1.127 21.526-5.135 35.962-10.664 46.654h14.135c2.11-10.692 3.64-25.128 4.069-46.654z" class="cls-23" transform="translate(-2734.094 -1373.012)"/>
                <path id="패스_4500" d="M2783.464 1413.847H2758.2q-.351 4.12-.851 7.871h26.963q-.495-3.755-.848-7.871z" class="cls-24" transform="translate(-2740.333 -1377.323)"/>
                <path id="패스_4501" d="M2758.2 1413.847l-.055.641-.011.128-.012.128-.011.127-.046.508-.013.127-.011.126-.012.126-.059.6v.028l-.012.125-.012.125-.064.616v.005l-.013.124-.013.123-.013.124-.053.492-.014.122-.013.122-.014.122-.07.608-.014.121-.014.121c-.023.2-.046.389-.07.583v.019l-.014.119-.015.119-.015.12-.058.461v.015l-.015.119-.015.118-.016.118-.061.471-.016.118h8.34q.19-3.755.325-7.871z" class="cls-25" transform="translate(-2740.333 -1377.323)"/>
                <path id="패스_4502" fill="#fff" fill-rule="evenodd" d="M2813.77 1460.187h-5.187a7.569 7.569 0 0 0-7.558 7.558v4.806h4.8v-4.806a2.77 2.77 0 0 1 2.76-2.76h5.187z" transform="translate(-2757.792 -1395.848)"/>
                <path id="패스_4503" d="M2870.605 1353h-40.073c-1.854 35.39-8.442 59.126-17.532 76.7h75.137c-9.09-17.574-15.677-41.31-17.532-76.7z" class="cls-21" transform="translate(-2762.579 -1353)"/>
                <path id="패스_4504" d="M2842.927 1353h-12.4c-1.854 35.39-8.442 59.126-17.532 76.7h23.24c3.472-17.574 5.985-41.31 6.692-76.7z" class="cls-23" transform="translate(-2762.579 -1353)"/>
                <path id="패스_4505" d="M2881.592 1370.733h-41.531q-.576 6.774-1.4 12.941h44.331q-.82-6.174-1.4-12.941z" class="cls-24" transform="translate(-2772.837 -1360.089)"/>
                <path id="패스_4506" d="M2852.372 1383.674h-13.71c.034-.254.064-.515.1-.77q.125-.957.244-1.927c.042-.34.082-.683.122-1.026q.124-1.048.241-2.111l.107-.984q.117-1.1.227-2.216l.094-.969q.109-1.146.21-2.313c.019-.209.039-.413.056-.624h12.846q-.222 6.773-.537 12.94z" class="cls-25" transform="translate(-2772.837 -1360.089)"/>
            </g>
        </g>
    </g>
</svg>
