<svg xmlns="http://www.w3.org/2000/svg" id="_Glyphs_Tab_Bar_Favorite" width="45.536" height="42.501" viewBox="0 0 45.536 42.501">
    <defs>
        <clipPath id="clip-path">
            <path id="Icon" d="M43.876 15.7a1.579 1.579 0 0 0-1.52-1.112l-14.379-.038L23.444 1.1A1.547 1.547 0 0 0 21.91 0a1.578 1.578 0 0 0-1.51 1.126L16.157 14.55 1.6 14.586A1.58 1.58 0 0 0 .084 15.7a1.6 1.6 0 0 0 .571 1.8l11.388 8.474-4.467 14.244a1.623 1.623 0 0 0 1.53 2.113 1.575 1.575 0 0 0 .928-.306l12.006-8.538 11.886 8.532a1.563 1.563 0 0 0 1.876 0 1.6 1.6 0 0 0 .589-1.8l-4.473-14.243L43.3 17.5a1.6 1.6 0 0 0 .572-1.805" class="cls-1" transform="translate(0 0)"/>
        </clipPath>
        <style>
            .cls-1{fill:#0933b3}
        </style>
    </defs>
    <path id="Icon-2" d="M45.45 15.761a1.632 1.632 0 0 0-1.575-1.116l-14.895-.037L24.285 1.1A1.6 1.6 0 0 0 22.7 0a1.629 1.629 0 0 0-1.563 1.13l-4.4 13.477-15.075.037a1.632 1.632 0 0 0-1.575 1.115 1.576 1.576 0 0 0 .591 1.813l11.8 8.508-4.627 14.3a1.579 1.579 0 0 0 .608 1.806 1.694 1.694 0 0 0 .977.316 1.667 1.667 0 0 0 .961-.307l12.437-8.573 12.313 8.566a1.66 1.66 0 0 0 1.943 0 1.579 1.579 0 0 0 .61-1.8l-4.634-14.3 11.795-8.506a1.58 1.58 0 0 0 .593-1.813" class="cls-1" transform="translate(0 0)"/>
</svg>
