<svg xmlns="http://www.w3.org/2000/svg" width="21" height="19" viewBox="0 0 21 19">
    <g>
        <path fill="none" d="M0 0H21V19H0z" transform="translate(-1060 -397) translate(1060 397)"/>
        <path fill="#767676" stroke="rgba(0,0,0,0)" d="M1.813-7.422H.328a.278.278 0 0 0-.312.3q0 .313.3.313h1.637L3.594-.25q.141.531.563.531.437 0 .609-.547l1.765-6.546h1.61l1.75 6.531q.156.563.594.563.453 0 .594-.562l1.641-6.531h1.609a.292.292 0 0 0 .328-.312q0-.3-.328-.3h-1.47l.922-3.672a.566.566 0 0 0-.047-.437.5.5 0 0 0-.3-.2.516.516 0 0 0-.375.047.5.5 0 0 0-.234.359l-.984 3.906H9.016l-1.047-3.814a.617.617 0 0 0-.641-.516.617.617 0 0 0-.641.516L5.656-7.422H2.844l-1-3.953a.477.477 0 0 0-.25-.312.482.482 0 0 0-.359-.047.4.4 0 0 0-.3.188.518.518 0 0 0-.047.453zm5.515-2.359l.641 2.359H6.688zM2.984-6.812H5.5l-1.3 4.75zm6.188 0h2.516l-1.2 4.75z" transform="translate(-1060 -397) translate(1063 413)"/>
        <path fill="none" stroke="#767676" stroke-linecap="round" d="M0 0L15 0" transform="translate(-1060 -397) translate(1063 406)"/>
    </g>
</svg>
