<svg xmlns="http://www.w3.org/2000/svg" width="21" height="19" viewBox="0 0 21 19">
    <defs>
        <style>
            .cls-1{fill:none}.cls-1,.cls-4{stroke:#767676;stroke-linecap:round}.cls-1{stroke-miterlimit:10}.cls-4{stroke-linejoin:round}
        </style>
    </defs>
    <g id="그룹_5877" transform="translate(-838 -396)">
        <g id="그룹_5782" transform="translate(842 398)">
            <g id="그룹_5778" transform="translate(0 0)">
                <g id="그룹_4948" transform="translate(3.721 0)">
                    <path id="패스_5510" d="M1097.7-38.558c.04-1.816-3.1-1.747-3.12 0" class="cls-1" transform="translate(-1094.571 39.895)"/>
                    <path id="패스_5511" d="M1097.432 115.465c0 1.808-3.12 1.776-3.12 0" class="cls-1" transform="translate(-1094.313 -110.443)"/>
                    <path id="선_2002" fill="none" stroke="#767676" stroke-miterlimit="10" d="M0.009 0L0 3.858" transform="translate(0 1.21)"/>
                </g>
                <path id="사각형_6152" fill="none" stroke="#767676" stroke-linecap="round" stroke-linejoin="round" d="M0 0H12.479V13.698H0z" transform="translate(0 1.9)"/>
                <path id="선_2003" d="M0 0L6.251 0" class="cls-4" transform="translate(2.965 9.235)"/>
                <path id="선_2004" d="M0 0L6.251 0" class="cls-4" transform="translate(2.965 11.985)"/>
            </g>
        </g>
        <path id="사각형_6932" fill="none" d="M0 0H21V19H0z" transform="translate(838 396)"/>
    </g>
</svg>
